G04 #@! TF.GenerationSoftware,KiCad,Pcbnew,(5.1.4)-1*
G04 #@! TF.CreationDate,2021-12-07T11:14:46-05:00*
G04 #@! TF.ProjectId,PowerBoard,506f7765-7242-46f6-9172-642e6b696361,rev?*
G04 #@! TF.SameCoordinates,Original*
G04 #@! TF.FileFunction,Soldermask,Bot*
G04 #@! TF.FilePolarity,Negative*
%FSLAX46Y46*%
G04 Gerber Fmt 4.6, Leading zero omitted, Abs format (unit mm)*
G04 Created by KiCad (PCBNEW (5.1.4)-1) date 2021-12-07 11:14:46*
%MOMM*%
%LPD*%
G04 APERTURE LIST*
%ADD10C,0.100000*%
G04 APERTURE END LIST*
D10*
G36*
X123657022Y-121700590D02*
G01*
X123722511Y-121720456D01*
X123808012Y-121746392D01*
X123913193Y-121802613D01*
X123947164Y-121820771D01*
X124069133Y-121920867D01*
X124169229Y-122042835D01*
X124243608Y-122181987D01*
X124258875Y-122232318D01*
X124289410Y-122332977D01*
X124301000Y-122450655D01*
X124301000Y-123049345D01*
X124289410Y-123167023D01*
X124258875Y-123267682D01*
X124243608Y-123318013D01*
X124169229Y-123457165D01*
X124069133Y-123579133D01*
X123947165Y-123679229D01*
X123808013Y-123753608D01*
X123757682Y-123768875D01*
X123657023Y-123799410D01*
X123500000Y-123814875D01*
X123342978Y-123799410D01*
X123242319Y-123768875D01*
X123191988Y-123753608D01*
X123052836Y-123679229D01*
X122930868Y-123579133D01*
X122902035Y-123544000D01*
X122830772Y-123457165D01*
X122756392Y-123318013D01*
X122741125Y-123267682D01*
X122710590Y-123167023D01*
X122699000Y-123049345D01*
X122699000Y-122450656D01*
X122710590Y-122332978D01*
X122756392Y-122181989D01*
X122756392Y-122181988D01*
X122830771Y-122042836D01*
X122830772Y-122042835D01*
X122930867Y-121920867D01*
X123052835Y-121820771D01*
X123086806Y-121802613D01*
X123191987Y-121746392D01*
X123277488Y-121720456D01*
X123342977Y-121700590D01*
X123500000Y-121685125D01*
X123657022Y-121700590D01*
X123657022Y-121700590D01*
G37*
G36*
X126657022Y-121700590D02*
G01*
X126722511Y-121720456D01*
X126808012Y-121746392D01*
X126913193Y-121802613D01*
X126947164Y-121820771D01*
X127069133Y-121920867D01*
X127169229Y-122042835D01*
X127243608Y-122181987D01*
X127258875Y-122232318D01*
X127289410Y-122332977D01*
X127301000Y-122450655D01*
X127301000Y-123049345D01*
X127289410Y-123167023D01*
X127258875Y-123267682D01*
X127243608Y-123318013D01*
X127169229Y-123457165D01*
X127069133Y-123579133D01*
X126947165Y-123679229D01*
X126808013Y-123753608D01*
X126757682Y-123768875D01*
X126657023Y-123799410D01*
X126500000Y-123814875D01*
X126342978Y-123799410D01*
X126242319Y-123768875D01*
X126191988Y-123753608D01*
X126052836Y-123679229D01*
X125930868Y-123579133D01*
X125902035Y-123544000D01*
X125830772Y-123457165D01*
X125756392Y-123318013D01*
X125741125Y-123267682D01*
X125710590Y-123167023D01*
X125699000Y-123049345D01*
X125699000Y-122450656D01*
X125710590Y-122332978D01*
X125756392Y-122181989D01*
X125756392Y-122181988D01*
X125830771Y-122042836D01*
X125830772Y-122042835D01*
X125930867Y-121920867D01*
X126052835Y-121820771D01*
X126086806Y-121802613D01*
X126191987Y-121746392D01*
X126277488Y-121720456D01*
X126342977Y-121700590D01*
X126500000Y-121685125D01*
X126657022Y-121700590D01*
X126657022Y-121700590D01*
G37*
G36*
X129657022Y-121700590D02*
G01*
X129722511Y-121720456D01*
X129808012Y-121746392D01*
X129913193Y-121802613D01*
X129947164Y-121820771D01*
X130069133Y-121920867D01*
X130169229Y-122042835D01*
X130243608Y-122181987D01*
X130258875Y-122232318D01*
X130289410Y-122332977D01*
X130301000Y-122450655D01*
X130301000Y-123049345D01*
X130289410Y-123167023D01*
X130258875Y-123267682D01*
X130243608Y-123318013D01*
X130169229Y-123457165D01*
X130069133Y-123579133D01*
X129947165Y-123679229D01*
X129808013Y-123753608D01*
X129757682Y-123768875D01*
X129657023Y-123799410D01*
X129500000Y-123814875D01*
X129342978Y-123799410D01*
X129242319Y-123768875D01*
X129191988Y-123753608D01*
X129052836Y-123679229D01*
X128930868Y-123579133D01*
X128902035Y-123544000D01*
X128830772Y-123457165D01*
X128756392Y-123318013D01*
X128741125Y-123267682D01*
X128710590Y-123167023D01*
X128699000Y-123049345D01*
X128699000Y-122450656D01*
X128710590Y-122332978D01*
X128756392Y-122181989D01*
X128756392Y-122181988D01*
X128830771Y-122042836D01*
X128830772Y-122042835D01*
X128930867Y-121920867D01*
X129052835Y-121820771D01*
X129086806Y-121802613D01*
X129191987Y-121746392D01*
X129277488Y-121720456D01*
X129342977Y-121700590D01*
X129500000Y-121685125D01*
X129657022Y-121700590D01*
X129657022Y-121700590D01*
G37*
G36*
X132657022Y-121700590D02*
G01*
X132722511Y-121720456D01*
X132808012Y-121746392D01*
X132913193Y-121802613D01*
X132947164Y-121820771D01*
X133069133Y-121920867D01*
X133169229Y-122042835D01*
X133243608Y-122181987D01*
X133258875Y-122232318D01*
X133289410Y-122332977D01*
X133301000Y-122450655D01*
X133301000Y-123049345D01*
X133289410Y-123167023D01*
X133258875Y-123267682D01*
X133243608Y-123318013D01*
X133169229Y-123457165D01*
X133069133Y-123579133D01*
X132947165Y-123679229D01*
X132808013Y-123753608D01*
X132757682Y-123768875D01*
X132657023Y-123799410D01*
X132500000Y-123814875D01*
X132342978Y-123799410D01*
X132242319Y-123768875D01*
X132191988Y-123753608D01*
X132052836Y-123679229D01*
X131930868Y-123579133D01*
X131902035Y-123544000D01*
X131830772Y-123457165D01*
X131756392Y-123318013D01*
X131741125Y-123267682D01*
X131710590Y-123167023D01*
X131699000Y-123049345D01*
X131699000Y-122450656D01*
X131710590Y-122332978D01*
X131756392Y-122181989D01*
X131756392Y-122181988D01*
X131830771Y-122042836D01*
X131830772Y-122042835D01*
X131930867Y-121920867D01*
X132052835Y-121820771D01*
X132086806Y-121802613D01*
X132191987Y-121746392D01*
X132277488Y-121720456D01*
X132342977Y-121700590D01*
X132500000Y-121685125D01*
X132657022Y-121700590D01*
X132657022Y-121700590D01*
G37*
G36*
X135657022Y-121700590D02*
G01*
X135722511Y-121720456D01*
X135808012Y-121746392D01*
X135913193Y-121802613D01*
X135947164Y-121820771D01*
X136069133Y-121920867D01*
X136169229Y-122042835D01*
X136243608Y-122181987D01*
X136258875Y-122232318D01*
X136289410Y-122332977D01*
X136301000Y-122450655D01*
X136301000Y-123049345D01*
X136289410Y-123167023D01*
X136258875Y-123267682D01*
X136243608Y-123318013D01*
X136169229Y-123457165D01*
X136069133Y-123579133D01*
X135947165Y-123679229D01*
X135808013Y-123753608D01*
X135757682Y-123768875D01*
X135657023Y-123799410D01*
X135500000Y-123814875D01*
X135342978Y-123799410D01*
X135242319Y-123768875D01*
X135191988Y-123753608D01*
X135052836Y-123679229D01*
X134930868Y-123579133D01*
X134902035Y-123544000D01*
X134830772Y-123457165D01*
X134793582Y-123387588D01*
X134756392Y-123318013D01*
X134741125Y-123267682D01*
X134710590Y-123167023D01*
X134699000Y-123049345D01*
X134699000Y-122450656D01*
X134710590Y-122332978D01*
X134756392Y-122181989D01*
X134756392Y-122181988D01*
X134830771Y-122042836D01*
X134830772Y-122042835D01*
X134930867Y-121920867D01*
X135052835Y-121820771D01*
X135086806Y-121802613D01*
X135191987Y-121746392D01*
X135277488Y-121720456D01*
X135342977Y-121700590D01*
X135500000Y-121685125D01*
X135657022Y-121700590D01*
X135657022Y-121700590D01*
G37*
G36*
X141657022Y-121700590D02*
G01*
X141722511Y-121720456D01*
X141808012Y-121746392D01*
X141913193Y-121802613D01*
X141947164Y-121820771D01*
X142069133Y-121920867D01*
X142169229Y-122042835D01*
X142243608Y-122181987D01*
X142258875Y-122232318D01*
X142289410Y-122332977D01*
X142301000Y-122450655D01*
X142301000Y-123049345D01*
X142289410Y-123167023D01*
X142258875Y-123267682D01*
X142243608Y-123318013D01*
X142169229Y-123457165D01*
X142069133Y-123579133D01*
X141947165Y-123679229D01*
X141808013Y-123753608D01*
X141757682Y-123768875D01*
X141657023Y-123799410D01*
X141500000Y-123814875D01*
X141342978Y-123799410D01*
X141242319Y-123768875D01*
X141191988Y-123753608D01*
X141052836Y-123679229D01*
X140930868Y-123579133D01*
X140902035Y-123544000D01*
X140830772Y-123457165D01*
X140793582Y-123387588D01*
X140756392Y-123318013D01*
X140741125Y-123267682D01*
X140710590Y-123167023D01*
X140699000Y-123049345D01*
X140699000Y-122450656D01*
X140710590Y-122332978D01*
X140756392Y-122181989D01*
X140756392Y-122181988D01*
X140830771Y-122042836D01*
X140830772Y-122042835D01*
X140930867Y-121920867D01*
X141052835Y-121820771D01*
X141086806Y-121802613D01*
X141191987Y-121746392D01*
X141277488Y-121720456D01*
X141342977Y-121700590D01*
X141500000Y-121685125D01*
X141657022Y-121700590D01*
X141657022Y-121700590D01*
G37*
G36*
X138657022Y-121700590D02*
G01*
X138722511Y-121720456D01*
X138808012Y-121746392D01*
X138913193Y-121802613D01*
X138947164Y-121820771D01*
X139069133Y-121920867D01*
X139169229Y-122042835D01*
X139243608Y-122181987D01*
X139258875Y-122232318D01*
X139289410Y-122332977D01*
X139301000Y-122450655D01*
X139301000Y-123049345D01*
X139289410Y-123167023D01*
X139258875Y-123267682D01*
X139243608Y-123318013D01*
X139169229Y-123457165D01*
X139069133Y-123579133D01*
X138947165Y-123679229D01*
X138808013Y-123753608D01*
X138757682Y-123768875D01*
X138657023Y-123799410D01*
X138500000Y-123814875D01*
X138342978Y-123799410D01*
X138242319Y-123768875D01*
X138191988Y-123753608D01*
X138052836Y-123679229D01*
X137930868Y-123579133D01*
X137902035Y-123544000D01*
X137830772Y-123457165D01*
X137793582Y-123387588D01*
X137756392Y-123318013D01*
X137741125Y-123267682D01*
X137710590Y-123167023D01*
X137699000Y-123049345D01*
X137699000Y-122450656D01*
X137710590Y-122332978D01*
X137756392Y-122181989D01*
X137756392Y-122181988D01*
X137830771Y-122042836D01*
X137830772Y-122042835D01*
X137930867Y-121920867D01*
X138052835Y-121820771D01*
X138086806Y-121802613D01*
X138191987Y-121746392D01*
X138277488Y-121720456D01*
X138342977Y-121700590D01*
X138500000Y-121685125D01*
X138657022Y-121700590D01*
X138657022Y-121700590D01*
G37*
G36*
X144657022Y-121700590D02*
G01*
X144722511Y-121720456D01*
X144808012Y-121746392D01*
X144913193Y-121802613D01*
X144947164Y-121820771D01*
X145069133Y-121920867D01*
X145169229Y-122042835D01*
X145243608Y-122181987D01*
X145258875Y-122232318D01*
X145289410Y-122332977D01*
X145301000Y-122450655D01*
X145301000Y-123049345D01*
X145289410Y-123167023D01*
X145258875Y-123267682D01*
X145243608Y-123318013D01*
X145169229Y-123457165D01*
X145069133Y-123579133D01*
X144947165Y-123679229D01*
X144808013Y-123753608D01*
X144757682Y-123768875D01*
X144657023Y-123799410D01*
X144500000Y-123814875D01*
X144342978Y-123799410D01*
X144242319Y-123768875D01*
X144191988Y-123753608D01*
X144052836Y-123679229D01*
X143930868Y-123579133D01*
X143902035Y-123544000D01*
X143830772Y-123457165D01*
X143793582Y-123387588D01*
X143756392Y-123318013D01*
X143741125Y-123267682D01*
X143710590Y-123167023D01*
X143699000Y-123049345D01*
X143699000Y-122450656D01*
X143710590Y-122332978D01*
X143756392Y-122181989D01*
X143756392Y-122181988D01*
X143830771Y-122042836D01*
X143830772Y-122042835D01*
X143930867Y-121920867D01*
X144052835Y-121820771D01*
X144086806Y-121802613D01*
X144191987Y-121746392D01*
X144277488Y-121720456D01*
X144342977Y-121700590D01*
X144500000Y-121685125D01*
X144657022Y-121700590D01*
X144657022Y-121700590D01*
G37*
G36*
X121153048Y-121693122D02*
G01*
X121187387Y-121703539D01*
X121219036Y-121720456D01*
X121246778Y-121743222D01*
X121269544Y-121770964D01*
X121286461Y-121802613D01*
X121296878Y-121836952D01*
X121301000Y-121878807D01*
X121301000Y-123621193D01*
X121296878Y-123663048D01*
X121286461Y-123697387D01*
X121269544Y-123729036D01*
X121246778Y-123756778D01*
X121219036Y-123779544D01*
X121187387Y-123796461D01*
X121153048Y-123806878D01*
X121111193Y-123811000D01*
X119888807Y-123811000D01*
X119846952Y-123806878D01*
X119812613Y-123796461D01*
X119780964Y-123779544D01*
X119753222Y-123756778D01*
X119730456Y-123729036D01*
X119713539Y-123697387D01*
X119703122Y-123663048D01*
X119699000Y-123621193D01*
X119699000Y-121878807D01*
X119703122Y-121836952D01*
X119713539Y-121802613D01*
X119730456Y-121770964D01*
X119753222Y-121743222D01*
X119780964Y-121720456D01*
X119812613Y-121703539D01*
X119846952Y-121693122D01*
X119888807Y-121689000D01*
X121111193Y-121689000D01*
X121153048Y-121693122D01*
X121153048Y-121693122D01*
G37*
G36*
X65375256Y-118391298D02*
G01*
X65481579Y-118412447D01*
X65782042Y-118536903D01*
X66052451Y-118717585D01*
X66282415Y-118947549D01*
X66282416Y-118947551D01*
X66463098Y-119217960D01*
X66587553Y-119518422D01*
X66651000Y-119837389D01*
X66651000Y-120162611D01*
X66647128Y-120182075D01*
X66587553Y-120481579D01*
X66542684Y-120589902D01*
X66487788Y-120722434D01*
X66463097Y-120782042D01*
X66282415Y-121052451D01*
X66052451Y-121282415D01*
X65782042Y-121463097D01*
X65782041Y-121463098D01*
X65782040Y-121463098D01*
X65694037Y-121499550D01*
X65481579Y-121587553D01*
X65375256Y-121608702D01*
X65162611Y-121651000D01*
X64837389Y-121651000D01*
X64624744Y-121608702D01*
X64518421Y-121587553D01*
X64305963Y-121499550D01*
X64217960Y-121463098D01*
X64217959Y-121463098D01*
X64217958Y-121463097D01*
X63947549Y-121282415D01*
X63717585Y-121052451D01*
X63536903Y-120782042D01*
X63512213Y-120722434D01*
X63457316Y-120589902D01*
X63412447Y-120481579D01*
X63352872Y-120182075D01*
X63349000Y-120162611D01*
X63349000Y-119837389D01*
X63412447Y-119518422D01*
X63536902Y-119217960D01*
X63717584Y-118947551D01*
X63717585Y-118947549D01*
X63947549Y-118717585D01*
X64217958Y-118536903D01*
X64518421Y-118412447D01*
X64624744Y-118391298D01*
X64837389Y-118349000D01*
X65162611Y-118349000D01*
X65375256Y-118391298D01*
X65375256Y-118391298D01*
G37*
G36*
X155375256Y-118391298D02*
G01*
X155481579Y-118412447D01*
X155782042Y-118536903D01*
X156052451Y-118717585D01*
X156282415Y-118947549D01*
X156282416Y-118947551D01*
X156463098Y-119217960D01*
X156587553Y-119518422D01*
X156651000Y-119837389D01*
X156651000Y-120162611D01*
X156647128Y-120182075D01*
X156587553Y-120481579D01*
X156542684Y-120589902D01*
X156487788Y-120722434D01*
X156463097Y-120782042D01*
X156282415Y-121052451D01*
X156052451Y-121282415D01*
X155782042Y-121463097D01*
X155782041Y-121463098D01*
X155782040Y-121463098D01*
X155694037Y-121499550D01*
X155481579Y-121587553D01*
X155375256Y-121608702D01*
X155162611Y-121651000D01*
X154837389Y-121651000D01*
X154624744Y-121608702D01*
X154518421Y-121587553D01*
X154305963Y-121499550D01*
X154217960Y-121463098D01*
X154217959Y-121463098D01*
X154217958Y-121463097D01*
X153947549Y-121282415D01*
X153717585Y-121052451D01*
X153536903Y-120782042D01*
X153512213Y-120722434D01*
X153457316Y-120589902D01*
X153412447Y-120481579D01*
X153352872Y-120182075D01*
X153349000Y-120162611D01*
X153349000Y-119837389D01*
X153412447Y-119518422D01*
X153536902Y-119217960D01*
X153717584Y-118947551D01*
X153717585Y-118947549D01*
X153947549Y-118717585D01*
X154217958Y-118536903D01*
X154518421Y-118412447D01*
X154624744Y-118391298D01*
X154837389Y-118349000D01*
X155162611Y-118349000D01*
X155375256Y-118391298D01*
X155375256Y-118391298D01*
G37*
G36*
X147700098Y-120130362D02*
G01*
X147777953Y-120162611D01*
X147824943Y-120182075D01*
X147937299Y-120257149D01*
X148032851Y-120352701D01*
X148107926Y-120465059D01*
X148159638Y-120589902D01*
X148186000Y-120722434D01*
X148186000Y-120857566D01*
X148159638Y-120990098D01*
X148133811Y-121052449D01*
X148107925Y-121114943D01*
X148032851Y-121227299D01*
X147937299Y-121322851D01*
X147824943Y-121397925D01*
X147824942Y-121397926D01*
X147824941Y-121397926D01*
X147700098Y-121449638D01*
X147567566Y-121476000D01*
X147432434Y-121476000D01*
X147299902Y-121449638D01*
X147175059Y-121397926D01*
X147175058Y-121397926D01*
X147175057Y-121397925D01*
X147062701Y-121322851D01*
X146967149Y-121227299D01*
X146892075Y-121114943D01*
X146866189Y-121052449D01*
X146840362Y-120990098D01*
X146814000Y-120857566D01*
X146814000Y-120722434D01*
X146840362Y-120589902D01*
X146892074Y-120465059D01*
X146967149Y-120352701D01*
X147062701Y-120257149D01*
X147175057Y-120182075D01*
X147222047Y-120162611D01*
X147299902Y-120130362D01*
X147432434Y-120104000D01*
X147567566Y-120104000D01*
X147700098Y-120130362D01*
X147700098Y-120130362D01*
G37*
G36*
X117700098Y-120130362D02*
G01*
X117777953Y-120162611D01*
X117824943Y-120182075D01*
X117937299Y-120257149D01*
X118032851Y-120352701D01*
X118107926Y-120465059D01*
X118159638Y-120589902D01*
X118186000Y-120722434D01*
X118186000Y-120857566D01*
X118159638Y-120990098D01*
X118133811Y-121052449D01*
X118107925Y-121114943D01*
X118032851Y-121227299D01*
X117937299Y-121322851D01*
X117824943Y-121397925D01*
X117824942Y-121397926D01*
X117824941Y-121397926D01*
X117700098Y-121449638D01*
X117567566Y-121476000D01*
X117432434Y-121476000D01*
X117299902Y-121449638D01*
X117175059Y-121397926D01*
X117175058Y-121397926D01*
X117175057Y-121397925D01*
X117062701Y-121322851D01*
X116967149Y-121227299D01*
X116892075Y-121114943D01*
X116866189Y-121052449D01*
X116840362Y-120990098D01*
X116814000Y-120857566D01*
X116814000Y-120722434D01*
X116840362Y-120589902D01*
X116892074Y-120465059D01*
X116967149Y-120352701D01*
X117062701Y-120257149D01*
X117175057Y-120182075D01*
X117222047Y-120162611D01*
X117299902Y-120130362D01*
X117432434Y-120104000D01*
X117567566Y-120104000D01*
X117700098Y-120130362D01*
X117700098Y-120130362D01*
G37*
G36*
X156140098Y-111040362D02*
G01*
X156264941Y-111092074D01*
X156264943Y-111092075D01*
X156377299Y-111167149D01*
X156472851Y-111262701D01*
X156547926Y-111375059D01*
X156599638Y-111499902D01*
X156626000Y-111632434D01*
X156626000Y-111767566D01*
X156599638Y-111900098D01*
X156547926Y-112024941D01*
X156547925Y-112024943D01*
X156472851Y-112137299D01*
X156377299Y-112232851D01*
X156264943Y-112307925D01*
X156264942Y-112307926D01*
X156264941Y-112307926D01*
X156140098Y-112359638D01*
X156007566Y-112386000D01*
X155872434Y-112386000D01*
X155739902Y-112359638D01*
X155615059Y-112307926D01*
X155615058Y-112307926D01*
X155615057Y-112307925D01*
X155502701Y-112232851D01*
X155407149Y-112137299D01*
X155332075Y-112024943D01*
X155332074Y-112024941D01*
X155280362Y-111900098D01*
X155254000Y-111767566D01*
X155254000Y-111632434D01*
X155280362Y-111499902D01*
X155332074Y-111375059D01*
X155407149Y-111262701D01*
X155502701Y-111167149D01*
X155615057Y-111092075D01*
X155615059Y-111092074D01*
X155739902Y-111040362D01*
X155872434Y-111014000D01*
X156007566Y-111014000D01*
X156140098Y-111040362D01*
X156140098Y-111040362D01*
G37*
G36*
X158813048Y-107903122D02*
G01*
X158847387Y-107913539D01*
X158879036Y-107930456D01*
X158906778Y-107953222D01*
X158929544Y-107980964D01*
X158946461Y-108012613D01*
X158956878Y-108046952D01*
X158961000Y-108088807D01*
X158961000Y-109311193D01*
X158956878Y-109353048D01*
X158946461Y-109387387D01*
X158929544Y-109419036D01*
X158906778Y-109446778D01*
X158879036Y-109469544D01*
X158847387Y-109486461D01*
X158813048Y-109496878D01*
X158771193Y-109501000D01*
X157028807Y-109501000D01*
X156986952Y-109496878D01*
X156952613Y-109486461D01*
X156920964Y-109469544D01*
X156893222Y-109446778D01*
X156870456Y-109419036D01*
X156853539Y-109387387D01*
X156843122Y-109353048D01*
X156839000Y-109311193D01*
X156839000Y-108088807D01*
X156843122Y-108046952D01*
X156853539Y-108012613D01*
X156870456Y-107980964D01*
X156893222Y-107953222D01*
X156920964Y-107930456D01*
X156952613Y-107913539D01*
X156986952Y-107903122D01*
X157028807Y-107899000D01*
X158771193Y-107899000D01*
X158813048Y-107903122D01*
X158813048Y-107903122D01*
G37*
G36*
X115294903Y-106097075D02*
G01*
X115522571Y-106191378D01*
X115727466Y-106328285D01*
X115901715Y-106502534D01*
X116038622Y-106707429D01*
X116132925Y-106935097D01*
X116181000Y-107176787D01*
X116181000Y-107423213D01*
X116132925Y-107664903D01*
X116038622Y-107892571D01*
X115901715Y-108097466D01*
X115727466Y-108271715D01*
X115522571Y-108408622D01*
X115522570Y-108408623D01*
X115522569Y-108408623D01*
X115294903Y-108502925D01*
X115053214Y-108551000D01*
X114806786Y-108551000D01*
X114565097Y-108502925D01*
X114337431Y-108408623D01*
X114337430Y-108408623D01*
X114337429Y-108408622D01*
X114132534Y-108271715D01*
X113958285Y-108097466D01*
X113821378Y-107892571D01*
X113727075Y-107664903D01*
X113679000Y-107423213D01*
X113679000Y-107176787D01*
X113727075Y-106935097D01*
X113821378Y-106707429D01*
X113958285Y-106502534D01*
X114132534Y-106328285D01*
X114337429Y-106191378D01*
X114565097Y-106097075D01*
X114806786Y-106049000D01*
X115053214Y-106049000D01*
X115294903Y-106097075D01*
X115294903Y-106097075D01*
G37*
G36*
X128764903Y-106097075D02*
G01*
X128992571Y-106191378D01*
X129197466Y-106328285D01*
X129371715Y-106502534D01*
X129508622Y-106707429D01*
X129602925Y-106935097D01*
X129651000Y-107176787D01*
X129651000Y-107423213D01*
X129602925Y-107664903D01*
X129508622Y-107892571D01*
X129371715Y-108097466D01*
X129197466Y-108271715D01*
X128992571Y-108408622D01*
X128992570Y-108408623D01*
X128992569Y-108408623D01*
X128764903Y-108502925D01*
X128523214Y-108551000D01*
X128276786Y-108551000D01*
X128035097Y-108502925D01*
X127807431Y-108408623D01*
X127807430Y-108408623D01*
X127807429Y-108408622D01*
X127602534Y-108271715D01*
X127428285Y-108097466D01*
X127291378Y-107892571D01*
X127197075Y-107664903D01*
X127149000Y-107423213D01*
X127149000Y-107176787D01*
X127197075Y-106935097D01*
X127291378Y-106707429D01*
X127428285Y-106502534D01*
X127602534Y-106328285D01*
X127807429Y-106191378D01*
X128035097Y-106097075D01*
X128276786Y-106049000D01*
X128523214Y-106049000D01*
X128764903Y-106097075D01*
X128764903Y-106097075D01*
G37*
G36*
X158238571Y-104902863D02*
G01*
X158317023Y-104910590D01*
X158417682Y-104941125D01*
X158468013Y-104956392D01*
X158607165Y-105030771D01*
X158729133Y-105130867D01*
X158829229Y-105252835D01*
X158903608Y-105391987D01*
X158903608Y-105391988D01*
X158949410Y-105542977D01*
X158964875Y-105700000D01*
X158949410Y-105857023D01*
X158918875Y-105957682D01*
X158903608Y-106008013D01*
X158829229Y-106147165D01*
X158729133Y-106269133D01*
X158607165Y-106369229D01*
X158468013Y-106443608D01*
X158417682Y-106458875D01*
X158317023Y-106489410D01*
X158238571Y-106497137D01*
X158199346Y-106501000D01*
X157600654Y-106501000D01*
X157561429Y-106497137D01*
X157482977Y-106489410D01*
X157382318Y-106458875D01*
X157331987Y-106443608D01*
X157192835Y-106369229D01*
X157070867Y-106269133D01*
X156970771Y-106147165D01*
X156896392Y-106008013D01*
X156881125Y-105957682D01*
X156850590Y-105857023D01*
X156835125Y-105700000D01*
X156850590Y-105542977D01*
X156896392Y-105391988D01*
X156896392Y-105391987D01*
X156970771Y-105252835D01*
X157070867Y-105130867D01*
X157192835Y-105030771D01*
X157331987Y-104956392D01*
X157382318Y-104941125D01*
X157482977Y-104910590D01*
X157561429Y-104902863D01*
X157600654Y-104899000D01*
X158199346Y-104899000D01*
X158238571Y-104902863D01*
X158238571Y-104902863D01*
G37*
G36*
X128764903Y-102697075D02*
G01*
X128935082Y-102767565D01*
X128992571Y-102791378D01*
X129197466Y-102928285D01*
X129371715Y-103102534D01*
X129371716Y-103102536D01*
X129508623Y-103307431D01*
X129508828Y-103307926D01*
X129602925Y-103535097D01*
X129651000Y-103776787D01*
X129651000Y-104023213D01*
X129602925Y-104264903D01*
X129508622Y-104492571D01*
X129371715Y-104697466D01*
X129197466Y-104871715D01*
X128992571Y-105008622D01*
X128992570Y-105008623D01*
X128992569Y-105008623D01*
X128764903Y-105102925D01*
X128523214Y-105151000D01*
X128276786Y-105151000D01*
X128035097Y-105102925D01*
X127807431Y-105008623D01*
X127807430Y-105008623D01*
X127807429Y-105008622D01*
X127602534Y-104871715D01*
X127428285Y-104697466D01*
X127291378Y-104492571D01*
X127197075Y-104264903D01*
X127149000Y-104023213D01*
X127149000Y-103776787D01*
X127197075Y-103535097D01*
X127291172Y-103307926D01*
X127291377Y-103307431D01*
X127428284Y-103102536D01*
X127428285Y-103102534D01*
X127602534Y-102928285D01*
X127807429Y-102791378D01*
X127864919Y-102767565D01*
X128035097Y-102697075D01*
X128276786Y-102649000D01*
X128523214Y-102649000D01*
X128764903Y-102697075D01*
X128764903Y-102697075D01*
G37*
G36*
X115294903Y-102697075D02*
G01*
X115465082Y-102767565D01*
X115522571Y-102791378D01*
X115727466Y-102928285D01*
X115901715Y-103102534D01*
X115901716Y-103102536D01*
X116038623Y-103307431D01*
X116038828Y-103307926D01*
X116132925Y-103535097D01*
X116181000Y-103776787D01*
X116181000Y-104023213D01*
X116132925Y-104264903D01*
X116038622Y-104492571D01*
X115901715Y-104697466D01*
X115727466Y-104871715D01*
X115522571Y-105008622D01*
X115522570Y-105008623D01*
X115522569Y-105008623D01*
X115294903Y-105102925D01*
X115053214Y-105151000D01*
X114806786Y-105151000D01*
X114565097Y-105102925D01*
X114337431Y-105008623D01*
X114337430Y-105008623D01*
X114337429Y-105008622D01*
X114132534Y-104871715D01*
X113958285Y-104697466D01*
X113821378Y-104492571D01*
X113727075Y-104264903D01*
X113679000Y-104023213D01*
X113679000Y-103776787D01*
X113727075Y-103535097D01*
X113821172Y-103307926D01*
X113821377Y-103307431D01*
X113958284Y-103102536D01*
X113958285Y-103102534D01*
X114132534Y-102928285D01*
X114337429Y-102791378D01*
X114394919Y-102767565D01*
X114565097Y-102697075D01*
X114806786Y-102649000D01*
X115053214Y-102649000D01*
X115294903Y-102697075D01*
X115294903Y-102697075D01*
G37*
G36*
X156140098Y-102040362D02*
G01*
X156264941Y-102092074D01*
X156264943Y-102092075D01*
X156377299Y-102167149D01*
X156472851Y-102262701D01*
X156547926Y-102375059D01*
X156599638Y-102499902D01*
X156626000Y-102632434D01*
X156626000Y-102767566D01*
X156599638Y-102900098D01*
X156587962Y-102928285D01*
X156547925Y-103024943D01*
X156472851Y-103137299D01*
X156377299Y-103232851D01*
X156264943Y-103307925D01*
X156264942Y-103307926D01*
X156264941Y-103307926D01*
X156140098Y-103359638D01*
X156007566Y-103386000D01*
X155872434Y-103386000D01*
X155739902Y-103359638D01*
X155615059Y-103307926D01*
X155615058Y-103307926D01*
X155615057Y-103307925D01*
X155502701Y-103232851D01*
X155407149Y-103137299D01*
X155332075Y-103024943D01*
X155292038Y-102928285D01*
X155280362Y-102900098D01*
X155254000Y-102767566D01*
X155254000Y-102632434D01*
X155280362Y-102499902D01*
X155332074Y-102375059D01*
X155407149Y-102262701D01*
X155502701Y-102167149D01*
X155615057Y-102092075D01*
X155615059Y-102092074D01*
X155739902Y-102040362D01*
X155872434Y-102014000D01*
X156007566Y-102014000D01*
X156140098Y-102040362D01*
X156140098Y-102040362D01*
G37*
G36*
X64660098Y-94340362D02*
G01*
X64784941Y-94392074D01*
X64784943Y-94392075D01*
X64897299Y-94467149D01*
X64992851Y-94562701D01*
X65045647Y-94641715D01*
X65067926Y-94675059D01*
X65119638Y-94799902D01*
X65146000Y-94932434D01*
X65146000Y-95067566D01*
X65119638Y-95200098D01*
X65067926Y-95324941D01*
X65067925Y-95324943D01*
X64992851Y-95437299D01*
X64897299Y-95532851D01*
X64784943Y-95607925D01*
X64784942Y-95607926D01*
X64784941Y-95607926D01*
X64660098Y-95659638D01*
X64527566Y-95686000D01*
X64392434Y-95686000D01*
X64259902Y-95659638D01*
X64135059Y-95607926D01*
X64135058Y-95607926D01*
X64135057Y-95607925D01*
X64022701Y-95532851D01*
X63927149Y-95437299D01*
X63852075Y-95324943D01*
X63852074Y-95324941D01*
X63800362Y-95200098D01*
X63774000Y-95067566D01*
X63774000Y-94932434D01*
X63800362Y-94799902D01*
X63852074Y-94675059D01*
X63874354Y-94641715D01*
X63927149Y-94562701D01*
X64022701Y-94467149D01*
X64135057Y-94392075D01*
X64135059Y-94392074D01*
X64259902Y-94340362D01*
X64392434Y-94314000D01*
X64527566Y-94314000D01*
X64660098Y-94340362D01*
X64660098Y-94340362D01*
G37*
G36*
X73164903Y-92467075D02*
G01*
X73392571Y-92561378D01*
X73597466Y-92698285D01*
X73771715Y-92872534D01*
X73908622Y-93077429D01*
X74002925Y-93305097D01*
X74051000Y-93546787D01*
X74051000Y-93793213D01*
X74002925Y-94034903D01*
X73908622Y-94262571D01*
X73771715Y-94467466D01*
X73597466Y-94641715D01*
X73392571Y-94778622D01*
X73392570Y-94778623D01*
X73392569Y-94778623D01*
X73164903Y-94872925D01*
X72923214Y-94921000D01*
X72676786Y-94921000D01*
X72435097Y-94872925D01*
X72207431Y-94778623D01*
X72207430Y-94778623D01*
X72207429Y-94778622D01*
X72002534Y-94641715D01*
X71828285Y-94467466D01*
X71691378Y-94262571D01*
X71597075Y-94034903D01*
X71549000Y-93793213D01*
X71549000Y-93546787D01*
X71597075Y-93305097D01*
X71691378Y-93077429D01*
X71828285Y-92872534D01*
X72002534Y-92698285D01*
X72207429Y-92561378D01*
X72435097Y-92467075D01*
X72676786Y-92419000D01*
X72923214Y-92419000D01*
X73164903Y-92467075D01*
X73164903Y-92467075D01*
G37*
G36*
X69764903Y-92467075D02*
G01*
X69992571Y-92561378D01*
X70197466Y-92698285D01*
X70371715Y-92872534D01*
X70508622Y-93077429D01*
X70602925Y-93305097D01*
X70651000Y-93546787D01*
X70651000Y-93793213D01*
X70602925Y-94034903D01*
X70508622Y-94262571D01*
X70371715Y-94467466D01*
X70197466Y-94641715D01*
X69992571Y-94778622D01*
X69992570Y-94778623D01*
X69992569Y-94778623D01*
X69764903Y-94872925D01*
X69523214Y-94921000D01*
X69276786Y-94921000D01*
X69035097Y-94872925D01*
X68807431Y-94778623D01*
X68807430Y-94778623D01*
X68807429Y-94778622D01*
X68602534Y-94641715D01*
X68428285Y-94467466D01*
X68291378Y-94262571D01*
X68197075Y-94034903D01*
X68149000Y-93793213D01*
X68149000Y-93546787D01*
X68197075Y-93305097D01*
X68291378Y-93077429D01*
X68428285Y-92872534D01*
X68602534Y-92698285D01*
X68807429Y-92561378D01*
X69035097Y-92467075D01*
X69276786Y-92419000D01*
X69523214Y-92419000D01*
X69764903Y-92467075D01*
X69764903Y-92467075D01*
G37*
G36*
X62838571Y-91202863D02*
G01*
X62917023Y-91210590D01*
X63017682Y-91241125D01*
X63068013Y-91256392D01*
X63207165Y-91330771D01*
X63329133Y-91430867D01*
X63429229Y-91552835D01*
X63503608Y-91691987D01*
X63503608Y-91691988D01*
X63549410Y-91842977D01*
X63564875Y-92000000D01*
X63549410Y-92157023D01*
X63518875Y-92257682D01*
X63503608Y-92308013D01*
X63429229Y-92447165D01*
X63329133Y-92569133D01*
X63207165Y-92669229D01*
X63068013Y-92743608D01*
X63017682Y-92758875D01*
X62917023Y-92789410D01*
X62838571Y-92797137D01*
X62799346Y-92801000D01*
X62200654Y-92801000D01*
X62161429Y-92797137D01*
X62082977Y-92789410D01*
X61982318Y-92758875D01*
X61931987Y-92743608D01*
X61792835Y-92669229D01*
X61670867Y-92569133D01*
X61570771Y-92447165D01*
X61496392Y-92308013D01*
X61481125Y-92257682D01*
X61450590Y-92157023D01*
X61435125Y-92000000D01*
X61450590Y-91842977D01*
X61496392Y-91691988D01*
X61496392Y-91691987D01*
X61570771Y-91552835D01*
X61670867Y-91430867D01*
X61792835Y-91330771D01*
X61931987Y-91256392D01*
X61982318Y-91241125D01*
X62082977Y-91210590D01*
X62161429Y-91202863D01*
X62200654Y-91199000D01*
X62799346Y-91199000D01*
X62838571Y-91202863D01*
X62838571Y-91202863D01*
G37*
G36*
X129825331Y-86688211D02*
G01*
X130153092Y-86823974D01*
X130448070Y-87021072D01*
X130698928Y-87271930D01*
X130896026Y-87566908D01*
X131031789Y-87894669D01*
X131101000Y-88242616D01*
X131101000Y-88597384D01*
X131031789Y-88945331D01*
X130896026Y-89273092D01*
X130698928Y-89568070D01*
X130448070Y-89818928D01*
X130153092Y-90016026D01*
X129825331Y-90151789D01*
X129477384Y-90221000D01*
X129122616Y-90221000D01*
X128774669Y-90151789D01*
X128446908Y-90016026D01*
X128151930Y-89818928D01*
X127901072Y-89568070D01*
X127703974Y-89273092D01*
X127568211Y-88945331D01*
X127499000Y-88597384D01*
X127499000Y-88242616D01*
X127568211Y-87894669D01*
X127703974Y-87566908D01*
X127901072Y-87271930D01*
X128151930Y-87021072D01*
X128446908Y-86823974D01*
X128774669Y-86688211D01*
X129122616Y-86619000D01*
X129477384Y-86619000D01*
X129825331Y-86688211D01*
X129825331Y-86688211D01*
G37*
G36*
X63413048Y-88203122D02*
G01*
X63447387Y-88213539D01*
X63479036Y-88230456D01*
X63506778Y-88253222D01*
X63529544Y-88280964D01*
X63546461Y-88312613D01*
X63556878Y-88346952D01*
X63561000Y-88388807D01*
X63561000Y-89611193D01*
X63556878Y-89653048D01*
X63546461Y-89687387D01*
X63529544Y-89719036D01*
X63506778Y-89746778D01*
X63479036Y-89769544D01*
X63447387Y-89786461D01*
X63413048Y-89796878D01*
X63371193Y-89801000D01*
X61628807Y-89801000D01*
X61586952Y-89796878D01*
X61552613Y-89786461D01*
X61520964Y-89769544D01*
X61493222Y-89746778D01*
X61470456Y-89719036D01*
X61453539Y-89687387D01*
X61443122Y-89653048D01*
X61439000Y-89611193D01*
X61439000Y-88388807D01*
X61443122Y-88346952D01*
X61453539Y-88312613D01*
X61470456Y-88280964D01*
X61493222Y-88253222D01*
X61520964Y-88230456D01*
X61552613Y-88213539D01*
X61586952Y-88203122D01*
X61628807Y-88199000D01*
X63371193Y-88199000D01*
X63413048Y-88203122D01*
X63413048Y-88203122D01*
G37*
G36*
X79979487Y-85898996D02*
G01*
X80216253Y-85997068D01*
X80216255Y-85997069D01*
X80429339Y-86139447D01*
X80610553Y-86320661D01*
X80752334Y-86532851D01*
X80752932Y-86533747D01*
X80851004Y-86770513D01*
X80901000Y-87021861D01*
X80901000Y-87278139D01*
X80851004Y-87529487D01*
X80752932Y-87766253D01*
X80752931Y-87766255D01*
X80610553Y-87979339D01*
X80429339Y-88160553D01*
X80216255Y-88302931D01*
X80216254Y-88302932D01*
X80216253Y-88302932D01*
X79979487Y-88401004D01*
X79728139Y-88451000D01*
X79471861Y-88451000D01*
X79220513Y-88401004D01*
X78983747Y-88302932D01*
X78983746Y-88302932D01*
X78983745Y-88302931D01*
X78770661Y-88160553D01*
X78589447Y-87979339D01*
X78447069Y-87766255D01*
X78447068Y-87766253D01*
X78348996Y-87529487D01*
X78299000Y-87278139D01*
X78299000Y-87021861D01*
X78348996Y-86770513D01*
X78447068Y-86533747D01*
X78447667Y-86532851D01*
X78589447Y-86320661D01*
X78770661Y-86139447D01*
X78983745Y-85997069D01*
X78983747Y-85997068D01*
X79220513Y-85898996D01*
X79471861Y-85849000D01*
X79728139Y-85849000D01*
X79979487Y-85898996D01*
X79979487Y-85898996D01*
G37*
G36*
X64660098Y-85340362D02*
G01*
X64784941Y-85392074D01*
X64784943Y-85392075D01*
X64897299Y-85467149D01*
X64992851Y-85562701D01*
X65031507Y-85620553D01*
X65067926Y-85675059D01*
X65119638Y-85799902D01*
X65146000Y-85932434D01*
X65146000Y-86067566D01*
X65119638Y-86200098D01*
X65069699Y-86320661D01*
X65067925Y-86324943D01*
X64992851Y-86437299D01*
X64897299Y-86532851D01*
X64784943Y-86607925D01*
X64784942Y-86607926D01*
X64784941Y-86607926D01*
X64660098Y-86659638D01*
X64527566Y-86686000D01*
X64392434Y-86686000D01*
X64259902Y-86659638D01*
X64135059Y-86607926D01*
X64135058Y-86607926D01*
X64135057Y-86607925D01*
X64022701Y-86532851D01*
X63927149Y-86437299D01*
X63852075Y-86324943D01*
X63850301Y-86320661D01*
X63800362Y-86200098D01*
X63774000Y-86067566D01*
X63774000Y-85932434D01*
X63800362Y-85799902D01*
X63852074Y-85675059D01*
X63888494Y-85620553D01*
X63927149Y-85562701D01*
X64022701Y-85467149D01*
X64135057Y-85392075D01*
X64135059Y-85392074D01*
X64259902Y-85340362D01*
X64392434Y-85314000D01*
X64527566Y-85314000D01*
X64660098Y-85340362D01*
X64660098Y-85340362D01*
G37*
G36*
X129679487Y-83358996D02*
G01*
X129916253Y-83457068D01*
X129916255Y-83457069D01*
X130129339Y-83599447D01*
X130310553Y-83780661D01*
X130395984Y-83908517D01*
X130452932Y-83993747D01*
X130551004Y-84230513D01*
X130601000Y-84481861D01*
X130601000Y-84738139D01*
X130551004Y-84989487D01*
X130452932Y-85226253D01*
X130452931Y-85226255D01*
X130310553Y-85439339D01*
X130129339Y-85620553D01*
X129916255Y-85762931D01*
X129916254Y-85762932D01*
X129916253Y-85762932D01*
X129679487Y-85861004D01*
X129428139Y-85911000D01*
X129171861Y-85911000D01*
X128920513Y-85861004D01*
X128683747Y-85762932D01*
X128683746Y-85762932D01*
X128683745Y-85762931D01*
X128470661Y-85620553D01*
X128289447Y-85439339D01*
X128147069Y-85226255D01*
X128147068Y-85226253D01*
X128048996Y-84989487D01*
X127999000Y-84738139D01*
X127999000Y-84481861D01*
X128048996Y-84230513D01*
X128147068Y-83993747D01*
X128204017Y-83908517D01*
X128289447Y-83780661D01*
X128470661Y-83599447D01*
X128683745Y-83457069D01*
X128683747Y-83457068D01*
X128920513Y-83358996D01*
X129171861Y-83309000D01*
X129428139Y-83309000D01*
X129679487Y-83358996D01*
X129679487Y-83358996D01*
G37*
G36*
X137825589Y-83638876D02*
G01*
X137924893Y-83658629D01*
X138065206Y-83716748D01*
X138191484Y-83801125D01*
X138298875Y-83908516D01*
X138383252Y-84034794D01*
X138441371Y-84175107D01*
X138471000Y-84324063D01*
X138471000Y-84475937D01*
X138441371Y-84624893D01*
X138383252Y-84765206D01*
X138298875Y-84891484D01*
X138191484Y-84998875D01*
X138065206Y-85083252D01*
X137924893Y-85141371D01*
X137825589Y-85161124D01*
X137775938Y-85171000D01*
X137624062Y-85171000D01*
X137574411Y-85161124D01*
X137475107Y-85141371D01*
X137334794Y-85083252D01*
X137208516Y-84998875D01*
X137101125Y-84891484D01*
X137016748Y-84765206D01*
X136958629Y-84624893D01*
X136929000Y-84475937D01*
X136929000Y-84324063D01*
X136958629Y-84175107D01*
X137016748Y-84034794D01*
X137101125Y-83908516D01*
X137208516Y-83801125D01*
X137334794Y-83716748D01*
X137475107Y-83658629D01*
X137574411Y-83638876D01*
X137624062Y-83629000D01*
X137775938Y-83629000D01*
X137825589Y-83638876D01*
X137825589Y-83638876D01*
G37*
G36*
X137825589Y-81098876D02*
G01*
X137924893Y-81118629D01*
X138065206Y-81176748D01*
X138191484Y-81261125D01*
X138298875Y-81368516D01*
X138383252Y-81494794D01*
X138441371Y-81635107D01*
X138471000Y-81784063D01*
X138471000Y-81935937D01*
X138441371Y-82084893D01*
X138383252Y-82225206D01*
X138298875Y-82351484D01*
X138191484Y-82458875D01*
X138065206Y-82543252D01*
X137924893Y-82601371D01*
X137825589Y-82621124D01*
X137775938Y-82631000D01*
X137624062Y-82631000D01*
X137574411Y-82621124D01*
X137475107Y-82601371D01*
X137334794Y-82543252D01*
X137208516Y-82458875D01*
X137101125Y-82351484D01*
X137016748Y-82225206D01*
X136958629Y-82084893D01*
X136929000Y-81935937D01*
X136929000Y-81784063D01*
X136958629Y-81635107D01*
X137016748Y-81494794D01*
X137101125Y-81368516D01*
X137208516Y-81261125D01*
X137334794Y-81176748D01*
X137475107Y-81118629D01*
X137574411Y-81098876D01*
X137624062Y-81089000D01*
X137775938Y-81089000D01*
X137825589Y-81098876D01*
X137825589Y-81098876D01*
G37*
G36*
X129679487Y-79548996D02*
G01*
X129916253Y-79647068D01*
X129916255Y-79647069D01*
X129973328Y-79685204D01*
X130129339Y-79789447D01*
X130310553Y-79970661D01*
X130452932Y-80183747D01*
X130551004Y-80420513D01*
X130601000Y-80671861D01*
X130601000Y-80928139D01*
X130551004Y-81179487D01*
X130452932Y-81416253D01*
X130452931Y-81416255D01*
X130310553Y-81629339D01*
X130129339Y-81810553D01*
X129916255Y-81952931D01*
X129916254Y-81952932D01*
X129916253Y-81952932D01*
X129679487Y-82051004D01*
X129428139Y-82101000D01*
X129171861Y-82101000D01*
X128920513Y-82051004D01*
X128683747Y-81952932D01*
X128683746Y-81952932D01*
X128683745Y-81952931D01*
X128470661Y-81810553D01*
X128289447Y-81629339D01*
X128147069Y-81416255D01*
X128147068Y-81416253D01*
X128048996Y-81179487D01*
X127999000Y-80928139D01*
X127999000Y-80671861D01*
X128048996Y-80420513D01*
X128147068Y-80183747D01*
X128289447Y-79970661D01*
X128470661Y-79789447D01*
X128626672Y-79685204D01*
X128683745Y-79647069D01*
X128683747Y-79647068D01*
X128920513Y-79548996D01*
X129171861Y-79499000D01*
X129428139Y-79499000D01*
X129679487Y-79548996D01*
X129679487Y-79548996D01*
G37*
G36*
X79979487Y-79548996D02*
G01*
X80216253Y-79647068D01*
X80216255Y-79647069D01*
X80273328Y-79685204D01*
X80429339Y-79789447D01*
X80610553Y-79970661D01*
X80752932Y-80183747D01*
X80851004Y-80420513D01*
X80901000Y-80671861D01*
X80901000Y-80928139D01*
X80851004Y-81179487D01*
X80752932Y-81416253D01*
X80752931Y-81416255D01*
X80610553Y-81629339D01*
X80429339Y-81810553D01*
X80216255Y-81952931D01*
X80216254Y-81952932D01*
X80216253Y-81952932D01*
X79979487Y-82051004D01*
X79728139Y-82101000D01*
X79471861Y-82101000D01*
X79220513Y-82051004D01*
X78983747Y-81952932D01*
X78983746Y-81952932D01*
X78983745Y-81952931D01*
X78770661Y-81810553D01*
X78589447Y-81629339D01*
X78447069Y-81416255D01*
X78447068Y-81416253D01*
X78348996Y-81179487D01*
X78299000Y-80928139D01*
X78299000Y-80671861D01*
X78348996Y-80420513D01*
X78447068Y-80183747D01*
X78589447Y-79970661D01*
X78770661Y-79789447D01*
X78926672Y-79685204D01*
X78983745Y-79647069D01*
X78983747Y-79647068D01*
X79220513Y-79548996D01*
X79471861Y-79499000D01*
X79728139Y-79499000D01*
X79979487Y-79548996D01*
X79979487Y-79548996D01*
G37*
G36*
X72952352Y-78954796D02*
G01*
X73164903Y-78997075D01*
X73392571Y-79091378D01*
X73597466Y-79228285D01*
X73771715Y-79402534D01*
X73908622Y-79607429D01*
X73908623Y-79607431D01*
X74002925Y-79835097D01*
X74019590Y-79918875D01*
X74051000Y-80076787D01*
X74051000Y-80323213D01*
X74002925Y-80564903D01*
X73908622Y-80792571D01*
X73771715Y-80997466D01*
X73597466Y-81171715D01*
X73392571Y-81308622D01*
X73392570Y-81308623D01*
X73392569Y-81308623D01*
X73164903Y-81402925D01*
X72923214Y-81451000D01*
X72676786Y-81451000D01*
X72435097Y-81402925D01*
X72207431Y-81308623D01*
X72207430Y-81308623D01*
X72207429Y-81308622D01*
X72002534Y-81171715D01*
X71828285Y-80997466D01*
X71691378Y-80792571D01*
X71597075Y-80564903D01*
X71549000Y-80323213D01*
X71549000Y-80076787D01*
X71580411Y-79918875D01*
X71597075Y-79835097D01*
X71691377Y-79607431D01*
X71691378Y-79607429D01*
X71828285Y-79402534D01*
X72002534Y-79228285D01*
X72207429Y-79091378D01*
X72435097Y-78997075D01*
X72647648Y-78954796D01*
X72676786Y-78949000D01*
X72923214Y-78949000D01*
X72952352Y-78954796D01*
X72952352Y-78954796D01*
G37*
G36*
X69552352Y-78954796D02*
G01*
X69764903Y-78997075D01*
X69992571Y-79091378D01*
X70197466Y-79228285D01*
X70371715Y-79402534D01*
X70508622Y-79607429D01*
X70508623Y-79607431D01*
X70602925Y-79835097D01*
X70619590Y-79918875D01*
X70651000Y-80076787D01*
X70651000Y-80323213D01*
X70602925Y-80564903D01*
X70508622Y-80792571D01*
X70371715Y-80997466D01*
X70197466Y-81171715D01*
X69992571Y-81308622D01*
X69992570Y-81308623D01*
X69992569Y-81308623D01*
X69764903Y-81402925D01*
X69523214Y-81451000D01*
X69276786Y-81451000D01*
X69035097Y-81402925D01*
X68807431Y-81308623D01*
X68807430Y-81308623D01*
X68807429Y-81308622D01*
X68602534Y-81171715D01*
X68428285Y-80997466D01*
X68291378Y-80792571D01*
X68197075Y-80564903D01*
X68149000Y-80323213D01*
X68149000Y-80076787D01*
X68180411Y-79918875D01*
X68197075Y-79835097D01*
X68291377Y-79607431D01*
X68291378Y-79607429D01*
X68428285Y-79402534D01*
X68602534Y-79228285D01*
X68807429Y-79091378D01*
X69035097Y-78997075D01*
X69247648Y-78954796D01*
X69276786Y-78949000D01*
X69523214Y-78949000D01*
X69552352Y-78954796D01*
X69552352Y-78954796D01*
G37*
G36*
X137825589Y-78558876D02*
G01*
X137924893Y-78578629D01*
X138065206Y-78636748D01*
X138191484Y-78721125D01*
X138298875Y-78828516D01*
X138383252Y-78954794D01*
X138441371Y-79095107D01*
X138441371Y-79095109D01*
X138471000Y-79244062D01*
X138471000Y-79395938D01*
X138461124Y-79445589D01*
X138441371Y-79544893D01*
X138383252Y-79685206D01*
X138298875Y-79811484D01*
X138191484Y-79918875D01*
X138065206Y-80003252D01*
X137924893Y-80061371D01*
X137847396Y-80076786D01*
X137775938Y-80091000D01*
X137624062Y-80091000D01*
X137552604Y-80076786D01*
X137475107Y-80061371D01*
X137334794Y-80003252D01*
X137208516Y-79918875D01*
X137101125Y-79811484D01*
X137016748Y-79685206D01*
X136958629Y-79544893D01*
X136938876Y-79445589D01*
X136929000Y-79395938D01*
X136929000Y-79244062D01*
X136958629Y-79095109D01*
X136958629Y-79095107D01*
X137016748Y-78954794D01*
X137101125Y-78828516D01*
X137208516Y-78721125D01*
X137334794Y-78636748D01*
X137475107Y-78578629D01*
X137574411Y-78558876D01*
X137624062Y-78549000D01*
X137775938Y-78549000D01*
X137825589Y-78558876D01*
X137825589Y-78558876D01*
G37*
G36*
X129679487Y-75738996D02*
G01*
X129916253Y-75837068D01*
X129916255Y-75837069D01*
X130007870Y-75898284D01*
X130129339Y-75979447D01*
X130310553Y-76160661D01*
X130452932Y-76373747D01*
X130551004Y-76610513D01*
X130601000Y-76861861D01*
X130601000Y-77118139D01*
X130551004Y-77369487D01*
X130512448Y-77462569D01*
X130452931Y-77606255D01*
X130310553Y-77819339D01*
X130129339Y-78000553D01*
X129916255Y-78142931D01*
X129916254Y-78142932D01*
X129916253Y-78142932D01*
X129679487Y-78241004D01*
X129428139Y-78291000D01*
X129171861Y-78291000D01*
X128920513Y-78241004D01*
X128683747Y-78142932D01*
X128683746Y-78142932D01*
X128683745Y-78142931D01*
X128470661Y-78000553D01*
X128289447Y-77819339D01*
X128147069Y-77606255D01*
X128087552Y-77462569D01*
X128048996Y-77369487D01*
X127999000Y-77118139D01*
X127999000Y-76861861D01*
X128048996Y-76610513D01*
X128147068Y-76373747D01*
X128289447Y-76160661D01*
X128470661Y-75979447D01*
X128592130Y-75898284D01*
X128683745Y-75837069D01*
X128683747Y-75837068D01*
X128920513Y-75738996D01*
X129171861Y-75689000D01*
X129428139Y-75689000D01*
X129679487Y-75738996D01*
X129679487Y-75738996D01*
G37*
G36*
X147964903Y-75667075D02*
G01*
X148167517Y-75751000D01*
X148192571Y-75761378D01*
X148397466Y-75898285D01*
X148571715Y-76072534D01*
X148708622Y-76277429D01*
X148708623Y-76277431D01*
X148802925Y-76505097D01*
X148823894Y-76610513D01*
X148851000Y-76746787D01*
X148851000Y-76993213D01*
X148802925Y-77234903D01*
X148708622Y-77462571D01*
X148571715Y-77667466D01*
X148397466Y-77841715D01*
X148192571Y-77978622D01*
X148192570Y-77978623D01*
X148192569Y-77978623D01*
X147964903Y-78072925D01*
X147723214Y-78121000D01*
X147476786Y-78121000D01*
X147235097Y-78072925D01*
X147007431Y-77978623D01*
X147007430Y-77978623D01*
X147007429Y-77978622D01*
X146802534Y-77841715D01*
X146628285Y-77667466D01*
X146491378Y-77462571D01*
X146397075Y-77234903D01*
X146349000Y-76993213D01*
X146349000Y-76746787D01*
X146376107Y-76610513D01*
X146397075Y-76505097D01*
X146491377Y-76277431D01*
X146491378Y-76277429D01*
X146628285Y-76072534D01*
X146802534Y-75898285D01*
X147007429Y-75761378D01*
X147032484Y-75751000D01*
X147235097Y-75667075D01*
X147476786Y-75619000D01*
X147723214Y-75619000D01*
X147964903Y-75667075D01*
X147964903Y-75667075D01*
G37*
G36*
X144564903Y-75667075D02*
G01*
X144767517Y-75751000D01*
X144792571Y-75761378D01*
X144997466Y-75898285D01*
X145171715Y-76072534D01*
X145308622Y-76277429D01*
X145308623Y-76277431D01*
X145402925Y-76505097D01*
X145423894Y-76610513D01*
X145451000Y-76746787D01*
X145451000Y-76993213D01*
X145402925Y-77234903D01*
X145308622Y-77462571D01*
X145171715Y-77667466D01*
X144997466Y-77841715D01*
X144792571Y-77978622D01*
X144792570Y-77978623D01*
X144792569Y-77978623D01*
X144564903Y-78072925D01*
X144323214Y-78121000D01*
X144076786Y-78121000D01*
X143835097Y-78072925D01*
X143607431Y-77978623D01*
X143607430Y-77978623D01*
X143607429Y-77978622D01*
X143402534Y-77841715D01*
X143228285Y-77667466D01*
X143091378Y-77462571D01*
X142997075Y-77234903D01*
X142949000Y-76993213D01*
X142949000Y-76746787D01*
X142976107Y-76610513D01*
X142997075Y-76505097D01*
X143091377Y-76277431D01*
X143091378Y-76277429D01*
X143228285Y-76072534D01*
X143402534Y-75898285D01*
X143607429Y-75761378D01*
X143632484Y-75751000D01*
X143835097Y-75667075D01*
X144076786Y-75619000D01*
X144323214Y-75619000D01*
X144564903Y-75667075D01*
X144564903Y-75667075D01*
G37*
G36*
X79979487Y-73198996D02*
G01*
X80216253Y-73297068D01*
X80216255Y-73297069D01*
X80429339Y-73439447D01*
X80610553Y-73620661D01*
X80667128Y-73705331D01*
X80752932Y-73833747D01*
X80851004Y-74070513D01*
X80901000Y-74321861D01*
X80901000Y-74578139D01*
X80851004Y-74829487D01*
X80788245Y-74981000D01*
X80752931Y-75066255D01*
X80610553Y-75279339D01*
X80429339Y-75460553D01*
X80216255Y-75602931D01*
X80216254Y-75602932D01*
X80216253Y-75602932D01*
X79979487Y-75701004D01*
X79728139Y-75751000D01*
X79471861Y-75751000D01*
X79220513Y-75701004D01*
X78983747Y-75602932D01*
X78983746Y-75602932D01*
X78983745Y-75602931D01*
X78770661Y-75460553D01*
X78589447Y-75279339D01*
X78447069Y-75066255D01*
X78411755Y-74981000D01*
X78348996Y-74829487D01*
X78299000Y-74578139D01*
X78299000Y-74321861D01*
X78348996Y-74070513D01*
X78447068Y-73833747D01*
X78532873Y-73705331D01*
X78589447Y-73620661D01*
X78770661Y-73439447D01*
X78983745Y-73297069D01*
X78983747Y-73297068D01*
X79220513Y-73198996D01*
X79471861Y-73149000D01*
X79728139Y-73149000D01*
X79979487Y-73198996D01*
X79979487Y-73198996D01*
G37*
G36*
X129825331Y-71448211D02*
G01*
X130153092Y-71583974D01*
X130448070Y-71781072D01*
X130698928Y-72031930D01*
X130896026Y-72326908D01*
X131031789Y-72654669D01*
X131101000Y-73002616D01*
X131101000Y-73357384D01*
X131031789Y-73705331D01*
X130896026Y-74033092D01*
X130698928Y-74328070D01*
X130448070Y-74578928D01*
X130153092Y-74776026D01*
X129825331Y-74911789D01*
X129477384Y-74981000D01*
X129122616Y-74981000D01*
X128774669Y-74911789D01*
X128446908Y-74776026D01*
X128151930Y-74578928D01*
X127901072Y-74328070D01*
X127703974Y-74033092D01*
X127568211Y-73705331D01*
X127499000Y-73357384D01*
X127499000Y-73002616D01*
X127568211Y-72654669D01*
X127703974Y-72326908D01*
X127901072Y-72031930D01*
X128151930Y-71781072D01*
X128446908Y-71583974D01*
X128774669Y-71448211D01*
X129122616Y-71379000D01*
X129477384Y-71379000D01*
X129825331Y-71448211D01*
X129825331Y-71448211D01*
G37*
G36*
X65951000Y-74951000D02*
G01*
X63449000Y-74951000D01*
X63449000Y-72449000D01*
X65951000Y-72449000D01*
X65951000Y-74951000D01*
X65951000Y-74951000D01*
G37*
G36*
X65064903Y-67497075D02*
G01*
X65292571Y-67591378D01*
X65497466Y-67728285D01*
X65671715Y-67902534D01*
X65808622Y-68107429D01*
X65902925Y-68335097D01*
X65951000Y-68576787D01*
X65951000Y-68823213D01*
X65902925Y-69064903D01*
X65808622Y-69292571D01*
X65671715Y-69497466D01*
X65497466Y-69671715D01*
X65292571Y-69808622D01*
X65292570Y-69808623D01*
X65292569Y-69808623D01*
X65064903Y-69902925D01*
X64823214Y-69951000D01*
X64576786Y-69951000D01*
X64335097Y-69902925D01*
X64107431Y-69808623D01*
X64107430Y-69808623D01*
X64107429Y-69808622D01*
X63902534Y-69671715D01*
X63728285Y-69497466D01*
X63591378Y-69292571D01*
X63497075Y-69064903D01*
X63449000Y-68823213D01*
X63449000Y-68576787D01*
X63497075Y-68335097D01*
X63591378Y-68107429D01*
X63728285Y-67902534D01*
X63902534Y-67728285D01*
X64107429Y-67591378D01*
X64335097Y-67497075D01*
X64576786Y-67449000D01*
X64823214Y-67449000D01*
X65064903Y-67497075D01*
X65064903Y-67497075D01*
G37*
G36*
X144564903Y-62197075D02*
G01*
X144792571Y-62291378D01*
X144997466Y-62428285D01*
X145171715Y-62602534D01*
X145308622Y-62807429D01*
X145402925Y-63035097D01*
X145451000Y-63276787D01*
X145451000Y-63523213D01*
X145402925Y-63764903D01*
X145308622Y-63992571D01*
X145171715Y-64197466D01*
X144997466Y-64371715D01*
X144792571Y-64508622D01*
X144792570Y-64508623D01*
X144792569Y-64508623D01*
X144564903Y-64602925D01*
X144323214Y-64651000D01*
X144076786Y-64651000D01*
X143835097Y-64602925D01*
X143607431Y-64508623D01*
X143607430Y-64508623D01*
X143607429Y-64508622D01*
X143402534Y-64371715D01*
X143228285Y-64197466D01*
X143091378Y-63992571D01*
X142997075Y-63764903D01*
X142949000Y-63523213D01*
X142949000Y-63276787D01*
X142997075Y-63035097D01*
X143091378Y-62807429D01*
X143228285Y-62602534D01*
X143402534Y-62428285D01*
X143607429Y-62291378D01*
X143835097Y-62197075D01*
X144076786Y-62149000D01*
X144323214Y-62149000D01*
X144564903Y-62197075D01*
X144564903Y-62197075D01*
G37*
G36*
X147964903Y-62197075D02*
G01*
X148192571Y-62291378D01*
X148397466Y-62428285D01*
X148571715Y-62602534D01*
X148708622Y-62807429D01*
X148802925Y-63035097D01*
X148851000Y-63276787D01*
X148851000Y-63523213D01*
X148802925Y-63764903D01*
X148708622Y-63992571D01*
X148571715Y-64197466D01*
X148397466Y-64371715D01*
X148192571Y-64508622D01*
X148192570Y-64508623D01*
X148192569Y-64508623D01*
X147964903Y-64602925D01*
X147723214Y-64651000D01*
X147476786Y-64651000D01*
X147235097Y-64602925D01*
X147007431Y-64508623D01*
X147007430Y-64508623D01*
X147007429Y-64508622D01*
X146802534Y-64371715D01*
X146628285Y-64197466D01*
X146491378Y-63992571D01*
X146397075Y-63764903D01*
X146349000Y-63523213D01*
X146349000Y-63276787D01*
X146397075Y-63035097D01*
X146491378Y-62807429D01*
X146628285Y-62602534D01*
X146802534Y-62428285D01*
X147007429Y-62291378D01*
X147235097Y-62197075D01*
X147476786Y-62149000D01*
X147723214Y-62149000D01*
X147964903Y-62197075D01*
X147964903Y-62197075D01*
G37*
G36*
X156240098Y-57240362D02*
G01*
X156364941Y-57292074D01*
X156364943Y-57292075D01*
X156477299Y-57367149D01*
X156572851Y-57462701D01*
X156647926Y-57575059D01*
X156699638Y-57699902D01*
X156726000Y-57832434D01*
X156726000Y-57967566D01*
X156699638Y-58100098D01*
X156647926Y-58224941D01*
X156647925Y-58224943D01*
X156572851Y-58337299D01*
X156477299Y-58432851D01*
X156364943Y-58507925D01*
X156364942Y-58507926D01*
X156364941Y-58507926D01*
X156240098Y-58559638D01*
X156107566Y-58586000D01*
X155972434Y-58586000D01*
X155839902Y-58559638D01*
X155715059Y-58507926D01*
X155715058Y-58507926D01*
X155715057Y-58507925D01*
X155602701Y-58432851D01*
X155507149Y-58337299D01*
X155432075Y-58224943D01*
X155432074Y-58224941D01*
X155380362Y-58100098D01*
X155354000Y-57967566D01*
X155354000Y-57832434D01*
X155380362Y-57699902D01*
X155432074Y-57575059D01*
X155507149Y-57462701D01*
X155602701Y-57367149D01*
X155715057Y-57292075D01*
X155715059Y-57292074D01*
X155839902Y-57240362D01*
X155972434Y-57214000D01*
X156107566Y-57214000D01*
X156240098Y-57240362D01*
X156240098Y-57240362D01*
G37*
G36*
X158913048Y-54103122D02*
G01*
X158947387Y-54113539D01*
X158979036Y-54130456D01*
X159006778Y-54153222D01*
X159029544Y-54180964D01*
X159046461Y-54212613D01*
X159056878Y-54246952D01*
X159061000Y-54288807D01*
X159061000Y-55511193D01*
X159056878Y-55553048D01*
X159046461Y-55587387D01*
X159029544Y-55619036D01*
X159006778Y-55646778D01*
X158979036Y-55669544D01*
X158947387Y-55686461D01*
X158913048Y-55696878D01*
X158871193Y-55701000D01*
X157128807Y-55701000D01*
X157086952Y-55696878D01*
X157052613Y-55686461D01*
X157020964Y-55669544D01*
X156993222Y-55646778D01*
X156970456Y-55619036D01*
X156953539Y-55587387D01*
X156943122Y-55553048D01*
X156939000Y-55511193D01*
X156939000Y-54288807D01*
X156943122Y-54246952D01*
X156953539Y-54212613D01*
X156970456Y-54180964D01*
X156993222Y-54153222D01*
X157020964Y-54130456D01*
X157052613Y-54113539D01*
X157086952Y-54103122D01*
X157128807Y-54099000D01*
X158871193Y-54099000D01*
X158913048Y-54103122D01*
X158913048Y-54103122D01*
G37*
G36*
X64160098Y-53340362D02*
G01*
X64284941Y-53392074D01*
X64284943Y-53392075D01*
X64397299Y-53467149D01*
X64492851Y-53562701D01*
X64567926Y-53675059D01*
X64619638Y-53799902D01*
X64646000Y-53932434D01*
X64646000Y-54067566D01*
X64619638Y-54200098D01*
X64582893Y-54288807D01*
X64567925Y-54324943D01*
X64492851Y-54437299D01*
X64397299Y-54532851D01*
X64284943Y-54607925D01*
X64284942Y-54607926D01*
X64284941Y-54607926D01*
X64160098Y-54659638D01*
X64027566Y-54686000D01*
X63892434Y-54686000D01*
X63759902Y-54659638D01*
X63635059Y-54607926D01*
X63635058Y-54607926D01*
X63635057Y-54607925D01*
X63522701Y-54532851D01*
X63427149Y-54437299D01*
X63352075Y-54324943D01*
X63337107Y-54288807D01*
X63300362Y-54200098D01*
X63274000Y-54067566D01*
X63274000Y-53932434D01*
X63300362Y-53799902D01*
X63352074Y-53675059D01*
X63427149Y-53562701D01*
X63522701Y-53467149D01*
X63635057Y-53392075D01*
X63635059Y-53392074D01*
X63759902Y-53340362D01*
X63892434Y-53314000D01*
X64027566Y-53314000D01*
X64160098Y-53340362D01*
X64160098Y-53340362D01*
G37*
G36*
X158338571Y-51102863D02*
G01*
X158417023Y-51110590D01*
X158517682Y-51141125D01*
X158568013Y-51156392D01*
X158707165Y-51230771D01*
X158829133Y-51330867D01*
X158929229Y-51452835D01*
X159003608Y-51591987D01*
X159003608Y-51591988D01*
X159049410Y-51742977D01*
X159064875Y-51900000D01*
X159049410Y-52057023D01*
X159018875Y-52157682D01*
X159003608Y-52208013D01*
X158929229Y-52347165D01*
X158829133Y-52469133D01*
X158707165Y-52569229D01*
X158568013Y-52643608D01*
X158517682Y-52658875D01*
X158417023Y-52689410D01*
X158338571Y-52697137D01*
X158299346Y-52701000D01*
X157700654Y-52701000D01*
X157661429Y-52697137D01*
X157582977Y-52689410D01*
X157482318Y-52658875D01*
X157431987Y-52643608D01*
X157292835Y-52569229D01*
X157170867Y-52469133D01*
X157070771Y-52347165D01*
X156996392Y-52208013D01*
X156981125Y-52157682D01*
X156950590Y-52057023D01*
X156935125Y-51900000D01*
X156950590Y-51742977D01*
X156996392Y-51591988D01*
X156996392Y-51591987D01*
X157070771Y-51452835D01*
X157170867Y-51330867D01*
X157292835Y-51230771D01*
X157431987Y-51156392D01*
X157482318Y-51141125D01*
X157582977Y-51110590D01*
X157661429Y-51102863D01*
X157700654Y-51099000D01*
X158299346Y-51099000D01*
X158338571Y-51102863D01*
X158338571Y-51102863D01*
G37*
G36*
X62338571Y-50202863D02*
G01*
X62417023Y-50210590D01*
X62517682Y-50241125D01*
X62568013Y-50256392D01*
X62707165Y-50330771D01*
X62829133Y-50430867D01*
X62929229Y-50552835D01*
X63003608Y-50691987D01*
X63003608Y-50691988D01*
X63049410Y-50842977D01*
X63064875Y-51000000D01*
X63049410Y-51157023D01*
X63027039Y-51230771D01*
X63003608Y-51308013D01*
X62929229Y-51447165D01*
X62829133Y-51569133D01*
X62707165Y-51669229D01*
X62568013Y-51743608D01*
X62517682Y-51758875D01*
X62417023Y-51789410D01*
X62338571Y-51797137D01*
X62299346Y-51801000D01*
X61700654Y-51801000D01*
X61661429Y-51797137D01*
X61582977Y-51789410D01*
X61482318Y-51758875D01*
X61431987Y-51743608D01*
X61292835Y-51669229D01*
X61170867Y-51569133D01*
X61070771Y-51447165D01*
X60996392Y-51308013D01*
X60972961Y-51230771D01*
X60950590Y-51157023D01*
X60935125Y-51000000D01*
X60950590Y-50842977D01*
X60996392Y-50691988D01*
X60996392Y-50691987D01*
X61070771Y-50552835D01*
X61170867Y-50430867D01*
X61292835Y-50330771D01*
X61431987Y-50256392D01*
X61482318Y-50241125D01*
X61582977Y-50210590D01*
X61661429Y-50202863D01*
X61700654Y-50199000D01*
X62299346Y-50199000D01*
X62338571Y-50202863D01*
X62338571Y-50202863D01*
G37*
G36*
X156240098Y-48240362D02*
G01*
X156364941Y-48292074D01*
X156364943Y-48292075D01*
X156477299Y-48367149D01*
X156572851Y-48462701D01*
X156620492Y-48534000D01*
X156647926Y-48575059D01*
X156699638Y-48699902D01*
X156726000Y-48832434D01*
X156726000Y-48967566D01*
X156699638Y-49100098D01*
X156647926Y-49224941D01*
X156647925Y-49224943D01*
X156572851Y-49337299D01*
X156477299Y-49432851D01*
X156364943Y-49507925D01*
X156364942Y-49507926D01*
X156364941Y-49507926D01*
X156240098Y-49559638D01*
X156107566Y-49586000D01*
X155972434Y-49586000D01*
X155839902Y-49559638D01*
X155715059Y-49507926D01*
X155715058Y-49507926D01*
X155715057Y-49507925D01*
X155602701Y-49432851D01*
X155507149Y-49337299D01*
X155432075Y-49224943D01*
X155432074Y-49224941D01*
X155380362Y-49100098D01*
X155354000Y-48967566D01*
X155354000Y-48832434D01*
X155380362Y-48699902D01*
X155432074Y-48575059D01*
X155459509Y-48534000D01*
X155507149Y-48462701D01*
X155602701Y-48367149D01*
X155715057Y-48292075D01*
X155715059Y-48292074D01*
X155839902Y-48240362D01*
X155972434Y-48214000D01*
X156107566Y-48214000D01*
X156240098Y-48240362D01*
X156240098Y-48240362D01*
G37*
G36*
X86464903Y-46597075D02*
G01*
X86692571Y-46691378D01*
X86897466Y-46828285D01*
X87071715Y-47002534D01*
X87208622Y-47207429D01*
X87208623Y-47207431D01*
X87302925Y-47435097D01*
X87351000Y-47676787D01*
X87351000Y-47923213D01*
X87302925Y-48164903D01*
X87208622Y-48392571D01*
X87071715Y-48597466D01*
X86897466Y-48771715D01*
X86692571Y-48908622D01*
X86692570Y-48908623D01*
X86692569Y-48908623D01*
X86464903Y-49002925D01*
X86223214Y-49051000D01*
X85976786Y-49051000D01*
X85735097Y-49002925D01*
X85507431Y-48908623D01*
X85507430Y-48908623D01*
X85507429Y-48908622D01*
X85302534Y-48771715D01*
X85128285Y-48597466D01*
X84991378Y-48392571D01*
X84897075Y-48164903D01*
X84849000Y-47923213D01*
X84849000Y-47676787D01*
X84897075Y-47435097D01*
X84991377Y-47207431D01*
X84991378Y-47207429D01*
X85128285Y-47002534D01*
X85302534Y-46828285D01*
X85507429Y-46691378D01*
X85735097Y-46597075D01*
X85976786Y-46549000D01*
X86223214Y-46549000D01*
X86464903Y-46597075D01*
X86464903Y-46597075D01*
G37*
G36*
X72994903Y-46597075D02*
G01*
X73222571Y-46691378D01*
X73427466Y-46828285D01*
X73601715Y-47002534D01*
X73738622Y-47207429D01*
X73738623Y-47207431D01*
X73832925Y-47435097D01*
X73881000Y-47676787D01*
X73881000Y-47923213D01*
X73832925Y-48164903D01*
X73738622Y-48392571D01*
X73601715Y-48597466D01*
X73427466Y-48771715D01*
X73222571Y-48908622D01*
X73222570Y-48908623D01*
X73222569Y-48908623D01*
X72994903Y-49002925D01*
X72753214Y-49051000D01*
X72506786Y-49051000D01*
X72265097Y-49002925D01*
X72037431Y-48908623D01*
X72037430Y-48908623D01*
X72037429Y-48908622D01*
X71832534Y-48771715D01*
X71658285Y-48597466D01*
X71521378Y-48392571D01*
X71427075Y-48164903D01*
X71379000Y-47923213D01*
X71379000Y-47676787D01*
X71427075Y-47435097D01*
X71521377Y-47207431D01*
X71521378Y-47207429D01*
X71658285Y-47002534D01*
X71832534Y-46828285D01*
X72037429Y-46691378D01*
X72265097Y-46597075D01*
X72506786Y-46549000D01*
X72753214Y-46549000D01*
X72994903Y-46597075D01*
X72994903Y-46597075D01*
G37*
G36*
X62913048Y-47203122D02*
G01*
X62947387Y-47213539D01*
X62979036Y-47230456D01*
X63006778Y-47253222D01*
X63029544Y-47280964D01*
X63046461Y-47312613D01*
X63056878Y-47346952D01*
X63061000Y-47388807D01*
X63061000Y-48611193D01*
X63056878Y-48653048D01*
X63046461Y-48687387D01*
X63029544Y-48719036D01*
X63006778Y-48746778D01*
X62979036Y-48769544D01*
X62947387Y-48786461D01*
X62913048Y-48796878D01*
X62871193Y-48801000D01*
X61128807Y-48801000D01*
X61086952Y-48796878D01*
X61052613Y-48786461D01*
X61020964Y-48769544D01*
X60993222Y-48746778D01*
X60970456Y-48719036D01*
X60953539Y-48687387D01*
X60943122Y-48653048D01*
X60939000Y-48611193D01*
X60939000Y-47388807D01*
X60943122Y-47346952D01*
X60953539Y-47312613D01*
X60970456Y-47280964D01*
X60993222Y-47253222D01*
X61020964Y-47230456D01*
X61052613Y-47213539D01*
X61086952Y-47203122D01*
X61128807Y-47199000D01*
X62871193Y-47199000D01*
X62913048Y-47203122D01*
X62913048Y-47203122D01*
G37*
G36*
X64160098Y-44340362D02*
G01*
X64284941Y-44392074D01*
X64284943Y-44392075D01*
X64397299Y-44467149D01*
X64492851Y-44562701D01*
X64567926Y-44675059D01*
X64619638Y-44799902D01*
X64646000Y-44932434D01*
X64646000Y-45067566D01*
X64619638Y-45200098D01*
X64567926Y-45324941D01*
X64567925Y-45324943D01*
X64492851Y-45437299D01*
X64397299Y-45532851D01*
X64284943Y-45607925D01*
X64284942Y-45607926D01*
X64284941Y-45607926D01*
X64160098Y-45659638D01*
X64027566Y-45686000D01*
X63892434Y-45686000D01*
X63759902Y-45659638D01*
X63635059Y-45607926D01*
X63635058Y-45607926D01*
X63635057Y-45607925D01*
X63522701Y-45532851D01*
X63427149Y-45437299D01*
X63352075Y-45324943D01*
X63352074Y-45324941D01*
X63300362Y-45200098D01*
X63274000Y-45067566D01*
X63274000Y-44932434D01*
X63300362Y-44799902D01*
X63352074Y-44675059D01*
X63427149Y-44562701D01*
X63522701Y-44467149D01*
X63635057Y-44392075D01*
X63635059Y-44392074D01*
X63759902Y-44340362D01*
X63892434Y-44314000D01*
X64027566Y-44314000D01*
X64160098Y-44340362D01*
X64160098Y-44340362D01*
G37*
G36*
X86464903Y-43197075D02*
G01*
X86692571Y-43291378D01*
X86897466Y-43428285D01*
X87071715Y-43602534D01*
X87071716Y-43602536D01*
X87208623Y-43807431D01*
X87302925Y-44035097D01*
X87351000Y-44276786D01*
X87351000Y-44523214D01*
X87320796Y-44675059D01*
X87302925Y-44764903D01*
X87208622Y-44992571D01*
X87071715Y-45197466D01*
X86897466Y-45371715D01*
X86692571Y-45508622D01*
X86692570Y-45508623D01*
X86692569Y-45508623D01*
X86464903Y-45602925D01*
X86223214Y-45651000D01*
X85976786Y-45651000D01*
X85735097Y-45602925D01*
X85507431Y-45508623D01*
X85507430Y-45508623D01*
X85507429Y-45508622D01*
X85302534Y-45371715D01*
X85128285Y-45197466D01*
X84991378Y-44992571D01*
X84897075Y-44764903D01*
X84879204Y-44675059D01*
X84849000Y-44523214D01*
X84849000Y-44276786D01*
X84897075Y-44035097D01*
X84991377Y-43807431D01*
X85128284Y-43602536D01*
X85128285Y-43602534D01*
X85302534Y-43428285D01*
X85507429Y-43291378D01*
X85735097Y-43197075D01*
X85976786Y-43149000D01*
X86223214Y-43149000D01*
X86464903Y-43197075D01*
X86464903Y-43197075D01*
G37*
G36*
X72994903Y-43197075D02*
G01*
X73222571Y-43291378D01*
X73427466Y-43428285D01*
X73601715Y-43602534D01*
X73601716Y-43602536D01*
X73738623Y-43807431D01*
X73832925Y-44035097D01*
X73881000Y-44276786D01*
X73881000Y-44523214D01*
X73850796Y-44675059D01*
X73832925Y-44764903D01*
X73738622Y-44992571D01*
X73601715Y-45197466D01*
X73427466Y-45371715D01*
X73222571Y-45508622D01*
X73222570Y-45508623D01*
X73222569Y-45508623D01*
X72994903Y-45602925D01*
X72753214Y-45651000D01*
X72506786Y-45651000D01*
X72265097Y-45602925D01*
X72037431Y-45508623D01*
X72037430Y-45508623D01*
X72037429Y-45508622D01*
X71832534Y-45371715D01*
X71658285Y-45197466D01*
X71521378Y-44992571D01*
X71427075Y-44764903D01*
X71409204Y-44675059D01*
X71379000Y-44523214D01*
X71379000Y-44276786D01*
X71427075Y-44035097D01*
X71521377Y-43807431D01*
X71658284Y-43602536D01*
X71658285Y-43602534D01*
X71832534Y-43428285D01*
X72037429Y-43291378D01*
X72265097Y-43197075D01*
X72506786Y-43149000D01*
X72753214Y-43149000D01*
X72994903Y-43197075D01*
X72994903Y-43197075D01*
G37*
G36*
X155375256Y-38391298D02*
G01*
X155481579Y-38412447D01*
X155782042Y-38536903D01*
X156052451Y-38717585D01*
X156282415Y-38947549D01*
X156463097Y-39217958D01*
X156463098Y-39217960D01*
X156587553Y-39518422D01*
X156640568Y-39784943D01*
X156651000Y-39837391D01*
X156651000Y-40162609D01*
X156587553Y-40481579D01*
X156463097Y-40782042D01*
X156282415Y-41052451D01*
X156052451Y-41282415D01*
X155782042Y-41463097D01*
X155481579Y-41587553D01*
X155375256Y-41608702D01*
X155162611Y-41651000D01*
X154837389Y-41651000D01*
X154624744Y-41608702D01*
X154518421Y-41587553D01*
X154217958Y-41463097D01*
X153947549Y-41282415D01*
X153717585Y-41052451D01*
X153536903Y-40782042D01*
X153412447Y-40481579D01*
X153349000Y-40162609D01*
X153349000Y-39837391D01*
X153359433Y-39784943D01*
X153412447Y-39518422D01*
X153536902Y-39217960D01*
X153536903Y-39217958D01*
X153717585Y-38947549D01*
X153947549Y-38717585D01*
X154217958Y-38536903D01*
X154518421Y-38412447D01*
X154624744Y-38391298D01*
X154837389Y-38349000D01*
X155162611Y-38349000D01*
X155375256Y-38391298D01*
X155375256Y-38391298D01*
G37*
G36*
X65375256Y-38391298D02*
G01*
X65481579Y-38412447D01*
X65782042Y-38536903D01*
X66052451Y-38717585D01*
X66282415Y-38947549D01*
X66463097Y-39217958D01*
X66463098Y-39217960D01*
X66587553Y-39518422D01*
X66640568Y-39784943D01*
X66651000Y-39837391D01*
X66651000Y-40162609D01*
X66587553Y-40481579D01*
X66463097Y-40782042D01*
X66282415Y-41052451D01*
X66052451Y-41282415D01*
X65782042Y-41463097D01*
X65481579Y-41587553D01*
X65375256Y-41608702D01*
X65162611Y-41651000D01*
X64837389Y-41651000D01*
X64624744Y-41608702D01*
X64518421Y-41587553D01*
X64217958Y-41463097D01*
X63947549Y-41282415D01*
X63717585Y-41052451D01*
X63536903Y-40782042D01*
X63412447Y-40481579D01*
X63349000Y-40162609D01*
X63349000Y-39837391D01*
X63359433Y-39784943D01*
X63412447Y-39518422D01*
X63536902Y-39217960D01*
X63536903Y-39217958D01*
X63717585Y-38947549D01*
X63947549Y-38717585D01*
X64217958Y-38536903D01*
X64518421Y-38412447D01*
X64624744Y-38391298D01*
X64837389Y-38349000D01*
X65162611Y-38349000D01*
X65375256Y-38391298D01*
X65375256Y-38391298D01*
G37*
G36*
X147700098Y-38800362D02*
G01*
X147783863Y-38835059D01*
X147824943Y-38852075D01*
X147937299Y-38927149D01*
X148032851Y-39022701D01*
X148107926Y-39135059D01*
X148159638Y-39259902D01*
X148186000Y-39392434D01*
X148186000Y-39527566D01*
X148159638Y-39660098D01*
X148146071Y-39692851D01*
X148107925Y-39784943D01*
X148032851Y-39897299D01*
X147937299Y-39992851D01*
X147824943Y-40067925D01*
X147824942Y-40067926D01*
X147824941Y-40067926D01*
X147700098Y-40119638D01*
X147567566Y-40146000D01*
X147432434Y-40146000D01*
X147299902Y-40119638D01*
X147175059Y-40067926D01*
X147175058Y-40067926D01*
X147175057Y-40067925D01*
X147062701Y-39992851D01*
X146967149Y-39897299D01*
X146892075Y-39784943D01*
X146853929Y-39692851D01*
X146840362Y-39660098D01*
X146814000Y-39527566D01*
X146814000Y-39392434D01*
X146840362Y-39259902D01*
X146892074Y-39135059D01*
X146967149Y-39022701D01*
X147062701Y-38927149D01*
X147175057Y-38852075D01*
X147216137Y-38835059D01*
X147299902Y-38800362D01*
X147432434Y-38774000D01*
X147567566Y-38774000D01*
X147700098Y-38800362D01*
X147700098Y-38800362D01*
G37*
G36*
X117700098Y-38800362D02*
G01*
X117783863Y-38835059D01*
X117824943Y-38852075D01*
X117937299Y-38927149D01*
X118032851Y-39022701D01*
X118107926Y-39135059D01*
X118159638Y-39259902D01*
X118186000Y-39392434D01*
X118186000Y-39527566D01*
X118159638Y-39660098D01*
X118146071Y-39692851D01*
X118107925Y-39784943D01*
X118032851Y-39897299D01*
X117937299Y-39992851D01*
X117824943Y-40067925D01*
X117824942Y-40067926D01*
X117824941Y-40067926D01*
X117700098Y-40119638D01*
X117567566Y-40146000D01*
X117432434Y-40146000D01*
X117299902Y-40119638D01*
X117175059Y-40067926D01*
X117175058Y-40067926D01*
X117175057Y-40067925D01*
X117062701Y-39992851D01*
X116967149Y-39897299D01*
X116892075Y-39784943D01*
X116853929Y-39692851D01*
X116840362Y-39660098D01*
X116814000Y-39527566D01*
X116814000Y-39392434D01*
X116840362Y-39259902D01*
X116892074Y-39135059D01*
X116967149Y-39022701D01*
X117062701Y-38927149D01*
X117175057Y-38852075D01*
X117216137Y-38835059D01*
X117299902Y-38800362D01*
X117432434Y-38774000D01*
X117567566Y-38774000D01*
X117700098Y-38800362D01*
X117700098Y-38800362D01*
G37*
G36*
X77200098Y-38500362D02*
G01*
X77324941Y-38552074D01*
X77324943Y-38552075D01*
X77437299Y-38627149D01*
X77532851Y-38722701D01*
X77584743Y-38800362D01*
X77607926Y-38835059D01*
X77659638Y-38959902D01*
X77686000Y-39092434D01*
X77686000Y-39227566D01*
X77659638Y-39360098D01*
X77646243Y-39392435D01*
X77607925Y-39484943D01*
X77532851Y-39597299D01*
X77437299Y-39692851D01*
X77324943Y-39767925D01*
X77324942Y-39767926D01*
X77324941Y-39767926D01*
X77200098Y-39819638D01*
X77067566Y-39846000D01*
X76932434Y-39846000D01*
X76799902Y-39819638D01*
X76675059Y-39767926D01*
X76675058Y-39767926D01*
X76675057Y-39767925D01*
X76562701Y-39692851D01*
X76467149Y-39597299D01*
X76392075Y-39484943D01*
X76353757Y-39392435D01*
X76340362Y-39360098D01*
X76314000Y-39227566D01*
X76314000Y-39092434D01*
X76340362Y-38959902D01*
X76392074Y-38835059D01*
X76415258Y-38800362D01*
X76467149Y-38722701D01*
X76562701Y-38627149D01*
X76675057Y-38552075D01*
X76675059Y-38552074D01*
X76799902Y-38500362D01*
X76932434Y-38474000D01*
X77067566Y-38474000D01*
X77200098Y-38500362D01*
X77200098Y-38500362D01*
G37*
G36*
X86200098Y-38500362D02*
G01*
X86324941Y-38552074D01*
X86324943Y-38552075D01*
X86437299Y-38627149D01*
X86532851Y-38722701D01*
X86584743Y-38800362D01*
X86607926Y-38835059D01*
X86659638Y-38959902D01*
X86686000Y-39092434D01*
X86686000Y-39227566D01*
X86659638Y-39360098D01*
X86646243Y-39392435D01*
X86607925Y-39484943D01*
X86532851Y-39597299D01*
X86437299Y-39692851D01*
X86324943Y-39767925D01*
X86324942Y-39767926D01*
X86324941Y-39767926D01*
X86200098Y-39819638D01*
X86067566Y-39846000D01*
X85932434Y-39846000D01*
X85799902Y-39819638D01*
X85675059Y-39767926D01*
X85675058Y-39767926D01*
X85675057Y-39767925D01*
X85562701Y-39692851D01*
X85467149Y-39597299D01*
X85392075Y-39484943D01*
X85353757Y-39392435D01*
X85340362Y-39360098D01*
X85314000Y-39227566D01*
X85314000Y-39092434D01*
X85340362Y-38959902D01*
X85392074Y-38835059D01*
X85415258Y-38800362D01*
X85467149Y-38722701D01*
X85562701Y-38627149D01*
X85675057Y-38552075D01*
X85675059Y-38552074D01*
X85799902Y-38500362D01*
X85932434Y-38474000D01*
X86067566Y-38474000D01*
X86200098Y-38500362D01*
X86200098Y-38500362D01*
G37*
G36*
X132657023Y-36450590D02*
G01*
X132722512Y-36470456D01*
X132808013Y-36496392D01*
X132947165Y-36570771D01*
X133069133Y-36670867D01*
X133169229Y-36792835D01*
X133243608Y-36931987D01*
X133243608Y-36931988D01*
X133289410Y-37082977D01*
X133301000Y-37200655D01*
X133301000Y-37799345D01*
X133289410Y-37917023D01*
X133266059Y-37994000D01*
X133243608Y-38068013D01*
X133171130Y-38203608D01*
X133169229Y-38207165D01*
X133069133Y-38329133D01*
X132967613Y-38412447D01*
X132947164Y-38429229D01*
X132808012Y-38503608D01*
X132757681Y-38518875D01*
X132657022Y-38549410D01*
X132500000Y-38564875D01*
X132342977Y-38549410D01*
X132242318Y-38518875D01*
X132191987Y-38503608D01*
X132052835Y-38429229D01*
X131982118Y-38371193D01*
X131930867Y-38329133D01*
X131830771Y-38207164D01*
X131796120Y-38142337D01*
X131756392Y-38068012D01*
X131733941Y-37994000D01*
X131710590Y-37917022D01*
X131699000Y-37799344D01*
X131699000Y-37200655D01*
X131710590Y-37082977D01*
X131756392Y-36931988D01*
X131756392Y-36931987D01*
X131830772Y-36792835D01*
X131930868Y-36670867D01*
X132052836Y-36570771D01*
X132086807Y-36552613D01*
X132191988Y-36496392D01*
X132277489Y-36470456D01*
X132342978Y-36450590D01*
X132500000Y-36435125D01*
X132657023Y-36450590D01*
X132657023Y-36450590D01*
G37*
G36*
X141657023Y-36450590D02*
G01*
X141722512Y-36470456D01*
X141808013Y-36496392D01*
X141947165Y-36570771D01*
X142069133Y-36670867D01*
X142169229Y-36792835D01*
X142243608Y-36931987D01*
X142243608Y-36931988D01*
X142289410Y-37082977D01*
X142301000Y-37200655D01*
X142301000Y-37799345D01*
X142289410Y-37917023D01*
X142266059Y-37994000D01*
X142243608Y-38068013D01*
X142171130Y-38203608D01*
X142169229Y-38207165D01*
X142069133Y-38329133D01*
X141967613Y-38412447D01*
X141947164Y-38429229D01*
X141808012Y-38503608D01*
X141757681Y-38518875D01*
X141657022Y-38549410D01*
X141500000Y-38564875D01*
X141342977Y-38549410D01*
X141242318Y-38518875D01*
X141191987Y-38503608D01*
X141052835Y-38429229D01*
X140982118Y-38371193D01*
X140930867Y-38329133D01*
X140830771Y-38207164D01*
X140796120Y-38142337D01*
X140756392Y-38068012D01*
X140733941Y-37994000D01*
X140710590Y-37917022D01*
X140699000Y-37799344D01*
X140699000Y-37200655D01*
X140710590Y-37082977D01*
X140756392Y-36931988D01*
X140756392Y-36931987D01*
X140830772Y-36792835D01*
X140930868Y-36670867D01*
X141052836Y-36570771D01*
X141086807Y-36552613D01*
X141191988Y-36496392D01*
X141277489Y-36470456D01*
X141342978Y-36450590D01*
X141500000Y-36435125D01*
X141657023Y-36450590D01*
X141657023Y-36450590D01*
G37*
G36*
X120657023Y-36450590D02*
G01*
X120722512Y-36470456D01*
X120808013Y-36496392D01*
X120947165Y-36570771D01*
X121069133Y-36670867D01*
X121169229Y-36792835D01*
X121243608Y-36931987D01*
X121243608Y-36931988D01*
X121289410Y-37082977D01*
X121301000Y-37200655D01*
X121301000Y-37799345D01*
X121289410Y-37917023D01*
X121266059Y-37994000D01*
X121243608Y-38068013D01*
X121171130Y-38203608D01*
X121169229Y-38207165D01*
X121069133Y-38329133D01*
X120967613Y-38412447D01*
X120947164Y-38429229D01*
X120808012Y-38503608D01*
X120757681Y-38518875D01*
X120657022Y-38549410D01*
X120500000Y-38564875D01*
X120342977Y-38549410D01*
X120242318Y-38518875D01*
X120191987Y-38503608D01*
X120052835Y-38429229D01*
X119982118Y-38371193D01*
X119930867Y-38329133D01*
X119830771Y-38207164D01*
X119796120Y-38142337D01*
X119756392Y-38068012D01*
X119733941Y-37994000D01*
X119710590Y-37917022D01*
X119699000Y-37799344D01*
X119699000Y-37200655D01*
X119710590Y-37082977D01*
X119756392Y-36931988D01*
X119756392Y-36931987D01*
X119830772Y-36792835D01*
X119930868Y-36670867D01*
X120052836Y-36570771D01*
X120086807Y-36552613D01*
X120191988Y-36496392D01*
X120277489Y-36470456D01*
X120342978Y-36450590D01*
X120500000Y-36435125D01*
X120657023Y-36450590D01*
X120657023Y-36450590D01*
G37*
G36*
X123657023Y-36450590D02*
G01*
X123722512Y-36470456D01*
X123808013Y-36496392D01*
X123947165Y-36570771D01*
X124069133Y-36670867D01*
X124169229Y-36792835D01*
X124243608Y-36931987D01*
X124243608Y-36931988D01*
X124289410Y-37082977D01*
X124301000Y-37200655D01*
X124301000Y-37799345D01*
X124289410Y-37917023D01*
X124266059Y-37994000D01*
X124243608Y-38068013D01*
X124171130Y-38203608D01*
X124169229Y-38207165D01*
X124069133Y-38329133D01*
X123967613Y-38412447D01*
X123947164Y-38429229D01*
X123808012Y-38503608D01*
X123757681Y-38518875D01*
X123657022Y-38549410D01*
X123500000Y-38564875D01*
X123342977Y-38549410D01*
X123242318Y-38518875D01*
X123191987Y-38503608D01*
X123052835Y-38429229D01*
X122982118Y-38371193D01*
X122930867Y-38329133D01*
X122830771Y-38207164D01*
X122796120Y-38142337D01*
X122756392Y-38068012D01*
X122733941Y-37994000D01*
X122710590Y-37917022D01*
X122699000Y-37799344D01*
X122699000Y-37200655D01*
X122710590Y-37082977D01*
X122756392Y-36931988D01*
X122756392Y-36931987D01*
X122830772Y-36792835D01*
X122930868Y-36670867D01*
X123052836Y-36570771D01*
X123086807Y-36552613D01*
X123191988Y-36496392D01*
X123277489Y-36470456D01*
X123342978Y-36450590D01*
X123500000Y-36435125D01*
X123657023Y-36450590D01*
X123657023Y-36450590D01*
G37*
G36*
X126657023Y-36450590D02*
G01*
X126722512Y-36470456D01*
X126808013Y-36496392D01*
X126947165Y-36570771D01*
X127069133Y-36670867D01*
X127169229Y-36792835D01*
X127243608Y-36931987D01*
X127243608Y-36931988D01*
X127289410Y-37082977D01*
X127301000Y-37200655D01*
X127301000Y-37799345D01*
X127289410Y-37917023D01*
X127266059Y-37994000D01*
X127243608Y-38068013D01*
X127171130Y-38203608D01*
X127169229Y-38207165D01*
X127069133Y-38329133D01*
X126967613Y-38412447D01*
X126947164Y-38429229D01*
X126808012Y-38503608D01*
X126757681Y-38518875D01*
X126657022Y-38549410D01*
X126500000Y-38564875D01*
X126342977Y-38549410D01*
X126242318Y-38518875D01*
X126191987Y-38503608D01*
X126052835Y-38429229D01*
X125982118Y-38371193D01*
X125930867Y-38329133D01*
X125830771Y-38207164D01*
X125796120Y-38142337D01*
X125756392Y-38068012D01*
X125733941Y-37994000D01*
X125710590Y-37917022D01*
X125699000Y-37799344D01*
X125699000Y-37200655D01*
X125710590Y-37082977D01*
X125756392Y-36931988D01*
X125756392Y-36931987D01*
X125830772Y-36792835D01*
X125930868Y-36670867D01*
X126052836Y-36570771D01*
X126086807Y-36552613D01*
X126191988Y-36496392D01*
X126277489Y-36470456D01*
X126342978Y-36450590D01*
X126500000Y-36435125D01*
X126657023Y-36450590D01*
X126657023Y-36450590D01*
G37*
G36*
X129657023Y-36450590D02*
G01*
X129722512Y-36470456D01*
X129808013Y-36496392D01*
X129947165Y-36570771D01*
X130069133Y-36670867D01*
X130169229Y-36792835D01*
X130243608Y-36931987D01*
X130243608Y-36931988D01*
X130289410Y-37082977D01*
X130301000Y-37200655D01*
X130301000Y-37799345D01*
X130289410Y-37917023D01*
X130266059Y-37994000D01*
X130243608Y-38068013D01*
X130171130Y-38203608D01*
X130169229Y-38207165D01*
X130069133Y-38329133D01*
X129967613Y-38412447D01*
X129947164Y-38429229D01*
X129808012Y-38503608D01*
X129757681Y-38518875D01*
X129657022Y-38549410D01*
X129500000Y-38564875D01*
X129342977Y-38549410D01*
X129242318Y-38518875D01*
X129191987Y-38503608D01*
X129052835Y-38429229D01*
X128982118Y-38371193D01*
X128930867Y-38329133D01*
X128830771Y-38207164D01*
X128796120Y-38142337D01*
X128756392Y-38068012D01*
X128733941Y-37994000D01*
X128710590Y-37917022D01*
X128699000Y-37799344D01*
X128699000Y-37200655D01*
X128710590Y-37082977D01*
X128756392Y-36931988D01*
X128756392Y-36931987D01*
X128830772Y-36792835D01*
X128930868Y-36670867D01*
X129052836Y-36570771D01*
X129086807Y-36552613D01*
X129191988Y-36496392D01*
X129277489Y-36470456D01*
X129342978Y-36450590D01*
X129500000Y-36435125D01*
X129657023Y-36450590D01*
X129657023Y-36450590D01*
G37*
G36*
X135657023Y-36450590D02*
G01*
X135722512Y-36470456D01*
X135808013Y-36496392D01*
X135947165Y-36570771D01*
X136069133Y-36670867D01*
X136169229Y-36792835D01*
X136243608Y-36931987D01*
X136243608Y-36931988D01*
X136289410Y-37082977D01*
X136301000Y-37200655D01*
X136301000Y-37799345D01*
X136289410Y-37917023D01*
X136266059Y-37994000D01*
X136243608Y-38068013D01*
X136171130Y-38203608D01*
X136169229Y-38207165D01*
X136069133Y-38329133D01*
X135967613Y-38412447D01*
X135947164Y-38429229D01*
X135808012Y-38503608D01*
X135757681Y-38518875D01*
X135657022Y-38549410D01*
X135500000Y-38564875D01*
X135342977Y-38549410D01*
X135242318Y-38518875D01*
X135191987Y-38503608D01*
X135052835Y-38429229D01*
X134982118Y-38371193D01*
X134930867Y-38329133D01*
X134830771Y-38207164D01*
X134796120Y-38142337D01*
X134756392Y-38068012D01*
X134733941Y-37994000D01*
X134710590Y-37917022D01*
X134699000Y-37799344D01*
X134699000Y-37200655D01*
X134710590Y-37082977D01*
X134756392Y-36931988D01*
X134756392Y-36931987D01*
X134830772Y-36792835D01*
X134930868Y-36670867D01*
X135052836Y-36570771D01*
X135086807Y-36552613D01*
X135191988Y-36496392D01*
X135277489Y-36470456D01*
X135342978Y-36450590D01*
X135500000Y-36435125D01*
X135657023Y-36450590D01*
X135657023Y-36450590D01*
G37*
G36*
X138657023Y-36450590D02*
G01*
X138722512Y-36470456D01*
X138808013Y-36496392D01*
X138947165Y-36570771D01*
X139069133Y-36670867D01*
X139169229Y-36792835D01*
X139243608Y-36931987D01*
X139243608Y-36931988D01*
X139289410Y-37082977D01*
X139301000Y-37200655D01*
X139301000Y-37799345D01*
X139289410Y-37917023D01*
X139266059Y-37994000D01*
X139243608Y-38068013D01*
X139171130Y-38203608D01*
X139169229Y-38207165D01*
X139069133Y-38329133D01*
X138967613Y-38412447D01*
X138947164Y-38429229D01*
X138808012Y-38503608D01*
X138757681Y-38518875D01*
X138657022Y-38549410D01*
X138500000Y-38564875D01*
X138342977Y-38549410D01*
X138242318Y-38518875D01*
X138191987Y-38503608D01*
X138052835Y-38429229D01*
X137982118Y-38371193D01*
X137930867Y-38329133D01*
X137830771Y-38207164D01*
X137796120Y-38142337D01*
X137756392Y-38068012D01*
X137733941Y-37994000D01*
X137710590Y-37917022D01*
X137699000Y-37799344D01*
X137699000Y-37200655D01*
X137710590Y-37082977D01*
X137756392Y-36931988D01*
X137756392Y-36931987D01*
X137830772Y-36792835D01*
X137930868Y-36670867D01*
X138052836Y-36570771D01*
X138086807Y-36552613D01*
X138191988Y-36496392D01*
X138277489Y-36470456D01*
X138342978Y-36450590D01*
X138500000Y-36435125D01*
X138657023Y-36450590D01*
X138657023Y-36450590D01*
G37*
G36*
X145153048Y-36443122D02*
G01*
X145187387Y-36453539D01*
X145219036Y-36470456D01*
X145246778Y-36493222D01*
X145269544Y-36520964D01*
X145286461Y-36552613D01*
X145296878Y-36586952D01*
X145301000Y-36628807D01*
X145301000Y-38371193D01*
X145296878Y-38413048D01*
X145286461Y-38447387D01*
X145269544Y-38479036D01*
X145246778Y-38506778D01*
X145219036Y-38529544D01*
X145187387Y-38546461D01*
X145153048Y-38556878D01*
X145111193Y-38561000D01*
X143888807Y-38561000D01*
X143846952Y-38556878D01*
X143812613Y-38546461D01*
X143780964Y-38529544D01*
X143753222Y-38506778D01*
X143730456Y-38479036D01*
X143713539Y-38447387D01*
X143703122Y-38413048D01*
X143699000Y-38371193D01*
X143699000Y-36628807D01*
X143703122Y-36586952D01*
X143713539Y-36552613D01*
X143730456Y-36520964D01*
X143753222Y-36493222D01*
X143780964Y-36470456D01*
X143812613Y-36453539D01*
X143846952Y-36443122D01*
X143888807Y-36439000D01*
X145111193Y-36439000D01*
X145153048Y-36443122D01*
X145153048Y-36443122D01*
G37*
G36*
X80157023Y-36150590D02*
G01*
X80222512Y-36170456D01*
X80308013Y-36196392D01*
X80447165Y-36270771D01*
X80569133Y-36370867D01*
X80669229Y-36492835D01*
X80743608Y-36631987D01*
X80743608Y-36631988D01*
X80789410Y-36782977D01*
X80801000Y-36900655D01*
X80801000Y-37499345D01*
X80789410Y-37617023D01*
X80758875Y-37717682D01*
X80743608Y-37768013D01*
X80726860Y-37799346D01*
X80669229Y-37907165D01*
X80569133Y-38029133D01*
X80466881Y-38113048D01*
X80447164Y-38129229D01*
X80308012Y-38203608D01*
X80257681Y-38218875D01*
X80157022Y-38249410D01*
X80000000Y-38264875D01*
X79842977Y-38249410D01*
X79742318Y-38218875D01*
X79691987Y-38203608D01*
X79552835Y-38129229D01*
X79478243Y-38068013D01*
X79430867Y-38029133D01*
X79330771Y-37907164D01*
X79273140Y-37799345D01*
X79256392Y-37768012D01*
X79241125Y-37717681D01*
X79210590Y-37617022D01*
X79199000Y-37499344D01*
X79199000Y-36900655D01*
X79210590Y-36782977D01*
X79256392Y-36631988D01*
X79256392Y-36631987D01*
X79296120Y-36557663D01*
X79330772Y-36492835D01*
X79430868Y-36370867D01*
X79552836Y-36270771D01*
X79586807Y-36252613D01*
X79691988Y-36196392D01*
X79777489Y-36170456D01*
X79842978Y-36150590D01*
X80000000Y-36135125D01*
X80157023Y-36150590D01*
X80157023Y-36150590D01*
G37*
G36*
X83653048Y-36143122D02*
G01*
X83687387Y-36153539D01*
X83719036Y-36170456D01*
X83746778Y-36193222D01*
X83769544Y-36220964D01*
X83786461Y-36252613D01*
X83796878Y-36286952D01*
X83801000Y-36328807D01*
X83801000Y-38071193D01*
X83796878Y-38113048D01*
X83786461Y-38147387D01*
X83769544Y-38179036D01*
X83746778Y-38206778D01*
X83719036Y-38229544D01*
X83687387Y-38246461D01*
X83653048Y-38256878D01*
X83611193Y-38261000D01*
X82388807Y-38261000D01*
X82346952Y-38256878D01*
X82312613Y-38246461D01*
X82280964Y-38229544D01*
X82253222Y-38206778D01*
X82230456Y-38179036D01*
X82213539Y-38147387D01*
X82203122Y-38113048D01*
X82199000Y-38071193D01*
X82199000Y-36328807D01*
X82203122Y-36286952D01*
X82213539Y-36252613D01*
X82230456Y-36220964D01*
X82253222Y-36193222D01*
X82280964Y-36170456D01*
X82312613Y-36153539D01*
X82346952Y-36143122D01*
X82388807Y-36139000D01*
X83611193Y-36139000D01*
X83653048Y-36143122D01*
X83653048Y-36143122D01*
G37*
M02*
