M48
; DRILL file {KiCad (5.1.4)-1} date 12/7/2021 11:14:47 AM
; FORMAT={-:-/ absolute / metric / decimal}
; #@! TF.CreationDate,2021-12-07T11:14:47-05:00
; #@! TF.GenerationSoftware,Kicad,Pcbnew,(5.1.4)-1
; #@! TF.FileFunction,Plated,1,2,PTH
FMAT,2
METRIC
T1C0.400
T2C0.800
T3C1.020
T4C1.200
T5C1.500
T6C1.600
T7C2.000
%
G90
G05
T1
X101.2Y-49.28
X105.2Y-42.4
X111.95Y-41.9
X117.7Y-56.95
T2
X137.7Y-79.32
X137.7Y-81.86
X137.7Y-84.4
T3
X120.5Y-37.5
X123.5Y-37.5
X126.5Y-37.5
X129.5Y-37.5
X132.5Y-37.5
X135.5Y-37.5
X138.5Y-37.5
X141.5Y-37.5
X144.5Y-37.5
X157.9Y-105.7
X157.9Y-108.7
X62.5Y-89.0
X62.5Y-92.0
X80.0Y-37.2
X83.0Y-37.2
X158.0Y-51.9
X158.0Y-54.9
X120.5Y-122.75
X123.5Y-122.75
X126.5Y-122.75
X129.5Y-122.75
X132.5Y-122.75
X135.5Y-122.75
X138.5Y-122.75
X141.5Y-122.75
X144.5Y-122.75
X62.0Y-48.0
X62.0Y-51.0
T4
X64.7Y-68.7
X64.7Y-73.7
T5
X79.6Y-74.45
X79.6Y-80.8
X79.6Y-87.15
X129.3Y-76.99
X129.3Y-80.8
X129.3Y-84.61
T6
X69.4Y-80.2
X69.4Y-93.67
X72.8Y-80.2
X72.8Y-93.67
X144.2Y-63.4
X144.2Y-76.87
X147.6Y-63.4
X147.6Y-76.87
X72.63Y-44.4
X72.63Y-47.8
X86.1Y-44.4
X86.1Y-47.8
X114.93Y-103.9
X114.93Y-107.3
X128.4Y-103.9
X128.4Y-107.3
T7
X129.3Y-73.18
X129.3Y-88.42
T0
M30
