%FSLAX45Y45*%
G04 Gerber Fmt 4.5, Leading zero omitted, Abs format (unit mm)*
G04 Created by KiCad (PCBNEW (5.1.4)-1) date 2021-12-07 11:14:48*
%MOMM*%
%LPD*%
G04 APERTURE LIST*
%ADD10C,0.050000*%
%ADD11C,0.200000*%
%ADD12C,0.300000*%
G04 APERTURE END LIST*
D10*
X16000000Y-12500000D02*
X6000000Y-12500000D01*
X16000000Y-3500000D02*
X16000000Y-12500000D01*
X6000000Y-3500000D02*
X16000000Y-3500000D01*
X6000000Y-12500000D02*
X6000000Y-3500000D01*
D11*
X7636500Y-3852500D02*
X7763500Y-3979500D01*
X7763500Y-3852500D02*
X7636500Y-3979500D01*
X15540500Y-5726500D02*
X15667500Y-5853500D01*
X15667500Y-5726500D02*
X15540500Y-5853500D01*
X11686500Y-3882500D02*
X11813500Y-4009500D01*
X11813500Y-3882500D02*
X11686500Y-4009500D01*
X14686500Y-3882500D02*
X14813500Y-4009500D01*
X14813500Y-3882500D02*
X14686500Y-4009500D01*
X15530500Y-10206500D02*
X15657500Y-10333500D01*
X15657500Y-10206500D02*
X15530500Y-10333500D01*
X15530500Y-11106500D02*
X15657500Y-11233500D01*
X15657500Y-11106500D02*
X15530500Y-11233500D01*
X6382500Y-8536500D02*
X6509500Y-8663500D01*
X6509500Y-8536500D02*
X6382500Y-8663500D01*
X6382500Y-9436500D02*
X6509500Y-9563500D01*
X6509500Y-9436500D02*
X6382500Y-9563500D01*
X8536500Y-3852500D02*
X8663500Y-3979500D01*
X8663500Y-3852500D02*
X8536500Y-3979500D01*
X15540500Y-4826500D02*
X15667500Y-4953500D01*
X15667500Y-4826500D02*
X15540500Y-4953500D01*
X11686500Y-12015500D02*
X11813500Y-12142500D01*
X11813500Y-12015500D02*
X11686500Y-12142500D01*
X14686500Y-12015500D02*
X14813500Y-12142500D01*
X14813500Y-12015500D02*
X14686500Y-12142500D01*
X6332500Y-4436500D02*
X6459500Y-4563500D01*
X6459500Y-4436500D02*
X6332500Y-4563500D01*
X6332500Y-5336500D02*
X6459500Y-5463500D01*
X6459500Y-5336500D02*
X6332500Y-5463500D01*
X6660000Y-4000000D02*
G75*
G03X6660000Y-4000000I-160000J0D01*
G01*
X6660000Y-12000000D02*
G75*
G03X6660000Y-12000000I-160000J0D01*
G01*
X15660000Y-12000000D02*
G75*
G03X15660000Y-12000000I-160000J0D01*
G01*
X15660000Y-4000000D02*
G75*
G03X15660000Y-4000000I-160000J0D01*
G01*
D12*
X6283928Y-12968214D02*
X6283928Y-12668214D01*
X6355357Y-12668214D01*
X6398214Y-12682500D01*
X6426786Y-12711071D01*
X6441071Y-12739643D01*
X6455357Y-12796786D01*
X6455357Y-12839643D01*
X6441071Y-12896786D01*
X6426786Y-12925357D01*
X6398214Y-12953929D01*
X6355357Y-12968214D01*
X6283928Y-12968214D01*
X6583928Y-12968214D02*
X6583928Y-12768214D01*
X6583928Y-12825357D02*
X6598214Y-12796786D01*
X6612500Y-12782500D01*
X6641071Y-12768214D01*
X6669643Y-12768214D01*
X6769643Y-12968214D02*
X6769643Y-12768214D01*
X6769643Y-12668214D02*
X6755357Y-12682500D01*
X6769643Y-12696786D01*
X6783928Y-12682500D01*
X6769643Y-12668214D01*
X6769643Y-12696786D01*
X6955357Y-12968214D02*
X6926786Y-12953929D01*
X6912500Y-12925357D01*
X6912500Y-12668214D01*
X7112500Y-12968214D02*
X7083928Y-12953929D01*
X7069643Y-12925357D01*
X7069643Y-12668214D01*
X7455357Y-12968214D02*
X7455357Y-12668214D01*
X7555357Y-12882500D01*
X7655357Y-12668214D01*
X7655357Y-12968214D01*
X7926786Y-12968214D02*
X7926786Y-12811071D01*
X7912500Y-12782500D01*
X7883928Y-12768214D01*
X7826786Y-12768214D01*
X7798214Y-12782500D01*
X7926786Y-12953929D02*
X7898214Y-12968214D01*
X7826786Y-12968214D01*
X7798214Y-12953929D01*
X7783928Y-12925357D01*
X7783928Y-12896786D01*
X7798214Y-12868214D01*
X7826786Y-12853929D01*
X7898214Y-12853929D01*
X7926786Y-12839643D01*
X8069643Y-12768214D02*
X8069643Y-13068214D01*
X8069643Y-12782500D02*
X8098214Y-12768214D01*
X8155357Y-12768214D01*
X8183928Y-12782500D01*
X8198214Y-12796786D01*
X8212500Y-12825357D01*
X8212500Y-12911071D01*
X8198214Y-12939643D01*
X8183928Y-12953929D01*
X8155357Y-12968214D01*
X8098214Y-12968214D01*
X8069643Y-12953929D01*
X8341071Y-12939643D02*
X8355357Y-12953929D01*
X8341071Y-12968214D01*
X8326786Y-12953929D01*
X8341071Y-12939643D01*
X8341071Y-12968214D01*
X8341071Y-12782500D02*
X8355357Y-12796786D01*
X8341071Y-12811071D01*
X8326786Y-12796786D01*
X8341071Y-12782500D01*
X8341071Y-12811071D01*
X5870500Y-13399000D02*
X5997500Y-13526000D01*
X5997500Y-13399000D02*
X5870500Y-13526000D01*
X6441071Y-13598214D02*
X6269643Y-13598214D01*
X6355357Y-13598214D02*
X6355357Y-13298214D01*
X6326786Y-13341071D01*
X6298214Y-13369643D01*
X6269643Y-13383929D01*
X6569643Y-13569643D02*
X6583928Y-13583929D01*
X6569643Y-13598214D01*
X6555357Y-13583929D01*
X6569643Y-13569643D01*
X6569643Y-13598214D01*
X6698214Y-13326786D02*
X6712500Y-13312500D01*
X6741071Y-13298214D01*
X6812500Y-13298214D01*
X6841071Y-13312500D01*
X6855357Y-13326786D01*
X6869643Y-13355357D01*
X6869643Y-13383929D01*
X6855357Y-13426786D01*
X6683928Y-13598214D01*
X6869643Y-13598214D01*
X6969643Y-13298214D02*
X7169643Y-13298214D01*
X7041071Y-13598214D01*
X7283928Y-13598214D02*
X7283928Y-13398214D01*
X7283928Y-13426786D02*
X7298214Y-13412500D01*
X7326786Y-13398214D01*
X7369643Y-13398214D01*
X7398214Y-13412500D01*
X7412500Y-13441071D01*
X7412500Y-13598214D01*
X7412500Y-13441071D02*
X7426786Y-13412500D01*
X7455357Y-13398214D01*
X7498214Y-13398214D01*
X7526786Y-13412500D01*
X7541071Y-13441071D01*
X7541071Y-13598214D01*
X7683928Y-13598214D02*
X7683928Y-13398214D01*
X7683928Y-13426786D02*
X7698214Y-13412500D01*
X7726786Y-13398214D01*
X7769643Y-13398214D01*
X7798214Y-13412500D01*
X7812500Y-13441071D01*
X7812500Y-13598214D01*
X7812500Y-13441071D02*
X7826786Y-13412500D01*
X7855357Y-13398214D01*
X7898214Y-13398214D01*
X7926786Y-13412500D01*
X7941071Y-13441071D01*
X7941071Y-13598214D01*
X8526786Y-13283929D02*
X8269643Y-13669643D01*
X8912500Y-13298214D02*
X8941071Y-13298214D01*
X8969643Y-13312500D01*
X8983928Y-13326786D01*
X8998214Y-13355357D01*
X9012500Y-13412500D01*
X9012500Y-13483929D01*
X8998214Y-13541071D01*
X8983928Y-13569643D01*
X8969643Y-13583929D01*
X8941071Y-13598214D01*
X8912500Y-13598214D01*
X8883928Y-13583929D01*
X8869643Y-13569643D01*
X8855357Y-13541071D01*
X8841071Y-13483929D01*
X8841071Y-13412500D01*
X8855357Y-13355357D01*
X8869643Y-13326786D01*
X8883928Y-13312500D01*
X8912500Y-13298214D01*
X9141071Y-13569643D02*
X9155357Y-13583929D01*
X9141071Y-13598214D01*
X9126786Y-13583929D01*
X9141071Y-13569643D01*
X9141071Y-13598214D01*
X9341071Y-13298214D02*
X9369643Y-13298214D01*
X9398214Y-13312500D01*
X9412500Y-13326786D01*
X9426786Y-13355357D01*
X9441071Y-13412500D01*
X9441071Y-13483929D01*
X9426786Y-13541071D01*
X9412500Y-13569643D01*
X9398214Y-13583929D01*
X9369643Y-13598214D01*
X9341071Y-13598214D01*
X9312500Y-13583929D01*
X9298214Y-13569643D01*
X9283928Y-13541071D01*
X9269643Y-13483929D01*
X9269643Y-13412500D01*
X9283928Y-13355357D01*
X9298214Y-13326786D01*
X9312500Y-13312500D01*
X9341071Y-13298214D01*
X9712500Y-13298214D02*
X9569643Y-13298214D01*
X9555357Y-13441071D01*
X9569643Y-13426786D01*
X9598214Y-13412500D01*
X9669643Y-13412500D01*
X9698214Y-13426786D01*
X9712500Y-13441071D01*
X9726786Y-13469643D01*
X9726786Y-13541071D01*
X9712500Y-13569643D01*
X9698214Y-13583929D01*
X9669643Y-13598214D01*
X9598214Y-13598214D01*
X9569643Y-13583929D01*
X9555357Y-13569643D01*
X9912500Y-13298214D02*
X9941071Y-13298214D01*
X9969643Y-13312500D01*
X9983928Y-13326786D01*
X9998214Y-13355357D01*
X10012500Y-13412500D01*
X10012500Y-13483929D01*
X9998214Y-13541071D01*
X9983928Y-13569643D01*
X9969643Y-13583929D01*
X9941071Y-13598214D01*
X9912500Y-13598214D01*
X9883928Y-13583929D01*
X9869643Y-13569643D01*
X9855357Y-13541071D01*
X9841071Y-13483929D01*
X9841071Y-13412500D01*
X9855357Y-13355357D01*
X9869643Y-13326786D01*
X9883928Y-13312500D01*
X9912500Y-13298214D01*
X10126786Y-13298214D02*
X10126786Y-13355357D01*
X10241071Y-13298214D02*
X10241071Y-13355357D01*
X10683928Y-13712500D02*
X10669643Y-13698214D01*
X10641071Y-13655357D01*
X10626786Y-13626786D01*
X10612500Y-13583929D01*
X10598214Y-13512500D01*
X10598214Y-13455357D01*
X10612500Y-13383929D01*
X10626786Y-13341071D01*
X10641071Y-13312500D01*
X10669643Y-13269643D01*
X10683928Y-13255357D01*
X10955357Y-13598214D02*
X10783928Y-13598214D01*
X10869643Y-13598214D02*
X10869643Y-13298214D01*
X10841071Y-13341071D01*
X10812500Y-13369643D01*
X10783928Y-13383929D01*
X11212500Y-13398214D02*
X11212500Y-13598214D01*
X11141071Y-13283929D02*
X11069643Y-13498214D01*
X11255357Y-13498214D01*
X11598214Y-13598214D02*
X11598214Y-13298214D01*
X11726786Y-13598214D02*
X11726786Y-13441071D01*
X11712500Y-13412500D01*
X11683928Y-13398214D01*
X11641071Y-13398214D01*
X11612500Y-13412500D01*
X11598214Y-13426786D01*
X11912500Y-13598214D02*
X11883928Y-13583929D01*
X11869643Y-13569643D01*
X11855357Y-13541071D01*
X11855357Y-13455357D01*
X11869643Y-13426786D01*
X11883928Y-13412500D01*
X11912500Y-13398214D01*
X11955357Y-13398214D01*
X11983928Y-13412500D01*
X11998214Y-13426786D01*
X12012500Y-13455357D01*
X12012500Y-13541071D01*
X11998214Y-13569643D01*
X11983928Y-13583929D01*
X11955357Y-13598214D01*
X11912500Y-13598214D01*
X12183928Y-13598214D02*
X12155357Y-13583929D01*
X12141071Y-13555357D01*
X12141071Y-13298214D01*
X12412500Y-13583929D02*
X12383928Y-13598214D01*
X12326786Y-13598214D01*
X12298214Y-13583929D01*
X12283928Y-13555357D01*
X12283928Y-13441071D01*
X12298214Y-13412500D01*
X12326786Y-13398214D01*
X12383928Y-13398214D01*
X12412500Y-13412500D01*
X12426786Y-13441071D01*
X12426786Y-13469643D01*
X12283928Y-13498214D01*
X12541071Y-13583929D02*
X12569643Y-13598214D01*
X12626786Y-13598214D01*
X12655357Y-13583929D01*
X12669643Y-13555357D01*
X12669643Y-13541071D01*
X12655357Y-13512500D01*
X12626786Y-13498214D01*
X12583928Y-13498214D01*
X12555357Y-13483929D01*
X12541071Y-13455357D01*
X12541071Y-13441071D01*
X12555357Y-13412500D01*
X12583928Y-13398214D01*
X12626786Y-13398214D01*
X12655357Y-13412500D01*
X12769643Y-13712500D02*
X12783928Y-13698214D01*
X12812500Y-13655357D01*
X12826786Y-13626786D01*
X12841071Y-13583929D01*
X12855357Y-13512500D01*
X12855357Y-13455357D01*
X12841071Y-13383929D01*
X12826786Y-13341071D01*
X12812500Y-13312500D01*
X12783928Y-13269643D01*
X12769643Y-13255357D01*
X13312500Y-13712500D02*
X13298214Y-13698214D01*
X13269643Y-13655357D01*
X13255357Y-13626786D01*
X13241071Y-13583929D01*
X13226786Y-13512500D01*
X13226786Y-13455357D01*
X13241071Y-13383929D01*
X13255357Y-13341071D01*
X13269643Y-13312500D01*
X13298214Y-13269643D01*
X13312500Y-13255357D01*
X13426786Y-13398214D02*
X13426786Y-13598214D01*
X13426786Y-13426786D02*
X13441071Y-13412500D01*
X13469643Y-13398214D01*
X13512500Y-13398214D01*
X13541071Y-13412500D01*
X13555357Y-13441071D01*
X13555357Y-13598214D01*
X13741071Y-13598214D02*
X13712500Y-13583929D01*
X13698214Y-13569643D01*
X13683928Y-13541071D01*
X13683928Y-13455357D01*
X13698214Y-13426786D01*
X13712500Y-13412500D01*
X13741071Y-13398214D01*
X13783928Y-13398214D01*
X13812500Y-13412500D01*
X13826786Y-13426786D01*
X13841071Y-13455357D01*
X13841071Y-13541071D01*
X13826786Y-13569643D01*
X13812500Y-13583929D01*
X13783928Y-13598214D01*
X13741071Y-13598214D01*
X13926786Y-13398214D02*
X14041071Y-13398214D01*
X13969643Y-13298214D02*
X13969643Y-13555357D01*
X13983928Y-13583929D01*
X14012500Y-13598214D01*
X14041071Y-13598214D01*
X14369643Y-13398214D02*
X14369643Y-13698214D01*
X14369643Y-13412500D02*
X14398214Y-13398214D01*
X14455357Y-13398214D01*
X14483928Y-13412500D01*
X14498214Y-13426786D01*
X14512500Y-13455357D01*
X14512500Y-13541071D01*
X14498214Y-13569643D01*
X14483928Y-13583929D01*
X14455357Y-13598214D01*
X14398214Y-13598214D01*
X14369643Y-13583929D01*
X14683928Y-13598214D02*
X14655357Y-13583929D01*
X14641071Y-13555357D01*
X14641071Y-13298214D01*
X14926786Y-13598214D02*
X14926786Y-13441071D01*
X14912500Y-13412500D01*
X14883928Y-13398214D01*
X14826786Y-13398214D01*
X14798214Y-13412500D01*
X14926786Y-13583929D02*
X14898214Y-13598214D01*
X14826786Y-13598214D01*
X14798214Y-13583929D01*
X14783928Y-13555357D01*
X14783928Y-13526786D01*
X14798214Y-13498214D01*
X14826786Y-13483929D01*
X14898214Y-13483929D01*
X14926786Y-13469643D01*
X15026786Y-13398214D02*
X15141071Y-13398214D01*
X15069643Y-13298214D02*
X15069643Y-13555357D01*
X15083928Y-13583929D01*
X15112500Y-13598214D01*
X15141071Y-13598214D01*
X15355357Y-13583929D02*
X15326786Y-13598214D01*
X15269643Y-13598214D01*
X15241071Y-13583929D01*
X15226786Y-13555357D01*
X15226786Y-13441071D01*
X15241071Y-13412500D01*
X15269643Y-13398214D01*
X15326786Y-13398214D01*
X15355357Y-13412500D01*
X15369643Y-13441071D01*
X15369643Y-13469643D01*
X15226786Y-13498214D01*
X15626786Y-13598214D02*
X15626786Y-13298214D01*
X15626786Y-13583929D02*
X15598214Y-13598214D01*
X15541071Y-13598214D01*
X15512500Y-13583929D01*
X15498214Y-13569643D01*
X15483928Y-13541071D01*
X15483928Y-13455357D01*
X15498214Y-13426786D01*
X15512500Y-13412500D01*
X15541071Y-13398214D01*
X15598214Y-13398214D01*
X15626786Y-13412500D01*
X15741071Y-13712500D02*
X15755357Y-13698214D01*
X15783928Y-13655357D01*
X15798214Y-13626786D01*
X15812500Y-13583929D01*
X15826786Y-13512500D01*
X15826786Y-13455357D01*
X15812500Y-13383929D01*
X15798214Y-13341071D01*
X15783928Y-13312500D01*
X15755357Y-13269643D01*
X15741071Y-13255357D01*
X5997500Y-13858500D02*
G75*
G03X5997500Y-13858500I-160000J0D01*
G01*
X6255357Y-13694214D02*
X6441071Y-13694214D01*
X6341071Y-13808500D01*
X6383928Y-13808500D01*
X6412500Y-13822786D01*
X6426786Y-13837071D01*
X6441071Y-13865643D01*
X6441071Y-13937071D01*
X6426786Y-13965643D01*
X6412500Y-13979929D01*
X6383928Y-13994214D01*
X6298214Y-13994214D01*
X6269643Y-13979929D01*
X6255357Y-13965643D01*
X6569643Y-13965643D02*
X6583928Y-13979929D01*
X6569643Y-13994214D01*
X6555357Y-13979929D01*
X6569643Y-13965643D01*
X6569643Y-13994214D01*
X6698214Y-13722786D02*
X6712500Y-13708500D01*
X6741071Y-13694214D01*
X6812500Y-13694214D01*
X6841071Y-13708500D01*
X6855357Y-13722786D01*
X6869643Y-13751357D01*
X6869643Y-13779929D01*
X6855357Y-13822786D01*
X6683928Y-13994214D01*
X6869643Y-13994214D01*
X7055357Y-13694214D02*
X7083928Y-13694214D01*
X7112500Y-13708500D01*
X7126786Y-13722786D01*
X7141071Y-13751357D01*
X7155357Y-13808500D01*
X7155357Y-13879929D01*
X7141071Y-13937071D01*
X7126786Y-13965643D01*
X7112500Y-13979929D01*
X7083928Y-13994214D01*
X7055357Y-13994214D01*
X7026786Y-13979929D01*
X7012500Y-13965643D01*
X6998214Y-13937071D01*
X6983928Y-13879929D01*
X6983928Y-13808500D01*
X6998214Y-13751357D01*
X7012500Y-13722786D01*
X7026786Y-13708500D01*
X7055357Y-13694214D01*
X7283928Y-13994214D02*
X7283928Y-13794214D01*
X7283928Y-13822786D02*
X7298214Y-13808500D01*
X7326786Y-13794214D01*
X7369643Y-13794214D01*
X7398214Y-13808500D01*
X7412500Y-13837071D01*
X7412500Y-13994214D01*
X7412500Y-13837071D02*
X7426786Y-13808500D01*
X7455357Y-13794214D01*
X7498214Y-13794214D01*
X7526786Y-13808500D01*
X7541071Y-13837071D01*
X7541071Y-13994214D01*
X7683928Y-13994214D02*
X7683928Y-13794214D01*
X7683928Y-13822786D02*
X7698214Y-13808500D01*
X7726786Y-13794214D01*
X7769643Y-13794214D01*
X7798214Y-13808500D01*
X7812500Y-13837071D01*
X7812500Y-13994214D01*
X7812500Y-13837071D02*
X7826786Y-13808500D01*
X7855357Y-13794214D01*
X7898214Y-13794214D01*
X7926786Y-13808500D01*
X7941071Y-13837071D01*
X7941071Y-13994214D01*
X8526786Y-13679929D02*
X8269643Y-14065643D01*
X8912500Y-13694214D02*
X8941071Y-13694214D01*
X8969643Y-13708500D01*
X8983928Y-13722786D01*
X8998214Y-13751357D01*
X9012500Y-13808500D01*
X9012500Y-13879929D01*
X8998214Y-13937071D01*
X8983928Y-13965643D01*
X8969643Y-13979929D01*
X8941071Y-13994214D01*
X8912500Y-13994214D01*
X8883928Y-13979929D01*
X8869643Y-13965643D01*
X8855357Y-13937071D01*
X8841071Y-13879929D01*
X8841071Y-13808500D01*
X8855357Y-13751357D01*
X8869643Y-13722786D01*
X8883928Y-13708500D01*
X8912500Y-13694214D01*
X9141071Y-13965643D02*
X9155357Y-13979929D01*
X9141071Y-13994214D01*
X9126786Y-13979929D01*
X9141071Y-13965643D01*
X9141071Y-13994214D01*
X9441071Y-13994214D02*
X9269643Y-13994214D01*
X9355357Y-13994214D02*
X9355357Y-13694214D01*
X9326786Y-13737071D01*
X9298214Y-13765643D01*
X9269643Y-13779929D01*
X9555357Y-13722786D02*
X9569643Y-13708500D01*
X9598214Y-13694214D01*
X9669643Y-13694214D01*
X9698214Y-13708500D01*
X9712500Y-13722786D01*
X9726786Y-13751357D01*
X9726786Y-13779929D01*
X9712500Y-13822786D01*
X9541071Y-13994214D01*
X9726786Y-13994214D01*
X9983928Y-13694214D02*
X9926786Y-13694214D01*
X9898214Y-13708500D01*
X9883928Y-13722786D01*
X9855357Y-13765643D01*
X9841071Y-13822786D01*
X9841071Y-13937071D01*
X9855357Y-13965643D01*
X9869643Y-13979929D01*
X9898214Y-13994214D01*
X9955357Y-13994214D01*
X9983928Y-13979929D01*
X9998214Y-13965643D01*
X10012500Y-13937071D01*
X10012500Y-13865643D01*
X9998214Y-13837071D01*
X9983928Y-13822786D01*
X9955357Y-13808500D01*
X9898214Y-13808500D01*
X9869643Y-13822786D01*
X9855357Y-13837071D01*
X9841071Y-13865643D01*
X10126786Y-13694214D02*
X10126786Y-13751357D01*
X10241071Y-13694214D02*
X10241071Y-13751357D01*
X10683928Y-14108500D02*
X10669643Y-14094214D01*
X10641071Y-14051357D01*
X10626786Y-14022786D01*
X10612500Y-13979929D01*
X10598214Y-13908500D01*
X10598214Y-13851357D01*
X10612500Y-13779929D01*
X10626786Y-13737071D01*
X10641071Y-13708500D01*
X10669643Y-13665643D01*
X10683928Y-13651357D01*
X10926786Y-13794214D02*
X10926786Y-13994214D01*
X10855357Y-13679929D02*
X10783928Y-13894214D01*
X10969643Y-13894214D01*
X11312500Y-13994214D02*
X11312500Y-13694214D01*
X11441071Y-13994214D02*
X11441071Y-13837071D01*
X11426786Y-13808500D01*
X11398214Y-13794214D01*
X11355357Y-13794214D01*
X11326786Y-13808500D01*
X11312500Y-13822786D01*
X11626786Y-13994214D02*
X11598214Y-13979929D01*
X11583928Y-13965643D01*
X11569643Y-13937071D01*
X11569643Y-13851357D01*
X11583928Y-13822786D01*
X11598214Y-13808500D01*
X11626786Y-13794214D01*
X11669643Y-13794214D01*
X11698214Y-13808500D01*
X11712500Y-13822786D01*
X11726786Y-13851357D01*
X11726786Y-13937071D01*
X11712500Y-13965643D01*
X11698214Y-13979929D01*
X11669643Y-13994214D01*
X11626786Y-13994214D01*
X11898214Y-13994214D02*
X11869643Y-13979929D01*
X11855357Y-13951357D01*
X11855357Y-13694214D01*
X12126786Y-13979929D02*
X12098214Y-13994214D01*
X12041071Y-13994214D01*
X12012500Y-13979929D01*
X11998214Y-13951357D01*
X11998214Y-13837071D01*
X12012500Y-13808500D01*
X12041071Y-13794214D01*
X12098214Y-13794214D01*
X12126786Y-13808500D01*
X12141071Y-13837071D01*
X12141071Y-13865643D01*
X11998214Y-13894214D01*
X12255357Y-13979929D02*
X12283928Y-13994214D01*
X12341071Y-13994214D01*
X12369643Y-13979929D01*
X12383928Y-13951357D01*
X12383928Y-13937071D01*
X12369643Y-13908500D01*
X12341071Y-13894214D01*
X12298214Y-13894214D01*
X12269643Y-13879929D01*
X12255357Y-13851357D01*
X12255357Y-13837071D01*
X12269643Y-13808500D01*
X12298214Y-13794214D01*
X12341071Y-13794214D01*
X12369643Y-13808500D01*
X12483928Y-14108500D02*
X12498214Y-14094214D01*
X12526786Y-14051357D01*
X12541071Y-14022786D01*
X12555357Y-13979929D01*
X12569643Y-13908500D01*
X12569643Y-13851357D01*
X12555357Y-13779929D01*
X12541071Y-13737071D01*
X12526786Y-13708500D01*
X12498214Y-13665643D01*
X12483928Y-13651357D01*
X13026786Y-14108500D02*
X13012500Y-14094214D01*
X12983928Y-14051357D01*
X12969643Y-14022786D01*
X12955357Y-13979929D01*
X12941071Y-13908500D01*
X12941071Y-13851357D01*
X12955357Y-13779929D01*
X12969643Y-13737071D01*
X12983928Y-13708500D01*
X13012500Y-13665643D01*
X13026786Y-13651357D01*
X13141071Y-13794214D02*
X13141071Y-13994214D01*
X13141071Y-13822786D02*
X13155357Y-13808500D01*
X13183928Y-13794214D01*
X13226786Y-13794214D01*
X13255357Y-13808500D01*
X13269643Y-13837071D01*
X13269643Y-13994214D01*
X13455357Y-13994214D02*
X13426786Y-13979929D01*
X13412500Y-13965643D01*
X13398214Y-13937071D01*
X13398214Y-13851357D01*
X13412500Y-13822786D01*
X13426786Y-13808500D01*
X13455357Y-13794214D01*
X13498214Y-13794214D01*
X13526786Y-13808500D01*
X13541071Y-13822786D01*
X13555357Y-13851357D01*
X13555357Y-13937071D01*
X13541071Y-13965643D01*
X13526786Y-13979929D01*
X13498214Y-13994214D01*
X13455357Y-13994214D01*
X13641071Y-13794214D02*
X13755357Y-13794214D01*
X13683928Y-13694214D02*
X13683928Y-13951357D01*
X13698214Y-13979929D01*
X13726786Y-13994214D01*
X13755357Y-13994214D01*
X14083928Y-13794214D02*
X14083928Y-14094214D01*
X14083928Y-13808500D02*
X14112500Y-13794214D01*
X14169643Y-13794214D01*
X14198214Y-13808500D01*
X14212500Y-13822786D01*
X14226786Y-13851357D01*
X14226786Y-13937071D01*
X14212500Y-13965643D01*
X14198214Y-13979929D01*
X14169643Y-13994214D01*
X14112500Y-13994214D01*
X14083928Y-13979929D01*
X14398214Y-13994214D02*
X14369643Y-13979929D01*
X14355357Y-13951357D01*
X14355357Y-13694214D01*
X14641071Y-13994214D02*
X14641071Y-13837071D01*
X14626786Y-13808500D01*
X14598214Y-13794214D01*
X14541071Y-13794214D01*
X14512500Y-13808500D01*
X14641071Y-13979929D02*
X14612500Y-13994214D01*
X14541071Y-13994214D01*
X14512500Y-13979929D01*
X14498214Y-13951357D01*
X14498214Y-13922786D01*
X14512500Y-13894214D01*
X14541071Y-13879929D01*
X14612500Y-13879929D01*
X14641071Y-13865643D01*
X14741071Y-13794214D02*
X14855357Y-13794214D01*
X14783928Y-13694214D02*
X14783928Y-13951357D01*
X14798214Y-13979929D01*
X14826786Y-13994214D01*
X14855357Y-13994214D01*
X15069643Y-13979929D02*
X15041071Y-13994214D01*
X14983928Y-13994214D01*
X14955357Y-13979929D01*
X14941071Y-13951357D01*
X14941071Y-13837071D01*
X14955357Y-13808500D01*
X14983928Y-13794214D01*
X15041071Y-13794214D01*
X15069643Y-13808500D01*
X15083928Y-13837071D01*
X15083928Y-13865643D01*
X14941071Y-13894214D01*
X15341071Y-13994214D02*
X15341071Y-13694214D01*
X15341071Y-13979929D02*
X15312500Y-13994214D01*
X15255357Y-13994214D01*
X15226786Y-13979929D01*
X15212500Y-13965643D01*
X15198214Y-13937071D01*
X15198214Y-13851357D01*
X15212500Y-13822786D01*
X15226786Y-13808500D01*
X15255357Y-13794214D01*
X15312500Y-13794214D01*
X15341071Y-13808500D01*
X15455357Y-14108500D02*
X15469643Y-14094214D01*
X15498214Y-14051357D01*
X15512500Y-14022786D01*
X15526786Y-13979929D01*
X15541071Y-13908500D01*
X15541071Y-13851357D01*
X15526786Y-13779929D01*
X15512500Y-13737071D01*
X15498214Y-13708500D01*
X15469643Y-13665643D01*
X15455357Y-13651357D01*
M02*
