G04 #@! TF.GenerationSoftware,KiCad,Pcbnew,(5.1.4)-1*
G04 #@! TF.CreationDate,2021-12-07T11:14:46-05:00*
G04 #@! TF.ProjectId,PowerBoard,506f7765-7242-46f6-9172-642e6b696361,rev?*
G04 #@! TF.SameCoordinates,Original*
G04 #@! TF.FileFunction,Copper,L2,Bot*
G04 #@! TF.FilePolarity,Positive*
%FSLAX46Y46*%
G04 Gerber Fmt 4.6, Leading zero omitted, Abs format (unit mm)*
G04 Created by KiCad (PCBNEW (5.1.4)-1) date 2021-12-07 11:14:46*
%MOMM*%
%LPD*%
G04 APERTURE LIST*
%ADD10C,2.400000*%
%ADD11R,2.400000X2.400000*%
%ADD12O,2.020000X1.500000*%
%ADD13C,0.100000*%
%ADD14C,1.500000*%
%ADD15C,3.500000*%
%ADD16C,2.500000*%
%ADD17C,1.440000*%
%ADD18O,1.500000X2.020000*%
%ADD19C,0.800000*%
%ADD20C,2.000000*%
%ADD21C,1.000000*%
%ADD22C,0.200000*%
%ADD23C,0.750000*%
%ADD24C,0.254000*%
G04 APERTURE END LIST*
D10*
X114930000Y-103900000D03*
X114930000Y-107300000D03*
X128400000Y-107300000D03*
X128400000Y-103900000D03*
X144200000Y-76870000D03*
X147600000Y-76870000D03*
X147600000Y-63400000D03*
X144200000Y-63400000D03*
X72630000Y-44400000D03*
X72630000Y-47800000D03*
X86100000Y-47800000D03*
X86100000Y-44400000D03*
X69400000Y-93670000D03*
X72800000Y-93670000D03*
X72800000Y-80200000D03*
X69400000Y-80200000D03*
X64700000Y-68700000D03*
D11*
X64700000Y-73700000D03*
D12*
X158000000Y-51900000D03*
D13*
G36*
X158784504Y-54151204D02*
G01*
X158808773Y-54154804D01*
X158832571Y-54160765D01*
X158855671Y-54169030D01*
X158877849Y-54179520D01*
X158898893Y-54192133D01*
X158918598Y-54206747D01*
X158936777Y-54223223D01*
X158953253Y-54241402D01*
X158967867Y-54261107D01*
X158980480Y-54282151D01*
X158990970Y-54304329D01*
X158999235Y-54327429D01*
X159005196Y-54351227D01*
X159008796Y-54375496D01*
X159010000Y-54400000D01*
X159010000Y-55400000D01*
X159008796Y-55424504D01*
X159005196Y-55448773D01*
X158999235Y-55472571D01*
X158990970Y-55495671D01*
X158980480Y-55517849D01*
X158967867Y-55538893D01*
X158953253Y-55558598D01*
X158936777Y-55576777D01*
X158918598Y-55593253D01*
X158898893Y-55607867D01*
X158877849Y-55620480D01*
X158855671Y-55630970D01*
X158832571Y-55639235D01*
X158808773Y-55645196D01*
X158784504Y-55648796D01*
X158760000Y-55650000D01*
X157240000Y-55650000D01*
X157215496Y-55648796D01*
X157191227Y-55645196D01*
X157167429Y-55639235D01*
X157144329Y-55630970D01*
X157122151Y-55620480D01*
X157101107Y-55607867D01*
X157081402Y-55593253D01*
X157063223Y-55576777D01*
X157046747Y-55558598D01*
X157032133Y-55538893D01*
X157019520Y-55517849D01*
X157009030Y-55495671D01*
X157000765Y-55472571D01*
X156994804Y-55448773D01*
X156991204Y-55424504D01*
X156990000Y-55400000D01*
X156990000Y-54400000D01*
X156991204Y-54375496D01*
X156994804Y-54351227D01*
X157000765Y-54327429D01*
X157009030Y-54304329D01*
X157019520Y-54282151D01*
X157032133Y-54261107D01*
X157046747Y-54241402D01*
X157063223Y-54223223D01*
X157081402Y-54206747D01*
X157101107Y-54192133D01*
X157122151Y-54179520D01*
X157144329Y-54169030D01*
X157167429Y-54160765D01*
X157191227Y-54154804D01*
X157215496Y-54151204D01*
X157240000Y-54150000D01*
X158760000Y-54150000D01*
X158784504Y-54151204D01*
X158784504Y-54151204D01*
G37*
D14*
X158000000Y-54900000D03*
D15*
X129300000Y-88420000D03*
D16*
X129300000Y-84610000D03*
X129300000Y-80800000D03*
X129300000Y-76990000D03*
D15*
X129300000Y-73180000D03*
D16*
X79600000Y-87150000D03*
X79600000Y-80800000D03*
X79600000Y-74450000D03*
D17*
X137700000Y-79320000D03*
X137700000Y-81860000D03*
X137700000Y-84400000D03*
D18*
X80000000Y-37200000D03*
D13*
G36*
X83524504Y-36191204D02*
G01*
X83548773Y-36194804D01*
X83572571Y-36200765D01*
X83595671Y-36209030D01*
X83617849Y-36219520D01*
X83638893Y-36232133D01*
X83658598Y-36246747D01*
X83676777Y-36263223D01*
X83693253Y-36281402D01*
X83707867Y-36301107D01*
X83720480Y-36322151D01*
X83730970Y-36344329D01*
X83739235Y-36367429D01*
X83745196Y-36391227D01*
X83748796Y-36415496D01*
X83750000Y-36440000D01*
X83750000Y-37960000D01*
X83748796Y-37984504D01*
X83745196Y-38008773D01*
X83739235Y-38032571D01*
X83730970Y-38055671D01*
X83720480Y-38077849D01*
X83707867Y-38098893D01*
X83693253Y-38118598D01*
X83676777Y-38136777D01*
X83658598Y-38153253D01*
X83638893Y-38167867D01*
X83617849Y-38180480D01*
X83595671Y-38190970D01*
X83572571Y-38199235D01*
X83548773Y-38205196D01*
X83524504Y-38208796D01*
X83500000Y-38210000D01*
X82500000Y-38210000D01*
X82475496Y-38208796D01*
X82451227Y-38205196D01*
X82427429Y-38199235D01*
X82404329Y-38190970D01*
X82382151Y-38180480D01*
X82361107Y-38167867D01*
X82341402Y-38153253D01*
X82323223Y-38136777D01*
X82306747Y-38118598D01*
X82292133Y-38098893D01*
X82279520Y-38077849D01*
X82269030Y-38055671D01*
X82260765Y-38032571D01*
X82254804Y-38008773D01*
X82251204Y-37984504D01*
X82250000Y-37960000D01*
X82250000Y-36440000D01*
X82251204Y-36415496D01*
X82254804Y-36391227D01*
X82260765Y-36367429D01*
X82269030Y-36344329D01*
X82279520Y-36322151D01*
X82292133Y-36301107D01*
X82306747Y-36281402D01*
X82323223Y-36263223D01*
X82341402Y-36246747D01*
X82361107Y-36232133D01*
X82382151Y-36219520D01*
X82404329Y-36209030D01*
X82427429Y-36200765D01*
X82451227Y-36194804D01*
X82475496Y-36191204D01*
X82500000Y-36190000D01*
X83500000Y-36190000D01*
X83524504Y-36191204D01*
X83524504Y-36191204D01*
G37*
D14*
X83000000Y-37200000D03*
D12*
X157900000Y-105700000D03*
D13*
G36*
X158684504Y-107951204D02*
G01*
X158708773Y-107954804D01*
X158732571Y-107960765D01*
X158755671Y-107969030D01*
X158777849Y-107979520D01*
X158798893Y-107992133D01*
X158818598Y-108006747D01*
X158836777Y-108023223D01*
X158853253Y-108041402D01*
X158867867Y-108061107D01*
X158880480Y-108082151D01*
X158890970Y-108104329D01*
X158899235Y-108127429D01*
X158905196Y-108151227D01*
X158908796Y-108175496D01*
X158910000Y-108200000D01*
X158910000Y-109200000D01*
X158908796Y-109224504D01*
X158905196Y-109248773D01*
X158899235Y-109272571D01*
X158890970Y-109295671D01*
X158880480Y-109317849D01*
X158867867Y-109338893D01*
X158853253Y-109358598D01*
X158836777Y-109376777D01*
X158818598Y-109393253D01*
X158798893Y-109407867D01*
X158777849Y-109420480D01*
X158755671Y-109430970D01*
X158732571Y-109439235D01*
X158708773Y-109445196D01*
X158684504Y-109448796D01*
X158660000Y-109450000D01*
X157140000Y-109450000D01*
X157115496Y-109448796D01*
X157091227Y-109445196D01*
X157067429Y-109439235D01*
X157044329Y-109430970D01*
X157022151Y-109420480D01*
X157001107Y-109407867D01*
X156981402Y-109393253D01*
X156963223Y-109376777D01*
X156946747Y-109358598D01*
X156932133Y-109338893D01*
X156919520Y-109317849D01*
X156909030Y-109295671D01*
X156900765Y-109272571D01*
X156894804Y-109248773D01*
X156891204Y-109224504D01*
X156890000Y-109200000D01*
X156890000Y-108200000D01*
X156891204Y-108175496D01*
X156894804Y-108151227D01*
X156900765Y-108127429D01*
X156909030Y-108104329D01*
X156919520Y-108082151D01*
X156932133Y-108061107D01*
X156946747Y-108041402D01*
X156963223Y-108023223D01*
X156981402Y-108006747D01*
X157001107Y-107992133D01*
X157022151Y-107979520D01*
X157044329Y-107969030D01*
X157067429Y-107960765D01*
X157091227Y-107954804D01*
X157115496Y-107951204D01*
X157140000Y-107950000D01*
X158660000Y-107950000D01*
X158684504Y-107951204D01*
X158684504Y-107951204D01*
G37*
D14*
X157900000Y-108700000D03*
D18*
X144500000Y-122750000D03*
X141500000Y-122750000D03*
X138500000Y-122750000D03*
X135500000Y-122750000D03*
X132500000Y-122750000D03*
X129500000Y-122750000D03*
X126500000Y-122750000D03*
X123500000Y-122750000D03*
D13*
G36*
X121024504Y-121741204D02*
G01*
X121048773Y-121744804D01*
X121072571Y-121750765D01*
X121095671Y-121759030D01*
X121117849Y-121769520D01*
X121138893Y-121782133D01*
X121158598Y-121796747D01*
X121176777Y-121813223D01*
X121193253Y-121831402D01*
X121207867Y-121851107D01*
X121220480Y-121872151D01*
X121230970Y-121894329D01*
X121239235Y-121917429D01*
X121245196Y-121941227D01*
X121248796Y-121965496D01*
X121250000Y-121990000D01*
X121250000Y-123510000D01*
X121248796Y-123534504D01*
X121245196Y-123558773D01*
X121239235Y-123582571D01*
X121230970Y-123605671D01*
X121220480Y-123627849D01*
X121207867Y-123648893D01*
X121193253Y-123668598D01*
X121176777Y-123686777D01*
X121158598Y-123703253D01*
X121138893Y-123717867D01*
X121117849Y-123730480D01*
X121095671Y-123740970D01*
X121072571Y-123749235D01*
X121048773Y-123755196D01*
X121024504Y-123758796D01*
X121000000Y-123760000D01*
X120000000Y-123760000D01*
X119975496Y-123758796D01*
X119951227Y-123755196D01*
X119927429Y-123749235D01*
X119904329Y-123740970D01*
X119882151Y-123730480D01*
X119861107Y-123717867D01*
X119841402Y-123703253D01*
X119823223Y-123686777D01*
X119806747Y-123668598D01*
X119792133Y-123648893D01*
X119779520Y-123627849D01*
X119769030Y-123605671D01*
X119760765Y-123582571D01*
X119754804Y-123558773D01*
X119751204Y-123534504D01*
X119750000Y-123510000D01*
X119750000Y-121990000D01*
X119751204Y-121965496D01*
X119754804Y-121941227D01*
X119760765Y-121917429D01*
X119769030Y-121894329D01*
X119779520Y-121872151D01*
X119792133Y-121851107D01*
X119806747Y-121831402D01*
X119823223Y-121813223D01*
X119841402Y-121796747D01*
X119861107Y-121782133D01*
X119882151Y-121769520D01*
X119904329Y-121759030D01*
X119927429Y-121750765D01*
X119951227Y-121744804D01*
X119975496Y-121741204D01*
X120000000Y-121740000D01*
X121000000Y-121740000D01*
X121024504Y-121741204D01*
X121024504Y-121741204D01*
G37*
D14*
X120500000Y-122750000D03*
D18*
X120500000Y-37500000D03*
X123500000Y-37500000D03*
X126500000Y-37500000D03*
X129500000Y-37500000D03*
X132500000Y-37500000D03*
X135500000Y-37500000D03*
X138500000Y-37500000D03*
X141500000Y-37500000D03*
D13*
G36*
X145024504Y-36491204D02*
G01*
X145048773Y-36494804D01*
X145072571Y-36500765D01*
X145095671Y-36509030D01*
X145117849Y-36519520D01*
X145138893Y-36532133D01*
X145158598Y-36546747D01*
X145176777Y-36563223D01*
X145193253Y-36581402D01*
X145207867Y-36601107D01*
X145220480Y-36622151D01*
X145230970Y-36644329D01*
X145239235Y-36667429D01*
X145245196Y-36691227D01*
X145248796Y-36715496D01*
X145250000Y-36740000D01*
X145250000Y-38260000D01*
X145248796Y-38284504D01*
X145245196Y-38308773D01*
X145239235Y-38332571D01*
X145230970Y-38355671D01*
X145220480Y-38377849D01*
X145207867Y-38398893D01*
X145193253Y-38418598D01*
X145176777Y-38436777D01*
X145158598Y-38453253D01*
X145138893Y-38467867D01*
X145117849Y-38480480D01*
X145095671Y-38490970D01*
X145072571Y-38499235D01*
X145048773Y-38505196D01*
X145024504Y-38508796D01*
X145000000Y-38510000D01*
X144000000Y-38510000D01*
X143975496Y-38508796D01*
X143951227Y-38505196D01*
X143927429Y-38499235D01*
X143904329Y-38490970D01*
X143882151Y-38480480D01*
X143861107Y-38467867D01*
X143841402Y-38453253D01*
X143823223Y-38436777D01*
X143806747Y-38418598D01*
X143792133Y-38398893D01*
X143779520Y-38377849D01*
X143769030Y-38355671D01*
X143760765Y-38332571D01*
X143754804Y-38308773D01*
X143751204Y-38284504D01*
X143750000Y-38260000D01*
X143750000Y-36740000D01*
X143751204Y-36715496D01*
X143754804Y-36691227D01*
X143760765Y-36667429D01*
X143769030Y-36644329D01*
X143779520Y-36622151D01*
X143792133Y-36601107D01*
X143806747Y-36581402D01*
X143823223Y-36563223D01*
X143841402Y-36546747D01*
X143861107Y-36532133D01*
X143882151Y-36519520D01*
X143904329Y-36509030D01*
X143927429Y-36500765D01*
X143951227Y-36494804D01*
X143975496Y-36491204D01*
X144000000Y-36490000D01*
X145000000Y-36490000D01*
X145024504Y-36491204D01*
X145024504Y-36491204D01*
G37*
D14*
X144500000Y-37500000D03*
D12*
X62000000Y-51000000D03*
D13*
G36*
X62784504Y-47251204D02*
G01*
X62808773Y-47254804D01*
X62832571Y-47260765D01*
X62855671Y-47269030D01*
X62877849Y-47279520D01*
X62898893Y-47292133D01*
X62918598Y-47306747D01*
X62936777Y-47323223D01*
X62953253Y-47341402D01*
X62967867Y-47361107D01*
X62980480Y-47382151D01*
X62990970Y-47404329D01*
X62999235Y-47427429D01*
X63005196Y-47451227D01*
X63008796Y-47475496D01*
X63010000Y-47500000D01*
X63010000Y-48500000D01*
X63008796Y-48524504D01*
X63005196Y-48548773D01*
X62999235Y-48572571D01*
X62990970Y-48595671D01*
X62980480Y-48617849D01*
X62967867Y-48638893D01*
X62953253Y-48658598D01*
X62936777Y-48676777D01*
X62918598Y-48693253D01*
X62898893Y-48707867D01*
X62877849Y-48720480D01*
X62855671Y-48730970D01*
X62832571Y-48739235D01*
X62808773Y-48745196D01*
X62784504Y-48748796D01*
X62760000Y-48750000D01*
X61240000Y-48750000D01*
X61215496Y-48748796D01*
X61191227Y-48745196D01*
X61167429Y-48739235D01*
X61144329Y-48730970D01*
X61122151Y-48720480D01*
X61101107Y-48707867D01*
X61081402Y-48693253D01*
X61063223Y-48676777D01*
X61046747Y-48658598D01*
X61032133Y-48638893D01*
X61019520Y-48617849D01*
X61009030Y-48595671D01*
X61000765Y-48572571D01*
X60994804Y-48548773D01*
X60991204Y-48524504D01*
X60990000Y-48500000D01*
X60990000Y-47500000D01*
X60991204Y-47475496D01*
X60994804Y-47451227D01*
X61000765Y-47427429D01*
X61009030Y-47404329D01*
X61019520Y-47382151D01*
X61032133Y-47361107D01*
X61046747Y-47341402D01*
X61063223Y-47323223D01*
X61081402Y-47306747D01*
X61101107Y-47292133D01*
X61122151Y-47279520D01*
X61144329Y-47269030D01*
X61167429Y-47260765D01*
X61191227Y-47254804D01*
X61215496Y-47251204D01*
X61240000Y-47250000D01*
X62760000Y-47250000D01*
X62784504Y-47251204D01*
X62784504Y-47251204D01*
G37*
D14*
X62000000Y-48000000D03*
D12*
X62500000Y-92000000D03*
D13*
G36*
X63284504Y-88251204D02*
G01*
X63308773Y-88254804D01*
X63332571Y-88260765D01*
X63355671Y-88269030D01*
X63377849Y-88279520D01*
X63398893Y-88292133D01*
X63418598Y-88306747D01*
X63436777Y-88323223D01*
X63453253Y-88341402D01*
X63467867Y-88361107D01*
X63480480Y-88382151D01*
X63490970Y-88404329D01*
X63499235Y-88427429D01*
X63505196Y-88451227D01*
X63508796Y-88475496D01*
X63510000Y-88500000D01*
X63510000Y-89500000D01*
X63508796Y-89524504D01*
X63505196Y-89548773D01*
X63499235Y-89572571D01*
X63490970Y-89595671D01*
X63480480Y-89617849D01*
X63467867Y-89638893D01*
X63453253Y-89658598D01*
X63436777Y-89676777D01*
X63418598Y-89693253D01*
X63398893Y-89707867D01*
X63377849Y-89720480D01*
X63355671Y-89730970D01*
X63332571Y-89739235D01*
X63308773Y-89745196D01*
X63284504Y-89748796D01*
X63260000Y-89750000D01*
X61740000Y-89750000D01*
X61715496Y-89748796D01*
X61691227Y-89745196D01*
X61667429Y-89739235D01*
X61644329Y-89730970D01*
X61622151Y-89720480D01*
X61601107Y-89707867D01*
X61581402Y-89693253D01*
X61563223Y-89676777D01*
X61546747Y-89658598D01*
X61532133Y-89638893D01*
X61519520Y-89617849D01*
X61509030Y-89595671D01*
X61500765Y-89572571D01*
X61494804Y-89548773D01*
X61491204Y-89524504D01*
X61490000Y-89500000D01*
X61490000Y-88500000D01*
X61491204Y-88475496D01*
X61494804Y-88451227D01*
X61500765Y-88427429D01*
X61509030Y-88404329D01*
X61519520Y-88382151D01*
X61532133Y-88361107D01*
X61546747Y-88341402D01*
X61563223Y-88323223D01*
X61581402Y-88306747D01*
X61601107Y-88292133D01*
X61622151Y-88279520D01*
X61644329Y-88269030D01*
X61667429Y-88260765D01*
X61691227Y-88254804D01*
X61715496Y-88251204D01*
X61740000Y-88250000D01*
X63260000Y-88250000D01*
X63284504Y-88251204D01*
X63284504Y-88251204D01*
G37*
D14*
X62500000Y-89000000D03*
D19*
X111950000Y-41900000D03*
X117700000Y-56950000D03*
X101200000Y-49280000D03*
X105200000Y-42400000D03*
D20*
X72400000Y-88000000D02*
X79600000Y-80800000D01*
X63000000Y-88000000D02*
X72400000Y-88000000D01*
X62500000Y-89000000D02*
X62500000Y-88500000D01*
X62500000Y-88500000D02*
X63000000Y-88000000D01*
D21*
X156790000Y-108700000D02*
X157900000Y-108700000D01*
X156540000Y-108700000D02*
X156790000Y-108700000D01*
X144500000Y-120740000D02*
X156540000Y-108700000D01*
X144500000Y-122750000D02*
X144500000Y-120740000D01*
X157900000Y-108700000D02*
X153200000Y-104000000D01*
X153000000Y-103800000D02*
X157900000Y-108700000D01*
X153000000Y-47110000D02*
X153000000Y-103800000D01*
X144500000Y-37500000D02*
X144500000Y-38610000D01*
X144500000Y-38610000D02*
X153000000Y-47110000D01*
D22*
X123500000Y-121740000D02*
X123500000Y-122750000D01*
X124775000Y-120465000D02*
X123500000Y-121740000D01*
X123500000Y-38510000D02*
X124775000Y-39785000D01*
X124775000Y-39785000D02*
X124775000Y-120465000D01*
X123500000Y-37500000D02*
X123500000Y-38510000D01*
X126500000Y-37500000D02*
X126500000Y-38510000D01*
X126500000Y-38510000D02*
X125225000Y-39785000D01*
X125225000Y-39785000D02*
X125225000Y-120465000D01*
X125225000Y-120465000D02*
X126500000Y-121740000D01*
X126500000Y-121740000D02*
X126500000Y-122750000D01*
D23*
X101200000Y-49280000D02*
X101200000Y-46400000D01*
X104800001Y-42799999D02*
X105200000Y-42400000D01*
X101200000Y-46400000D02*
X104800001Y-42799999D01*
D24*
G36*
X159721001Y-124721000D02*
G01*
X60279000Y-124721000D01*
X60279000Y-123760000D01*
X119111928Y-123760000D01*
X119124188Y-123884482D01*
X119160498Y-124004180D01*
X119219463Y-124114494D01*
X119298815Y-124211185D01*
X119395506Y-124290537D01*
X119505820Y-124349502D01*
X119625518Y-124385812D01*
X119750000Y-124398072D01*
X119968250Y-124395000D01*
X120127000Y-124236250D01*
X120127000Y-123123000D01*
X120873000Y-123123000D01*
X120873000Y-124236250D01*
X121031750Y-124395000D01*
X121250000Y-124398072D01*
X121374482Y-124385812D01*
X121494180Y-124349502D01*
X121604494Y-124290537D01*
X121701185Y-124211185D01*
X121780537Y-124114494D01*
X121839502Y-124004180D01*
X121875812Y-123884482D01*
X121888072Y-123760000D01*
X121885000Y-123281750D01*
X121726250Y-123123000D01*
X120873000Y-123123000D01*
X120127000Y-123123000D01*
X119273750Y-123123000D01*
X119115000Y-123281750D01*
X119111928Y-123760000D01*
X60279000Y-123760000D01*
X60279000Y-119810207D01*
X63073000Y-119810207D01*
X63073000Y-120189793D01*
X63147053Y-120562085D01*
X63292315Y-120912777D01*
X63503201Y-121228391D01*
X63771609Y-121496799D01*
X64087223Y-121707685D01*
X64437915Y-121852947D01*
X64810207Y-121927000D01*
X65189793Y-121927000D01*
X65562085Y-121852947D01*
X65912777Y-121707685D01*
X66228391Y-121496799D01*
X66496799Y-121228391D01*
X66707685Y-120912777D01*
X66797787Y-120695251D01*
X116538000Y-120695251D01*
X116538000Y-120884749D01*
X116574969Y-121070605D01*
X116647486Y-121245678D01*
X116752766Y-121403239D01*
X116886761Y-121537234D01*
X117044322Y-121642514D01*
X117219395Y-121715031D01*
X117405251Y-121752000D01*
X117594749Y-121752000D01*
X117655077Y-121740000D01*
X119111928Y-121740000D01*
X119115000Y-122218250D01*
X119273750Y-122377000D01*
X120127000Y-122377000D01*
X120127000Y-121263750D01*
X120873000Y-121263750D01*
X120873000Y-122377000D01*
X121726250Y-122377000D01*
X121885000Y-122218250D01*
X121888072Y-121740000D01*
X121875812Y-121615518D01*
X121839502Y-121495820D01*
X121780537Y-121385506D01*
X121701185Y-121288815D01*
X121604494Y-121209463D01*
X121494180Y-121150498D01*
X121374482Y-121114188D01*
X121250000Y-121101928D01*
X121031750Y-121105000D01*
X120873000Y-121263750D01*
X120127000Y-121263750D01*
X119968250Y-121105000D01*
X119750000Y-121101928D01*
X119625518Y-121114188D01*
X119505820Y-121150498D01*
X119395506Y-121209463D01*
X119298815Y-121288815D01*
X119219463Y-121385506D01*
X119160498Y-121495820D01*
X119124188Y-121615518D01*
X119111928Y-121740000D01*
X117655077Y-121740000D01*
X117780605Y-121715031D01*
X117955678Y-121642514D01*
X118113239Y-121537234D01*
X118247234Y-121403239D01*
X118352514Y-121245678D01*
X118425031Y-121070605D01*
X118462000Y-120884749D01*
X118462000Y-120695251D01*
X118425031Y-120509395D01*
X118352514Y-120334322D01*
X118247234Y-120176761D01*
X118113239Y-120042766D01*
X117955678Y-119937486D01*
X117780605Y-119864969D01*
X117594749Y-119828000D01*
X117405251Y-119828000D01*
X117219395Y-119864969D01*
X117044322Y-119937486D01*
X116886761Y-120042766D01*
X116752766Y-120176761D01*
X116647486Y-120334322D01*
X116574969Y-120509395D01*
X116538000Y-120695251D01*
X66797787Y-120695251D01*
X66852947Y-120562085D01*
X66927000Y-120189793D01*
X66927000Y-119810207D01*
X66852947Y-119437915D01*
X66707685Y-119087223D01*
X66496799Y-118771609D01*
X66228391Y-118503201D01*
X65912777Y-118292315D01*
X65562085Y-118147053D01*
X65189793Y-118073000D01*
X64810207Y-118073000D01*
X64437915Y-118147053D01*
X64087223Y-118292315D01*
X63771609Y-118503201D01*
X63503201Y-118771609D01*
X63292315Y-119087223D01*
X63147053Y-119437915D01*
X63073000Y-119810207D01*
X60279000Y-119810207D01*
X60279000Y-107149604D01*
X113403000Y-107149604D01*
X113403000Y-107450396D01*
X113461681Y-107745410D01*
X113576790Y-108023306D01*
X113743901Y-108273406D01*
X113956594Y-108486099D01*
X114206694Y-108653210D01*
X114484590Y-108768319D01*
X114779604Y-108827000D01*
X115080396Y-108827000D01*
X115375410Y-108768319D01*
X115653306Y-108653210D01*
X115903406Y-108486099D01*
X116116099Y-108273406D01*
X116283210Y-108023306D01*
X116398319Y-107745410D01*
X116457000Y-107450396D01*
X116457000Y-107149604D01*
X116398319Y-106854590D01*
X116283210Y-106576694D01*
X116116099Y-106326594D01*
X115903406Y-106113901D01*
X115653306Y-105946790D01*
X115375410Y-105831681D01*
X115080396Y-105773000D01*
X114779604Y-105773000D01*
X114484590Y-105831681D01*
X114206694Y-105946790D01*
X113956594Y-106113901D01*
X113743901Y-106326594D01*
X113576790Y-106576694D01*
X113461681Y-106854590D01*
X113403000Y-107149604D01*
X60279000Y-107149604D01*
X60279000Y-104127000D01*
X85000000Y-104127000D01*
X85024776Y-104124560D01*
X85048601Y-104117333D01*
X85070557Y-104105597D01*
X85089803Y-104089803D01*
X85105597Y-104070557D01*
X85117333Y-104048601D01*
X85124560Y-104024776D01*
X85127000Y-104000000D01*
X85127000Y-103749604D01*
X113403000Y-103749604D01*
X113403000Y-104050396D01*
X113461681Y-104345410D01*
X113576790Y-104623306D01*
X113743901Y-104873406D01*
X113956594Y-105086099D01*
X114206694Y-105253210D01*
X114484590Y-105368319D01*
X114779604Y-105427000D01*
X115080396Y-105427000D01*
X115375410Y-105368319D01*
X115653306Y-105253210D01*
X115903406Y-105086099D01*
X116116099Y-104873406D01*
X116283210Y-104623306D01*
X116398319Y-104345410D01*
X116457000Y-104050396D01*
X116457000Y-103749604D01*
X116398319Y-103454590D01*
X116283210Y-103176694D01*
X116116099Y-102926594D01*
X115903406Y-102713901D01*
X115653306Y-102546790D01*
X115375410Y-102431681D01*
X115080396Y-102373000D01*
X114779604Y-102373000D01*
X114484590Y-102431681D01*
X114206694Y-102546790D01*
X113956594Y-102713901D01*
X113743901Y-102926594D01*
X113576790Y-103176694D01*
X113461681Y-103454590D01*
X113403000Y-103749604D01*
X85127000Y-103749604D01*
X85127000Y-58000000D01*
X85124560Y-57975224D01*
X85117333Y-57951399D01*
X85105597Y-57929443D01*
X85089803Y-57910197D01*
X85070557Y-57894403D01*
X85048601Y-57882667D01*
X85024776Y-57875440D01*
X85000000Y-57873000D01*
X60279000Y-57873000D01*
X60279000Y-53905251D01*
X62998000Y-53905251D01*
X62998000Y-54094749D01*
X63034969Y-54280605D01*
X63107486Y-54455678D01*
X63212766Y-54613239D01*
X63346761Y-54747234D01*
X63504322Y-54852514D01*
X63679395Y-54925031D01*
X63865251Y-54962000D01*
X64054749Y-54962000D01*
X64240605Y-54925031D01*
X64415678Y-54852514D01*
X64573239Y-54747234D01*
X64707234Y-54613239D01*
X64812514Y-54455678D01*
X64885031Y-54280605D01*
X64922000Y-54094749D01*
X64922000Y-53905251D01*
X64885031Y-53719395D01*
X64812514Y-53544322D01*
X64707234Y-53386761D01*
X64573239Y-53252766D01*
X64415678Y-53147486D01*
X64240605Y-53074969D01*
X64054749Y-53038000D01*
X63865251Y-53038000D01*
X63679395Y-53074969D01*
X63504322Y-53147486D01*
X63346761Y-53252766D01*
X63212766Y-53386761D01*
X63107486Y-53544322D01*
X63034969Y-53719395D01*
X62998000Y-53905251D01*
X60279000Y-53905251D01*
X60279000Y-51577064D01*
X60480944Y-51577064D01*
X60565466Y-51713674D01*
X60727265Y-51929101D01*
X60927983Y-52108823D01*
X61159906Y-52245934D01*
X61414122Y-52335164D01*
X61627000Y-52210954D01*
X61627000Y-51373000D01*
X62373000Y-51373000D01*
X62373000Y-52210954D01*
X62585878Y-52335164D01*
X62840094Y-52245934D01*
X63072017Y-52108823D01*
X63272735Y-51929101D01*
X63434534Y-51713674D01*
X63519056Y-51577064D01*
X63428144Y-51373000D01*
X62373000Y-51373000D01*
X61627000Y-51373000D01*
X60571856Y-51373000D01*
X60480944Y-51577064D01*
X60279000Y-51577064D01*
X60279000Y-50422936D01*
X60480944Y-50422936D01*
X60571856Y-50627000D01*
X61627000Y-50627000D01*
X61627000Y-49789046D01*
X62373000Y-49789046D01*
X62373000Y-50627000D01*
X63428144Y-50627000D01*
X63519056Y-50422936D01*
X63434534Y-50286326D01*
X63272735Y-50070899D01*
X63072017Y-49891177D01*
X62840094Y-49754066D01*
X62585878Y-49664836D01*
X62373000Y-49789046D01*
X61627000Y-49789046D01*
X61414122Y-49664836D01*
X61159906Y-49754066D01*
X60927983Y-49891177D01*
X60727265Y-50070899D01*
X60565466Y-50286326D01*
X60480944Y-50422936D01*
X60279000Y-50422936D01*
X60279000Y-47500000D01*
X60661418Y-47500000D01*
X60661418Y-48500000D01*
X60672535Y-48612876D01*
X60705460Y-48721414D01*
X60758927Y-48821443D01*
X60830881Y-48909119D01*
X60918557Y-48981073D01*
X61018586Y-49034540D01*
X61127124Y-49067465D01*
X61240000Y-49078582D01*
X62760000Y-49078582D01*
X62872876Y-49067465D01*
X62981414Y-49034540D01*
X63081443Y-48981073D01*
X63169119Y-48909119D01*
X63241073Y-48821443D01*
X63294540Y-48721414D01*
X63327465Y-48612876D01*
X63338582Y-48500000D01*
X63338582Y-47649604D01*
X71103000Y-47649604D01*
X71103000Y-47950396D01*
X71161681Y-48245410D01*
X71276790Y-48523306D01*
X71443901Y-48773406D01*
X71656594Y-48986099D01*
X71906694Y-49153210D01*
X72184590Y-49268319D01*
X72479604Y-49327000D01*
X72780396Y-49327000D01*
X73075410Y-49268319D01*
X73353306Y-49153210D01*
X73603406Y-48986099D01*
X73816099Y-48773406D01*
X73983210Y-48523306D01*
X74098319Y-48245410D01*
X74157000Y-47950396D01*
X74157000Y-47649604D01*
X84573000Y-47649604D01*
X84573000Y-47950396D01*
X84631681Y-48245410D01*
X84746790Y-48523306D01*
X84913901Y-48773406D01*
X85126594Y-48986099D01*
X85376694Y-49153210D01*
X85654590Y-49268319D01*
X85949604Y-49327000D01*
X86250396Y-49327000D01*
X86545410Y-49268319D01*
X86690073Y-49208397D01*
X100473000Y-49208397D01*
X100473000Y-49351603D01*
X100500938Y-49492058D01*
X100555741Y-49624364D01*
X100635302Y-49743436D01*
X100736564Y-49844698D01*
X100855636Y-49924259D01*
X100987942Y-49979062D01*
X101128397Y-50007000D01*
X101271603Y-50007000D01*
X101412058Y-49979062D01*
X101544364Y-49924259D01*
X101663436Y-49844698D01*
X101764698Y-49743436D01*
X101844259Y-49624364D01*
X101899062Y-49492058D01*
X101927000Y-49351603D01*
X101927000Y-49208397D01*
X101902000Y-49082712D01*
X101902000Y-46690777D01*
X105320770Y-43272008D01*
X105320775Y-43272002D01*
X105556881Y-43035896D01*
X105663436Y-42964698D01*
X105764698Y-42863436D01*
X105844259Y-42744364D01*
X105899062Y-42612058D01*
X105927000Y-42471603D01*
X105927000Y-42328397D01*
X105899062Y-42187942D01*
X105844259Y-42055636D01*
X105764698Y-41936564D01*
X105663436Y-41835302D01*
X105544364Y-41755741D01*
X105412058Y-41700938D01*
X105271603Y-41673000D01*
X105128397Y-41673000D01*
X104987942Y-41700938D01*
X104855636Y-41755741D01*
X104736564Y-41835302D01*
X104635302Y-41936564D01*
X104564104Y-42043119D01*
X104327998Y-42279225D01*
X104327992Y-42279230D01*
X100727990Y-45879233D01*
X100701211Y-45901210D01*
X100679234Y-45927989D01*
X100679230Y-45927993D01*
X100613486Y-46008103D01*
X100548300Y-46130057D01*
X100508159Y-46262384D01*
X100506523Y-46278999D01*
X100494605Y-46400000D01*
X100498001Y-46434480D01*
X100498000Y-49082712D01*
X100473000Y-49208397D01*
X86690073Y-49208397D01*
X86823306Y-49153210D01*
X87073406Y-48986099D01*
X87286099Y-48773406D01*
X87453210Y-48523306D01*
X87568319Y-48245410D01*
X87627000Y-47950396D01*
X87627000Y-47649604D01*
X87568319Y-47354590D01*
X87453210Y-47076694D01*
X87286099Y-46826594D01*
X87073406Y-46613901D01*
X86823306Y-46446790D01*
X86545410Y-46331681D01*
X86250396Y-46273000D01*
X85949604Y-46273000D01*
X85654590Y-46331681D01*
X85376694Y-46446790D01*
X85126594Y-46613901D01*
X84913901Y-46826594D01*
X84746790Y-47076694D01*
X84631681Y-47354590D01*
X84573000Y-47649604D01*
X74157000Y-47649604D01*
X74098319Y-47354590D01*
X73983210Y-47076694D01*
X73816099Y-46826594D01*
X73603406Y-46613901D01*
X73353306Y-46446790D01*
X73075410Y-46331681D01*
X72780396Y-46273000D01*
X72479604Y-46273000D01*
X72184590Y-46331681D01*
X71906694Y-46446790D01*
X71656594Y-46613901D01*
X71443901Y-46826594D01*
X71276790Y-47076694D01*
X71161681Y-47354590D01*
X71103000Y-47649604D01*
X63338582Y-47649604D01*
X63338582Y-47500000D01*
X63327465Y-47387124D01*
X63294540Y-47278586D01*
X63241073Y-47178557D01*
X63169119Y-47090881D01*
X63081443Y-47018927D01*
X62981414Y-46965460D01*
X62872876Y-46932535D01*
X62760000Y-46921418D01*
X61240000Y-46921418D01*
X61127124Y-46932535D01*
X61018586Y-46965460D01*
X60918557Y-47018927D01*
X60830881Y-47090881D01*
X60758927Y-47178557D01*
X60705460Y-47278586D01*
X60672535Y-47387124D01*
X60661418Y-47500000D01*
X60279000Y-47500000D01*
X60279000Y-44905251D01*
X62998000Y-44905251D01*
X62998000Y-45094749D01*
X63034969Y-45280605D01*
X63107486Y-45455678D01*
X63212766Y-45613239D01*
X63346761Y-45747234D01*
X63504322Y-45852514D01*
X63679395Y-45925031D01*
X63865251Y-45962000D01*
X64054749Y-45962000D01*
X64240605Y-45925031D01*
X64415678Y-45852514D01*
X64573239Y-45747234D01*
X64707234Y-45613239D01*
X64812514Y-45455678D01*
X64885031Y-45280605D01*
X64922000Y-45094749D01*
X64922000Y-44905251D01*
X64885031Y-44719395D01*
X64812514Y-44544322D01*
X64707234Y-44386761D01*
X64573239Y-44252766D01*
X64568507Y-44249604D01*
X71103000Y-44249604D01*
X71103000Y-44550396D01*
X71161681Y-44845410D01*
X71276790Y-45123306D01*
X71443901Y-45373406D01*
X71656594Y-45586099D01*
X71906694Y-45753210D01*
X72184590Y-45868319D01*
X72479604Y-45927000D01*
X72780396Y-45927000D01*
X73075410Y-45868319D01*
X73353306Y-45753210D01*
X73603406Y-45586099D01*
X73816099Y-45373406D01*
X73983210Y-45123306D01*
X74098319Y-44845410D01*
X74157000Y-44550396D01*
X74157000Y-44249604D01*
X84573000Y-44249604D01*
X84573000Y-44550396D01*
X84631681Y-44845410D01*
X84746790Y-45123306D01*
X84913901Y-45373406D01*
X85126594Y-45586099D01*
X85376694Y-45753210D01*
X85654590Y-45868319D01*
X85949604Y-45927000D01*
X86250396Y-45927000D01*
X86545410Y-45868319D01*
X86823306Y-45753210D01*
X87073406Y-45586099D01*
X87286099Y-45373406D01*
X87453210Y-45123306D01*
X87568319Y-44845410D01*
X87627000Y-44550396D01*
X87627000Y-44249604D01*
X87568319Y-43954590D01*
X87453210Y-43676694D01*
X87286099Y-43426594D01*
X87073406Y-43213901D01*
X86823306Y-43046790D01*
X86545410Y-42931681D01*
X86250396Y-42873000D01*
X85949604Y-42873000D01*
X85654590Y-42931681D01*
X85376694Y-43046790D01*
X85126594Y-43213901D01*
X84913901Y-43426594D01*
X84746790Y-43676694D01*
X84631681Y-43954590D01*
X84573000Y-44249604D01*
X74157000Y-44249604D01*
X74098319Y-43954590D01*
X73983210Y-43676694D01*
X73816099Y-43426594D01*
X73603406Y-43213901D01*
X73353306Y-43046790D01*
X73075410Y-42931681D01*
X72780396Y-42873000D01*
X72479604Y-42873000D01*
X72184590Y-42931681D01*
X71906694Y-43046790D01*
X71656594Y-43213901D01*
X71443901Y-43426594D01*
X71276790Y-43676694D01*
X71161681Y-43954590D01*
X71103000Y-44249604D01*
X64568507Y-44249604D01*
X64415678Y-44147486D01*
X64240605Y-44074969D01*
X64054749Y-44038000D01*
X63865251Y-44038000D01*
X63679395Y-44074969D01*
X63504322Y-44147486D01*
X63346761Y-44252766D01*
X63212766Y-44386761D01*
X63107486Y-44544322D01*
X63034969Y-44719395D01*
X62998000Y-44905251D01*
X60279000Y-44905251D01*
X60279000Y-39810207D01*
X63073000Y-39810207D01*
X63073000Y-40189793D01*
X63147053Y-40562085D01*
X63292315Y-40912777D01*
X63503201Y-41228391D01*
X63771609Y-41496799D01*
X64087223Y-41707685D01*
X64437915Y-41852947D01*
X64810207Y-41927000D01*
X65189793Y-41927000D01*
X65562085Y-41852947D01*
X65912777Y-41707685D01*
X66228391Y-41496799D01*
X66496799Y-41228391D01*
X66707685Y-40912777D01*
X66852947Y-40562085D01*
X66927000Y-40189793D01*
X66927000Y-39810207D01*
X66852947Y-39437915D01*
X66707685Y-39087223D01*
X66693004Y-39065251D01*
X76038000Y-39065251D01*
X76038000Y-39254749D01*
X76074969Y-39440605D01*
X76147486Y-39615678D01*
X76252766Y-39773239D01*
X76386761Y-39907234D01*
X76544322Y-40012514D01*
X76719395Y-40085031D01*
X76905251Y-40122000D01*
X77094749Y-40122000D01*
X77280605Y-40085031D01*
X77455678Y-40012514D01*
X77613239Y-39907234D01*
X77747234Y-39773239D01*
X77852514Y-39615678D01*
X77925031Y-39440605D01*
X77962000Y-39254749D01*
X77962000Y-39065251D01*
X85038000Y-39065251D01*
X85038000Y-39254749D01*
X85074969Y-39440605D01*
X85147486Y-39615678D01*
X85252766Y-39773239D01*
X85386761Y-39907234D01*
X85544322Y-40012514D01*
X85719395Y-40085031D01*
X85905251Y-40122000D01*
X86094749Y-40122000D01*
X86280605Y-40085031D01*
X86455678Y-40012514D01*
X86613239Y-39907234D01*
X86747234Y-39773239D01*
X86852514Y-39615678D01*
X86925031Y-39440605D01*
X86940019Y-39365251D01*
X116538000Y-39365251D01*
X116538000Y-39554749D01*
X116574969Y-39740605D01*
X116647486Y-39915678D01*
X116752766Y-40073239D01*
X116886761Y-40207234D01*
X117044322Y-40312514D01*
X117219395Y-40385031D01*
X117405251Y-40422000D01*
X117594749Y-40422000D01*
X117780605Y-40385031D01*
X117955678Y-40312514D01*
X118113239Y-40207234D01*
X118247234Y-40073239D01*
X118352514Y-39915678D01*
X118425031Y-39740605D01*
X118462000Y-39554749D01*
X118462000Y-39365251D01*
X118425031Y-39179395D01*
X118352514Y-39004322D01*
X118247234Y-38846761D01*
X118113239Y-38712766D01*
X117955678Y-38607486D01*
X117780605Y-38534969D01*
X117594749Y-38498000D01*
X117405251Y-38498000D01*
X117219395Y-38534969D01*
X117044322Y-38607486D01*
X116886761Y-38712766D01*
X116752766Y-38846761D01*
X116647486Y-39004322D01*
X116574969Y-39179395D01*
X116538000Y-39365251D01*
X86940019Y-39365251D01*
X86962000Y-39254749D01*
X86962000Y-39065251D01*
X86925031Y-38879395D01*
X86852514Y-38704322D01*
X86747234Y-38546761D01*
X86613239Y-38412766D01*
X86455678Y-38307486D01*
X86280605Y-38234969D01*
X86094749Y-38198000D01*
X85905251Y-38198000D01*
X85719395Y-38234969D01*
X85544322Y-38307486D01*
X85386761Y-38412766D01*
X85252766Y-38546761D01*
X85147486Y-38704322D01*
X85074969Y-38879395D01*
X85038000Y-39065251D01*
X77962000Y-39065251D01*
X77925031Y-38879395D01*
X77852514Y-38704322D01*
X77747234Y-38546761D01*
X77613239Y-38412766D01*
X77455678Y-38307486D01*
X77280605Y-38234969D01*
X77094749Y-38198000D01*
X76905251Y-38198000D01*
X76719395Y-38234969D01*
X76544322Y-38307486D01*
X76386761Y-38412766D01*
X76252766Y-38546761D01*
X76147486Y-38704322D01*
X76074969Y-38879395D01*
X76038000Y-39065251D01*
X66693004Y-39065251D01*
X66496799Y-38771609D01*
X66228391Y-38503201D01*
X65912777Y-38292315D01*
X65562085Y-38147053D01*
X65189793Y-38073000D01*
X64810207Y-38073000D01*
X64437915Y-38147053D01*
X64087223Y-38292315D01*
X63771609Y-38503201D01*
X63503201Y-38771609D01*
X63292315Y-39087223D01*
X63147053Y-39437915D01*
X63073000Y-39810207D01*
X60279000Y-39810207D01*
X60279000Y-37785878D01*
X78664836Y-37785878D01*
X78754066Y-38040094D01*
X78891177Y-38272017D01*
X79070899Y-38472735D01*
X79286326Y-38634534D01*
X79422936Y-38719056D01*
X79627000Y-38628144D01*
X79627000Y-37573000D01*
X80373000Y-37573000D01*
X80373000Y-38628144D01*
X80577064Y-38719056D01*
X80713674Y-38634534D01*
X80929101Y-38472735D01*
X81108823Y-38272017D01*
X81245934Y-38040094D01*
X81335164Y-37785878D01*
X81210954Y-37573000D01*
X80373000Y-37573000D01*
X79627000Y-37573000D01*
X78789046Y-37573000D01*
X78664836Y-37785878D01*
X60279000Y-37785878D01*
X60279000Y-36614122D01*
X78664836Y-36614122D01*
X78789046Y-36827000D01*
X79627000Y-36827000D01*
X79627000Y-35771856D01*
X80373000Y-35771856D01*
X80373000Y-36827000D01*
X81210954Y-36827000D01*
X81335164Y-36614122D01*
X81274048Y-36440000D01*
X81921418Y-36440000D01*
X81921418Y-37960000D01*
X81932535Y-38072876D01*
X81965460Y-38181414D01*
X82018927Y-38281443D01*
X82090881Y-38369119D01*
X82178557Y-38441073D01*
X82278586Y-38494540D01*
X82387124Y-38527465D01*
X82500000Y-38538582D01*
X83500000Y-38538582D01*
X83612876Y-38527465D01*
X83721414Y-38494540D01*
X83821443Y-38441073D01*
X83909119Y-38369119D01*
X83981073Y-38281443D01*
X84034540Y-38181414D01*
X84063520Y-38085878D01*
X119164836Y-38085878D01*
X119254066Y-38340094D01*
X119391177Y-38572017D01*
X119570899Y-38772735D01*
X119786326Y-38934534D01*
X119922936Y-39019056D01*
X120127000Y-38928144D01*
X120127000Y-37873000D01*
X120873000Y-37873000D01*
X120873000Y-38928144D01*
X121077064Y-39019056D01*
X121213674Y-38934534D01*
X121429101Y-38772735D01*
X121608823Y-38572017D01*
X121745934Y-38340094D01*
X121835164Y-38085878D01*
X121710954Y-37873000D01*
X120873000Y-37873000D01*
X120127000Y-37873000D01*
X119289046Y-37873000D01*
X119164836Y-38085878D01*
X84063520Y-38085878D01*
X84067465Y-38072876D01*
X84078582Y-37960000D01*
X84078582Y-37187091D01*
X122423000Y-37187091D01*
X122423000Y-37812908D01*
X122438583Y-37971128D01*
X122500167Y-38174143D01*
X122600174Y-38361244D01*
X122734761Y-38525239D01*
X122898756Y-38659826D01*
X123085856Y-38759833D01*
X123174787Y-38786810D01*
X123183232Y-38797100D01*
X123183237Y-38797105D01*
X123196606Y-38813395D01*
X123212895Y-38826763D01*
X124348000Y-39961870D01*
X124348001Y-120288129D01*
X123212900Y-121423232D01*
X123196605Y-121436605D01*
X123183234Y-121452898D01*
X123183232Y-121452900D01*
X123174787Y-121463190D01*
X123085856Y-121490167D01*
X122898756Y-121590174D01*
X122734761Y-121724761D01*
X122600174Y-121888756D01*
X122500167Y-122075857D01*
X122438583Y-122278872D01*
X122423000Y-122437092D01*
X122423000Y-123062909D01*
X122438583Y-123221129D01*
X122500167Y-123424144D01*
X122600175Y-123611244D01*
X122734762Y-123775239D01*
X122898757Y-123909826D01*
X123085857Y-124009833D01*
X123288872Y-124071417D01*
X123500000Y-124092211D01*
X123711129Y-124071417D01*
X123914144Y-124009833D01*
X124101244Y-123909826D01*
X124265239Y-123775239D01*
X124399826Y-123611244D01*
X124499833Y-123424143D01*
X124561417Y-123221128D01*
X124577000Y-123062908D01*
X124577000Y-122437091D01*
X124561417Y-122278871D01*
X124499833Y-122075856D01*
X124399826Y-121888756D01*
X124265239Y-121724761D01*
X124184977Y-121658892D01*
X125000001Y-120843869D01*
X125815023Y-121658892D01*
X125734761Y-121724761D01*
X125600174Y-121888756D01*
X125500167Y-122075857D01*
X125438583Y-122278872D01*
X125423000Y-122437092D01*
X125423000Y-123062909D01*
X125438583Y-123221129D01*
X125500167Y-123424144D01*
X125600175Y-123611244D01*
X125734762Y-123775239D01*
X125898757Y-123909826D01*
X126085857Y-124009833D01*
X126288872Y-124071417D01*
X126500000Y-124092211D01*
X126711129Y-124071417D01*
X126914144Y-124009833D01*
X127101244Y-123909826D01*
X127265239Y-123775239D01*
X127399826Y-123611244D01*
X127499833Y-123424143D01*
X127526607Y-123335878D01*
X128164836Y-123335878D01*
X128254066Y-123590094D01*
X128391177Y-123822017D01*
X128570899Y-124022735D01*
X128786326Y-124184534D01*
X128922936Y-124269056D01*
X129127000Y-124178144D01*
X129127000Y-123123000D01*
X129873000Y-123123000D01*
X129873000Y-124178144D01*
X130077064Y-124269056D01*
X130213674Y-124184534D01*
X130429101Y-124022735D01*
X130608823Y-123822017D01*
X130745934Y-123590094D01*
X130835164Y-123335878D01*
X130710954Y-123123000D01*
X129873000Y-123123000D01*
X129127000Y-123123000D01*
X128289046Y-123123000D01*
X128164836Y-123335878D01*
X127526607Y-123335878D01*
X127561417Y-123221128D01*
X127577000Y-123062908D01*
X127577000Y-122437092D01*
X131423000Y-122437092D01*
X131423000Y-123062909D01*
X131438583Y-123221129D01*
X131500167Y-123424144D01*
X131600175Y-123611244D01*
X131734762Y-123775239D01*
X131898757Y-123909826D01*
X132085857Y-124009833D01*
X132288872Y-124071417D01*
X132500000Y-124092211D01*
X132711129Y-124071417D01*
X132914144Y-124009833D01*
X133101244Y-123909826D01*
X133265239Y-123775239D01*
X133399826Y-123611244D01*
X133499833Y-123424143D01*
X133561417Y-123221128D01*
X133577000Y-123062908D01*
X133577000Y-122437092D01*
X134423000Y-122437092D01*
X134423000Y-123062909D01*
X134438583Y-123221129D01*
X134500167Y-123424144D01*
X134600175Y-123611244D01*
X134734762Y-123775239D01*
X134898757Y-123909826D01*
X135085857Y-124009833D01*
X135288872Y-124071417D01*
X135500000Y-124092211D01*
X135711129Y-124071417D01*
X135914144Y-124009833D01*
X136101244Y-123909826D01*
X136265239Y-123775239D01*
X136399826Y-123611244D01*
X136499833Y-123424143D01*
X136526607Y-123335878D01*
X137164836Y-123335878D01*
X137254066Y-123590094D01*
X137391177Y-123822017D01*
X137570899Y-124022735D01*
X137786326Y-124184534D01*
X137922936Y-124269056D01*
X138127000Y-124178144D01*
X138127000Y-123123000D01*
X138873000Y-123123000D01*
X138873000Y-124178144D01*
X139077064Y-124269056D01*
X139213674Y-124184534D01*
X139429101Y-124022735D01*
X139608823Y-123822017D01*
X139745934Y-123590094D01*
X139835164Y-123335878D01*
X139710954Y-123123000D01*
X138873000Y-123123000D01*
X138127000Y-123123000D01*
X137289046Y-123123000D01*
X137164836Y-123335878D01*
X136526607Y-123335878D01*
X136561417Y-123221128D01*
X136577000Y-123062908D01*
X136577000Y-122437092D01*
X140423000Y-122437092D01*
X140423000Y-123062909D01*
X140438583Y-123221129D01*
X140500167Y-123424144D01*
X140600175Y-123611244D01*
X140734762Y-123775239D01*
X140898757Y-123909826D01*
X141085857Y-124009833D01*
X141288872Y-124071417D01*
X141500000Y-124092211D01*
X141711129Y-124071417D01*
X141914144Y-124009833D01*
X142101244Y-123909826D01*
X142265239Y-123775239D01*
X142399826Y-123611244D01*
X142499833Y-123424143D01*
X142561417Y-123221128D01*
X142577000Y-123062908D01*
X142577000Y-122437091D01*
X142561417Y-122278871D01*
X142499833Y-122075856D01*
X142399826Y-121888756D01*
X142265239Y-121724761D01*
X142101244Y-121590174D01*
X141914143Y-121490167D01*
X141711128Y-121428583D01*
X141500000Y-121407789D01*
X141288871Y-121428583D01*
X141085856Y-121490167D01*
X140898756Y-121590174D01*
X140734761Y-121724761D01*
X140600174Y-121888756D01*
X140500167Y-122075857D01*
X140438583Y-122278872D01*
X140423000Y-122437092D01*
X136577000Y-122437092D01*
X136577000Y-122437091D01*
X136561417Y-122278871D01*
X136526609Y-122164122D01*
X137164836Y-122164122D01*
X137289046Y-122377000D01*
X138127000Y-122377000D01*
X138127000Y-121321856D01*
X138873000Y-121321856D01*
X138873000Y-122377000D01*
X139710954Y-122377000D01*
X139835164Y-122164122D01*
X139745934Y-121909906D01*
X139608823Y-121677983D01*
X139429101Y-121477265D01*
X139213674Y-121315466D01*
X139077064Y-121230944D01*
X138873000Y-121321856D01*
X138127000Y-121321856D01*
X137922936Y-121230944D01*
X137786326Y-121315466D01*
X137570899Y-121477265D01*
X137391177Y-121677983D01*
X137254066Y-121909906D01*
X137164836Y-122164122D01*
X136526609Y-122164122D01*
X136499833Y-122075856D01*
X136399826Y-121888756D01*
X136265239Y-121724761D01*
X136101244Y-121590174D01*
X135914143Y-121490167D01*
X135711128Y-121428583D01*
X135500000Y-121407789D01*
X135288871Y-121428583D01*
X135085856Y-121490167D01*
X134898756Y-121590174D01*
X134734761Y-121724761D01*
X134600174Y-121888756D01*
X134500167Y-122075857D01*
X134438583Y-122278872D01*
X134423000Y-122437092D01*
X133577000Y-122437092D01*
X133577000Y-122437091D01*
X133561417Y-122278871D01*
X133499833Y-122075856D01*
X133399826Y-121888756D01*
X133265239Y-121724761D01*
X133101244Y-121590174D01*
X132914143Y-121490167D01*
X132711128Y-121428583D01*
X132500000Y-121407789D01*
X132288871Y-121428583D01*
X132085856Y-121490167D01*
X131898756Y-121590174D01*
X131734761Y-121724761D01*
X131600174Y-121888756D01*
X131500167Y-122075857D01*
X131438583Y-122278872D01*
X131423000Y-122437092D01*
X127577000Y-122437092D01*
X127577000Y-122437091D01*
X127561417Y-122278871D01*
X127526609Y-122164122D01*
X128164836Y-122164122D01*
X128289046Y-122377000D01*
X129127000Y-122377000D01*
X129127000Y-121321856D01*
X129873000Y-121321856D01*
X129873000Y-122377000D01*
X130710954Y-122377000D01*
X130835164Y-122164122D01*
X130745934Y-121909906D01*
X130608823Y-121677983D01*
X130429101Y-121477265D01*
X130213674Y-121315466D01*
X130077064Y-121230944D01*
X129873000Y-121321856D01*
X129127000Y-121321856D01*
X128922936Y-121230944D01*
X128786326Y-121315466D01*
X128570899Y-121477265D01*
X128391177Y-121677983D01*
X128254066Y-121909906D01*
X128164836Y-122164122D01*
X127526609Y-122164122D01*
X127499833Y-122075856D01*
X127399826Y-121888756D01*
X127265239Y-121724761D01*
X127101244Y-121590174D01*
X126914143Y-121490167D01*
X126825215Y-121463191D01*
X126816768Y-121452898D01*
X126816759Y-121452889D01*
X126803395Y-121436605D01*
X126787112Y-121423242D01*
X125652000Y-120288132D01*
X125652000Y-107149604D01*
X126873000Y-107149604D01*
X126873000Y-107450396D01*
X126931681Y-107745410D01*
X127046790Y-108023306D01*
X127213901Y-108273406D01*
X127426594Y-108486099D01*
X127676694Y-108653210D01*
X127954590Y-108768319D01*
X128249604Y-108827000D01*
X128550396Y-108827000D01*
X128845410Y-108768319D01*
X129123306Y-108653210D01*
X129373406Y-108486099D01*
X129586099Y-108273406D01*
X129753210Y-108023306D01*
X129868319Y-107745410D01*
X129927000Y-107450396D01*
X129927000Y-107149604D01*
X129868319Y-106854590D01*
X129753210Y-106576694D01*
X129586099Y-106326594D01*
X129373406Y-106113901D01*
X129123306Y-105946790D01*
X128845410Y-105831681D01*
X128550396Y-105773000D01*
X128249604Y-105773000D01*
X127954590Y-105831681D01*
X127676694Y-105946790D01*
X127426594Y-106113901D01*
X127213901Y-106326594D01*
X127046790Y-106576694D01*
X126931681Y-106854590D01*
X126873000Y-107149604D01*
X125652000Y-107149604D01*
X125652000Y-103749604D01*
X126873000Y-103749604D01*
X126873000Y-104050396D01*
X126931681Y-104345410D01*
X127046790Y-104623306D01*
X127213901Y-104873406D01*
X127426594Y-105086099D01*
X127676694Y-105253210D01*
X127954590Y-105368319D01*
X128249604Y-105427000D01*
X128550396Y-105427000D01*
X128845410Y-105368319D01*
X129123306Y-105253210D01*
X129373406Y-105086099D01*
X129586099Y-104873406D01*
X129753210Y-104623306D01*
X129868319Y-104345410D01*
X129927000Y-104050396D01*
X129927000Y-103749604D01*
X129868319Y-103454590D01*
X129753210Y-103176694D01*
X129586099Y-102926594D01*
X129373406Y-102713901D01*
X129123306Y-102546790D01*
X128845410Y-102431681D01*
X128550396Y-102373000D01*
X128249604Y-102373000D01*
X127954590Y-102431681D01*
X127676694Y-102546790D01*
X127426594Y-102713901D01*
X127213901Y-102926594D01*
X127046790Y-103176694D01*
X126931681Y-103454590D01*
X126873000Y-103749604D01*
X125652000Y-103749604D01*
X125652000Y-88215433D01*
X127223000Y-88215433D01*
X127223000Y-88624567D01*
X127302818Y-89025839D01*
X127459386Y-89403829D01*
X127686689Y-89744011D01*
X127975989Y-90033311D01*
X128316171Y-90260614D01*
X128694161Y-90417182D01*
X129095433Y-90497000D01*
X129504567Y-90497000D01*
X129905839Y-90417182D01*
X130283829Y-90260614D01*
X130624011Y-90033311D01*
X130913311Y-89744011D01*
X131140614Y-89403829D01*
X131297182Y-89025839D01*
X131377000Y-88624567D01*
X131377000Y-88215433D01*
X131297182Y-87814161D01*
X131140614Y-87436171D01*
X130913311Y-87095989D01*
X130624011Y-86806689D01*
X130283829Y-86579386D01*
X129905839Y-86422818D01*
X129504567Y-86343000D01*
X129095433Y-86343000D01*
X128694161Y-86422818D01*
X128316171Y-86579386D01*
X127975989Y-86806689D01*
X127686689Y-87095989D01*
X127459386Y-87436171D01*
X127302818Y-87814161D01*
X127223000Y-88215433D01*
X125652000Y-88215433D01*
X125652000Y-84454679D01*
X127723000Y-84454679D01*
X127723000Y-84765321D01*
X127783604Y-85069994D01*
X127902481Y-85356989D01*
X128075064Y-85615279D01*
X128294721Y-85834936D01*
X128553011Y-86007519D01*
X128840006Y-86126396D01*
X129144679Y-86187000D01*
X129455321Y-86187000D01*
X129759994Y-86126396D01*
X130046989Y-86007519D01*
X130305279Y-85834936D01*
X130524936Y-85615279D01*
X130697519Y-85356989D01*
X130816396Y-85069994D01*
X130877000Y-84765321D01*
X130877000Y-84454679D01*
X130845612Y-84296879D01*
X136653000Y-84296879D01*
X136653000Y-84503121D01*
X136693236Y-84705399D01*
X136772161Y-84895940D01*
X136886742Y-85067424D01*
X137032576Y-85213258D01*
X137204060Y-85327839D01*
X137394601Y-85406764D01*
X137596879Y-85447000D01*
X137803121Y-85447000D01*
X138005399Y-85406764D01*
X138195940Y-85327839D01*
X138367424Y-85213258D01*
X138513258Y-85067424D01*
X138627839Y-84895940D01*
X138706764Y-84705399D01*
X138747000Y-84503121D01*
X138747000Y-84296879D01*
X138706764Y-84094601D01*
X138627839Y-83904060D01*
X138513258Y-83732576D01*
X138367424Y-83586742D01*
X138195940Y-83472161D01*
X138005399Y-83393236D01*
X137803121Y-83353000D01*
X137596879Y-83353000D01*
X137394601Y-83393236D01*
X137204060Y-83472161D01*
X137032576Y-83586742D01*
X136886742Y-83732576D01*
X136772161Y-83904060D01*
X136693236Y-84094601D01*
X136653000Y-84296879D01*
X130845612Y-84296879D01*
X130816396Y-84150006D01*
X130697519Y-83863011D01*
X130524936Y-83604721D01*
X130305279Y-83385064D01*
X130046989Y-83212481D01*
X129759994Y-83093604D01*
X129455321Y-83033000D01*
X129144679Y-83033000D01*
X128840006Y-83093604D01*
X128553011Y-83212481D01*
X128294721Y-83385064D01*
X128075064Y-83604721D01*
X127902481Y-83863011D01*
X127783604Y-84150006D01*
X127723000Y-84454679D01*
X125652000Y-84454679D01*
X125652000Y-80644679D01*
X127723000Y-80644679D01*
X127723000Y-80955321D01*
X127783604Y-81259994D01*
X127902481Y-81546989D01*
X128075064Y-81805279D01*
X128294721Y-82024936D01*
X128553011Y-82197519D01*
X128840006Y-82316396D01*
X129144679Y-82377000D01*
X129455321Y-82377000D01*
X129759994Y-82316396D01*
X130046989Y-82197519D01*
X130305279Y-82024936D01*
X130524936Y-81805279D01*
X130557275Y-81756879D01*
X136653000Y-81756879D01*
X136653000Y-81963121D01*
X136693236Y-82165399D01*
X136772161Y-82355940D01*
X136886742Y-82527424D01*
X137032576Y-82673258D01*
X137204060Y-82787839D01*
X137394601Y-82866764D01*
X137596879Y-82907000D01*
X137803121Y-82907000D01*
X138005399Y-82866764D01*
X138195940Y-82787839D01*
X138367424Y-82673258D01*
X138513258Y-82527424D01*
X138627839Y-82355940D01*
X138706764Y-82165399D01*
X138747000Y-81963121D01*
X138747000Y-81756879D01*
X138706764Y-81554601D01*
X138627839Y-81364060D01*
X138513258Y-81192576D01*
X138367424Y-81046742D01*
X138195940Y-80932161D01*
X138005399Y-80853236D01*
X137803121Y-80813000D01*
X137596879Y-80813000D01*
X137394601Y-80853236D01*
X137204060Y-80932161D01*
X137032576Y-81046742D01*
X136886742Y-81192576D01*
X136772161Y-81364060D01*
X136693236Y-81554601D01*
X136653000Y-81756879D01*
X130557275Y-81756879D01*
X130697519Y-81546989D01*
X130816396Y-81259994D01*
X130877000Y-80955321D01*
X130877000Y-80644679D01*
X130816396Y-80340006D01*
X130697519Y-80053011D01*
X130524936Y-79794721D01*
X130305279Y-79575064D01*
X130046989Y-79402481D01*
X129759994Y-79283604D01*
X129455321Y-79223000D01*
X129144679Y-79223000D01*
X128840006Y-79283604D01*
X128553011Y-79402481D01*
X128294721Y-79575064D01*
X128075064Y-79794721D01*
X127902481Y-80053011D01*
X127783604Y-80340006D01*
X127723000Y-80644679D01*
X125652000Y-80644679D01*
X125652000Y-79216879D01*
X136653000Y-79216879D01*
X136653000Y-79423121D01*
X136693236Y-79625399D01*
X136772161Y-79815940D01*
X136886742Y-79987424D01*
X137032576Y-80133258D01*
X137204060Y-80247839D01*
X137394601Y-80326764D01*
X137596879Y-80367000D01*
X137803121Y-80367000D01*
X138005399Y-80326764D01*
X138195940Y-80247839D01*
X138367424Y-80133258D01*
X138513258Y-79987424D01*
X138627839Y-79815940D01*
X138706764Y-79625399D01*
X138747000Y-79423121D01*
X138747000Y-79216879D01*
X138706764Y-79014601D01*
X138627839Y-78824060D01*
X138513258Y-78652576D01*
X138367424Y-78506742D01*
X138195940Y-78392161D01*
X138005399Y-78313236D01*
X137803121Y-78273000D01*
X137596879Y-78273000D01*
X137394601Y-78313236D01*
X137204060Y-78392161D01*
X137032576Y-78506742D01*
X136886742Y-78652576D01*
X136772161Y-78824060D01*
X136693236Y-79014601D01*
X136653000Y-79216879D01*
X125652000Y-79216879D01*
X125652000Y-78452163D01*
X128365338Y-78452163D01*
X128510227Y-78711613D01*
X128861273Y-78832610D01*
X129229178Y-78882796D01*
X129599805Y-78860244D01*
X129958910Y-78765818D01*
X130089773Y-78711613D01*
X130234662Y-78452163D01*
X129300000Y-77517502D01*
X128365338Y-78452163D01*
X125652000Y-78452163D01*
X125652000Y-76919178D01*
X127407204Y-76919178D01*
X127429756Y-77289805D01*
X127524182Y-77648910D01*
X127578387Y-77779773D01*
X127837837Y-77924662D01*
X128772498Y-76990000D01*
X129827502Y-76990000D01*
X130762163Y-77924662D01*
X131021613Y-77779773D01*
X131142610Y-77428727D01*
X131192796Y-77060822D01*
X131172034Y-76719604D01*
X142673000Y-76719604D01*
X142673000Y-77020396D01*
X142731681Y-77315410D01*
X142846790Y-77593306D01*
X143013901Y-77843406D01*
X143226594Y-78056099D01*
X143476694Y-78223210D01*
X143754590Y-78338319D01*
X144049604Y-78397000D01*
X144350396Y-78397000D01*
X144645410Y-78338319D01*
X144923306Y-78223210D01*
X145173406Y-78056099D01*
X145386099Y-77843406D01*
X145553210Y-77593306D01*
X145668319Y-77315410D01*
X145727000Y-77020396D01*
X145727000Y-76719604D01*
X146073000Y-76719604D01*
X146073000Y-77020396D01*
X146131681Y-77315410D01*
X146246790Y-77593306D01*
X146413901Y-77843406D01*
X146626594Y-78056099D01*
X146876694Y-78223210D01*
X147154590Y-78338319D01*
X147449604Y-78397000D01*
X147750396Y-78397000D01*
X148045410Y-78338319D01*
X148323306Y-78223210D01*
X148573406Y-78056099D01*
X148786099Y-77843406D01*
X148953210Y-77593306D01*
X149068319Y-77315410D01*
X149127000Y-77020396D01*
X149127000Y-76719604D01*
X149068319Y-76424590D01*
X148953210Y-76146694D01*
X148786099Y-75896594D01*
X148573406Y-75683901D01*
X148323306Y-75516790D01*
X148045410Y-75401681D01*
X147750396Y-75343000D01*
X147449604Y-75343000D01*
X147154590Y-75401681D01*
X146876694Y-75516790D01*
X146626594Y-75683901D01*
X146413901Y-75896594D01*
X146246790Y-76146694D01*
X146131681Y-76424590D01*
X146073000Y-76719604D01*
X145727000Y-76719604D01*
X145668319Y-76424590D01*
X145553210Y-76146694D01*
X145386099Y-75896594D01*
X145173406Y-75683901D01*
X144923306Y-75516790D01*
X144645410Y-75401681D01*
X144350396Y-75343000D01*
X144049604Y-75343000D01*
X143754590Y-75401681D01*
X143476694Y-75516790D01*
X143226594Y-75683901D01*
X143013901Y-75896594D01*
X142846790Y-76146694D01*
X142731681Y-76424590D01*
X142673000Y-76719604D01*
X131172034Y-76719604D01*
X131170244Y-76690195D01*
X131075818Y-76331090D01*
X131021613Y-76200227D01*
X130762163Y-76055338D01*
X129827502Y-76990000D01*
X128772498Y-76990000D01*
X127837837Y-76055338D01*
X127578387Y-76200227D01*
X127457390Y-76551273D01*
X127407204Y-76919178D01*
X125652000Y-76919178D01*
X125652000Y-75003971D01*
X128003530Y-75003971D01*
X128210279Y-75314458D01*
X128435217Y-75402706D01*
X128365338Y-75527837D01*
X129300000Y-76462498D01*
X130234662Y-75527837D01*
X130167016Y-75406705D01*
X130389721Y-75314458D01*
X130596470Y-75003971D01*
X129300000Y-73707502D01*
X128003530Y-75003971D01*
X125652000Y-75003971D01*
X125652000Y-72990051D01*
X126911000Y-72990051D01*
X126919847Y-73459772D01*
X127020161Y-73918741D01*
X127165542Y-74269721D01*
X127476029Y-74476470D01*
X128772498Y-73180000D01*
X129827502Y-73180000D01*
X131123971Y-74476470D01*
X131434458Y-74269721D01*
X131606039Y-73832370D01*
X131689000Y-73369949D01*
X131680153Y-72900228D01*
X131579839Y-72441259D01*
X131434458Y-72090279D01*
X131123971Y-71883530D01*
X129827502Y-73180000D01*
X128772498Y-73180000D01*
X127476029Y-71883530D01*
X127165542Y-72090279D01*
X126993961Y-72527630D01*
X126911000Y-72990051D01*
X125652000Y-72990051D01*
X125652000Y-71356029D01*
X128003530Y-71356029D01*
X129300000Y-72652498D01*
X130596470Y-71356029D01*
X130389721Y-71045542D01*
X129952370Y-70873961D01*
X129489949Y-70791000D01*
X129020228Y-70799847D01*
X128561259Y-70900161D01*
X128210279Y-71045542D01*
X128003530Y-71356029D01*
X125652000Y-71356029D01*
X125652000Y-63249604D01*
X142673000Y-63249604D01*
X142673000Y-63550396D01*
X142731681Y-63845410D01*
X142846790Y-64123306D01*
X143013901Y-64373406D01*
X143226594Y-64586099D01*
X143476694Y-64753210D01*
X143754590Y-64868319D01*
X144049604Y-64927000D01*
X144350396Y-64927000D01*
X144645410Y-64868319D01*
X144923306Y-64753210D01*
X145173406Y-64586099D01*
X145386099Y-64373406D01*
X145553210Y-64123306D01*
X145668319Y-63845410D01*
X145727000Y-63550396D01*
X145727000Y-63249604D01*
X146073000Y-63249604D01*
X146073000Y-63550396D01*
X146131681Y-63845410D01*
X146246790Y-64123306D01*
X146413901Y-64373406D01*
X146626594Y-64586099D01*
X146876694Y-64753210D01*
X147154590Y-64868319D01*
X147449604Y-64927000D01*
X147750396Y-64927000D01*
X148045410Y-64868319D01*
X148323306Y-64753210D01*
X148573406Y-64586099D01*
X148786099Y-64373406D01*
X148953210Y-64123306D01*
X149068319Y-63845410D01*
X149127000Y-63550396D01*
X149127000Y-63249604D01*
X149068319Y-62954590D01*
X148953210Y-62676694D01*
X148786099Y-62426594D01*
X148573406Y-62213901D01*
X148323306Y-62046790D01*
X148045410Y-61931681D01*
X147750396Y-61873000D01*
X147449604Y-61873000D01*
X147154590Y-61931681D01*
X146876694Y-62046790D01*
X146626594Y-62213901D01*
X146413901Y-62426594D01*
X146246790Y-62676694D01*
X146131681Y-62954590D01*
X146073000Y-63249604D01*
X145727000Y-63249604D01*
X145668319Y-62954590D01*
X145553210Y-62676694D01*
X145386099Y-62426594D01*
X145173406Y-62213901D01*
X144923306Y-62046790D01*
X144645410Y-61931681D01*
X144350396Y-61873000D01*
X144049604Y-61873000D01*
X143754590Y-61931681D01*
X143476694Y-62046790D01*
X143226594Y-62213901D01*
X143013901Y-62426594D01*
X142846790Y-62676694D01*
X142731681Y-62954590D01*
X142673000Y-63249604D01*
X125652000Y-63249604D01*
X125652000Y-39961868D01*
X126787111Y-38826759D01*
X126803395Y-38813395D01*
X126816759Y-38797111D01*
X126816768Y-38797102D01*
X126825215Y-38786809D01*
X126914143Y-38759833D01*
X127101244Y-38659826D01*
X127265239Y-38525239D01*
X127399826Y-38361244D01*
X127499833Y-38174144D01*
X127526608Y-38085878D01*
X128164836Y-38085878D01*
X128254066Y-38340094D01*
X128391177Y-38572017D01*
X128570899Y-38772735D01*
X128786326Y-38934534D01*
X128922936Y-39019056D01*
X129127000Y-38928144D01*
X129127000Y-37873000D01*
X129873000Y-37873000D01*
X129873000Y-38928144D01*
X130077064Y-39019056D01*
X130213674Y-38934534D01*
X130429101Y-38772735D01*
X130608823Y-38572017D01*
X130745934Y-38340094D01*
X130835164Y-38085878D01*
X130710954Y-37873000D01*
X129873000Y-37873000D01*
X129127000Y-37873000D01*
X128289046Y-37873000D01*
X128164836Y-38085878D01*
X127526608Y-38085878D01*
X127561417Y-37971129D01*
X127577000Y-37812909D01*
X127577000Y-37187092D01*
X127577000Y-37187091D01*
X131423000Y-37187091D01*
X131423000Y-37812908D01*
X131438583Y-37971128D01*
X131500167Y-38174143D01*
X131600174Y-38361244D01*
X131734761Y-38525239D01*
X131898756Y-38659826D01*
X132085856Y-38759833D01*
X132288871Y-38821417D01*
X132500000Y-38842211D01*
X132711128Y-38821417D01*
X132914143Y-38759833D01*
X133101244Y-38659826D01*
X133265239Y-38525239D01*
X133399826Y-38361244D01*
X133499833Y-38174144D01*
X133561417Y-37971129D01*
X133577000Y-37812909D01*
X133577000Y-37187092D01*
X133577000Y-37187091D01*
X134423000Y-37187091D01*
X134423000Y-37812908D01*
X134438583Y-37971128D01*
X134500167Y-38174143D01*
X134600174Y-38361244D01*
X134734761Y-38525239D01*
X134898756Y-38659826D01*
X135085856Y-38759833D01*
X135288871Y-38821417D01*
X135500000Y-38842211D01*
X135711128Y-38821417D01*
X135914143Y-38759833D01*
X136101244Y-38659826D01*
X136265239Y-38525239D01*
X136399826Y-38361244D01*
X136499833Y-38174144D01*
X136526608Y-38085878D01*
X137164836Y-38085878D01*
X137254066Y-38340094D01*
X137391177Y-38572017D01*
X137570899Y-38772735D01*
X137786326Y-38934534D01*
X137922936Y-39019056D01*
X138127000Y-38928144D01*
X138127000Y-37873000D01*
X138873000Y-37873000D01*
X138873000Y-38928144D01*
X139077064Y-39019056D01*
X139213674Y-38934534D01*
X139429101Y-38772735D01*
X139608823Y-38572017D01*
X139745934Y-38340094D01*
X139835164Y-38085878D01*
X139710954Y-37873000D01*
X138873000Y-37873000D01*
X138127000Y-37873000D01*
X137289046Y-37873000D01*
X137164836Y-38085878D01*
X136526608Y-38085878D01*
X136561417Y-37971129D01*
X136577000Y-37812909D01*
X136577000Y-37187092D01*
X136577000Y-37187091D01*
X140423000Y-37187091D01*
X140423000Y-37812908D01*
X140438583Y-37971128D01*
X140500167Y-38174143D01*
X140600174Y-38361244D01*
X140734761Y-38525239D01*
X140898756Y-38659826D01*
X141085856Y-38759833D01*
X141288871Y-38821417D01*
X141500000Y-38842211D01*
X141711128Y-38821417D01*
X141914143Y-38759833D01*
X142101244Y-38659826D01*
X142265239Y-38525239D01*
X142399826Y-38361244D01*
X142499833Y-38174144D01*
X142561417Y-37971129D01*
X142577000Y-37812909D01*
X142577000Y-37187092D01*
X142561417Y-37028872D01*
X142499833Y-36825857D01*
X142453942Y-36740000D01*
X143421418Y-36740000D01*
X143421418Y-38260000D01*
X143432535Y-38372876D01*
X143465460Y-38481414D01*
X143518927Y-38581443D01*
X143590881Y-38669119D01*
X143678557Y-38741073D01*
X143682095Y-38742964D01*
X143684967Y-38772120D01*
X143732256Y-38928010D01*
X143809048Y-39071679D01*
X143886498Y-39166051D01*
X143912395Y-39197606D01*
X143943948Y-39223501D01*
X152173000Y-47452555D01*
X152173001Y-103759376D01*
X152169000Y-103800000D01*
X152184967Y-103962120D01*
X152232256Y-104118010D01*
X152309048Y-104261679D01*
X152386498Y-104356051D01*
X152412395Y-104387606D01*
X152443948Y-104413501D01*
X156056994Y-108026549D01*
X155983947Y-108086498D01*
X155983941Y-108086504D01*
X155952394Y-108112394D01*
X155926504Y-108143941D01*
X143943948Y-120126499D01*
X143912395Y-120152394D01*
X143886500Y-120183947D01*
X143886498Y-120183949D01*
X143809048Y-120278321D01*
X143732256Y-120421990D01*
X143684967Y-120577880D01*
X143669000Y-120740000D01*
X143673001Y-120780624D01*
X143673000Y-121800017D01*
X143600174Y-121888756D01*
X143500167Y-122075857D01*
X143438583Y-122278872D01*
X143423000Y-122437092D01*
X143423000Y-123062909D01*
X143438583Y-123221129D01*
X143500167Y-123424144D01*
X143600175Y-123611244D01*
X143734762Y-123775239D01*
X143898757Y-123909826D01*
X144085857Y-124009833D01*
X144288872Y-124071417D01*
X144500000Y-124092211D01*
X144711129Y-124071417D01*
X144914144Y-124009833D01*
X145101244Y-123909826D01*
X145265239Y-123775239D01*
X145399826Y-123611244D01*
X145499833Y-123424143D01*
X145561417Y-123221128D01*
X145577000Y-123062908D01*
X145577000Y-122437091D01*
X145561417Y-122278871D01*
X145499833Y-122075856D01*
X145399826Y-121888756D01*
X145327000Y-121800017D01*
X145327000Y-121082553D01*
X145714302Y-120695251D01*
X146538000Y-120695251D01*
X146538000Y-120884749D01*
X146574969Y-121070605D01*
X146647486Y-121245678D01*
X146752766Y-121403239D01*
X146886761Y-121537234D01*
X147044322Y-121642514D01*
X147219395Y-121715031D01*
X147405251Y-121752000D01*
X147594749Y-121752000D01*
X147780605Y-121715031D01*
X147955678Y-121642514D01*
X148113239Y-121537234D01*
X148247234Y-121403239D01*
X148352514Y-121245678D01*
X148425031Y-121070605D01*
X148462000Y-120884749D01*
X148462000Y-120695251D01*
X148425031Y-120509395D01*
X148352514Y-120334322D01*
X148247234Y-120176761D01*
X148113239Y-120042766D01*
X147955678Y-119937486D01*
X147780605Y-119864969D01*
X147594749Y-119828000D01*
X147405251Y-119828000D01*
X147219395Y-119864969D01*
X147044322Y-119937486D01*
X146886761Y-120042766D01*
X146752766Y-120176761D01*
X146647486Y-120334322D01*
X146574969Y-120509395D01*
X146538000Y-120695251D01*
X145714302Y-120695251D01*
X146599346Y-119810207D01*
X153073000Y-119810207D01*
X153073000Y-120189793D01*
X153147053Y-120562085D01*
X153292315Y-120912777D01*
X153503201Y-121228391D01*
X153771609Y-121496799D01*
X154087223Y-121707685D01*
X154437915Y-121852947D01*
X154810207Y-121927000D01*
X155189793Y-121927000D01*
X155562085Y-121852947D01*
X155912777Y-121707685D01*
X156228391Y-121496799D01*
X156496799Y-121228391D01*
X156707685Y-120912777D01*
X156852947Y-120562085D01*
X156927000Y-120189793D01*
X156927000Y-119810207D01*
X156852947Y-119437915D01*
X156707685Y-119087223D01*
X156496799Y-118771609D01*
X156228391Y-118503201D01*
X155912777Y-118292315D01*
X155562085Y-118147053D01*
X155189793Y-118073000D01*
X154810207Y-118073000D01*
X154437915Y-118147053D01*
X154087223Y-118292315D01*
X153771609Y-118503201D01*
X153503201Y-118771609D01*
X153292315Y-119087223D01*
X153147053Y-119437915D01*
X153073000Y-119810207D01*
X146599346Y-119810207D01*
X155032512Y-111377043D01*
X155014969Y-111419395D01*
X154978000Y-111605251D01*
X154978000Y-111794749D01*
X155014969Y-111980605D01*
X155087486Y-112155678D01*
X155192766Y-112313239D01*
X155326761Y-112447234D01*
X155484322Y-112552514D01*
X155659395Y-112625031D01*
X155845251Y-112662000D01*
X156034749Y-112662000D01*
X156220605Y-112625031D01*
X156395678Y-112552514D01*
X156553239Y-112447234D01*
X156687234Y-112313239D01*
X156792514Y-112155678D01*
X156865031Y-111980605D01*
X156902000Y-111794749D01*
X156902000Y-111605251D01*
X156865031Y-111419395D01*
X156792514Y-111244322D01*
X156687234Y-111086761D01*
X156553239Y-110952766D01*
X156395678Y-110847486D01*
X156220605Y-110774969D01*
X156034749Y-110738000D01*
X155845251Y-110738000D01*
X155659395Y-110774969D01*
X155617043Y-110792512D01*
X156769084Y-109640471D01*
X156818557Y-109681073D01*
X156918586Y-109734540D01*
X157027124Y-109767465D01*
X157140000Y-109778582D01*
X158660000Y-109778582D01*
X158772876Y-109767465D01*
X158881414Y-109734540D01*
X158981443Y-109681073D01*
X159069119Y-109609119D01*
X159141073Y-109521443D01*
X159194540Y-109421414D01*
X159227465Y-109312876D01*
X159238582Y-109200000D01*
X159238582Y-108200000D01*
X159227465Y-108087124D01*
X159194540Y-107978586D01*
X159141073Y-107878557D01*
X159069119Y-107790881D01*
X158981443Y-107718927D01*
X158881414Y-107665460D01*
X158772876Y-107632535D01*
X158660000Y-107621418D01*
X157990973Y-107621418D01*
X157371336Y-107001781D01*
X157527000Y-106910954D01*
X157527000Y-106073000D01*
X158273000Y-106073000D01*
X158273000Y-106910954D01*
X158485878Y-107035164D01*
X158740094Y-106945934D01*
X158972017Y-106808823D01*
X159172735Y-106629101D01*
X159334534Y-106413674D01*
X159419056Y-106277064D01*
X159328144Y-106073000D01*
X158273000Y-106073000D01*
X157527000Y-106073000D01*
X156471856Y-106073000D01*
X156462825Y-106093271D01*
X155492490Y-105122936D01*
X156380944Y-105122936D01*
X156471856Y-105327000D01*
X157527000Y-105327000D01*
X157527000Y-104489046D01*
X158273000Y-104489046D01*
X158273000Y-105327000D01*
X159328144Y-105327000D01*
X159419056Y-105122936D01*
X159334534Y-104986326D01*
X159172735Y-104770899D01*
X158972017Y-104591177D01*
X158740094Y-104454066D01*
X158485878Y-104364836D01*
X158273000Y-104489046D01*
X157527000Y-104489046D01*
X157314122Y-104364836D01*
X157059906Y-104454066D01*
X156827983Y-104591177D01*
X156627265Y-104770899D01*
X156465466Y-104986326D01*
X156380944Y-105122936D01*
X155492490Y-105122936D01*
X153827000Y-103457447D01*
X153827000Y-102605251D01*
X154978000Y-102605251D01*
X154978000Y-102794749D01*
X155014969Y-102980605D01*
X155087486Y-103155678D01*
X155192766Y-103313239D01*
X155326761Y-103447234D01*
X155484322Y-103552514D01*
X155659395Y-103625031D01*
X155845251Y-103662000D01*
X156034749Y-103662000D01*
X156220605Y-103625031D01*
X156395678Y-103552514D01*
X156553239Y-103447234D01*
X156687234Y-103313239D01*
X156792514Y-103155678D01*
X156865031Y-102980605D01*
X156902000Y-102794749D01*
X156902000Y-102605251D01*
X156865031Y-102419395D01*
X156792514Y-102244322D01*
X156687234Y-102086761D01*
X156553239Y-101952766D01*
X156395678Y-101847486D01*
X156220605Y-101774969D01*
X156034749Y-101738000D01*
X155845251Y-101738000D01*
X155659395Y-101774969D01*
X155484322Y-101847486D01*
X155326761Y-101952766D01*
X155192766Y-102086761D01*
X155087486Y-102244322D01*
X155014969Y-102419395D01*
X154978000Y-102605251D01*
X153827000Y-102605251D01*
X153827000Y-57805251D01*
X155078000Y-57805251D01*
X155078000Y-57994749D01*
X155114969Y-58180605D01*
X155187486Y-58355678D01*
X155292766Y-58513239D01*
X155426761Y-58647234D01*
X155584322Y-58752514D01*
X155759395Y-58825031D01*
X155945251Y-58862000D01*
X156134749Y-58862000D01*
X156320605Y-58825031D01*
X156495678Y-58752514D01*
X156653239Y-58647234D01*
X156787234Y-58513239D01*
X156892514Y-58355678D01*
X156965031Y-58180605D01*
X157002000Y-57994749D01*
X157002000Y-57805251D01*
X156965031Y-57619395D01*
X156892514Y-57444322D01*
X156787234Y-57286761D01*
X156653239Y-57152766D01*
X156495678Y-57047486D01*
X156320605Y-56974969D01*
X156134749Y-56938000D01*
X155945251Y-56938000D01*
X155759395Y-56974969D01*
X155584322Y-57047486D01*
X155426761Y-57152766D01*
X155292766Y-57286761D01*
X155187486Y-57444322D01*
X155114969Y-57619395D01*
X155078000Y-57805251D01*
X153827000Y-57805251D01*
X153827000Y-54400000D01*
X156661418Y-54400000D01*
X156661418Y-55400000D01*
X156672535Y-55512876D01*
X156705460Y-55621414D01*
X156758927Y-55721443D01*
X156830881Y-55809119D01*
X156918557Y-55881073D01*
X157018586Y-55934540D01*
X157127124Y-55967465D01*
X157240000Y-55978582D01*
X158760000Y-55978582D01*
X158872876Y-55967465D01*
X158981414Y-55934540D01*
X159081443Y-55881073D01*
X159169119Y-55809119D01*
X159241073Y-55721443D01*
X159294540Y-55621414D01*
X159327465Y-55512876D01*
X159338582Y-55400000D01*
X159338582Y-54400000D01*
X159327465Y-54287124D01*
X159294540Y-54178586D01*
X159241073Y-54078557D01*
X159169119Y-53990881D01*
X159081443Y-53918927D01*
X158981414Y-53865460D01*
X158872876Y-53832535D01*
X158760000Y-53821418D01*
X157240000Y-53821418D01*
X157127124Y-53832535D01*
X157018586Y-53865460D01*
X156918557Y-53918927D01*
X156830881Y-53990881D01*
X156758927Y-54078557D01*
X156705460Y-54178586D01*
X156672535Y-54287124D01*
X156661418Y-54400000D01*
X153827000Y-54400000D01*
X153827000Y-52477064D01*
X156480944Y-52477064D01*
X156565466Y-52613674D01*
X156727265Y-52829101D01*
X156927983Y-53008823D01*
X157159906Y-53145934D01*
X157414122Y-53235164D01*
X157627000Y-53110954D01*
X157627000Y-52273000D01*
X158373000Y-52273000D01*
X158373000Y-53110954D01*
X158585878Y-53235164D01*
X158840094Y-53145934D01*
X159072017Y-53008823D01*
X159272735Y-52829101D01*
X159434534Y-52613674D01*
X159519056Y-52477064D01*
X159428144Y-52273000D01*
X158373000Y-52273000D01*
X157627000Y-52273000D01*
X156571856Y-52273000D01*
X156480944Y-52477064D01*
X153827000Y-52477064D01*
X153827000Y-51322936D01*
X156480944Y-51322936D01*
X156571856Y-51527000D01*
X157627000Y-51527000D01*
X157627000Y-50689046D01*
X158373000Y-50689046D01*
X158373000Y-51527000D01*
X159428144Y-51527000D01*
X159519056Y-51322936D01*
X159434534Y-51186326D01*
X159272735Y-50970899D01*
X159072017Y-50791177D01*
X158840094Y-50654066D01*
X158585878Y-50564836D01*
X158373000Y-50689046D01*
X157627000Y-50689046D01*
X157414122Y-50564836D01*
X157159906Y-50654066D01*
X156927983Y-50791177D01*
X156727265Y-50970899D01*
X156565466Y-51186326D01*
X156480944Y-51322936D01*
X153827000Y-51322936D01*
X153827000Y-48805251D01*
X155078000Y-48805251D01*
X155078000Y-48994749D01*
X155114969Y-49180605D01*
X155187486Y-49355678D01*
X155292766Y-49513239D01*
X155426761Y-49647234D01*
X155584322Y-49752514D01*
X155759395Y-49825031D01*
X155945251Y-49862000D01*
X156134749Y-49862000D01*
X156320605Y-49825031D01*
X156495678Y-49752514D01*
X156653239Y-49647234D01*
X156787234Y-49513239D01*
X156892514Y-49355678D01*
X156965031Y-49180605D01*
X157002000Y-48994749D01*
X157002000Y-48805251D01*
X156965031Y-48619395D01*
X156892514Y-48444322D01*
X156787234Y-48286761D01*
X156653239Y-48152766D01*
X156495678Y-48047486D01*
X156320605Y-47974969D01*
X156134749Y-47938000D01*
X155945251Y-47938000D01*
X155759395Y-47974969D01*
X155584322Y-48047486D01*
X155426761Y-48152766D01*
X155292766Y-48286761D01*
X155187486Y-48444322D01*
X155114969Y-48619395D01*
X155078000Y-48805251D01*
X153827000Y-48805251D01*
X153827000Y-47150610D01*
X153831000Y-47109999D01*
X153827000Y-47069388D01*
X153827000Y-47069376D01*
X153815034Y-46947880D01*
X153767745Y-46791990D01*
X153744450Y-46748407D01*
X153690952Y-46648319D01*
X153613502Y-46553947D01*
X153613496Y-46553941D01*
X153587606Y-46522394D01*
X153556060Y-46496505D01*
X147481554Y-40422000D01*
X147594749Y-40422000D01*
X147780605Y-40385031D01*
X147955678Y-40312514D01*
X148113239Y-40207234D01*
X148247234Y-40073239D01*
X148352514Y-39915678D01*
X148396201Y-39810207D01*
X153073000Y-39810207D01*
X153073000Y-40189793D01*
X153147053Y-40562085D01*
X153292315Y-40912777D01*
X153503201Y-41228391D01*
X153771609Y-41496799D01*
X154087223Y-41707685D01*
X154437915Y-41852947D01*
X154810207Y-41927000D01*
X155189793Y-41927000D01*
X155562085Y-41852947D01*
X155912777Y-41707685D01*
X156228391Y-41496799D01*
X156496799Y-41228391D01*
X156707685Y-40912777D01*
X156852947Y-40562085D01*
X156927000Y-40189793D01*
X156927000Y-39810207D01*
X156852947Y-39437915D01*
X156707685Y-39087223D01*
X156496799Y-38771609D01*
X156228391Y-38503201D01*
X155912777Y-38292315D01*
X155562085Y-38147053D01*
X155189793Y-38073000D01*
X154810207Y-38073000D01*
X154437915Y-38147053D01*
X154087223Y-38292315D01*
X153771609Y-38503201D01*
X153503201Y-38771609D01*
X153292315Y-39087223D01*
X153147053Y-39437915D01*
X153073000Y-39810207D01*
X148396201Y-39810207D01*
X148425031Y-39740605D01*
X148462000Y-39554749D01*
X148462000Y-39365251D01*
X148425031Y-39179395D01*
X148352514Y-39004322D01*
X148247234Y-38846761D01*
X148113239Y-38712766D01*
X147955678Y-38607486D01*
X147780605Y-38534969D01*
X147594749Y-38498000D01*
X147405251Y-38498000D01*
X147219395Y-38534969D01*
X147044322Y-38607486D01*
X146886761Y-38712766D01*
X146752766Y-38846761D01*
X146647486Y-39004322D01*
X146574969Y-39179395D01*
X146538000Y-39365251D01*
X146538000Y-39478447D01*
X145536036Y-38476483D01*
X145567465Y-38372876D01*
X145578582Y-38260000D01*
X145578582Y-36740000D01*
X145567465Y-36627124D01*
X145534540Y-36518586D01*
X145481073Y-36418557D01*
X145409119Y-36330881D01*
X145321443Y-36258927D01*
X145221414Y-36205460D01*
X145112876Y-36172535D01*
X145000000Y-36161418D01*
X144000000Y-36161418D01*
X143887124Y-36172535D01*
X143778586Y-36205460D01*
X143678557Y-36258927D01*
X143590881Y-36330881D01*
X143518927Y-36418557D01*
X143465460Y-36518586D01*
X143432535Y-36627124D01*
X143421418Y-36740000D01*
X142453942Y-36740000D01*
X142399826Y-36638756D01*
X142265239Y-36474761D01*
X142101244Y-36340174D01*
X141914144Y-36240167D01*
X141711129Y-36178583D01*
X141500000Y-36157789D01*
X141288872Y-36178583D01*
X141085857Y-36240167D01*
X140898757Y-36340174D01*
X140734762Y-36474761D01*
X140600175Y-36638756D01*
X140500167Y-36825856D01*
X140438583Y-37028871D01*
X140423000Y-37187091D01*
X136577000Y-37187091D01*
X136561417Y-37028872D01*
X136526608Y-36914122D01*
X137164836Y-36914122D01*
X137289046Y-37127000D01*
X138127000Y-37127000D01*
X138127000Y-36071856D01*
X138873000Y-36071856D01*
X138873000Y-37127000D01*
X139710954Y-37127000D01*
X139835164Y-36914122D01*
X139745934Y-36659906D01*
X139608823Y-36427983D01*
X139429101Y-36227265D01*
X139213674Y-36065466D01*
X139077064Y-35980944D01*
X138873000Y-36071856D01*
X138127000Y-36071856D01*
X137922936Y-35980944D01*
X137786326Y-36065466D01*
X137570899Y-36227265D01*
X137391177Y-36427983D01*
X137254066Y-36659906D01*
X137164836Y-36914122D01*
X136526608Y-36914122D01*
X136499833Y-36825857D01*
X136399826Y-36638756D01*
X136265239Y-36474761D01*
X136101244Y-36340174D01*
X135914144Y-36240167D01*
X135711129Y-36178583D01*
X135500000Y-36157789D01*
X135288872Y-36178583D01*
X135085857Y-36240167D01*
X134898757Y-36340174D01*
X134734762Y-36474761D01*
X134600175Y-36638756D01*
X134500167Y-36825856D01*
X134438583Y-37028871D01*
X134423000Y-37187091D01*
X133577000Y-37187091D01*
X133561417Y-37028872D01*
X133499833Y-36825857D01*
X133399826Y-36638756D01*
X133265239Y-36474761D01*
X133101244Y-36340174D01*
X132914144Y-36240167D01*
X132711129Y-36178583D01*
X132500000Y-36157789D01*
X132288872Y-36178583D01*
X132085857Y-36240167D01*
X131898757Y-36340174D01*
X131734762Y-36474761D01*
X131600175Y-36638756D01*
X131500167Y-36825856D01*
X131438583Y-37028871D01*
X131423000Y-37187091D01*
X127577000Y-37187091D01*
X127561417Y-37028872D01*
X127526608Y-36914122D01*
X128164836Y-36914122D01*
X128289046Y-37127000D01*
X129127000Y-37127000D01*
X129127000Y-36071856D01*
X129873000Y-36071856D01*
X129873000Y-37127000D01*
X130710954Y-37127000D01*
X130835164Y-36914122D01*
X130745934Y-36659906D01*
X130608823Y-36427983D01*
X130429101Y-36227265D01*
X130213674Y-36065466D01*
X130077064Y-35980944D01*
X129873000Y-36071856D01*
X129127000Y-36071856D01*
X128922936Y-35980944D01*
X128786326Y-36065466D01*
X128570899Y-36227265D01*
X128391177Y-36427983D01*
X128254066Y-36659906D01*
X128164836Y-36914122D01*
X127526608Y-36914122D01*
X127499833Y-36825857D01*
X127399826Y-36638756D01*
X127265239Y-36474761D01*
X127101244Y-36340174D01*
X126914144Y-36240167D01*
X126711129Y-36178583D01*
X126500000Y-36157789D01*
X126288872Y-36178583D01*
X126085857Y-36240167D01*
X125898757Y-36340174D01*
X125734762Y-36474761D01*
X125600175Y-36638756D01*
X125500167Y-36825856D01*
X125438583Y-37028871D01*
X125423000Y-37187091D01*
X125423000Y-37812908D01*
X125438583Y-37971128D01*
X125500167Y-38174143D01*
X125600174Y-38361244D01*
X125734761Y-38525239D01*
X125815023Y-38591108D01*
X125000001Y-39406131D01*
X124184977Y-38591108D01*
X124265239Y-38525239D01*
X124399826Y-38361244D01*
X124499833Y-38174144D01*
X124561417Y-37971129D01*
X124577000Y-37812909D01*
X124577000Y-37187092D01*
X124561417Y-37028872D01*
X124499833Y-36825857D01*
X124399826Y-36638756D01*
X124265239Y-36474761D01*
X124101244Y-36340174D01*
X123914144Y-36240167D01*
X123711129Y-36178583D01*
X123500000Y-36157789D01*
X123288872Y-36178583D01*
X123085857Y-36240167D01*
X122898757Y-36340174D01*
X122734762Y-36474761D01*
X122600175Y-36638756D01*
X122500167Y-36825856D01*
X122438583Y-37028871D01*
X122423000Y-37187091D01*
X84078582Y-37187091D01*
X84078582Y-36914122D01*
X119164836Y-36914122D01*
X119289046Y-37127000D01*
X120127000Y-37127000D01*
X120127000Y-36071856D01*
X120873000Y-36071856D01*
X120873000Y-37127000D01*
X121710954Y-37127000D01*
X121835164Y-36914122D01*
X121745934Y-36659906D01*
X121608823Y-36427983D01*
X121429101Y-36227265D01*
X121213674Y-36065466D01*
X121077064Y-35980944D01*
X120873000Y-36071856D01*
X120127000Y-36071856D01*
X119922936Y-35980944D01*
X119786326Y-36065466D01*
X119570899Y-36227265D01*
X119391177Y-36427983D01*
X119254066Y-36659906D01*
X119164836Y-36914122D01*
X84078582Y-36914122D01*
X84078582Y-36440000D01*
X84067465Y-36327124D01*
X84034540Y-36218586D01*
X83981073Y-36118557D01*
X83909119Y-36030881D01*
X83821443Y-35958927D01*
X83721414Y-35905460D01*
X83612876Y-35872535D01*
X83500000Y-35861418D01*
X82500000Y-35861418D01*
X82387124Y-35872535D01*
X82278586Y-35905460D01*
X82178557Y-35958927D01*
X82090881Y-36030881D01*
X82018927Y-36118557D01*
X81965460Y-36218586D01*
X81932535Y-36327124D01*
X81921418Y-36440000D01*
X81274048Y-36440000D01*
X81245934Y-36359906D01*
X81108823Y-36127983D01*
X80929101Y-35927265D01*
X80713674Y-35765466D01*
X80577064Y-35680944D01*
X80373000Y-35771856D01*
X79627000Y-35771856D01*
X79422936Y-35680944D01*
X79286326Y-35765466D01*
X79070899Y-35927265D01*
X78891177Y-36127983D01*
X78754066Y-36359906D01*
X78664836Y-36614122D01*
X60279000Y-36614122D01*
X60279000Y-35279000D01*
X159721000Y-35279000D01*
X159721001Y-124721000D01*
X159721001Y-124721000D01*
G37*
X159721001Y-124721000D02*
X60279000Y-124721000D01*
X60279000Y-123760000D01*
X119111928Y-123760000D01*
X119124188Y-123884482D01*
X119160498Y-124004180D01*
X119219463Y-124114494D01*
X119298815Y-124211185D01*
X119395506Y-124290537D01*
X119505820Y-124349502D01*
X119625518Y-124385812D01*
X119750000Y-124398072D01*
X119968250Y-124395000D01*
X120127000Y-124236250D01*
X120127000Y-123123000D01*
X120873000Y-123123000D01*
X120873000Y-124236250D01*
X121031750Y-124395000D01*
X121250000Y-124398072D01*
X121374482Y-124385812D01*
X121494180Y-124349502D01*
X121604494Y-124290537D01*
X121701185Y-124211185D01*
X121780537Y-124114494D01*
X121839502Y-124004180D01*
X121875812Y-123884482D01*
X121888072Y-123760000D01*
X121885000Y-123281750D01*
X121726250Y-123123000D01*
X120873000Y-123123000D01*
X120127000Y-123123000D01*
X119273750Y-123123000D01*
X119115000Y-123281750D01*
X119111928Y-123760000D01*
X60279000Y-123760000D01*
X60279000Y-119810207D01*
X63073000Y-119810207D01*
X63073000Y-120189793D01*
X63147053Y-120562085D01*
X63292315Y-120912777D01*
X63503201Y-121228391D01*
X63771609Y-121496799D01*
X64087223Y-121707685D01*
X64437915Y-121852947D01*
X64810207Y-121927000D01*
X65189793Y-121927000D01*
X65562085Y-121852947D01*
X65912777Y-121707685D01*
X66228391Y-121496799D01*
X66496799Y-121228391D01*
X66707685Y-120912777D01*
X66797787Y-120695251D01*
X116538000Y-120695251D01*
X116538000Y-120884749D01*
X116574969Y-121070605D01*
X116647486Y-121245678D01*
X116752766Y-121403239D01*
X116886761Y-121537234D01*
X117044322Y-121642514D01*
X117219395Y-121715031D01*
X117405251Y-121752000D01*
X117594749Y-121752000D01*
X117655077Y-121740000D01*
X119111928Y-121740000D01*
X119115000Y-122218250D01*
X119273750Y-122377000D01*
X120127000Y-122377000D01*
X120127000Y-121263750D01*
X120873000Y-121263750D01*
X120873000Y-122377000D01*
X121726250Y-122377000D01*
X121885000Y-122218250D01*
X121888072Y-121740000D01*
X121875812Y-121615518D01*
X121839502Y-121495820D01*
X121780537Y-121385506D01*
X121701185Y-121288815D01*
X121604494Y-121209463D01*
X121494180Y-121150498D01*
X121374482Y-121114188D01*
X121250000Y-121101928D01*
X121031750Y-121105000D01*
X120873000Y-121263750D01*
X120127000Y-121263750D01*
X119968250Y-121105000D01*
X119750000Y-121101928D01*
X119625518Y-121114188D01*
X119505820Y-121150498D01*
X119395506Y-121209463D01*
X119298815Y-121288815D01*
X119219463Y-121385506D01*
X119160498Y-121495820D01*
X119124188Y-121615518D01*
X119111928Y-121740000D01*
X117655077Y-121740000D01*
X117780605Y-121715031D01*
X117955678Y-121642514D01*
X118113239Y-121537234D01*
X118247234Y-121403239D01*
X118352514Y-121245678D01*
X118425031Y-121070605D01*
X118462000Y-120884749D01*
X118462000Y-120695251D01*
X118425031Y-120509395D01*
X118352514Y-120334322D01*
X118247234Y-120176761D01*
X118113239Y-120042766D01*
X117955678Y-119937486D01*
X117780605Y-119864969D01*
X117594749Y-119828000D01*
X117405251Y-119828000D01*
X117219395Y-119864969D01*
X117044322Y-119937486D01*
X116886761Y-120042766D01*
X116752766Y-120176761D01*
X116647486Y-120334322D01*
X116574969Y-120509395D01*
X116538000Y-120695251D01*
X66797787Y-120695251D01*
X66852947Y-120562085D01*
X66927000Y-120189793D01*
X66927000Y-119810207D01*
X66852947Y-119437915D01*
X66707685Y-119087223D01*
X66496799Y-118771609D01*
X66228391Y-118503201D01*
X65912777Y-118292315D01*
X65562085Y-118147053D01*
X65189793Y-118073000D01*
X64810207Y-118073000D01*
X64437915Y-118147053D01*
X64087223Y-118292315D01*
X63771609Y-118503201D01*
X63503201Y-118771609D01*
X63292315Y-119087223D01*
X63147053Y-119437915D01*
X63073000Y-119810207D01*
X60279000Y-119810207D01*
X60279000Y-107149604D01*
X113403000Y-107149604D01*
X113403000Y-107450396D01*
X113461681Y-107745410D01*
X113576790Y-108023306D01*
X113743901Y-108273406D01*
X113956594Y-108486099D01*
X114206694Y-108653210D01*
X114484590Y-108768319D01*
X114779604Y-108827000D01*
X115080396Y-108827000D01*
X115375410Y-108768319D01*
X115653306Y-108653210D01*
X115903406Y-108486099D01*
X116116099Y-108273406D01*
X116283210Y-108023306D01*
X116398319Y-107745410D01*
X116457000Y-107450396D01*
X116457000Y-107149604D01*
X116398319Y-106854590D01*
X116283210Y-106576694D01*
X116116099Y-106326594D01*
X115903406Y-106113901D01*
X115653306Y-105946790D01*
X115375410Y-105831681D01*
X115080396Y-105773000D01*
X114779604Y-105773000D01*
X114484590Y-105831681D01*
X114206694Y-105946790D01*
X113956594Y-106113901D01*
X113743901Y-106326594D01*
X113576790Y-106576694D01*
X113461681Y-106854590D01*
X113403000Y-107149604D01*
X60279000Y-107149604D01*
X60279000Y-104127000D01*
X85000000Y-104127000D01*
X85024776Y-104124560D01*
X85048601Y-104117333D01*
X85070557Y-104105597D01*
X85089803Y-104089803D01*
X85105597Y-104070557D01*
X85117333Y-104048601D01*
X85124560Y-104024776D01*
X85127000Y-104000000D01*
X85127000Y-103749604D01*
X113403000Y-103749604D01*
X113403000Y-104050396D01*
X113461681Y-104345410D01*
X113576790Y-104623306D01*
X113743901Y-104873406D01*
X113956594Y-105086099D01*
X114206694Y-105253210D01*
X114484590Y-105368319D01*
X114779604Y-105427000D01*
X115080396Y-105427000D01*
X115375410Y-105368319D01*
X115653306Y-105253210D01*
X115903406Y-105086099D01*
X116116099Y-104873406D01*
X116283210Y-104623306D01*
X116398319Y-104345410D01*
X116457000Y-104050396D01*
X116457000Y-103749604D01*
X116398319Y-103454590D01*
X116283210Y-103176694D01*
X116116099Y-102926594D01*
X115903406Y-102713901D01*
X115653306Y-102546790D01*
X115375410Y-102431681D01*
X115080396Y-102373000D01*
X114779604Y-102373000D01*
X114484590Y-102431681D01*
X114206694Y-102546790D01*
X113956594Y-102713901D01*
X113743901Y-102926594D01*
X113576790Y-103176694D01*
X113461681Y-103454590D01*
X113403000Y-103749604D01*
X85127000Y-103749604D01*
X85127000Y-58000000D01*
X85124560Y-57975224D01*
X85117333Y-57951399D01*
X85105597Y-57929443D01*
X85089803Y-57910197D01*
X85070557Y-57894403D01*
X85048601Y-57882667D01*
X85024776Y-57875440D01*
X85000000Y-57873000D01*
X60279000Y-57873000D01*
X60279000Y-53905251D01*
X62998000Y-53905251D01*
X62998000Y-54094749D01*
X63034969Y-54280605D01*
X63107486Y-54455678D01*
X63212766Y-54613239D01*
X63346761Y-54747234D01*
X63504322Y-54852514D01*
X63679395Y-54925031D01*
X63865251Y-54962000D01*
X64054749Y-54962000D01*
X64240605Y-54925031D01*
X64415678Y-54852514D01*
X64573239Y-54747234D01*
X64707234Y-54613239D01*
X64812514Y-54455678D01*
X64885031Y-54280605D01*
X64922000Y-54094749D01*
X64922000Y-53905251D01*
X64885031Y-53719395D01*
X64812514Y-53544322D01*
X64707234Y-53386761D01*
X64573239Y-53252766D01*
X64415678Y-53147486D01*
X64240605Y-53074969D01*
X64054749Y-53038000D01*
X63865251Y-53038000D01*
X63679395Y-53074969D01*
X63504322Y-53147486D01*
X63346761Y-53252766D01*
X63212766Y-53386761D01*
X63107486Y-53544322D01*
X63034969Y-53719395D01*
X62998000Y-53905251D01*
X60279000Y-53905251D01*
X60279000Y-51577064D01*
X60480944Y-51577064D01*
X60565466Y-51713674D01*
X60727265Y-51929101D01*
X60927983Y-52108823D01*
X61159906Y-52245934D01*
X61414122Y-52335164D01*
X61627000Y-52210954D01*
X61627000Y-51373000D01*
X62373000Y-51373000D01*
X62373000Y-52210954D01*
X62585878Y-52335164D01*
X62840094Y-52245934D01*
X63072017Y-52108823D01*
X63272735Y-51929101D01*
X63434534Y-51713674D01*
X63519056Y-51577064D01*
X63428144Y-51373000D01*
X62373000Y-51373000D01*
X61627000Y-51373000D01*
X60571856Y-51373000D01*
X60480944Y-51577064D01*
X60279000Y-51577064D01*
X60279000Y-50422936D01*
X60480944Y-50422936D01*
X60571856Y-50627000D01*
X61627000Y-50627000D01*
X61627000Y-49789046D01*
X62373000Y-49789046D01*
X62373000Y-50627000D01*
X63428144Y-50627000D01*
X63519056Y-50422936D01*
X63434534Y-50286326D01*
X63272735Y-50070899D01*
X63072017Y-49891177D01*
X62840094Y-49754066D01*
X62585878Y-49664836D01*
X62373000Y-49789046D01*
X61627000Y-49789046D01*
X61414122Y-49664836D01*
X61159906Y-49754066D01*
X60927983Y-49891177D01*
X60727265Y-50070899D01*
X60565466Y-50286326D01*
X60480944Y-50422936D01*
X60279000Y-50422936D01*
X60279000Y-47500000D01*
X60661418Y-47500000D01*
X60661418Y-48500000D01*
X60672535Y-48612876D01*
X60705460Y-48721414D01*
X60758927Y-48821443D01*
X60830881Y-48909119D01*
X60918557Y-48981073D01*
X61018586Y-49034540D01*
X61127124Y-49067465D01*
X61240000Y-49078582D01*
X62760000Y-49078582D01*
X62872876Y-49067465D01*
X62981414Y-49034540D01*
X63081443Y-48981073D01*
X63169119Y-48909119D01*
X63241073Y-48821443D01*
X63294540Y-48721414D01*
X63327465Y-48612876D01*
X63338582Y-48500000D01*
X63338582Y-47649604D01*
X71103000Y-47649604D01*
X71103000Y-47950396D01*
X71161681Y-48245410D01*
X71276790Y-48523306D01*
X71443901Y-48773406D01*
X71656594Y-48986099D01*
X71906694Y-49153210D01*
X72184590Y-49268319D01*
X72479604Y-49327000D01*
X72780396Y-49327000D01*
X73075410Y-49268319D01*
X73353306Y-49153210D01*
X73603406Y-48986099D01*
X73816099Y-48773406D01*
X73983210Y-48523306D01*
X74098319Y-48245410D01*
X74157000Y-47950396D01*
X74157000Y-47649604D01*
X84573000Y-47649604D01*
X84573000Y-47950396D01*
X84631681Y-48245410D01*
X84746790Y-48523306D01*
X84913901Y-48773406D01*
X85126594Y-48986099D01*
X85376694Y-49153210D01*
X85654590Y-49268319D01*
X85949604Y-49327000D01*
X86250396Y-49327000D01*
X86545410Y-49268319D01*
X86690073Y-49208397D01*
X100473000Y-49208397D01*
X100473000Y-49351603D01*
X100500938Y-49492058D01*
X100555741Y-49624364D01*
X100635302Y-49743436D01*
X100736564Y-49844698D01*
X100855636Y-49924259D01*
X100987942Y-49979062D01*
X101128397Y-50007000D01*
X101271603Y-50007000D01*
X101412058Y-49979062D01*
X101544364Y-49924259D01*
X101663436Y-49844698D01*
X101764698Y-49743436D01*
X101844259Y-49624364D01*
X101899062Y-49492058D01*
X101927000Y-49351603D01*
X101927000Y-49208397D01*
X101902000Y-49082712D01*
X101902000Y-46690777D01*
X105320770Y-43272008D01*
X105320775Y-43272002D01*
X105556881Y-43035896D01*
X105663436Y-42964698D01*
X105764698Y-42863436D01*
X105844259Y-42744364D01*
X105899062Y-42612058D01*
X105927000Y-42471603D01*
X105927000Y-42328397D01*
X105899062Y-42187942D01*
X105844259Y-42055636D01*
X105764698Y-41936564D01*
X105663436Y-41835302D01*
X105544364Y-41755741D01*
X105412058Y-41700938D01*
X105271603Y-41673000D01*
X105128397Y-41673000D01*
X104987942Y-41700938D01*
X104855636Y-41755741D01*
X104736564Y-41835302D01*
X104635302Y-41936564D01*
X104564104Y-42043119D01*
X104327998Y-42279225D01*
X104327992Y-42279230D01*
X100727990Y-45879233D01*
X100701211Y-45901210D01*
X100679234Y-45927989D01*
X100679230Y-45927993D01*
X100613486Y-46008103D01*
X100548300Y-46130057D01*
X100508159Y-46262384D01*
X100506523Y-46278999D01*
X100494605Y-46400000D01*
X100498001Y-46434480D01*
X100498000Y-49082712D01*
X100473000Y-49208397D01*
X86690073Y-49208397D01*
X86823306Y-49153210D01*
X87073406Y-48986099D01*
X87286099Y-48773406D01*
X87453210Y-48523306D01*
X87568319Y-48245410D01*
X87627000Y-47950396D01*
X87627000Y-47649604D01*
X87568319Y-47354590D01*
X87453210Y-47076694D01*
X87286099Y-46826594D01*
X87073406Y-46613901D01*
X86823306Y-46446790D01*
X86545410Y-46331681D01*
X86250396Y-46273000D01*
X85949604Y-46273000D01*
X85654590Y-46331681D01*
X85376694Y-46446790D01*
X85126594Y-46613901D01*
X84913901Y-46826594D01*
X84746790Y-47076694D01*
X84631681Y-47354590D01*
X84573000Y-47649604D01*
X74157000Y-47649604D01*
X74098319Y-47354590D01*
X73983210Y-47076694D01*
X73816099Y-46826594D01*
X73603406Y-46613901D01*
X73353306Y-46446790D01*
X73075410Y-46331681D01*
X72780396Y-46273000D01*
X72479604Y-46273000D01*
X72184590Y-46331681D01*
X71906694Y-46446790D01*
X71656594Y-46613901D01*
X71443901Y-46826594D01*
X71276790Y-47076694D01*
X71161681Y-47354590D01*
X71103000Y-47649604D01*
X63338582Y-47649604D01*
X63338582Y-47500000D01*
X63327465Y-47387124D01*
X63294540Y-47278586D01*
X63241073Y-47178557D01*
X63169119Y-47090881D01*
X63081443Y-47018927D01*
X62981414Y-46965460D01*
X62872876Y-46932535D01*
X62760000Y-46921418D01*
X61240000Y-46921418D01*
X61127124Y-46932535D01*
X61018586Y-46965460D01*
X60918557Y-47018927D01*
X60830881Y-47090881D01*
X60758927Y-47178557D01*
X60705460Y-47278586D01*
X60672535Y-47387124D01*
X60661418Y-47500000D01*
X60279000Y-47500000D01*
X60279000Y-44905251D01*
X62998000Y-44905251D01*
X62998000Y-45094749D01*
X63034969Y-45280605D01*
X63107486Y-45455678D01*
X63212766Y-45613239D01*
X63346761Y-45747234D01*
X63504322Y-45852514D01*
X63679395Y-45925031D01*
X63865251Y-45962000D01*
X64054749Y-45962000D01*
X64240605Y-45925031D01*
X64415678Y-45852514D01*
X64573239Y-45747234D01*
X64707234Y-45613239D01*
X64812514Y-45455678D01*
X64885031Y-45280605D01*
X64922000Y-45094749D01*
X64922000Y-44905251D01*
X64885031Y-44719395D01*
X64812514Y-44544322D01*
X64707234Y-44386761D01*
X64573239Y-44252766D01*
X64568507Y-44249604D01*
X71103000Y-44249604D01*
X71103000Y-44550396D01*
X71161681Y-44845410D01*
X71276790Y-45123306D01*
X71443901Y-45373406D01*
X71656594Y-45586099D01*
X71906694Y-45753210D01*
X72184590Y-45868319D01*
X72479604Y-45927000D01*
X72780396Y-45927000D01*
X73075410Y-45868319D01*
X73353306Y-45753210D01*
X73603406Y-45586099D01*
X73816099Y-45373406D01*
X73983210Y-45123306D01*
X74098319Y-44845410D01*
X74157000Y-44550396D01*
X74157000Y-44249604D01*
X84573000Y-44249604D01*
X84573000Y-44550396D01*
X84631681Y-44845410D01*
X84746790Y-45123306D01*
X84913901Y-45373406D01*
X85126594Y-45586099D01*
X85376694Y-45753210D01*
X85654590Y-45868319D01*
X85949604Y-45927000D01*
X86250396Y-45927000D01*
X86545410Y-45868319D01*
X86823306Y-45753210D01*
X87073406Y-45586099D01*
X87286099Y-45373406D01*
X87453210Y-45123306D01*
X87568319Y-44845410D01*
X87627000Y-44550396D01*
X87627000Y-44249604D01*
X87568319Y-43954590D01*
X87453210Y-43676694D01*
X87286099Y-43426594D01*
X87073406Y-43213901D01*
X86823306Y-43046790D01*
X86545410Y-42931681D01*
X86250396Y-42873000D01*
X85949604Y-42873000D01*
X85654590Y-42931681D01*
X85376694Y-43046790D01*
X85126594Y-43213901D01*
X84913901Y-43426594D01*
X84746790Y-43676694D01*
X84631681Y-43954590D01*
X84573000Y-44249604D01*
X74157000Y-44249604D01*
X74098319Y-43954590D01*
X73983210Y-43676694D01*
X73816099Y-43426594D01*
X73603406Y-43213901D01*
X73353306Y-43046790D01*
X73075410Y-42931681D01*
X72780396Y-42873000D01*
X72479604Y-42873000D01*
X72184590Y-42931681D01*
X71906694Y-43046790D01*
X71656594Y-43213901D01*
X71443901Y-43426594D01*
X71276790Y-43676694D01*
X71161681Y-43954590D01*
X71103000Y-44249604D01*
X64568507Y-44249604D01*
X64415678Y-44147486D01*
X64240605Y-44074969D01*
X64054749Y-44038000D01*
X63865251Y-44038000D01*
X63679395Y-44074969D01*
X63504322Y-44147486D01*
X63346761Y-44252766D01*
X63212766Y-44386761D01*
X63107486Y-44544322D01*
X63034969Y-44719395D01*
X62998000Y-44905251D01*
X60279000Y-44905251D01*
X60279000Y-39810207D01*
X63073000Y-39810207D01*
X63073000Y-40189793D01*
X63147053Y-40562085D01*
X63292315Y-40912777D01*
X63503201Y-41228391D01*
X63771609Y-41496799D01*
X64087223Y-41707685D01*
X64437915Y-41852947D01*
X64810207Y-41927000D01*
X65189793Y-41927000D01*
X65562085Y-41852947D01*
X65912777Y-41707685D01*
X66228391Y-41496799D01*
X66496799Y-41228391D01*
X66707685Y-40912777D01*
X66852947Y-40562085D01*
X66927000Y-40189793D01*
X66927000Y-39810207D01*
X66852947Y-39437915D01*
X66707685Y-39087223D01*
X66693004Y-39065251D01*
X76038000Y-39065251D01*
X76038000Y-39254749D01*
X76074969Y-39440605D01*
X76147486Y-39615678D01*
X76252766Y-39773239D01*
X76386761Y-39907234D01*
X76544322Y-40012514D01*
X76719395Y-40085031D01*
X76905251Y-40122000D01*
X77094749Y-40122000D01*
X77280605Y-40085031D01*
X77455678Y-40012514D01*
X77613239Y-39907234D01*
X77747234Y-39773239D01*
X77852514Y-39615678D01*
X77925031Y-39440605D01*
X77962000Y-39254749D01*
X77962000Y-39065251D01*
X85038000Y-39065251D01*
X85038000Y-39254749D01*
X85074969Y-39440605D01*
X85147486Y-39615678D01*
X85252766Y-39773239D01*
X85386761Y-39907234D01*
X85544322Y-40012514D01*
X85719395Y-40085031D01*
X85905251Y-40122000D01*
X86094749Y-40122000D01*
X86280605Y-40085031D01*
X86455678Y-40012514D01*
X86613239Y-39907234D01*
X86747234Y-39773239D01*
X86852514Y-39615678D01*
X86925031Y-39440605D01*
X86940019Y-39365251D01*
X116538000Y-39365251D01*
X116538000Y-39554749D01*
X116574969Y-39740605D01*
X116647486Y-39915678D01*
X116752766Y-40073239D01*
X116886761Y-40207234D01*
X117044322Y-40312514D01*
X117219395Y-40385031D01*
X117405251Y-40422000D01*
X117594749Y-40422000D01*
X117780605Y-40385031D01*
X117955678Y-40312514D01*
X118113239Y-40207234D01*
X118247234Y-40073239D01*
X118352514Y-39915678D01*
X118425031Y-39740605D01*
X118462000Y-39554749D01*
X118462000Y-39365251D01*
X118425031Y-39179395D01*
X118352514Y-39004322D01*
X118247234Y-38846761D01*
X118113239Y-38712766D01*
X117955678Y-38607486D01*
X117780605Y-38534969D01*
X117594749Y-38498000D01*
X117405251Y-38498000D01*
X117219395Y-38534969D01*
X117044322Y-38607486D01*
X116886761Y-38712766D01*
X116752766Y-38846761D01*
X116647486Y-39004322D01*
X116574969Y-39179395D01*
X116538000Y-39365251D01*
X86940019Y-39365251D01*
X86962000Y-39254749D01*
X86962000Y-39065251D01*
X86925031Y-38879395D01*
X86852514Y-38704322D01*
X86747234Y-38546761D01*
X86613239Y-38412766D01*
X86455678Y-38307486D01*
X86280605Y-38234969D01*
X86094749Y-38198000D01*
X85905251Y-38198000D01*
X85719395Y-38234969D01*
X85544322Y-38307486D01*
X85386761Y-38412766D01*
X85252766Y-38546761D01*
X85147486Y-38704322D01*
X85074969Y-38879395D01*
X85038000Y-39065251D01*
X77962000Y-39065251D01*
X77925031Y-38879395D01*
X77852514Y-38704322D01*
X77747234Y-38546761D01*
X77613239Y-38412766D01*
X77455678Y-38307486D01*
X77280605Y-38234969D01*
X77094749Y-38198000D01*
X76905251Y-38198000D01*
X76719395Y-38234969D01*
X76544322Y-38307486D01*
X76386761Y-38412766D01*
X76252766Y-38546761D01*
X76147486Y-38704322D01*
X76074969Y-38879395D01*
X76038000Y-39065251D01*
X66693004Y-39065251D01*
X66496799Y-38771609D01*
X66228391Y-38503201D01*
X65912777Y-38292315D01*
X65562085Y-38147053D01*
X65189793Y-38073000D01*
X64810207Y-38073000D01*
X64437915Y-38147053D01*
X64087223Y-38292315D01*
X63771609Y-38503201D01*
X63503201Y-38771609D01*
X63292315Y-39087223D01*
X63147053Y-39437915D01*
X63073000Y-39810207D01*
X60279000Y-39810207D01*
X60279000Y-37785878D01*
X78664836Y-37785878D01*
X78754066Y-38040094D01*
X78891177Y-38272017D01*
X79070899Y-38472735D01*
X79286326Y-38634534D01*
X79422936Y-38719056D01*
X79627000Y-38628144D01*
X79627000Y-37573000D01*
X80373000Y-37573000D01*
X80373000Y-38628144D01*
X80577064Y-38719056D01*
X80713674Y-38634534D01*
X80929101Y-38472735D01*
X81108823Y-38272017D01*
X81245934Y-38040094D01*
X81335164Y-37785878D01*
X81210954Y-37573000D01*
X80373000Y-37573000D01*
X79627000Y-37573000D01*
X78789046Y-37573000D01*
X78664836Y-37785878D01*
X60279000Y-37785878D01*
X60279000Y-36614122D01*
X78664836Y-36614122D01*
X78789046Y-36827000D01*
X79627000Y-36827000D01*
X79627000Y-35771856D01*
X80373000Y-35771856D01*
X80373000Y-36827000D01*
X81210954Y-36827000D01*
X81335164Y-36614122D01*
X81274048Y-36440000D01*
X81921418Y-36440000D01*
X81921418Y-37960000D01*
X81932535Y-38072876D01*
X81965460Y-38181414D01*
X82018927Y-38281443D01*
X82090881Y-38369119D01*
X82178557Y-38441073D01*
X82278586Y-38494540D01*
X82387124Y-38527465D01*
X82500000Y-38538582D01*
X83500000Y-38538582D01*
X83612876Y-38527465D01*
X83721414Y-38494540D01*
X83821443Y-38441073D01*
X83909119Y-38369119D01*
X83981073Y-38281443D01*
X84034540Y-38181414D01*
X84063520Y-38085878D01*
X119164836Y-38085878D01*
X119254066Y-38340094D01*
X119391177Y-38572017D01*
X119570899Y-38772735D01*
X119786326Y-38934534D01*
X119922936Y-39019056D01*
X120127000Y-38928144D01*
X120127000Y-37873000D01*
X120873000Y-37873000D01*
X120873000Y-38928144D01*
X121077064Y-39019056D01*
X121213674Y-38934534D01*
X121429101Y-38772735D01*
X121608823Y-38572017D01*
X121745934Y-38340094D01*
X121835164Y-38085878D01*
X121710954Y-37873000D01*
X120873000Y-37873000D01*
X120127000Y-37873000D01*
X119289046Y-37873000D01*
X119164836Y-38085878D01*
X84063520Y-38085878D01*
X84067465Y-38072876D01*
X84078582Y-37960000D01*
X84078582Y-37187091D01*
X122423000Y-37187091D01*
X122423000Y-37812908D01*
X122438583Y-37971128D01*
X122500167Y-38174143D01*
X122600174Y-38361244D01*
X122734761Y-38525239D01*
X122898756Y-38659826D01*
X123085856Y-38759833D01*
X123174787Y-38786810D01*
X123183232Y-38797100D01*
X123183237Y-38797105D01*
X123196606Y-38813395D01*
X123212895Y-38826763D01*
X124348000Y-39961870D01*
X124348001Y-120288129D01*
X123212900Y-121423232D01*
X123196605Y-121436605D01*
X123183234Y-121452898D01*
X123183232Y-121452900D01*
X123174787Y-121463190D01*
X123085856Y-121490167D01*
X122898756Y-121590174D01*
X122734761Y-121724761D01*
X122600174Y-121888756D01*
X122500167Y-122075857D01*
X122438583Y-122278872D01*
X122423000Y-122437092D01*
X122423000Y-123062909D01*
X122438583Y-123221129D01*
X122500167Y-123424144D01*
X122600175Y-123611244D01*
X122734762Y-123775239D01*
X122898757Y-123909826D01*
X123085857Y-124009833D01*
X123288872Y-124071417D01*
X123500000Y-124092211D01*
X123711129Y-124071417D01*
X123914144Y-124009833D01*
X124101244Y-123909826D01*
X124265239Y-123775239D01*
X124399826Y-123611244D01*
X124499833Y-123424143D01*
X124561417Y-123221128D01*
X124577000Y-123062908D01*
X124577000Y-122437091D01*
X124561417Y-122278871D01*
X124499833Y-122075856D01*
X124399826Y-121888756D01*
X124265239Y-121724761D01*
X124184977Y-121658892D01*
X125000001Y-120843869D01*
X125815023Y-121658892D01*
X125734761Y-121724761D01*
X125600174Y-121888756D01*
X125500167Y-122075857D01*
X125438583Y-122278872D01*
X125423000Y-122437092D01*
X125423000Y-123062909D01*
X125438583Y-123221129D01*
X125500167Y-123424144D01*
X125600175Y-123611244D01*
X125734762Y-123775239D01*
X125898757Y-123909826D01*
X126085857Y-124009833D01*
X126288872Y-124071417D01*
X126500000Y-124092211D01*
X126711129Y-124071417D01*
X126914144Y-124009833D01*
X127101244Y-123909826D01*
X127265239Y-123775239D01*
X127399826Y-123611244D01*
X127499833Y-123424143D01*
X127526607Y-123335878D01*
X128164836Y-123335878D01*
X128254066Y-123590094D01*
X128391177Y-123822017D01*
X128570899Y-124022735D01*
X128786326Y-124184534D01*
X128922936Y-124269056D01*
X129127000Y-124178144D01*
X129127000Y-123123000D01*
X129873000Y-123123000D01*
X129873000Y-124178144D01*
X130077064Y-124269056D01*
X130213674Y-124184534D01*
X130429101Y-124022735D01*
X130608823Y-123822017D01*
X130745934Y-123590094D01*
X130835164Y-123335878D01*
X130710954Y-123123000D01*
X129873000Y-123123000D01*
X129127000Y-123123000D01*
X128289046Y-123123000D01*
X128164836Y-123335878D01*
X127526607Y-123335878D01*
X127561417Y-123221128D01*
X127577000Y-123062908D01*
X127577000Y-122437092D01*
X131423000Y-122437092D01*
X131423000Y-123062909D01*
X131438583Y-123221129D01*
X131500167Y-123424144D01*
X131600175Y-123611244D01*
X131734762Y-123775239D01*
X131898757Y-123909826D01*
X132085857Y-124009833D01*
X132288872Y-124071417D01*
X132500000Y-124092211D01*
X132711129Y-124071417D01*
X132914144Y-124009833D01*
X133101244Y-123909826D01*
X133265239Y-123775239D01*
X133399826Y-123611244D01*
X133499833Y-123424143D01*
X133561417Y-123221128D01*
X133577000Y-123062908D01*
X133577000Y-122437092D01*
X134423000Y-122437092D01*
X134423000Y-123062909D01*
X134438583Y-123221129D01*
X134500167Y-123424144D01*
X134600175Y-123611244D01*
X134734762Y-123775239D01*
X134898757Y-123909826D01*
X135085857Y-124009833D01*
X135288872Y-124071417D01*
X135500000Y-124092211D01*
X135711129Y-124071417D01*
X135914144Y-124009833D01*
X136101244Y-123909826D01*
X136265239Y-123775239D01*
X136399826Y-123611244D01*
X136499833Y-123424143D01*
X136526607Y-123335878D01*
X137164836Y-123335878D01*
X137254066Y-123590094D01*
X137391177Y-123822017D01*
X137570899Y-124022735D01*
X137786326Y-124184534D01*
X137922936Y-124269056D01*
X138127000Y-124178144D01*
X138127000Y-123123000D01*
X138873000Y-123123000D01*
X138873000Y-124178144D01*
X139077064Y-124269056D01*
X139213674Y-124184534D01*
X139429101Y-124022735D01*
X139608823Y-123822017D01*
X139745934Y-123590094D01*
X139835164Y-123335878D01*
X139710954Y-123123000D01*
X138873000Y-123123000D01*
X138127000Y-123123000D01*
X137289046Y-123123000D01*
X137164836Y-123335878D01*
X136526607Y-123335878D01*
X136561417Y-123221128D01*
X136577000Y-123062908D01*
X136577000Y-122437092D01*
X140423000Y-122437092D01*
X140423000Y-123062909D01*
X140438583Y-123221129D01*
X140500167Y-123424144D01*
X140600175Y-123611244D01*
X140734762Y-123775239D01*
X140898757Y-123909826D01*
X141085857Y-124009833D01*
X141288872Y-124071417D01*
X141500000Y-124092211D01*
X141711129Y-124071417D01*
X141914144Y-124009833D01*
X142101244Y-123909826D01*
X142265239Y-123775239D01*
X142399826Y-123611244D01*
X142499833Y-123424143D01*
X142561417Y-123221128D01*
X142577000Y-123062908D01*
X142577000Y-122437091D01*
X142561417Y-122278871D01*
X142499833Y-122075856D01*
X142399826Y-121888756D01*
X142265239Y-121724761D01*
X142101244Y-121590174D01*
X141914143Y-121490167D01*
X141711128Y-121428583D01*
X141500000Y-121407789D01*
X141288871Y-121428583D01*
X141085856Y-121490167D01*
X140898756Y-121590174D01*
X140734761Y-121724761D01*
X140600174Y-121888756D01*
X140500167Y-122075857D01*
X140438583Y-122278872D01*
X140423000Y-122437092D01*
X136577000Y-122437092D01*
X136577000Y-122437091D01*
X136561417Y-122278871D01*
X136526609Y-122164122D01*
X137164836Y-122164122D01*
X137289046Y-122377000D01*
X138127000Y-122377000D01*
X138127000Y-121321856D01*
X138873000Y-121321856D01*
X138873000Y-122377000D01*
X139710954Y-122377000D01*
X139835164Y-122164122D01*
X139745934Y-121909906D01*
X139608823Y-121677983D01*
X139429101Y-121477265D01*
X139213674Y-121315466D01*
X139077064Y-121230944D01*
X138873000Y-121321856D01*
X138127000Y-121321856D01*
X137922936Y-121230944D01*
X137786326Y-121315466D01*
X137570899Y-121477265D01*
X137391177Y-121677983D01*
X137254066Y-121909906D01*
X137164836Y-122164122D01*
X136526609Y-122164122D01*
X136499833Y-122075856D01*
X136399826Y-121888756D01*
X136265239Y-121724761D01*
X136101244Y-121590174D01*
X135914143Y-121490167D01*
X135711128Y-121428583D01*
X135500000Y-121407789D01*
X135288871Y-121428583D01*
X135085856Y-121490167D01*
X134898756Y-121590174D01*
X134734761Y-121724761D01*
X134600174Y-121888756D01*
X134500167Y-122075857D01*
X134438583Y-122278872D01*
X134423000Y-122437092D01*
X133577000Y-122437092D01*
X133577000Y-122437091D01*
X133561417Y-122278871D01*
X133499833Y-122075856D01*
X133399826Y-121888756D01*
X133265239Y-121724761D01*
X133101244Y-121590174D01*
X132914143Y-121490167D01*
X132711128Y-121428583D01*
X132500000Y-121407789D01*
X132288871Y-121428583D01*
X132085856Y-121490167D01*
X131898756Y-121590174D01*
X131734761Y-121724761D01*
X131600174Y-121888756D01*
X131500167Y-122075857D01*
X131438583Y-122278872D01*
X131423000Y-122437092D01*
X127577000Y-122437092D01*
X127577000Y-122437091D01*
X127561417Y-122278871D01*
X127526609Y-122164122D01*
X128164836Y-122164122D01*
X128289046Y-122377000D01*
X129127000Y-122377000D01*
X129127000Y-121321856D01*
X129873000Y-121321856D01*
X129873000Y-122377000D01*
X130710954Y-122377000D01*
X130835164Y-122164122D01*
X130745934Y-121909906D01*
X130608823Y-121677983D01*
X130429101Y-121477265D01*
X130213674Y-121315466D01*
X130077064Y-121230944D01*
X129873000Y-121321856D01*
X129127000Y-121321856D01*
X128922936Y-121230944D01*
X128786326Y-121315466D01*
X128570899Y-121477265D01*
X128391177Y-121677983D01*
X128254066Y-121909906D01*
X128164836Y-122164122D01*
X127526609Y-122164122D01*
X127499833Y-122075856D01*
X127399826Y-121888756D01*
X127265239Y-121724761D01*
X127101244Y-121590174D01*
X126914143Y-121490167D01*
X126825215Y-121463191D01*
X126816768Y-121452898D01*
X126816759Y-121452889D01*
X126803395Y-121436605D01*
X126787112Y-121423242D01*
X125652000Y-120288132D01*
X125652000Y-107149604D01*
X126873000Y-107149604D01*
X126873000Y-107450396D01*
X126931681Y-107745410D01*
X127046790Y-108023306D01*
X127213901Y-108273406D01*
X127426594Y-108486099D01*
X127676694Y-108653210D01*
X127954590Y-108768319D01*
X128249604Y-108827000D01*
X128550396Y-108827000D01*
X128845410Y-108768319D01*
X129123306Y-108653210D01*
X129373406Y-108486099D01*
X129586099Y-108273406D01*
X129753210Y-108023306D01*
X129868319Y-107745410D01*
X129927000Y-107450396D01*
X129927000Y-107149604D01*
X129868319Y-106854590D01*
X129753210Y-106576694D01*
X129586099Y-106326594D01*
X129373406Y-106113901D01*
X129123306Y-105946790D01*
X128845410Y-105831681D01*
X128550396Y-105773000D01*
X128249604Y-105773000D01*
X127954590Y-105831681D01*
X127676694Y-105946790D01*
X127426594Y-106113901D01*
X127213901Y-106326594D01*
X127046790Y-106576694D01*
X126931681Y-106854590D01*
X126873000Y-107149604D01*
X125652000Y-107149604D01*
X125652000Y-103749604D01*
X126873000Y-103749604D01*
X126873000Y-104050396D01*
X126931681Y-104345410D01*
X127046790Y-104623306D01*
X127213901Y-104873406D01*
X127426594Y-105086099D01*
X127676694Y-105253210D01*
X127954590Y-105368319D01*
X128249604Y-105427000D01*
X128550396Y-105427000D01*
X128845410Y-105368319D01*
X129123306Y-105253210D01*
X129373406Y-105086099D01*
X129586099Y-104873406D01*
X129753210Y-104623306D01*
X129868319Y-104345410D01*
X129927000Y-104050396D01*
X129927000Y-103749604D01*
X129868319Y-103454590D01*
X129753210Y-103176694D01*
X129586099Y-102926594D01*
X129373406Y-102713901D01*
X129123306Y-102546790D01*
X128845410Y-102431681D01*
X128550396Y-102373000D01*
X128249604Y-102373000D01*
X127954590Y-102431681D01*
X127676694Y-102546790D01*
X127426594Y-102713901D01*
X127213901Y-102926594D01*
X127046790Y-103176694D01*
X126931681Y-103454590D01*
X126873000Y-103749604D01*
X125652000Y-103749604D01*
X125652000Y-88215433D01*
X127223000Y-88215433D01*
X127223000Y-88624567D01*
X127302818Y-89025839D01*
X127459386Y-89403829D01*
X127686689Y-89744011D01*
X127975989Y-90033311D01*
X128316171Y-90260614D01*
X128694161Y-90417182D01*
X129095433Y-90497000D01*
X129504567Y-90497000D01*
X129905839Y-90417182D01*
X130283829Y-90260614D01*
X130624011Y-90033311D01*
X130913311Y-89744011D01*
X131140614Y-89403829D01*
X131297182Y-89025839D01*
X131377000Y-88624567D01*
X131377000Y-88215433D01*
X131297182Y-87814161D01*
X131140614Y-87436171D01*
X130913311Y-87095989D01*
X130624011Y-86806689D01*
X130283829Y-86579386D01*
X129905839Y-86422818D01*
X129504567Y-86343000D01*
X129095433Y-86343000D01*
X128694161Y-86422818D01*
X128316171Y-86579386D01*
X127975989Y-86806689D01*
X127686689Y-87095989D01*
X127459386Y-87436171D01*
X127302818Y-87814161D01*
X127223000Y-88215433D01*
X125652000Y-88215433D01*
X125652000Y-84454679D01*
X127723000Y-84454679D01*
X127723000Y-84765321D01*
X127783604Y-85069994D01*
X127902481Y-85356989D01*
X128075064Y-85615279D01*
X128294721Y-85834936D01*
X128553011Y-86007519D01*
X128840006Y-86126396D01*
X129144679Y-86187000D01*
X129455321Y-86187000D01*
X129759994Y-86126396D01*
X130046989Y-86007519D01*
X130305279Y-85834936D01*
X130524936Y-85615279D01*
X130697519Y-85356989D01*
X130816396Y-85069994D01*
X130877000Y-84765321D01*
X130877000Y-84454679D01*
X130845612Y-84296879D01*
X136653000Y-84296879D01*
X136653000Y-84503121D01*
X136693236Y-84705399D01*
X136772161Y-84895940D01*
X136886742Y-85067424D01*
X137032576Y-85213258D01*
X137204060Y-85327839D01*
X137394601Y-85406764D01*
X137596879Y-85447000D01*
X137803121Y-85447000D01*
X138005399Y-85406764D01*
X138195940Y-85327839D01*
X138367424Y-85213258D01*
X138513258Y-85067424D01*
X138627839Y-84895940D01*
X138706764Y-84705399D01*
X138747000Y-84503121D01*
X138747000Y-84296879D01*
X138706764Y-84094601D01*
X138627839Y-83904060D01*
X138513258Y-83732576D01*
X138367424Y-83586742D01*
X138195940Y-83472161D01*
X138005399Y-83393236D01*
X137803121Y-83353000D01*
X137596879Y-83353000D01*
X137394601Y-83393236D01*
X137204060Y-83472161D01*
X137032576Y-83586742D01*
X136886742Y-83732576D01*
X136772161Y-83904060D01*
X136693236Y-84094601D01*
X136653000Y-84296879D01*
X130845612Y-84296879D01*
X130816396Y-84150006D01*
X130697519Y-83863011D01*
X130524936Y-83604721D01*
X130305279Y-83385064D01*
X130046989Y-83212481D01*
X129759994Y-83093604D01*
X129455321Y-83033000D01*
X129144679Y-83033000D01*
X128840006Y-83093604D01*
X128553011Y-83212481D01*
X128294721Y-83385064D01*
X128075064Y-83604721D01*
X127902481Y-83863011D01*
X127783604Y-84150006D01*
X127723000Y-84454679D01*
X125652000Y-84454679D01*
X125652000Y-80644679D01*
X127723000Y-80644679D01*
X127723000Y-80955321D01*
X127783604Y-81259994D01*
X127902481Y-81546989D01*
X128075064Y-81805279D01*
X128294721Y-82024936D01*
X128553011Y-82197519D01*
X128840006Y-82316396D01*
X129144679Y-82377000D01*
X129455321Y-82377000D01*
X129759994Y-82316396D01*
X130046989Y-82197519D01*
X130305279Y-82024936D01*
X130524936Y-81805279D01*
X130557275Y-81756879D01*
X136653000Y-81756879D01*
X136653000Y-81963121D01*
X136693236Y-82165399D01*
X136772161Y-82355940D01*
X136886742Y-82527424D01*
X137032576Y-82673258D01*
X137204060Y-82787839D01*
X137394601Y-82866764D01*
X137596879Y-82907000D01*
X137803121Y-82907000D01*
X138005399Y-82866764D01*
X138195940Y-82787839D01*
X138367424Y-82673258D01*
X138513258Y-82527424D01*
X138627839Y-82355940D01*
X138706764Y-82165399D01*
X138747000Y-81963121D01*
X138747000Y-81756879D01*
X138706764Y-81554601D01*
X138627839Y-81364060D01*
X138513258Y-81192576D01*
X138367424Y-81046742D01*
X138195940Y-80932161D01*
X138005399Y-80853236D01*
X137803121Y-80813000D01*
X137596879Y-80813000D01*
X137394601Y-80853236D01*
X137204060Y-80932161D01*
X137032576Y-81046742D01*
X136886742Y-81192576D01*
X136772161Y-81364060D01*
X136693236Y-81554601D01*
X136653000Y-81756879D01*
X130557275Y-81756879D01*
X130697519Y-81546989D01*
X130816396Y-81259994D01*
X130877000Y-80955321D01*
X130877000Y-80644679D01*
X130816396Y-80340006D01*
X130697519Y-80053011D01*
X130524936Y-79794721D01*
X130305279Y-79575064D01*
X130046989Y-79402481D01*
X129759994Y-79283604D01*
X129455321Y-79223000D01*
X129144679Y-79223000D01*
X128840006Y-79283604D01*
X128553011Y-79402481D01*
X128294721Y-79575064D01*
X128075064Y-79794721D01*
X127902481Y-80053011D01*
X127783604Y-80340006D01*
X127723000Y-80644679D01*
X125652000Y-80644679D01*
X125652000Y-79216879D01*
X136653000Y-79216879D01*
X136653000Y-79423121D01*
X136693236Y-79625399D01*
X136772161Y-79815940D01*
X136886742Y-79987424D01*
X137032576Y-80133258D01*
X137204060Y-80247839D01*
X137394601Y-80326764D01*
X137596879Y-80367000D01*
X137803121Y-80367000D01*
X138005399Y-80326764D01*
X138195940Y-80247839D01*
X138367424Y-80133258D01*
X138513258Y-79987424D01*
X138627839Y-79815940D01*
X138706764Y-79625399D01*
X138747000Y-79423121D01*
X138747000Y-79216879D01*
X138706764Y-79014601D01*
X138627839Y-78824060D01*
X138513258Y-78652576D01*
X138367424Y-78506742D01*
X138195940Y-78392161D01*
X138005399Y-78313236D01*
X137803121Y-78273000D01*
X137596879Y-78273000D01*
X137394601Y-78313236D01*
X137204060Y-78392161D01*
X137032576Y-78506742D01*
X136886742Y-78652576D01*
X136772161Y-78824060D01*
X136693236Y-79014601D01*
X136653000Y-79216879D01*
X125652000Y-79216879D01*
X125652000Y-78452163D01*
X128365338Y-78452163D01*
X128510227Y-78711613D01*
X128861273Y-78832610D01*
X129229178Y-78882796D01*
X129599805Y-78860244D01*
X129958910Y-78765818D01*
X130089773Y-78711613D01*
X130234662Y-78452163D01*
X129300000Y-77517502D01*
X128365338Y-78452163D01*
X125652000Y-78452163D01*
X125652000Y-76919178D01*
X127407204Y-76919178D01*
X127429756Y-77289805D01*
X127524182Y-77648910D01*
X127578387Y-77779773D01*
X127837837Y-77924662D01*
X128772498Y-76990000D01*
X129827502Y-76990000D01*
X130762163Y-77924662D01*
X131021613Y-77779773D01*
X131142610Y-77428727D01*
X131192796Y-77060822D01*
X131172034Y-76719604D01*
X142673000Y-76719604D01*
X142673000Y-77020396D01*
X142731681Y-77315410D01*
X142846790Y-77593306D01*
X143013901Y-77843406D01*
X143226594Y-78056099D01*
X143476694Y-78223210D01*
X143754590Y-78338319D01*
X144049604Y-78397000D01*
X144350396Y-78397000D01*
X144645410Y-78338319D01*
X144923306Y-78223210D01*
X145173406Y-78056099D01*
X145386099Y-77843406D01*
X145553210Y-77593306D01*
X145668319Y-77315410D01*
X145727000Y-77020396D01*
X145727000Y-76719604D01*
X146073000Y-76719604D01*
X146073000Y-77020396D01*
X146131681Y-77315410D01*
X146246790Y-77593306D01*
X146413901Y-77843406D01*
X146626594Y-78056099D01*
X146876694Y-78223210D01*
X147154590Y-78338319D01*
X147449604Y-78397000D01*
X147750396Y-78397000D01*
X148045410Y-78338319D01*
X148323306Y-78223210D01*
X148573406Y-78056099D01*
X148786099Y-77843406D01*
X148953210Y-77593306D01*
X149068319Y-77315410D01*
X149127000Y-77020396D01*
X149127000Y-76719604D01*
X149068319Y-76424590D01*
X148953210Y-76146694D01*
X148786099Y-75896594D01*
X148573406Y-75683901D01*
X148323306Y-75516790D01*
X148045410Y-75401681D01*
X147750396Y-75343000D01*
X147449604Y-75343000D01*
X147154590Y-75401681D01*
X146876694Y-75516790D01*
X146626594Y-75683901D01*
X146413901Y-75896594D01*
X146246790Y-76146694D01*
X146131681Y-76424590D01*
X146073000Y-76719604D01*
X145727000Y-76719604D01*
X145668319Y-76424590D01*
X145553210Y-76146694D01*
X145386099Y-75896594D01*
X145173406Y-75683901D01*
X144923306Y-75516790D01*
X144645410Y-75401681D01*
X144350396Y-75343000D01*
X144049604Y-75343000D01*
X143754590Y-75401681D01*
X143476694Y-75516790D01*
X143226594Y-75683901D01*
X143013901Y-75896594D01*
X142846790Y-76146694D01*
X142731681Y-76424590D01*
X142673000Y-76719604D01*
X131172034Y-76719604D01*
X131170244Y-76690195D01*
X131075818Y-76331090D01*
X131021613Y-76200227D01*
X130762163Y-76055338D01*
X129827502Y-76990000D01*
X128772498Y-76990000D01*
X127837837Y-76055338D01*
X127578387Y-76200227D01*
X127457390Y-76551273D01*
X127407204Y-76919178D01*
X125652000Y-76919178D01*
X125652000Y-75003971D01*
X128003530Y-75003971D01*
X128210279Y-75314458D01*
X128435217Y-75402706D01*
X128365338Y-75527837D01*
X129300000Y-76462498D01*
X130234662Y-75527837D01*
X130167016Y-75406705D01*
X130389721Y-75314458D01*
X130596470Y-75003971D01*
X129300000Y-73707502D01*
X128003530Y-75003971D01*
X125652000Y-75003971D01*
X125652000Y-72990051D01*
X126911000Y-72990051D01*
X126919847Y-73459772D01*
X127020161Y-73918741D01*
X127165542Y-74269721D01*
X127476029Y-74476470D01*
X128772498Y-73180000D01*
X129827502Y-73180000D01*
X131123971Y-74476470D01*
X131434458Y-74269721D01*
X131606039Y-73832370D01*
X131689000Y-73369949D01*
X131680153Y-72900228D01*
X131579839Y-72441259D01*
X131434458Y-72090279D01*
X131123971Y-71883530D01*
X129827502Y-73180000D01*
X128772498Y-73180000D01*
X127476029Y-71883530D01*
X127165542Y-72090279D01*
X126993961Y-72527630D01*
X126911000Y-72990051D01*
X125652000Y-72990051D01*
X125652000Y-71356029D01*
X128003530Y-71356029D01*
X129300000Y-72652498D01*
X130596470Y-71356029D01*
X130389721Y-71045542D01*
X129952370Y-70873961D01*
X129489949Y-70791000D01*
X129020228Y-70799847D01*
X128561259Y-70900161D01*
X128210279Y-71045542D01*
X128003530Y-71356029D01*
X125652000Y-71356029D01*
X125652000Y-63249604D01*
X142673000Y-63249604D01*
X142673000Y-63550396D01*
X142731681Y-63845410D01*
X142846790Y-64123306D01*
X143013901Y-64373406D01*
X143226594Y-64586099D01*
X143476694Y-64753210D01*
X143754590Y-64868319D01*
X144049604Y-64927000D01*
X144350396Y-64927000D01*
X144645410Y-64868319D01*
X144923306Y-64753210D01*
X145173406Y-64586099D01*
X145386099Y-64373406D01*
X145553210Y-64123306D01*
X145668319Y-63845410D01*
X145727000Y-63550396D01*
X145727000Y-63249604D01*
X146073000Y-63249604D01*
X146073000Y-63550396D01*
X146131681Y-63845410D01*
X146246790Y-64123306D01*
X146413901Y-64373406D01*
X146626594Y-64586099D01*
X146876694Y-64753210D01*
X147154590Y-64868319D01*
X147449604Y-64927000D01*
X147750396Y-64927000D01*
X148045410Y-64868319D01*
X148323306Y-64753210D01*
X148573406Y-64586099D01*
X148786099Y-64373406D01*
X148953210Y-64123306D01*
X149068319Y-63845410D01*
X149127000Y-63550396D01*
X149127000Y-63249604D01*
X149068319Y-62954590D01*
X148953210Y-62676694D01*
X148786099Y-62426594D01*
X148573406Y-62213901D01*
X148323306Y-62046790D01*
X148045410Y-61931681D01*
X147750396Y-61873000D01*
X147449604Y-61873000D01*
X147154590Y-61931681D01*
X146876694Y-62046790D01*
X146626594Y-62213901D01*
X146413901Y-62426594D01*
X146246790Y-62676694D01*
X146131681Y-62954590D01*
X146073000Y-63249604D01*
X145727000Y-63249604D01*
X145668319Y-62954590D01*
X145553210Y-62676694D01*
X145386099Y-62426594D01*
X145173406Y-62213901D01*
X144923306Y-62046790D01*
X144645410Y-61931681D01*
X144350396Y-61873000D01*
X144049604Y-61873000D01*
X143754590Y-61931681D01*
X143476694Y-62046790D01*
X143226594Y-62213901D01*
X143013901Y-62426594D01*
X142846790Y-62676694D01*
X142731681Y-62954590D01*
X142673000Y-63249604D01*
X125652000Y-63249604D01*
X125652000Y-39961868D01*
X126787111Y-38826759D01*
X126803395Y-38813395D01*
X126816759Y-38797111D01*
X126816768Y-38797102D01*
X126825215Y-38786809D01*
X126914143Y-38759833D01*
X127101244Y-38659826D01*
X127265239Y-38525239D01*
X127399826Y-38361244D01*
X127499833Y-38174144D01*
X127526608Y-38085878D01*
X128164836Y-38085878D01*
X128254066Y-38340094D01*
X128391177Y-38572017D01*
X128570899Y-38772735D01*
X128786326Y-38934534D01*
X128922936Y-39019056D01*
X129127000Y-38928144D01*
X129127000Y-37873000D01*
X129873000Y-37873000D01*
X129873000Y-38928144D01*
X130077064Y-39019056D01*
X130213674Y-38934534D01*
X130429101Y-38772735D01*
X130608823Y-38572017D01*
X130745934Y-38340094D01*
X130835164Y-38085878D01*
X130710954Y-37873000D01*
X129873000Y-37873000D01*
X129127000Y-37873000D01*
X128289046Y-37873000D01*
X128164836Y-38085878D01*
X127526608Y-38085878D01*
X127561417Y-37971129D01*
X127577000Y-37812909D01*
X127577000Y-37187092D01*
X127577000Y-37187091D01*
X131423000Y-37187091D01*
X131423000Y-37812908D01*
X131438583Y-37971128D01*
X131500167Y-38174143D01*
X131600174Y-38361244D01*
X131734761Y-38525239D01*
X131898756Y-38659826D01*
X132085856Y-38759833D01*
X132288871Y-38821417D01*
X132500000Y-38842211D01*
X132711128Y-38821417D01*
X132914143Y-38759833D01*
X133101244Y-38659826D01*
X133265239Y-38525239D01*
X133399826Y-38361244D01*
X133499833Y-38174144D01*
X133561417Y-37971129D01*
X133577000Y-37812909D01*
X133577000Y-37187092D01*
X133577000Y-37187091D01*
X134423000Y-37187091D01*
X134423000Y-37812908D01*
X134438583Y-37971128D01*
X134500167Y-38174143D01*
X134600174Y-38361244D01*
X134734761Y-38525239D01*
X134898756Y-38659826D01*
X135085856Y-38759833D01*
X135288871Y-38821417D01*
X135500000Y-38842211D01*
X135711128Y-38821417D01*
X135914143Y-38759833D01*
X136101244Y-38659826D01*
X136265239Y-38525239D01*
X136399826Y-38361244D01*
X136499833Y-38174144D01*
X136526608Y-38085878D01*
X137164836Y-38085878D01*
X137254066Y-38340094D01*
X137391177Y-38572017D01*
X137570899Y-38772735D01*
X137786326Y-38934534D01*
X137922936Y-39019056D01*
X138127000Y-38928144D01*
X138127000Y-37873000D01*
X138873000Y-37873000D01*
X138873000Y-38928144D01*
X139077064Y-39019056D01*
X139213674Y-38934534D01*
X139429101Y-38772735D01*
X139608823Y-38572017D01*
X139745934Y-38340094D01*
X139835164Y-38085878D01*
X139710954Y-37873000D01*
X138873000Y-37873000D01*
X138127000Y-37873000D01*
X137289046Y-37873000D01*
X137164836Y-38085878D01*
X136526608Y-38085878D01*
X136561417Y-37971129D01*
X136577000Y-37812909D01*
X136577000Y-37187092D01*
X136577000Y-37187091D01*
X140423000Y-37187091D01*
X140423000Y-37812908D01*
X140438583Y-37971128D01*
X140500167Y-38174143D01*
X140600174Y-38361244D01*
X140734761Y-38525239D01*
X140898756Y-38659826D01*
X141085856Y-38759833D01*
X141288871Y-38821417D01*
X141500000Y-38842211D01*
X141711128Y-38821417D01*
X141914143Y-38759833D01*
X142101244Y-38659826D01*
X142265239Y-38525239D01*
X142399826Y-38361244D01*
X142499833Y-38174144D01*
X142561417Y-37971129D01*
X142577000Y-37812909D01*
X142577000Y-37187092D01*
X142561417Y-37028872D01*
X142499833Y-36825857D01*
X142453942Y-36740000D01*
X143421418Y-36740000D01*
X143421418Y-38260000D01*
X143432535Y-38372876D01*
X143465460Y-38481414D01*
X143518927Y-38581443D01*
X143590881Y-38669119D01*
X143678557Y-38741073D01*
X143682095Y-38742964D01*
X143684967Y-38772120D01*
X143732256Y-38928010D01*
X143809048Y-39071679D01*
X143886498Y-39166051D01*
X143912395Y-39197606D01*
X143943948Y-39223501D01*
X152173000Y-47452555D01*
X152173001Y-103759376D01*
X152169000Y-103800000D01*
X152184967Y-103962120D01*
X152232256Y-104118010D01*
X152309048Y-104261679D01*
X152386498Y-104356051D01*
X152412395Y-104387606D01*
X152443948Y-104413501D01*
X156056994Y-108026549D01*
X155983947Y-108086498D01*
X155983941Y-108086504D01*
X155952394Y-108112394D01*
X155926504Y-108143941D01*
X143943948Y-120126499D01*
X143912395Y-120152394D01*
X143886500Y-120183947D01*
X143886498Y-120183949D01*
X143809048Y-120278321D01*
X143732256Y-120421990D01*
X143684967Y-120577880D01*
X143669000Y-120740000D01*
X143673001Y-120780624D01*
X143673000Y-121800017D01*
X143600174Y-121888756D01*
X143500167Y-122075857D01*
X143438583Y-122278872D01*
X143423000Y-122437092D01*
X143423000Y-123062909D01*
X143438583Y-123221129D01*
X143500167Y-123424144D01*
X143600175Y-123611244D01*
X143734762Y-123775239D01*
X143898757Y-123909826D01*
X144085857Y-124009833D01*
X144288872Y-124071417D01*
X144500000Y-124092211D01*
X144711129Y-124071417D01*
X144914144Y-124009833D01*
X145101244Y-123909826D01*
X145265239Y-123775239D01*
X145399826Y-123611244D01*
X145499833Y-123424143D01*
X145561417Y-123221128D01*
X145577000Y-123062908D01*
X145577000Y-122437091D01*
X145561417Y-122278871D01*
X145499833Y-122075856D01*
X145399826Y-121888756D01*
X145327000Y-121800017D01*
X145327000Y-121082553D01*
X145714302Y-120695251D01*
X146538000Y-120695251D01*
X146538000Y-120884749D01*
X146574969Y-121070605D01*
X146647486Y-121245678D01*
X146752766Y-121403239D01*
X146886761Y-121537234D01*
X147044322Y-121642514D01*
X147219395Y-121715031D01*
X147405251Y-121752000D01*
X147594749Y-121752000D01*
X147780605Y-121715031D01*
X147955678Y-121642514D01*
X148113239Y-121537234D01*
X148247234Y-121403239D01*
X148352514Y-121245678D01*
X148425031Y-121070605D01*
X148462000Y-120884749D01*
X148462000Y-120695251D01*
X148425031Y-120509395D01*
X148352514Y-120334322D01*
X148247234Y-120176761D01*
X148113239Y-120042766D01*
X147955678Y-119937486D01*
X147780605Y-119864969D01*
X147594749Y-119828000D01*
X147405251Y-119828000D01*
X147219395Y-119864969D01*
X147044322Y-119937486D01*
X146886761Y-120042766D01*
X146752766Y-120176761D01*
X146647486Y-120334322D01*
X146574969Y-120509395D01*
X146538000Y-120695251D01*
X145714302Y-120695251D01*
X146599346Y-119810207D01*
X153073000Y-119810207D01*
X153073000Y-120189793D01*
X153147053Y-120562085D01*
X153292315Y-120912777D01*
X153503201Y-121228391D01*
X153771609Y-121496799D01*
X154087223Y-121707685D01*
X154437915Y-121852947D01*
X154810207Y-121927000D01*
X155189793Y-121927000D01*
X155562085Y-121852947D01*
X155912777Y-121707685D01*
X156228391Y-121496799D01*
X156496799Y-121228391D01*
X156707685Y-120912777D01*
X156852947Y-120562085D01*
X156927000Y-120189793D01*
X156927000Y-119810207D01*
X156852947Y-119437915D01*
X156707685Y-119087223D01*
X156496799Y-118771609D01*
X156228391Y-118503201D01*
X155912777Y-118292315D01*
X155562085Y-118147053D01*
X155189793Y-118073000D01*
X154810207Y-118073000D01*
X154437915Y-118147053D01*
X154087223Y-118292315D01*
X153771609Y-118503201D01*
X153503201Y-118771609D01*
X153292315Y-119087223D01*
X153147053Y-119437915D01*
X153073000Y-119810207D01*
X146599346Y-119810207D01*
X155032512Y-111377043D01*
X155014969Y-111419395D01*
X154978000Y-111605251D01*
X154978000Y-111794749D01*
X155014969Y-111980605D01*
X155087486Y-112155678D01*
X155192766Y-112313239D01*
X155326761Y-112447234D01*
X155484322Y-112552514D01*
X155659395Y-112625031D01*
X155845251Y-112662000D01*
X156034749Y-112662000D01*
X156220605Y-112625031D01*
X156395678Y-112552514D01*
X156553239Y-112447234D01*
X156687234Y-112313239D01*
X156792514Y-112155678D01*
X156865031Y-111980605D01*
X156902000Y-111794749D01*
X156902000Y-111605251D01*
X156865031Y-111419395D01*
X156792514Y-111244322D01*
X156687234Y-111086761D01*
X156553239Y-110952766D01*
X156395678Y-110847486D01*
X156220605Y-110774969D01*
X156034749Y-110738000D01*
X155845251Y-110738000D01*
X155659395Y-110774969D01*
X155617043Y-110792512D01*
X156769084Y-109640471D01*
X156818557Y-109681073D01*
X156918586Y-109734540D01*
X157027124Y-109767465D01*
X157140000Y-109778582D01*
X158660000Y-109778582D01*
X158772876Y-109767465D01*
X158881414Y-109734540D01*
X158981443Y-109681073D01*
X159069119Y-109609119D01*
X159141073Y-109521443D01*
X159194540Y-109421414D01*
X159227465Y-109312876D01*
X159238582Y-109200000D01*
X159238582Y-108200000D01*
X159227465Y-108087124D01*
X159194540Y-107978586D01*
X159141073Y-107878557D01*
X159069119Y-107790881D01*
X158981443Y-107718927D01*
X158881414Y-107665460D01*
X158772876Y-107632535D01*
X158660000Y-107621418D01*
X157990973Y-107621418D01*
X157371336Y-107001781D01*
X157527000Y-106910954D01*
X157527000Y-106073000D01*
X158273000Y-106073000D01*
X158273000Y-106910954D01*
X158485878Y-107035164D01*
X158740094Y-106945934D01*
X158972017Y-106808823D01*
X159172735Y-106629101D01*
X159334534Y-106413674D01*
X159419056Y-106277064D01*
X159328144Y-106073000D01*
X158273000Y-106073000D01*
X157527000Y-106073000D01*
X156471856Y-106073000D01*
X156462825Y-106093271D01*
X155492490Y-105122936D01*
X156380944Y-105122936D01*
X156471856Y-105327000D01*
X157527000Y-105327000D01*
X157527000Y-104489046D01*
X158273000Y-104489046D01*
X158273000Y-105327000D01*
X159328144Y-105327000D01*
X159419056Y-105122936D01*
X159334534Y-104986326D01*
X159172735Y-104770899D01*
X158972017Y-104591177D01*
X158740094Y-104454066D01*
X158485878Y-104364836D01*
X158273000Y-104489046D01*
X157527000Y-104489046D01*
X157314122Y-104364836D01*
X157059906Y-104454066D01*
X156827983Y-104591177D01*
X156627265Y-104770899D01*
X156465466Y-104986326D01*
X156380944Y-105122936D01*
X155492490Y-105122936D01*
X153827000Y-103457447D01*
X153827000Y-102605251D01*
X154978000Y-102605251D01*
X154978000Y-102794749D01*
X155014969Y-102980605D01*
X155087486Y-103155678D01*
X155192766Y-103313239D01*
X155326761Y-103447234D01*
X155484322Y-103552514D01*
X155659395Y-103625031D01*
X155845251Y-103662000D01*
X156034749Y-103662000D01*
X156220605Y-103625031D01*
X156395678Y-103552514D01*
X156553239Y-103447234D01*
X156687234Y-103313239D01*
X156792514Y-103155678D01*
X156865031Y-102980605D01*
X156902000Y-102794749D01*
X156902000Y-102605251D01*
X156865031Y-102419395D01*
X156792514Y-102244322D01*
X156687234Y-102086761D01*
X156553239Y-101952766D01*
X156395678Y-101847486D01*
X156220605Y-101774969D01*
X156034749Y-101738000D01*
X155845251Y-101738000D01*
X155659395Y-101774969D01*
X155484322Y-101847486D01*
X155326761Y-101952766D01*
X155192766Y-102086761D01*
X155087486Y-102244322D01*
X155014969Y-102419395D01*
X154978000Y-102605251D01*
X153827000Y-102605251D01*
X153827000Y-57805251D01*
X155078000Y-57805251D01*
X155078000Y-57994749D01*
X155114969Y-58180605D01*
X155187486Y-58355678D01*
X155292766Y-58513239D01*
X155426761Y-58647234D01*
X155584322Y-58752514D01*
X155759395Y-58825031D01*
X155945251Y-58862000D01*
X156134749Y-58862000D01*
X156320605Y-58825031D01*
X156495678Y-58752514D01*
X156653239Y-58647234D01*
X156787234Y-58513239D01*
X156892514Y-58355678D01*
X156965031Y-58180605D01*
X157002000Y-57994749D01*
X157002000Y-57805251D01*
X156965031Y-57619395D01*
X156892514Y-57444322D01*
X156787234Y-57286761D01*
X156653239Y-57152766D01*
X156495678Y-57047486D01*
X156320605Y-56974969D01*
X156134749Y-56938000D01*
X155945251Y-56938000D01*
X155759395Y-56974969D01*
X155584322Y-57047486D01*
X155426761Y-57152766D01*
X155292766Y-57286761D01*
X155187486Y-57444322D01*
X155114969Y-57619395D01*
X155078000Y-57805251D01*
X153827000Y-57805251D01*
X153827000Y-54400000D01*
X156661418Y-54400000D01*
X156661418Y-55400000D01*
X156672535Y-55512876D01*
X156705460Y-55621414D01*
X156758927Y-55721443D01*
X156830881Y-55809119D01*
X156918557Y-55881073D01*
X157018586Y-55934540D01*
X157127124Y-55967465D01*
X157240000Y-55978582D01*
X158760000Y-55978582D01*
X158872876Y-55967465D01*
X158981414Y-55934540D01*
X159081443Y-55881073D01*
X159169119Y-55809119D01*
X159241073Y-55721443D01*
X159294540Y-55621414D01*
X159327465Y-55512876D01*
X159338582Y-55400000D01*
X159338582Y-54400000D01*
X159327465Y-54287124D01*
X159294540Y-54178586D01*
X159241073Y-54078557D01*
X159169119Y-53990881D01*
X159081443Y-53918927D01*
X158981414Y-53865460D01*
X158872876Y-53832535D01*
X158760000Y-53821418D01*
X157240000Y-53821418D01*
X157127124Y-53832535D01*
X157018586Y-53865460D01*
X156918557Y-53918927D01*
X156830881Y-53990881D01*
X156758927Y-54078557D01*
X156705460Y-54178586D01*
X156672535Y-54287124D01*
X156661418Y-54400000D01*
X153827000Y-54400000D01*
X153827000Y-52477064D01*
X156480944Y-52477064D01*
X156565466Y-52613674D01*
X156727265Y-52829101D01*
X156927983Y-53008823D01*
X157159906Y-53145934D01*
X157414122Y-53235164D01*
X157627000Y-53110954D01*
X157627000Y-52273000D01*
X158373000Y-52273000D01*
X158373000Y-53110954D01*
X158585878Y-53235164D01*
X158840094Y-53145934D01*
X159072017Y-53008823D01*
X159272735Y-52829101D01*
X159434534Y-52613674D01*
X159519056Y-52477064D01*
X159428144Y-52273000D01*
X158373000Y-52273000D01*
X157627000Y-52273000D01*
X156571856Y-52273000D01*
X156480944Y-52477064D01*
X153827000Y-52477064D01*
X153827000Y-51322936D01*
X156480944Y-51322936D01*
X156571856Y-51527000D01*
X157627000Y-51527000D01*
X157627000Y-50689046D01*
X158373000Y-50689046D01*
X158373000Y-51527000D01*
X159428144Y-51527000D01*
X159519056Y-51322936D01*
X159434534Y-51186326D01*
X159272735Y-50970899D01*
X159072017Y-50791177D01*
X158840094Y-50654066D01*
X158585878Y-50564836D01*
X158373000Y-50689046D01*
X157627000Y-50689046D01*
X157414122Y-50564836D01*
X157159906Y-50654066D01*
X156927983Y-50791177D01*
X156727265Y-50970899D01*
X156565466Y-51186326D01*
X156480944Y-51322936D01*
X153827000Y-51322936D01*
X153827000Y-48805251D01*
X155078000Y-48805251D01*
X155078000Y-48994749D01*
X155114969Y-49180605D01*
X155187486Y-49355678D01*
X155292766Y-49513239D01*
X155426761Y-49647234D01*
X155584322Y-49752514D01*
X155759395Y-49825031D01*
X155945251Y-49862000D01*
X156134749Y-49862000D01*
X156320605Y-49825031D01*
X156495678Y-49752514D01*
X156653239Y-49647234D01*
X156787234Y-49513239D01*
X156892514Y-49355678D01*
X156965031Y-49180605D01*
X157002000Y-48994749D01*
X157002000Y-48805251D01*
X156965031Y-48619395D01*
X156892514Y-48444322D01*
X156787234Y-48286761D01*
X156653239Y-48152766D01*
X156495678Y-48047486D01*
X156320605Y-47974969D01*
X156134749Y-47938000D01*
X155945251Y-47938000D01*
X155759395Y-47974969D01*
X155584322Y-48047486D01*
X155426761Y-48152766D01*
X155292766Y-48286761D01*
X155187486Y-48444322D01*
X155114969Y-48619395D01*
X155078000Y-48805251D01*
X153827000Y-48805251D01*
X153827000Y-47150610D01*
X153831000Y-47109999D01*
X153827000Y-47069388D01*
X153827000Y-47069376D01*
X153815034Y-46947880D01*
X153767745Y-46791990D01*
X153744450Y-46748407D01*
X153690952Y-46648319D01*
X153613502Y-46553947D01*
X153613496Y-46553941D01*
X153587606Y-46522394D01*
X153556060Y-46496505D01*
X147481554Y-40422000D01*
X147594749Y-40422000D01*
X147780605Y-40385031D01*
X147955678Y-40312514D01*
X148113239Y-40207234D01*
X148247234Y-40073239D01*
X148352514Y-39915678D01*
X148396201Y-39810207D01*
X153073000Y-39810207D01*
X153073000Y-40189793D01*
X153147053Y-40562085D01*
X153292315Y-40912777D01*
X153503201Y-41228391D01*
X153771609Y-41496799D01*
X154087223Y-41707685D01*
X154437915Y-41852947D01*
X154810207Y-41927000D01*
X155189793Y-41927000D01*
X155562085Y-41852947D01*
X155912777Y-41707685D01*
X156228391Y-41496799D01*
X156496799Y-41228391D01*
X156707685Y-40912777D01*
X156852947Y-40562085D01*
X156927000Y-40189793D01*
X156927000Y-39810207D01*
X156852947Y-39437915D01*
X156707685Y-39087223D01*
X156496799Y-38771609D01*
X156228391Y-38503201D01*
X155912777Y-38292315D01*
X155562085Y-38147053D01*
X155189793Y-38073000D01*
X154810207Y-38073000D01*
X154437915Y-38147053D01*
X154087223Y-38292315D01*
X153771609Y-38503201D01*
X153503201Y-38771609D01*
X153292315Y-39087223D01*
X153147053Y-39437915D01*
X153073000Y-39810207D01*
X148396201Y-39810207D01*
X148425031Y-39740605D01*
X148462000Y-39554749D01*
X148462000Y-39365251D01*
X148425031Y-39179395D01*
X148352514Y-39004322D01*
X148247234Y-38846761D01*
X148113239Y-38712766D01*
X147955678Y-38607486D01*
X147780605Y-38534969D01*
X147594749Y-38498000D01*
X147405251Y-38498000D01*
X147219395Y-38534969D01*
X147044322Y-38607486D01*
X146886761Y-38712766D01*
X146752766Y-38846761D01*
X146647486Y-39004322D01*
X146574969Y-39179395D01*
X146538000Y-39365251D01*
X146538000Y-39478447D01*
X145536036Y-38476483D01*
X145567465Y-38372876D01*
X145578582Y-38260000D01*
X145578582Y-36740000D01*
X145567465Y-36627124D01*
X145534540Y-36518586D01*
X145481073Y-36418557D01*
X145409119Y-36330881D01*
X145321443Y-36258927D01*
X145221414Y-36205460D01*
X145112876Y-36172535D01*
X145000000Y-36161418D01*
X144000000Y-36161418D01*
X143887124Y-36172535D01*
X143778586Y-36205460D01*
X143678557Y-36258927D01*
X143590881Y-36330881D01*
X143518927Y-36418557D01*
X143465460Y-36518586D01*
X143432535Y-36627124D01*
X143421418Y-36740000D01*
X142453942Y-36740000D01*
X142399826Y-36638756D01*
X142265239Y-36474761D01*
X142101244Y-36340174D01*
X141914144Y-36240167D01*
X141711129Y-36178583D01*
X141500000Y-36157789D01*
X141288872Y-36178583D01*
X141085857Y-36240167D01*
X140898757Y-36340174D01*
X140734762Y-36474761D01*
X140600175Y-36638756D01*
X140500167Y-36825856D01*
X140438583Y-37028871D01*
X140423000Y-37187091D01*
X136577000Y-37187091D01*
X136561417Y-37028872D01*
X136526608Y-36914122D01*
X137164836Y-36914122D01*
X137289046Y-37127000D01*
X138127000Y-37127000D01*
X138127000Y-36071856D01*
X138873000Y-36071856D01*
X138873000Y-37127000D01*
X139710954Y-37127000D01*
X139835164Y-36914122D01*
X139745934Y-36659906D01*
X139608823Y-36427983D01*
X139429101Y-36227265D01*
X139213674Y-36065466D01*
X139077064Y-35980944D01*
X138873000Y-36071856D01*
X138127000Y-36071856D01*
X137922936Y-35980944D01*
X137786326Y-36065466D01*
X137570899Y-36227265D01*
X137391177Y-36427983D01*
X137254066Y-36659906D01*
X137164836Y-36914122D01*
X136526608Y-36914122D01*
X136499833Y-36825857D01*
X136399826Y-36638756D01*
X136265239Y-36474761D01*
X136101244Y-36340174D01*
X135914144Y-36240167D01*
X135711129Y-36178583D01*
X135500000Y-36157789D01*
X135288872Y-36178583D01*
X135085857Y-36240167D01*
X134898757Y-36340174D01*
X134734762Y-36474761D01*
X134600175Y-36638756D01*
X134500167Y-36825856D01*
X134438583Y-37028871D01*
X134423000Y-37187091D01*
X133577000Y-37187091D01*
X133561417Y-37028872D01*
X133499833Y-36825857D01*
X133399826Y-36638756D01*
X133265239Y-36474761D01*
X133101244Y-36340174D01*
X132914144Y-36240167D01*
X132711129Y-36178583D01*
X132500000Y-36157789D01*
X132288872Y-36178583D01*
X132085857Y-36240167D01*
X131898757Y-36340174D01*
X131734762Y-36474761D01*
X131600175Y-36638756D01*
X131500167Y-36825856D01*
X131438583Y-37028871D01*
X131423000Y-37187091D01*
X127577000Y-37187091D01*
X127561417Y-37028872D01*
X127526608Y-36914122D01*
X128164836Y-36914122D01*
X128289046Y-37127000D01*
X129127000Y-37127000D01*
X129127000Y-36071856D01*
X129873000Y-36071856D01*
X129873000Y-37127000D01*
X130710954Y-37127000D01*
X130835164Y-36914122D01*
X130745934Y-36659906D01*
X130608823Y-36427983D01*
X130429101Y-36227265D01*
X130213674Y-36065466D01*
X130077064Y-35980944D01*
X129873000Y-36071856D01*
X129127000Y-36071856D01*
X128922936Y-35980944D01*
X128786326Y-36065466D01*
X128570899Y-36227265D01*
X128391177Y-36427983D01*
X128254066Y-36659906D01*
X128164836Y-36914122D01*
X127526608Y-36914122D01*
X127499833Y-36825857D01*
X127399826Y-36638756D01*
X127265239Y-36474761D01*
X127101244Y-36340174D01*
X126914144Y-36240167D01*
X126711129Y-36178583D01*
X126500000Y-36157789D01*
X126288872Y-36178583D01*
X126085857Y-36240167D01*
X125898757Y-36340174D01*
X125734762Y-36474761D01*
X125600175Y-36638756D01*
X125500167Y-36825856D01*
X125438583Y-37028871D01*
X125423000Y-37187091D01*
X125423000Y-37812908D01*
X125438583Y-37971128D01*
X125500167Y-38174143D01*
X125600174Y-38361244D01*
X125734761Y-38525239D01*
X125815023Y-38591108D01*
X125000001Y-39406131D01*
X124184977Y-38591108D01*
X124265239Y-38525239D01*
X124399826Y-38361244D01*
X124499833Y-38174144D01*
X124561417Y-37971129D01*
X124577000Y-37812909D01*
X124577000Y-37187092D01*
X124561417Y-37028872D01*
X124499833Y-36825857D01*
X124399826Y-36638756D01*
X124265239Y-36474761D01*
X124101244Y-36340174D01*
X123914144Y-36240167D01*
X123711129Y-36178583D01*
X123500000Y-36157789D01*
X123288872Y-36178583D01*
X123085857Y-36240167D01*
X122898757Y-36340174D01*
X122734762Y-36474761D01*
X122600175Y-36638756D01*
X122500167Y-36825856D01*
X122438583Y-37028871D01*
X122423000Y-37187091D01*
X84078582Y-37187091D01*
X84078582Y-36914122D01*
X119164836Y-36914122D01*
X119289046Y-37127000D01*
X120127000Y-37127000D01*
X120127000Y-36071856D01*
X120873000Y-36071856D01*
X120873000Y-37127000D01*
X121710954Y-37127000D01*
X121835164Y-36914122D01*
X121745934Y-36659906D01*
X121608823Y-36427983D01*
X121429101Y-36227265D01*
X121213674Y-36065466D01*
X121077064Y-35980944D01*
X120873000Y-36071856D01*
X120127000Y-36071856D01*
X119922936Y-35980944D01*
X119786326Y-36065466D01*
X119570899Y-36227265D01*
X119391177Y-36427983D01*
X119254066Y-36659906D01*
X119164836Y-36914122D01*
X84078582Y-36914122D01*
X84078582Y-36440000D01*
X84067465Y-36327124D01*
X84034540Y-36218586D01*
X83981073Y-36118557D01*
X83909119Y-36030881D01*
X83821443Y-35958927D01*
X83721414Y-35905460D01*
X83612876Y-35872535D01*
X83500000Y-35861418D01*
X82500000Y-35861418D01*
X82387124Y-35872535D01*
X82278586Y-35905460D01*
X82178557Y-35958927D01*
X82090881Y-36030881D01*
X82018927Y-36118557D01*
X81965460Y-36218586D01*
X81932535Y-36327124D01*
X81921418Y-36440000D01*
X81274048Y-36440000D01*
X81245934Y-36359906D01*
X81108823Y-36127983D01*
X80929101Y-35927265D01*
X80713674Y-35765466D01*
X80577064Y-35680944D01*
X80373000Y-35771856D01*
X79627000Y-35771856D01*
X79422936Y-35680944D01*
X79286326Y-35765466D01*
X79070899Y-35927265D01*
X78891177Y-36127983D01*
X78754066Y-36359906D01*
X78664836Y-36614122D01*
X60279000Y-36614122D01*
X60279000Y-35279000D01*
X159721000Y-35279000D01*
X159721001Y-124721000D01*
M02*
