G04 #@! TF.GenerationSoftware,KiCad,Pcbnew,(5.1.4)-1*
G04 #@! TF.CreationDate,2021-12-07T11:14:46-05:00*
G04 #@! TF.ProjectId,PowerBoard,506f7765-7242-46f6-9172-642e6b696361,rev?*
G04 #@! TF.SameCoordinates,Original*
G04 #@! TF.FileFunction,Legend,Top*
G04 #@! TF.FilePolarity,Positive*
%FSLAX46Y46*%
G04 Gerber Fmt 4.6, Leading zero omitted, Abs format (unit mm)*
G04 Created by KiCad (PCBNEW (5.1.4)-1) date 2021-12-07 11:14:46*
%MOMM*%
%LPD*%
G04 APERTURE LIST*
%ADD10C,0.300000*%
%ADD11C,0.450000*%
%ADD12C,0.150000*%
%ADD13C,0.100000*%
%ADD14C,0.120000*%
G04 APERTURE END LIST*
D10*
X61619047Y-114604761D02*
X61619047Y-112604761D01*
X62380952Y-112604761D01*
X62571428Y-112700000D01*
X62666666Y-112795238D01*
X62761904Y-112985714D01*
X62761904Y-113271428D01*
X62666666Y-113461904D01*
X62571428Y-113557142D01*
X62380952Y-113652380D01*
X61619047Y-113652380D01*
X63904761Y-114604761D02*
X63714285Y-114509523D01*
X63619047Y-114414285D01*
X63523809Y-114223809D01*
X63523809Y-113652380D01*
X63619047Y-113461904D01*
X63714285Y-113366666D01*
X63904761Y-113271428D01*
X64190476Y-113271428D01*
X64380952Y-113366666D01*
X64476190Y-113461904D01*
X64571428Y-113652380D01*
X64571428Y-114223809D01*
X64476190Y-114414285D01*
X64380952Y-114509523D01*
X64190476Y-114604761D01*
X63904761Y-114604761D01*
X65238095Y-113271428D02*
X65619047Y-114604761D01*
X66000000Y-113652380D01*
X66380952Y-114604761D01*
X66761904Y-113271428D01*
X68285714Y-114509523D02*
X68095238Y-114604761D01*
X67714285Y-114604761D01*
X67523809Y-114509523D01*
X67428571Y-114319047D01*
X67428571Y-113557142D01*
X67523809Y-113366666D01*
X67714285Y-113271428D01*
X68095238Y-113271428D01*
X68285714Y-113366666D01*
X68380952Y-113557142D01*
X68380952Y-113747619D01*
X67428571Y-113938095D01*
X69238095Y-114604761D02*
X69238095Y-113271428D01*
X69238095Y-113652380D02*
X69333333Y-113461904D01*
X69428571Y-113366666D01*
X69619047Y-113271428D01*
X69809523Y-113271428D01*
X72666666Y-113557142D02*
X72952380Y-113652380D01*
X73047619Y-113747619D01*
X73142857Y-113938095D01*
X73142857Y-114223809D01*
X73047619Y-114414285D01*
X72952380Y-114509523D01*
X72761904Y-114604761D01*
X72000000Y-114604761D01*
X72000000Y-112604761D01*
X72666666Y-112604761D01*
X72857142Y-112700000D01*
X72952380Y-112795238D01*
X73047619Y-112985714D01*
X73047619Y-113176190D01*
X72952380Y-113366666D01*
X72857142Y-113461904D01*
X72666666Y-113557142D01*
X72000000Y-113557142D01*
X74285714Y-114604761D02*
X74095238Y-114509523D01*
X74000000Y-114414285D01*
X73904761Y-114223809D01*
X73904761Y-113652380D01*
X74000000Y-113461904D01*
X74095238Y-113366666D01*
X74285714Y-113271428D01*
X74571428Y-113271428D01*
X74761904Y-113366666D01*
X74857142Y-113461904D01*
X74952380Y-113652380D01*
X74952380Y-114223809D01*
X74857142Y-114414285D01*
X74761904Y-114509523D01*
X74571428Y-114604761D01*
X74285714Y-114604761D01*
X76666666Y-114604761D02*
X76666666Y-113557142D01*
X76571428Y-113366666D01*
X76380952Y-113271428D01*
X76000000Y-113271428D01*
X75809523Y-113366666D01*
X76666666Y-114509523D02*
X76476190Y-114604761D01*
X76000000Y-114604761D01*
X75809523Y-114509523D01*
X75714285Y-114319047D01*
X75714285Y-114128571D01*
X75809523Y-113938095D01*
X76000000Y-113842857D01*
X76476190Y-113842857D01*
X76666666Y-113747619D01*
X77619047Y-114604761D02*
X77619047Y-113271428D01*
X77619047Y-113652380D02*
X77714285Y-113461904D01*
X77809523Y-113366666D01*
X78000000Y-113271428D01*
X78190476Y-113271428D01*
X79714285Y-114604761D02*
X79714285Y-112604761D01*
X79714285Y-114509523D02*
X79523809Y-114604761D01*
X79142857Y-114604761D01*
X78952380Y-114509523D01*
X78857142Y-114414285D01*
X78761904Y-114223809D01*
X78761904Y-113652380D01*
X78857142Y-113461904D01*
X78952380Y-113366666D01*
X79142857Y-113271428D01*
X79523809Y-113271428D01*
X79714285Y-113366666D01*
X82190476Y-114604761D02*
X82190476Y-112604761D01*
X84000000Y-114604761D02*
X84000000Y-112604761D01*
X84000000Y-114509523D02*
X83809523Y-114604761D01*
X83428571Y-114604761D01*
X83238095Y-114509523D01*
X83142857Y-114414285D01*
X83047619Y-114223809D01*
X83047619Y-113652380D01*
X83142857Y-113461904D01*
X83238095Y-113366666D01*
X83428571Y-113271428D01*
X83809523Y-113271428D01*
X84000000Y-113366666D01*
X85714285Y-114509523D02*
X85523809Y-114604761D01*
X85142857Y-114604761D01*
X84952380Y-114509523D01*
X84857142Y-114319047D01*
X84857142Y-113557142D01*
X84952380Y-113366666D01*
X85142857Y-113271428D01*
X85523809Y-113271428D01*
X85714285Y-113366666D01*
X85809523Y-113557142D01*
X85809523Y-113747619D01*
X84857142Y-113938095D01*
X87523809Y-114604761D02*
X87523809Y-113557142D01*
X87428571Y-113366666D01*
X87238095Y-113271428D01*
X86857142Y-113271428D01*
X86666666Y-113366666D01*
X87523809Y-114509523D02*
X87333333Y-114604761D01*
X86857142Y-114604761D01*
X86666666Y-114509523D01*
X86571428Y-114319047D01*
X86571428Y-114128571D01*
X86666666Y-113938095D01*
X86857142Y-113842857D01*
X87333333Y-113842857D01*
X87523809Y-113747619D01*
X88761904Y-114604761D02*
X88571428Y-114509523D01*
X88476190Y-114319047D01*
X88476190Y-112604761D01*
X91047619Y-114604761D02*
X91047619Y-112604761D01*
X91523809Y-112604761D01*
X91809523Y-112700000D01*
X92000000Y-112890476D01*
X92095238Y-113080952D01*
X92190476Y-113461904D01*
X92190476Y-113747619D01*
X92095238Y-114128571D01*
X92000000Y-114319047D01*
X91809523Y-114509523D01*
X91523809Y-114604761D01*
X91047619Y-114604761D01*
X93047619Y-114604761D02*
X93047619Y-113271428D01*
X93047619Y-112604761D02*
X92952380Y-112700000D01*
X93047619Y-112795238D01*
X93142857Y-112700000D01*
X93047619Y-112604761D01*
X93047619Y-112795238D01*
X94285714Y-114604761D02*
X94095238Y-114509523D01*
X94000000Y-114414285D01*
X93904761Y-114223809D01*
X93904761Y-113652380D01*
X94000000Y-113461904D01*
X94095238Y-113366666D01*
X94285714Y-113271428D01*
X94571428Y-113271428D01*
X94761904Y-113366666D01*
X94857142Y-113461904D01*
X94952380Y-113652380D01*
X94952380Y-114223809D01*
X94857142Y-114414285D01*
X94761904Y-114509523D01*
X94571428Y-114604761D01*
X94285714Y-114604761D01*
X96666666Y-114604761D02*
X96666666Y-112604761D01*
X96666666Y-114509523D02*
X96476190Y-114604761D01*
X96095238Y-114604761D01*
X95904761Y-114509523D01*
X95809523Y-114414285D01*
X95714285Y-114223809D01*
X95714285Y-113652380D01*
X95809523Y-113461904D01*
X95904761Y-113366666D01*
X96095238Y-113271428D01*
X96476190Y-113271428D01*
X96666666Y-113366666D01*
X98380952Y-114509523D02*
X98190476Y-114604761D01*
X97809523Y-114604761D01*
X97619047Y-114509523D01*
X97523809Y-114319047D01*
X97523809Y-113557142D01*
X97619047Y-113366666D01*
X97809523Y-113271428D01*
X98190476Y-113271428D01*
X98380952Y-113366666D01*
X98476190Y-113557142D01*
X98476190Y-113747619D01*
X97523809Y-113938095D01*
X73666666Y-115904761D02*
X73666666Y-117333333D01*
X73571428Y-117619047D01*
X73380952Y-117809523D01*
X73095238Y-117904761D01*
X72904761Y-117904761D01*
X74904761Y-117904761D02*
X74714285Y-117809523D01*
X74619047Y-117714285D01*
X74523809Y-117523809D01*
X74523809Y-116952380D01*
X74619047Y-116761904D01*
X74714285Y-116666666D01*
X74904761Y-116571428D01*
X75190476Y-116571428D01*
X75380952Y-116666666D01*
X75476190Y-116761904D01*
X75571428Y-116952380D01*
X75571428Y-117523809D01*
X75476190Y-117714285D01*
X75380952Y-117809523D01*
X75190476Y-117904761D01*
X74904761Y-117904761D01*
X76428571Y-117904761D02*
X76428571Y-115904761D01*
X77285714Y-117904761D02*
X77285714Y-116857142D01*
X77190476Y-116666666D01*
X77000000Y-116571428D01*
X76714285Y-116571428D01*
X76523809Y-116666666D01*
X76428571Y-116761904D01*
X78238095Y-116571428D02*
X78238095Y-117904761D01*
X78238095Y-116761904D02*
X78333333Y-116666666D01*
X78523809Y-116571428D01*
X78809523Y-116571428D01*
X79000000Y-116666666D01*
X79095238Y-116857142D01*
X79095238Y-117904761D01*
X82714285Y-117714285D02*
X82619047Y-117809523D01*
X82333333Y-117904761D01*
X82142857Y-117904761D01*
X81857142Y-117809523D01*
X81666666Y-117619047D01*
X81571428Y-117428571D01*
X81476190Y-117047619D01*
X81476190Y-116761904D01*
X81571428Y-116380952D01*
X81666666Y-116190476D01*
X81857142Y-116000000D01*
X82142857Y-115904761D01*
X82333333Y-115904761D01*
X82619047Y-116000000D01*
X82714285Y-116095238D01*
X84428571Y-117904761D02*
X84428571Y-116857142D01*
X84333333Y-116666666D01*
X84142857Y-116571428D01*
X83761904Y-116571428D01*
X83571428Y-116666666D01*
X84428571Y-117809523D02*
X84238095Y-117904761D01*
X83761904Y-117904761D01*
X83571428Y-117809523D01*
X83476190Y-117619047D01*
X83476190Y-117428571D01*
X83571428Y-117238095D01*
X83761904Y-117142857D01*
X84238095Y-117142857D01*
X84428571Y-117047619D01*
X85380952Y-117904761D02*
X85380952Y-116571428D01*
X85380952Y-116952380D02*
X85476190Y-116761904D01*
X85571428Y-116666666D01*
X85761904Y-116571428D01*
X85952380Y-116571428D01*
X86619047Y-117904761D02*
X86619047Y-116571428D01*
X86619047Y-116952380D02*
X86714285Y-116761904D01*
X86809523Y-116666666D01*
X87000000Y-116571428D01*
X87190476Y-116571428D01*
X70904761Y-121109523D02*
X71190476Y-121204761D01*
X71666666Y-121204761D01*
X71857142Y-121109523D01*
X71952380Y-121014285D01*
X72047619Y-120823809D01*
X72047619Y-120633333D01*
X71952380Y-120442857D01*
X71857142Y-120347619D01*
X71666666Y-120252380D01*
X71285714Y-120157142D01*
X71095238Y-120061904D01*
X71000000Y-119966666D01*
X70904761Y-119776190D01*
X70904761Y-119585714D01*
X71000000Y-119395238D01*
X71095238Y-119300000D01*
X71285714Y-119204761D01*
X71761904Y-119204761D01*
X72047619Y-119300000D01*
X73190476Y-121204761D02*
X73000000Y-121109523D01*
X72904761Y-121014285D01*
X72809523Y-120823809D01*
X72809523Y-120252380D01*
X72904761Y-120061904D01*
X73000000Y-119966666D01*
X73190476Y-119871428D01*
X73476190Y-119871428D01*
X73666666Y-119966666D01*
X73761904Y-120061904D01*
X73857142Y-120252380D01*
X73857142Y-120823809D01*
X73761904Y-121014285D01*
X73666666Y-121109523D01*
X73476190Y-121204761D01*
X73190476Y-121204761D01*
X75000000Y-121204761D02*
X74809523Y-121109523D01*
X74714285Y-120919047D01*
X74714285Y-119204761D01*
X76619047Y-121204761D02*
X76619047Y-120157142D01*
X76523809Y-119966666D01*
X76333333Y-119871428D01*
X75952380Y-119871428D01*
X75761904Y-119966666D01*
X76619047Y-121109523D02*
X76428571Y-121204761D01*
X75952380Y-121204761D01*
X75761904Y-121109523D01*
X75666666Y-120919047D01*
X75666666Y-120728571D01*
X75761904Y-120538095D01*
X75952380Y-120442857D01*
X76428571Y-120442857D01*
X76619047Y-120347619D01*
X77571428Y-121204761D02*
X77571428Y-119871428D01*
X77571428Y-120252380D02*
X77666666Y-120061904D01*
X77761904Y-119966666D01*
X77952380Y-119871428D01*
X78142857Y-119871428D01*
X81380952Y-119300000D02*
X81190476Y-119204761D01*
X80904761Y-119204761D01*
X80619047Y-119300000D01*
X80428571Y-119490476D01*
X80333333Y-119680952D01*
X80238095Y-120061904D01*
X80238095Y-120347619D01*
X80333333Y-120728571D01*
X80428571Y-120919047D01*
X80619047Y-121109523D01*
X80904761Y-121204761D01*
X81095238Y-121204761D01*
X81380952Y-121109523D01*
X81476190Y-121014285D01*
X81476190Y-120347619D01*
X81095238Y-120347619D01*
X83190476Y-121204761D02*
X83190476Y-120157142D01*
X83095238Y-119966666D01*
X82904761Y-119871428D01*
X82523809Y-119871428D01*
X82333333Y-119966666D01*
X83190476Y-121109523D02*
X83000000Y-121204761D01*
X82523809Y-121204761D01*
X82333333Y-121109523D01*
X82238095Y-120919047D01*
X82238095Y-120728571D01*
X82333333Y-120538095D01*
X82523809Y-120442857D01*
X83000000Y-120442857D01*
X83190476Y-120347619D01*
X83857142Y-119871428D02*
X84619047Y-119871428D01*
X84142857Y-119204761D02*
X84142857Y-120919047D01*
X84238095Y-121109523D01*
X84428571Y-121204761D01*
X84619047Y-121204761D01*
X85571428Y-121204761D02*
X85380952Y-121109523D01*
X85285714Y-121014285D01*
X85190476Y-120823809D01*
X85190476Y-120252380D01*
X85285714Y-120061904D01*
X85380952Y-119966666D01*
X85571428Y-119871428D01*
X85857142Y-119871428D01*
X86047619Y-119966666D01*
X86142857Y-120061904D01*
X86238095Y-120252380D01*
X86238095Y-120823809D01*
X86142857Y-121014285D01*
X86047619Y-121109523D01*
X85857142Y-121204761D01*
X85571428Y-121204761D01*
X87095238Y-121204761D02*
X87095238Y-119871428D01*
X87095238Y-120252380D02*
X87190476Y-120061904D01*
X87285714Y-119966666D01*
X87476190Y-119871428D01*
X87666666Y-119871428D01*
X88238095Y-121109523D02*
X88428571Y-121204761D01*
X88809523Y-121204761D01*
X89000000Y-121109523D01*
X89095238Y-120919047D01*
X89095238Y-120823809D01*
X89000000Y-120633333D01*
X88809523Y-120538095D01*
X88523809Y-120538095D01*
X88333333Y-120442857D01*
X88238095Y-120252380D01*
X88238095Y-120157142D01*
X88333333Y-119966666D01*
X88523809Y-119871428D01*
X88809523Y-119871428D01*
X89000000Y-119966666D01*
D11*
X70628571Y-55357142D02*
X70628571Y-52357142D01*
X71628571Y-54500000D01*
X72628571Y-52357142D01*
X72628571Y-55357142D01*
X73914285Y-54500000D02*
X75342857Y-54500000D01*
X73628571Y-55357142D02*
X74628571Y-52357142D01*
X75628571Y-55357142D01*
X76342857Y-52357142D02*
X78342857Y-55357142D01*
X78342857Y-52357142D02*
X76342857Y-55357142D01*
X83057142Y-53357142D02*
X83057142Y-55357142D01*
X82342857Y-52214285D02*
X81628571Y-54357142D01*
X83485714Y-54357142D01*
X84485714Y-54500000D02*
X85914285Y-54500000D01*
X84200000Y-55357142D02*
X85200000Y-52357142D01*
X86200000Y-55357142D01*
D12*
X69952380Y-37452380D02*
X69380952Y-37452380D01*
X69666666Y-37452380D02*
X69666666Y-36452380D01*
X69571428Y-36595238D01*
X69476190Y-36690476D01*
X69380952Y-36738095D01*
X70333333Y-36547619D02*
X70380952Y-36500000D01*
X70476190Y-36452380D01*
X70714285Y-36452380D01*
X70809523Y-36500000D01*
X70857142Y-36547619D01*
X70904761Y-36642857D01*
X70904761Y-36738095D01*
X70857142Y-36880952D01*
X70285714Y-37452380D01*
X70904761Y-37452380D01*
X71238095Y-36785714D02*
X71476190Y-37452380D01*
X71714285Y-36785714D01*
X72047619Y-37404761D02*
X72190476Y-37452380D01*
X72428571Y-37452380D01*
X72523809Y-37404761D01*
X72571428Y-37357142D01*
X72619047Y-37261904D01*
X72619047Y-37166666D01*
X72571428Y-37071428D01*
X72523809Y-37023809D01*
X72428571Y-36976190D01*
X72238095Y-36928571D01*
X72142857Y-36880952D01*
X72095238Y-36833333D01*
X72047619Y-36738095D01*
X72047619Y-36642857D01*
X72095238Y-36547619D01*
X72142857Y-36500000D01*
X72238095Y-36452380D01*
X72476190Y-36452380D01*
X72619047Y-36500000D01*
X156428571Y-101452380D02*
X155857142Y-101452380D01*
X156142857Y-101452380D02*
X156142857Y-100452380D01*
X156047619Y-100595238D01*
X155952380Y-100690476D01*
X155857142Y-100738095D01*
X156809523Y-100547619D02*
X156857142Y-100500000D01*
X156952380Y-100452380D01*
X157190476Y-100452380D01*
X157285714Y-100500000D01*
X157333333Y-100547619D01*
X157380952Y-100642857D01*
X157380952Y-100738095D01*
X157333333Y-100880952D01*
X156761904Y-101452380D01*
X157380952Y-101452380D01*
X157714285Y-100785714D02*
X157952380Y-101452380D01*
X158190476Y-100785714D01*
X150857142Y-55452380D02*
X150285714Y-55452380D01*
X150571428Y-55452380D02*
X150571428Y-54452380D01*
X150476190Y-54595238D01*
X150380952Y-54690476D01*
X150285714Y-54738095D01*
X151238095Y-54547619D02*
X151285714Y-54500000D01*
X151380952Y-54452380D01*
X151619047Y-54452380D01*
X151714285Y-54500000D01*
X151761904Y-54547619D01*
X151809523Y-54642857D01*
X151809523Y-54738095D01*
X151761904Y-54880952D01*
X151190476Y-55452380D01*
X151809523Y-55452380D01*
X152142857Y-54785714D02*
X152380952Y-55452380D01*
X152619047Y-54785714D01*
X153000000Y-55452380D02*
X153000000Y-54452380D01*
X153333333Y-55166666D01*
X153666666Y-54452380D01*
X153666666Y-55452380D01*
D10*
X119450000Y-45447619D02*
X119359523Y-45628571D01*
X119359523Y-45900000D01*
X119450000Y-46171428D01*
X119630952Y-46352380D01*
X119811904Y-46442857D01*
X120173809Y-46533333D01*
X120445238Y-46533333D01*
X120807142Y-46442857D01*
X120988095Y-46352380D01*
X121169047Y-46171428D01*
X121259523Y-45900000D01*
X121259523Y-45719047D01*
X121169047Y-45447619D01*
X121078571Y-45357142D01*
X120445238Y-45357142D01*
X120445238Y-45719047D01*
X121259523Y-44542857D02*
X119359523Y-44542857D01*
X121259523Y-43457142D01*
X119359523Y-43457142D01*
X121259523Y-42552380D02*
X119359523Y-42552380D01*
X119359523Y-42100000D01*
X119450000Y-41828571D01*
X119630952Y-41647619D01*
X119811904Y-41557142D01*
X120173809Y-41466666D01*
X120445238Y-41466666D01*
X120807142Y-41557142D01*
X120988095Y-41647619D01*
X121169047Y-41828571D01*
X121259523Y-42100000D01*
X121259523Y-42552380D01*
X124228571Y-44588095D02*
X124319047Y-44678571D01*
X124409523Y-44950000D01*
X124409523Y-45130952D01*
X124319047Y-45402380D01*
X124138095Y-45583333D01*
X123957142Y-45673809D01*
X123595238Y-45764285D01*
X123323809Y-45764285D01*
X122961904Y-45673809D01*
X122780952Y-45583333D01*
X122600000Y-45402380D01*
X122509523Y-45130952D01*
X122509523Y-44950000D01*
X122600000Y-44678571D01*
X122690476Y-44588095D01*
X123685714Y-43773809D02*
X123685714Y-42326190D01*
X127378571Y-44588095D02*
X127469047Y-44678571D01*
X127559523Y-44950000D01*
X127559523Y-45130952D01*
X127469047Y-45402380D01*
X127288095Y-45583333D01*
X127107142Y-45673809D01*
X126745238Y-45764285D01*
X126473809Y-45764285D01*
X126111904Y-45673809D01*
X125930952Y-45583333D01*
X125750000Y-45402380D01*
X125659523Y-45130952D01*
X125659523Y-44950000D01*
X125750000Y-44678571D01*
X125840476Y-44588095D01*
X126835714Y-43773809D02*
X126835714Y-42326190D01*
X127559523Y-43050000D02*
X126111904Y-43050000D01*
X128900000Y-45447619D02*
X128809523Y-45628571D01*
X128809523Y-45900000D01*
X128900000Y-46171428D01*
X129080952Y-46352380D01*
X129261904Y-46442857D01*
X129623809Y-46533333D01*
X129895238Y-46533333D01*
X130257142Y-46442857D01*
X130438095Y-46352380D01*
X130619047Y-46171428D01*
X130709523Y-45900000D01*
X130709523Y-45719047D01*
X130619047Y-45447619D01*
X130528571Y-45357142D01*
X129895238Y-45357142D01*
X129895238Y-45719047D01*
X130709523Y-44542857D02*
X128809523Y-44542857D01*
X130709523Y-43457142D01*
X128809523Y-43457142D01*
X130709523Y-42552380D02*
X128809523Y-42552380D01*
X128809523Y-42100000D01*
X128900000Y-41828571D01*
X129080952Y-41647619D01*
X129261904Y-41557142D01*
X129623809Y-41466666D01*
X129895238Y-41466666D01*
X130257142Y-41557142D01*
X130438095Y-41647619D01*
X130619047Y-41828571D01*
X130709523Y-42100000D01*
X130709523Y-42552380D01*
X133859523Y-45492857D02*
X131959523Y-45492857D01*
X133859523Y-44407142D01*
X131959523Y-44407142D01*
X133678571Y-42416666D02*
X133769047Y-42507142D01*
X133859523Y-42778571D01*
X133859523Y-42959523D01*
X133769047Y-43230952D01*
X133588095Y-43411904D01*
X133407142Y-43502380D01*
X133045238Y-43592857D01*
X132773809Y-43592857D01*
X132411904Y-43502380D01*
X132230952Y-43411904D01*
X132050000Y-43230952D01*
X131959523Y-42959523D01*
X131959523Y-42778571D01*
X132050000Y-42507142D01*
X132140476Y-42416666D01*
X137009523Y-45492857D02*
X135109523Y-45492857D01*
X137009523Y-44407142D01*
X135109523Y-44407142D01*
X136828571Y-42416666D02*
X136919047Y-42507142D01*
X137009523Y-42778571D01*
X137009523Y-42959523D01*
X136919047Y-43230952D01*
X136738095Y-43411904D01*
X136557142Y-43502380D01*
X136195238Y-43592857D01*
X135923809Y-43592857D01*
X135561904Y-43502380D01*
X135380952Y-43411904D01*
X135200000Y-43230952D01*
X135109523Y-42959523D01*
X135109523Y-42778571D01*
X135200000Y-42507142D01*
X135290476Y-42416666D01*
X138350000Y-45447619D02*
X138259523Y-45628571D01*
X138259523Y-45900000D01*
X138350000Y-46171428D01*
X138530952Y-46352380D01*
X138711904Y-46442857D01*
X139073809Y-46533333D01*
X139345238Y-46533333D01*
X139707142Y-46442857D01*
X139888095Y-46352380D01*
X140069047Y-46171428D01*
X140159523Y-45900000D01*
X140159523Y-45719047D01*
X140069047Y-45447619D01*
X139978571Y-45357142D01*
X139345238Y-45357142D01*
X139345238Y-45719047D01*
X140159523Y-44542857D02*
X138259523Y-44542857D01*
X140159523Y-43457142D01*
X138259523Y-43457142D01*
X140159523Y-42552380D02*
X138259523Y-42552380D01*
X138259523Y-42100000D01*
X138350000Y-41828571D01*
X138530952Y-41647619D01*
X138711904Y-41557142D01*
X139073809Y-41466666D01*
X139345238Y-41466666D01*
X139707142Y-41557142D01*
X139888095Y-41647619D01*
X140069047Y-41828571D01*
X140159523Y-42100000D01*
X140159523Y-42552380D01*
X143309523Y-45492857D02*
X141409523Y-45492857D01*
X143309523Y-44407142D01*
X141409523Y-44407142D01*
X143128571Y-42416666D02*
X143219047Y-42507142D01*
X143309523Y-42778571D01*
X143309523Y-42959523D01*
X143219047Y-43230952D01*
X143038095Y-43411904D01*
X142857142Y-43502380D01*
X142495238Y-43592857D01*
X142223809Y-43592857D01*
X141861904Y-43502380D01*
X141680952Y-43411904D01*
X141500000Y-43230952D01*
X141409523Y-42959523D01*
X141409523Y-42778571D01*
X141500000Y-42507142D01*
X141590476Y-42416666D01*
X146459523Y-45085714D02*
X146459523Y-46171428D01*
X146459523Y-45628571D02*
X144559523Y-45628571D01*
X144830952Y-45809523D01*
X145011904Y-45990476D01*
X145102380Y-46171428D01*
X144740476Y-44361904D02*
X144650000Y-44271428D01*
X144559523Y-44090476D01*
X144559523Y-43638095D01*
X144650000Y-43457142D01*
X144740476Y-43366666D01*
X144921428Y-43276190D01*
X145102380Y-43276190D01*
X145373809Y-43366666D01*
X146459523Y-44452380D01*
X146459523Y-43276190D01*
X145192857Y-42642857D02*
X146459523Y-42190476D01*
X145192857Y-41738095D01*
X119450000Y-118247619D02*
X119359523Y-118428571D01*
X119359523Y-118700000D01*
X119450000Y-118971428D01*
X119630952Y-119152380D01*
X119811904Y-119242857D01*
X120173809Y-119333333D01*
X120445238Y-119333333D01*
X120807142Y-119242857D01*
X120988095Y-119152380D01*
X121169047Y-118971428D01*
X121259523Y-118700000D01*
X121259523Y-118519047D01*
X121169047Y-118247619D01*
X121078571Y-118157142D01*
X120445238Y-118157142D01*
X120445238Y-118519047D01*
X121259523Y-117342857D02*
X119359523Y-117342857D01*
X121259523Y-116257142D01*
X119359523Y-116257142D01*
X121259523Y-115352380D02*
X119359523Y-115352380D01*
X119359523Y-114900000D01*
X119450000Y-114628571D01*
X119630952Y-114447619D01*
X119811904Y-114357142D01*
X120173809Y-114266666D01*
X120445238Y-114266666D01*
X120807142Y-114357142D01*
X120988095Y-114447619D01*
X121169047Y-114628571D01*
X121259523Y-114900000D01*
X121259523Y-115352380D01*
X124228571Y-117388095D02*
X124319047Y-117478571D01*
X124409523Y-117750000D01*
X124409523Y-117930952D01*
X124319047Y-118202380D01*
X124138095Y-118383333D01*
X123957142Y-118473809D01*
X123595238Y-118564285D01*
X123323809Y-118564285D01*
X122961904Y-118473809D01*
X122780952Y-118383333D01*
X122600000Y-118202380D01*
X122509523Y-117930952D01*
X122509523Y-117750000D01*
X122600000Y-117478571D01*
X122690476Y-117388095D01*
X123685714Y-116573809D02*
X123685714Y-115126190D01*
X127378571Y-117388095D02*
X127469047Y-117478571D01*
X127559523Y-117750000D01*
X127559523Y-117930952D01*
X127469047Y-118202380D01*
X127288095Y-118383333D01*
X127107142Y-118473809D01*
X126745238Y-118564285D01*
X126473809Y-118564285D01*
X126111904Y-118473809D01*
X125930952Y-118383333D01*
X125750000Y-118202380D01*
X125659523Y-117930952D01*
X125659523Y-117750000D01*
X125750000Y-117478571D01*
X125840476Y-117388095D01*
X126835714Y-116573809D02*
X126835714Y-115126190D01*
X127559523Y-115850000D02*
X126111904Y-115850000D01*
X128900000Y-118247619D02*
X128809523Y-118428571D01*
X128809523Y-118700000D01*
X128900000Y-118971428D01*
X129080952Y-119152380D01*
X129261904Y-119242857D01*
X129623809Y-119333333D01*
X129895238Y-119333333D01*
X130257142Y-119242857D01*
X130438095Y-119152380D01*
X130619047Y-118971428D01*
X130709523Y-118700000D01*
X130709523Y-118519047D01*
X130619047Y-118247619D01*
X130528571Y-118157142D01*
X129895238Y-118157142D01*
X129895238Y-118519047D01*
X130709523Y-117342857D02*
X128809523Y-117342857D01*
X130709523Y-116257142D01*
X128809523Y-116257142D01*
X130709523Y-115352380D02*
X128809523Y-115352380D01*
X128809523Y-114900000D01*
X128900000Y-114628571D01*
X129080952Y-114447619D01*
X129261904Y-114357142D01*
X129623809Y-114266666D01*
X129895238Y-114266666D01*
X130257142Y-114357142D01*
X130438095Y-114447619D01*
X130619047Y-114628571D01*
X130709523Y-114900000D01*
X130709523Y-115352380D01*
X133859523Y-118292857D02*
X131959523Y-118292857D01*
X133859523Y-117207142D01*
X131959523Y-117207142D01*
X133678571Y-115216666D02*
X133769047Y-115307142D01*
X133859523Y-115578571D01*
X133859523Y-115759523D01*
X133769047Y-116030952D01*
X133588095Y-116211904D01*
X133407142Y-116302380D01*
X133045238Y-116392857D01*
X132773809Y-116392857D01*
X132411904Y-116302380D01*
X132230952Y-116211904D01*
X132050000Y-116030952D01*
X131959523Y-115759523D01*
X131959523Y-115578571D01*
X132050000Y-115307142D01*
X132140476Y-115216666D01*
X137009523Y-118292857D02*
X135109523Y-118292857D01*
X137009523Y-117207142D01*
X135109523Y-117207142D01*
X136828571Y-115216666D02*
X136919047Y-115307142D01*
X137009523Y-115578571D01*
X137009523Y-115759523D01*
X136919047Y-116030952D01*
X136738095Y-116211904D01*
X136557142Y-116302380D01*
X136195238Y-116392857D01*
X135923809Y-116392857D01*
X135561904Y-116302380D01*
X135380952Y-116211904D01*
X135200000Y-116030952D01*
X135109523Y-115759523D01*
X135109523Y-115578571D01*
X135200000Y-115307142D01*
X135290476Y-115216666D01*
X138350000Y-118247619D02*
X138259523Y-118428571D01*
X138259523Y-118700000D01*
X138350000Y-118971428D01*
X138530952Y-119152380D01*
X138711904Y-119242857D01*
X139073809Y-119333333D01*
X139345238Y-119333333D01*
X139707142Y-119242857D01*
X139888095Y-119152380D01*
X140069047Y-118971428D01*
X140159523Y-118700000D01*
X140159523Y-118519047D01*
X140069047Y-118247619D01*
X139978571Y-118157142D01*
X139345238Y-118157142D01*
X139345238Y-118519047D01*
X140159523Y-117342857D02*
X138259523Y-117342857D01*
X140159523Y-116257142D01*
X138259523Y-116257142D01*
X140159523Y-115352380D02*
X138259523Y-115352380D01*
X138259523Y-114900000D01*
X138350000Y-114628571D01*
X138530952Y-114447619D01*
X138711904Y-114357142D01*
X139073809Y-114266666D01*
X139345238Y-114266666D01*
X139707142Y-114357142D01*
X139888095Y-114447619D01*
X140069047Y-114628571D01*
X140159523Y-114900000D01*
X140159523Y-115352380D01*
X143309523Y-118292857D02*
X141409523Y-118292857D01*
X143309523Y-117207142D01*
X141409523Y-117207142D01*
X143128571Y-115216666D02*
X143219047Y-115307142D01*
X143309523Y-115578571D01*
X143309523Y-115759523D01*
X143219047Y-116030952D01*
X143038095Y-116211904D01*
X142857142Y-116302380D01*
X142495238Y-116392857D01*
X142223809Y-116392857D01*
X141861904Y-116302380D01*
X141680952Y-116211904D01*
X141500000Y-116030952D01*
X141409523Y-115759523D01*
X141409523Y-115578571D01*
X141500000Y-115307142D01*
X141590476Y-115216666D01*
X146459523Y-117885714D02*
X146459523Y-118971428D01*
X146459523Y-118428571D02*
X144559523Y-118428571D01*
X144830952Y-118609523D01*
X145011904Y-118790476D01*
X145102380Y-118971428D01*
X144740476Y-117161904D02*
X144650000Y-117071428D01*
X144559523Y-116890476D01*
X144559523Y-116438095D01*
X144650000Y-116257142D01*
X144740476Y-116166666D01*
X144921428Y-116076190D01*
X145102380Y-116076190D01*
X145373809Y-116166666D01*
X146459523Y-117252380D01*
X146459523Y-116076190D01*
X145192857Y-115442857D02*
X146459523Y-114990476D01*
X145192857Y-114538095D01*
D12*
X73738095Y-38033333D02*
X73690476Y-37985714D01*
X73595238Y-37842857D01*
X73547619Y-37747619D01*
X73500000Y-37604761D01*
X73452380Y-37366666D01*
X73452380Y-37176190D01*
X73500000Y-36938095D01*
X73547619Y-36795238D01*
X73595238Y-36700000D01*
X73690476Y-36557142D01*
X73738095Y-36509523D01*
X74119047Y-37271428D02*
X74880952Y-37271428D01*
X75261904Y-38033333D02*
X75309523Y-37985714D01*
X75404761Y-37842857D01*
X75452380Y-37747619D01*
X75500000Y-37604761D01*
X75547619Y-37366666D01*
X75547619Y-37176190D01*
X75500000Y-36938095D01*
X75452380Y-36795238D01*
X75404761Y-36700000D01*
X75309523Y-36557142D01*
X75261904Y-36509523D01*
X87738095Y-38033333D02*
X87690476Y-37985714D01*
X87595238Y-37842857D01*
X87547619Y-37747619D01*
X87500000Y-37604761D01*
X87452380Y-37366666D01*
X87452380Y-37176190D01*
X87500000Y-36938095D01*
X87547619Y-36795238D01*
X87595238Y-36700000D01*
X87690476Y-36557142D01*
X87738095Y-36509523D01*
X88119047Y-37271428D02*
X88880952Y-37271428D01*
X88500000Y-37652380D02*
X88500000Y-36890476D01*
X89261904Y-38033333D02*
X89309523Y-37985714D01*
X89404761Y-37842857D01*
X89452380Y-37747619D01*
X89500000Y-37604761D01*
X89547619Y-37366666D01*
X89547619Y-37176190D01*
X89500000Y-36938095D01*
X89452380Y-36795238D01*
X89404761Y-36700000D01*
X89309523Y-36557142D01*
X89261904Y-36509523D01*
D13*
G36*
X85000000Y-104000000D02*
G01*
X60000000Y-104000000D01*
X60000000Y-102000000D01*
X83000000Y-102000000D01*
X83000000Y-60000000D01*
X60000000Y-60000000D01*
X60000000Y-58000000D01*
X85000000Y-58000000D01*
X85000000Y-104000000D01*
G37*
X85000000Y-104000000D02*
X60000000Y-104000000D01*
X60000000Y-102000000D01*
X83000000Y-102000000D01*
X83000000Y-60000000D01*
X60000000Y-60000000D01*
X60000000Y-58000000D01*
X85000000Y-58000000D01*
X85000000Y-104000000D01*
D12*
X63238095Y-42333333D02*
X63190476Y-42285714D01*
X63095238Y-42142857D01*
X63047619Y-42047619D01*
X63000000Y-41904761D01*
X62952380Y-41666666D01*
X62952380Y-41476190D01*
X63000000Y-41238095D01*
X63047619Y-41095238D01*
X63095238Y-41000000D01*
X63190476Y-40857142D01*
X63238095Y-40809523D01*
X63619047Y-41571428D02*
X64380952Y-41571428D01*
X64000000Y-41952380D02*
X64000000Y-41190476D01*
X64761904Y-42333333D02*
X64809523Y-42285714D01*
X64904761Y-42142857D01*
X64952380Y-42047619D01*
X65000000Y-41904761D01*
X65047619Y-41666666D01*
X65047619Y-41476190D01*
X65000000Y-41238095D01*
X64952380Y-41095238D01*
X64904761Y-41000000D01*
X64809523Y-40857142D01*
X64761904Y-40809523D01*
X63238095Y-56833333D02*
X63190476Y-56785714D01*
X63095238Y-56642857D01*
X63047619Y-56547619D01*
X63000000Y-56404761D01*
X62952380Y-56166666D01*
X62952380Y-55976190D01*
X63000000Y-55738095D01*
X63047619Y-55595238D01*
X63095238Y-55500000D01*
X63190476Y-55357142D01*
X63238095Y-55309523D01*
X63619047Y-56071428D02*
X64380952Y-56071428D01*
X64761904Y-56833333D02*
X64809523Y-56785714D01*
X64904761Y-56642857D01*
X64952380Y-56547619D01*
X65000000Y-56404761D01*
X65047619Y-56166666D01*
X65047619Y-55976190D01*
X65000000Y-55738095D01*
X64952380Y-55595238D01*
X64904761Y-55500000D01*
X64809523Y-55357142D01*
X64761904Y-55309523D01*
X61738095Y-97833333D02*
X61690476Y-97785714D01*
X61595238Y-97642857D01*
X61547619Y-97547619D01*
X61500000Y-97404761D01*
X61452380Y-97166666D01*
X61452380Y-96976190D01*
X61500000Y-96738095D01*
X61547619Y-96595238D01*
X61595238Y-96500000D01*
X61690476Y-96357142D01*
X61738095Y-96309523D01*
X62119047Y-97071428D02*
X62880952Y-97071428D01*
X62500000Y-97452380D02*
X62500000Y-96690476D01*
X63261904Y-97833333D02*
X63309523Y-97785714D01*
X63404761Y-97642857D01*
X63452380Y-97547619D01*
X63500000Y-97404761D01*
X63547619Y-97166666D01*
X63547619Y-96976190D01*
X63500000Y-96738095D01*
X63452380Y-96595238D01*
X63404761Y-96500000D01*
X63309523Y-96357142D01*
X63261904Y-96309523D01*
X61738095Y-83333333D02*
X61690476Y-83285714D01*
X61595238Y-83142857D01*
X61547619Y-83047619D01*
X61500000Y-82904761D01*
X61452380Y-82666666D01*
X61452380Y-82476190D01*
X61500000Y-82238095D01*
X61547619Y-82095238D01*
X61595238Y-82000000D01*
X61690476Y-81857142D01*
X61738095Y-81809523D01*
X62119047Y-82571428D02*
X62880952Y-82571428D01*
X63261904Y-83333333D02*
X63309523Y-83285714D01*
X63404761Y-83142857D01*
X63452380Y-83047619D01*
X63500000Y-82904761D01*
X63547619Y-82666666D01*
X63547619Y-82476190D01*
X63500000Y-82238095D01*
X63452380Y-82095238D01*
X63404761Y-82000000D01*
X63309523Y-81857142D01*
X63261904Y-81809523D01*
X61952380Y-99952380D02*
X61952380Y-98952380D01*
X61952380Y-99428571D02*
X62523809Y-99428571D01*
X62523809Y-99952380D02*
X62523809Y-98952380D01*
X63000000Y-99952380D02*
X63000000Y-98952380D01*
X64000000Y-99000000D02*
X63904761Y-98952380D01*
X63761904Y-98952380D01*
X63619047Y-99000000D01*
X63523809Y-99095238D01*
X63476190Y-99190476D01*
X63428571Y-99380952D01*
X63428571Y-99523809D01*
X63476190Y-99714285D01*
X63523809Y-99809523D01*
X63619047Y-99904761D01*
X63761904Y-99952380D01*
X63857142Y-99952380D01*
X64000000Y-99904761D01*
X64047619Y-99857142D01*
X64047619Y-99523809D01*
X63857142Y-99523809D01*
X64476190Y-99952380D02*
X64476190Y-98952380D01*
X64476190Y-99428571D02*
X65047619Y-99428571D01*
X65047619Y-99952380D02*
X65047619Y-98952380D01*
X66142857Y-98952380D02*
X66476190Y-99952380D01*
X66809523Y-98952380D01*
X67333333Y-98952380D02*
X67523809Y-98952380D01*
X67619047Y-99000000D01*
X67714285Y-99095238D01*
X67761904Y-99285714D01*
X67761904Y-99619047D01*
X67714285Y-99809523D01*
X67619047Y-99904761D01*
X67523809Y-99952380D01*
X67333333Y-99952380D01*
X67238095Y-99904761D01*
X67142857Y-99809523D01*
X67095238Y-99619047D01*
X67095238Y-99285714D01*
X67142857Y-99095238D01*
X67238095Y-99000000D01*
X67333333Y-98952380D01*
X68666666Y-99952380D02*
X68190476Y-99952380D01*
X68190476Y-98952380D01*
X68857142Y-98952380D02*
X69428571Y-98952380D01*
X69142857Y-99952380D02*
X69142857Y-98952380D01*
X69714285Y-99666666D02*
X70190476Y-99666666D01*
X69619047Y-99952380D02*
X69952380Y-98952380D01*
X70285714Y-99952380D01*
X71142857Y-99000000D02*
X71047619Y-98952380D01*
X70904761Y-98952380D01*
X70761904Y-99000000D01*
X70666666Y-99095238D01*
X70619047Y-99190476D01*
X70571428Y-99380952D01*
X70571428Y-99523809D01*
X70619047Y-99714285D01*
X70666666Y-99809523D01*
X70761904Y-99904761D01*
X70904761Y-99952380D01*
X71000000Y-99952380D01*
X71142857Y-99904761D01*
X71190476Y-99857142D01*
X71190476Y-99523809D01*
X71000000Y-99523809D01*
X71619047Y-99428571D02*
X71952380Y-99428571D01*
X72095238Y-99952380D02*
X71619047Y-99952380D01*
X71619047Y-98952380D01*
X72095238Y-98952380D01*
D14*
X111540000Y-102200000D02*
X111540000Y-108950000D01*
X131350000Y-102200000D02*
X111540000Y-102200000D01*
X131350000Y-108950000D02*
X131350000Y-102200000D01*
X131350000Y-108950000D02*
X111540000Y-108950000D01*
X142500000Y-80260000D02*
X149250000Y-80260000D01*
X142500000Y-60450000D02*
X142500000Y-80260000D01*
X149250000Y-60450000D02*
X142500000Y-60450000D01*
X149250000Y-60450000D02*
X149250000Y-80260000D01*
X69240000Y-42700000D02*
X69240000Y-49450000D01*
X89050000Y-42700000D02*
X69240000Y-42700000D01*
X89050000Y-49450000D02*
X89050000Y-42700000D01*
X89050000Y-49450000D02*
X69240000Y-49450000D01*
X67700000Y-97060000D02*
X74450000Y-97060000D01*
X67700000Y-77250000D02*
X67700000Y-97060000D01*
X74450000Y-77250000D02*
X67700000Y-77250000D01*
X74450000Y-77250000D02*
X74450000Y-97060000D01*
X111440000Y-40924721D02*
X111440000Y-41250279D01*
X112460000Y-40924721D02*
X112460000Y-41250279D01*
X119675279Y-58540000D02*
X119349721Y-58540000D01*
X119675279Y-59560000D02*
X119349721Y-59560000D01*
D12*
X105775000Y-39100000D02*
X104525000Y-39100000D01*
X105775000Y-42275000D02*
X109125000Y-42275000D01*
X105775000Y-38925000D02*
X109125000Y-38925000D01*
X105775000Y-42275000D02*
X105775000Y-42025000D01*
X109125000Y-42275000D02*
X109125000Y-42025000D01*
X109125000Y-38925000D02*
X109125000Y-39175000D01*
X105775000Y-38925000D02*
X105775000Y-39100000D01*
X121500000Y-53075000D02*
X121500000Y-51825000D01*
X118325000Y-53075000D02*
X118325000Y-56425000D01*
X121675000Y-53075000D02*
X121675000Y-56425000D01*
X118325000Y-53075000D02*
X118575000Y-53075000D01*
X118325000Y-56425000D02*
X118575000Y-56425000D01*
X121675000Y-56425000D02*
X121425000Y-56425000D01*
X121675000Y-53075000D02*
X121500000Y-53075000D01*
D14*
X110999721Y-38360000D02*
X111325279Y-38360000D01*
X110999721Y-37340000D02*
X111325279Y-37340000D01*
X122490000Y-57574721D02*
X122490000Y-57900279D01*
X123510000Y-57574721D02*
X123510000Y-57900279D01*
X60500000Y-77392082D02*
X61750000Y-77392082D01*
X61125000Y-78017082D02*
X61125000Y-76767082D01*
X64383000Y-64839000D02*
X65017000Y-64839000D01*
X63943000Y-64879000D02*
X65457000Y-64879000D01*
X63672000Y-64919000D02*
X65728000Y-64919000D01*
X63459000Y-64959000D02*
X65941000Y-64959000D01*
X63278000Y-64999000D02*
X66122000Y-64999000D01*
X63117000Y-65039000D02*
X66283000Y-65039000D01*
X62972000Y-65079000D02*
X66428000Y-65079000D01*
X62839000Y-65119000D02*
X66561000Y-65119000D01*
X62716000Y-65159000D02*
X66684000Y-65159000D01*
X62600000Y-65199000D02*
X66800000Y-65199000D01*
X62491000Y-65239000D02*
X66909000Y-65239000D01*
X62388000Y-65279000D02*
X67012000Y-65279000D01*
X62290000Y-65319000D02*
X67110000Y-65319000D01*
X62196000Y-65359000D02*
X67204000Y-65359000D01*
X62106000Y-65399000D02*
X67294000Y-65399000D01*
X62019000Y-65439000D02*
X67381000Y-65439000D01*
X61936000Y-65479000D02*
X67464000Y-65479000D01*
X61856000Y-65519000D02*
X67544000Y-65519000D01*
X61779000Y-65559000D02*
X67621000Y-65559000D01*
X61704000Y-65599000D02*
X67696000Y-65599000D01*
X61631000Y-65639000D02*
X67769000Y-65639000D01*
X61560000Y-65679000D02*
X67840000Y-65679000D01*
X61492000Y-65719000D02*
X67908000Y-65719000D01*
X61425000Y-65759000D02*
X67975000Y-65759000D01*
X61361000Y-65799000D02*
X68039000Y-65799000D01*
X61298000Y-65839000D02*
X68102000Y-65839000D01*
X61236000Y-65879000D02*
X68164000Y-65879000D01*
X61176000Y-65919000D02*
X68224000Y-65919000D01*
X61117000Y-65959000D02*
X68283000Y-65959000D01*
X61060000Y-65999000D02*
X68340000Y-65999000D01*
X61004000Y-66039000D02*
X68396000Y-66039000D01*
X60950000Y-66079000D02*
X68450000Y-66079000D01*
X60896000Y-66119000D02*
X68504000Y-66119000D01*
X60844000Y-66159000D02*
X68556000Y-66159000D01*
X60793000Y-66199000D02*
X68607000Y-66199000D01*
X60743000Y-66239000D02*
X68657000Y-66239000D01*
X60693000Y-66279000D02*
X68707000Y-66279000D01*
X60645000Y-66319000D02*
X68755000Y-66319000D01*
X60598000Y-66359000D02*
X68802000Y-66359000D01*
X60552000Y-66399000D02*
X68848000Y-66399000D01*
X60506000Y-66439000D02*
X68894000Y-66439000D01*
X60462000Y-66479000D02*
X68938000Y-66479000D01*
X60418000Y-66519000D02*
X68982000Y-66519000D01*
X60375000Y-66559000D02*
X69025000Y-66559000D01*
X60333000Y-66599000D02*
X69067000Y-66599000D01*
X60292000Y-66639000D02*
X69108000Y-66639000D01*
X60251000Y-66679000D02*
X69149000Y-66679000D01*
X60211000Y-66719000D02*
X69189000Y-66719000D01*
X60172000Y-66759000D02*
X69228000Y-66759000D01*
X60133000Y-66799000D02*
X69267000Y-66799000D01*
X60095000Y-66839000D02*
X69305000Y-66839000D01*
X60058000Y-66879000D02*
X69342000Y-66879000D01*
X60022000Y-66919000D02*
X69378000Y-66919000D01*
X59986000Y-66959000D02*
X69414000Y-66959000D01*
X59950000Y-66999000D02*
X69450000Y-66999000D01*
X59915000Y-67039000D02*
X69485000Y-67039000D01*
X59881000Y-67079000D02*
X69519000Y-67079000D01*
X59848000Y-67119000D02*
X69552000Y-67119000D01*
X59815000Y-67159000D02*
X69585000Y-67159000D01*
X59782000Y-67199000D02*
X69618000Y-67199000D01*
X59750000Y-67239000D02*
X69650000Y-67239000D01*
X66140000Y-67279000D02*
X69682000Y-67279000D01*
X59718000Y-67279000D02*
X63260000Y-67279000D01*
X66140000Y-67319000D02*
X69712000Y-67319000D01*
X59688000Y-67319000D02*
X63260000Y-67319000D01*
X66140000Y-67359000D02*
X69743000Y-67359000D01*
X59657000Y-67359000D02*
X63260000Y-67359000D01*
X66140000Y-67399000D02*
X69773000Y-67399000D01*
X59627000Y-67399000D02*
X63260000Y-67399000D01*
X66140000Y-67439000D02*
X69802000Y-67439000D01*
X59598000Y-67439000D02*
X63260000Y-67439000D01*
X66140000Y-67479000D02*
X69831000Y-67479000D01*
X59569000Y-67479000D02*
X63260000Y-67479000D01*
X66140000Y-67519000D02*
X69860000Y-67519000D01*
X59540000Y-67519000D02*
X63260000Y-67519000D01*
X66140000Y-67559000D02*
X69888000Y-67559000D01*
X59512000Y-67559000D02*
X63260000Y-67559000D01*
X66140000Y-67599000D02*
X69916000Y-67599000D01*
X59484000Y-67599000D02*
X63260000Y-67599000D01*
X66140000Y-67639000D02*
X69943000Y-67639000D01*
X59457000Y-67639000D02*
X63260000Y-67639000D01*
X66140000Y-67679000D02*
X69970000Y-67679000D01*
X59430000Y-67679000D02*
X63260000Y-67679000D01*
X66140000Y-67719000D02*
X69996000Y-67719000D01*
X59404000Y-67719000D02*
X63260000Y-67719000D01*
X66140000Y-67759000D02*
X70022000Y-67759000D01*
X59378000Y-67759000D02*
X63260000Y-67759000D01*
X66140000Y-67799000D02*
X70047000Y-67799000D01*
X59353000Y-67799000D02*
X63260000Y-67799000D01*
X66140000Y-67839000D02*
X70072000Y-67839000D01*
X59328000Y-67839000D02*
X63260000Y-67839000D01*
X66140000Y-67879000D02*
X70097000Y-67879000D01*
X59303000Y-67879000D02*
X63260000Y-67879000D01*
X66140000Y-67919000D02*
X70121000Y-67919000D01*
X59279000Y-67919000D02*
X63260000Y-67919000D01*
X66140000Y-67959000D02*
X70145000Y-67959000D01*
X59255000Y-67959000D02*
X63260000Y-67959000D01*
X66140000Y-67999000D02*
X70168000Y-67999000D01*
X59232000Y-67999000D02*
X63260000Y-67999000D01*
X66140000Y-68039000D02*
X70191000Y-68039000D01*
X59209000Y-68039000D02*
X63260000Y-68039000D01*
X66140000Y-68079000D02*
X70214000Y-68079000D01*
X59186000Y-68079000D02*
X63260000Y-68079000D01*
X66140000Y-68119000D02*
X70236000Y-68119000D01*
X59164000Y-68119000D02*
X63260000Y-68119000D01*
X66140000Y-68159000D02*
X70258000Y-68159000D01*
X59142000Y-68159000D02*
X63260000Y-68159000D01*
X66140000Y-68199000D02*
X70280000Y-68199000D01*
X59120000Y-68199000D02*
X63260000Y-68199000D01*
X66140000Y-68239000D02*
X70301000Y-68239000D01*
X59099000Y-68239000D02*
X63260000Y-68239000D01*
X66140000Y-68279000D02*
X70322000Y-68279000D01*
X59078000Y-68279000D02*
X63260000Y-68279000D01*
X66140000Y-68319000D02*
X70342000Y-68319000D01*
X59058000Y-68319000D02*
X63260000Y-68319000D01*
X66140000Y-68359000D02*
X70362000Y-68359000D01*
X59038000Y-68359000D02*
X63260000Y-68359000D01*
X66140000Y-68399000D02*
X70382000Y-68399000D01*
X59018000Y-68399000D02*
X63260000Y-68399000D01*
X66140000Y-68439000D02*
X70402000Y-68439000D01*
X58998000Y-68439000D02*
X63260000Y-68439000D01*
X66140000Y-68479000D02*
X70421000Y-68479000D01*
X58979000Y-68479000D02*
X63260000Y-68479000D01*
X66140000Y-68519000D02*
X70439000Y-68519000D01*
X58961000Y-68519000D02*
X63260000Y-68519000D01*
X66140000Y-68559000D02*
X70458000Y-68559000D01*
X58942000Y-68559000D02*
X63260000Y-68559000D01*
X66140000Y-68599000D02*
X70476000Y-68599000D01*
X58924000Y-68599000D02*
X63260000Y-68599000D01*
X66140000Y-68639000D02*
X70493000Y-68639000D01*
X58907000Y-68639000D02*
X63260000Y-68639000D01*
X66140000Y-68679000D02*
X70511000Y-68679000D01*
X58889000Y-68679000D02*
X63260000Y-68679000D01*
X66140000Y-68719000D02*
X70528000Y-68719000D01*
X58872000Y-68719000D02*
X63260000Y-68719000D01*
X66140000Y-68759000D02*
X70545000Y-68759000D01*
X58855000Y-68759000D02*
X63260000Y-68759000D01*
X66140000Y-68799000D02*
X70561000Y-68799000D01*
X58839000Y-68799000D02*
X63260000Y-68799000D01*
X66140000Y-68839000D02*
X70577000Y-68839000D01*
X58823000Y-68839000D02*
X63260000Y-68839000D01*
X66140000Y-68879000D02*
X70593000Y-68879000D01*
X58807000Y-68879000D02*
X63260000Y-68879000D01*
X66140000Y-68919000D02*
X70608000Y-68919000D01*
X58792000Y-68919000D02*
X63260000Y-68919000D01*
X66140000Y-68959000D02*
X70624000Y-68959000D01*
X58776000Y-68959000D02*
X63260000Y-68959000D01*
X66140000Y-68999000D02*
X70639000Y-68999000D01*
X58761000Y-68999000D02*
X63260000Y-68999000D01*
X66140000Y-69039000D02*
X70653000Y-69039000D01*
X58747000Y-69039000D02*
X63260000Y-69039000D01*
X66140000Y-69079000D02*
X70667000Y-69079000D01*
X58733000Y-69079000D02*
X63260000Y-69079000D01*
X66140000Y-69119000D02*
X70681000Y-69119000D01*
X58719000Y-69119000D02*
X63260000Y-69119000D01*
X66140000Y-69159000D02*
X70695000Y-69159000D01*
X58705000Y-69159000D02*
X63260000Y-69159000D01*
X66140000Y-69199000D02*
X70708000Y-69199000D01*
X58692000Y-69199000D02*
X63260000Y-69199000D01*
X66140000Y-69239000D02*
X70721000Y-69239000D01*
X58679000Y-69239000D02*
X63260000Y-69239000D01*
X66140000Y-69279000D02*
X70734000Y-69279000D01*
X58666000Y-69279000D02*
X63260000Y-69279000D01*
X66140000Y-69319000D02*
X70747000Y-69319000D01*
X58653000Y-69319000D02*
X63260000Y-69319000D01*
X66140000Y-69359000D02*
X70759000Y-69359000D01*
X58641000Y-69359000D02*
X63260000Y-69359000D01*
X66140000Y-69399000D02*
X70771000Y-69399000D01*
X58629000Y-69399000D02*
X63260000Y-69399000D01*
X66140000Y-69439000D02*
X70783000Y-69439000D01*
X58617000Y-69439000D02*
X63260000Y-69439000D01*
X66140000Y-69479000D02*
X70794000Y-69479000D01*
X58606000Y-69479000D02*
X63260000Y-69479000D01*
X66140000Y-69519000D02*
X70805000Y-69519000D01*
X58595000Y-69519000D02*
X63260000Y-69519000D01*
X66140000Y-69559000D02*
X70816000Y-69559000D01*
X58584000Y-69559000D02*
X63260000Y-69559000D01*
X66140000Y-69599000D02*
X70826000Y-69599000D01*
X58574000Y-69599000D02*
X63260000Y-69599000D01*
X66140000Y-69639000D02*
X70837000Y-69639000D01*
X58563000Y-69639000D02*
X63260000Y-69639000D01*
X66140000Y-69679000D02*
X70846000Y-69679000D01*
X58554000Y-69679000D02*
X63260000Y-69679000D01*
X66140000Y-69719000D02*
X70856000Y-69719000D01*
X58544000Y-69719000D02*
X63260000Y-69719000D01*
X66140000Y-69759000D02*
X70866000Y-69759000D01*
X58534000Y-69759000D02*
X63260000Y-69759000D01*
X66140000Y-69799000D02*
X70875000Y-69799000D01*
X58525000Y-69799000D02*
X63260000Y-69799000D01*
X66140000Y-69839000D02*
X70884000Y-69839000D01*
X58516000Y-69839000D02*
X63260000Y-69839000D01*
X66140000Y-69879000D02*
X70892000Y-69879000D01*
X58508000Y-69879000D02*
X63260000Y-69879000D01*
X66140000Y-69919000D02*
X70901000Y-69919000D01*
X58499000Y-69919000D02*
X63260000Y-69919000D01*
X66140000Y-69959000D02*
X70909000Y-69959000D01*
X58491000Y-69959000D02*
X63260000Y-69959000D01*
X66140000Y-69999000D02*
X70916000Y-69999000D01*
X58484000Y-69999000D02*
X63260000Y-69999000D01*
X66140000Y-70039000D02*
X70924000Y-70039000D01*
X58476000Y-70039000D02*
X63260000Y-70039000D01*
X66140000Y-70079000D02*
X70931000Y-70079000D01*
X58469000Y-70079000D02*
X63260000Y-70079000D01*
X66140000Y-70119000D02*
X70938000Y-70119000D01*
X58462000Y-70119000D02*
X63260000Y-70119000D01*
X58455000Y-70159000D02*
X70945000Y-70159000D01*
X58448000Y-70199000D02*
X70952000Y-70199000D01*
X58442000Y-70239000D02*
X70958000Y-70239000D01*
X58436000Y-70279000D02*
X70964000Y-70279000D01*
X58431000Y-70319000D02*
X70969000Y-70319000D01*
X58425000Y-70359000D02*
X70975000Y-70359000D01*
X58420000Y-70399000D02*
X70980000Y-70399000D01*
X58415000Y-70439000D02*
X70985000Y-70439000D01*
X58410000Y-70479000D02*
X70990000Y-70479000D01*
X58406000Y-70520000D02*
X70994000Y-70520000D01*
X58402000Y-70560000D02*
X70998000Y-70560000D01*
X58398000Y-70600000D02*
X71002000Y-70600000D01*
X58394000Y-70640000D02*
X71006000Y-70640000D01*
X58391000Y-70680000D02*
X71009000Y-70680000D01*
X58388000Y-70720000D02*
X71012000Y-70720000D01*
X58385000Y-70760000D02*
X71015000Y-70760000D01*
X58382000Y-70800000D02*
X71018000Y-70800000D01*
X58380000Y-70840000D02*
X71020000Y-70840000D01*
X58378000Y-70880000D02*
X71022000Y-70880000D01*
X58376000Y-70920000D02*
X71024000Y-70920000D01*
X58374000Y-70960000D02*
X71026000Y-70960000D01*
X58373000Y-71000000D02*
X71027000Y-71000000D01*
X58372000Y-71040000D02*
X71028000Y-71040000D01*
X58371000Y-71080000D02*
X71029000Y-71080000D01*
X58370000Y-71120000D02*
X71030000Y-71120000D01*
X58370000Y-71160000D02*
X71030000Y-71160000D01*
X58370000Y-71200000D02*
X71030000Y-71200000D01*
X71070000Y-71200000D02*
G75*
G03X71070000Y-71200000I-6370000J0D01*
G01*
X102930000Y-50180000D02*
X101830000Y-50180000D01*
X102930000Y-50450000D02*
X102930000Y-50180000D01*
X104430000Y-50450000D02*
X102930000Y-50450000D01*
X102930000Y-43820000D02*
X100100000Y-43820000D01*
X102930000Y-43550000D02*
X102930000Y-43820000D01*
X104430000Y-43550000D02*
X102930000Y-43550000D01*
X112295000Y-51645000D02*
X113395000Y-51645000D01*
X112295000Y-51375000D02*
X112295000Y-51645000D01*
X110795000Y-51375000D02*
X112295000Y-51375000D01*
X112295000Y-58005000D02*
X115125000Y-58005000D01*
X112295000Y-58275000D02*
X112295000Y-58005000D01*
X110795000Y-58275000D02*
X112295000Y-58275000D01*
X108425000Y-109085000D02*
X108425000Y-107835000D01*
X109050000Y-108460000D02*
X107800000Y-108460000D01*
X107560000Y-101504437D02*
X106495563Y-100440000D01*
X107560000Y-109895563D02*
X106495563Y-110960000D01*
X107560000Y-109895563D02*
X107560000Y-107210000D01*
X107560000Y-101504437D02*
X107560000Y-104190000D01*
X106495563Y-100440000D02*
X97040000Y-100440000D01*
X106495563Y-110960000D02*
X97040000Y-110960000D01*
X97040000Y-110960000D02*
X97040000Y-107210000D01*
X97040000Y-100440000D02*
X97040000Y-104190000D01*
X155420000Y-49885000D02*
X155420000Y-49905000D01*
X155920000Y-49885000D02*
X155420000Y-49885000D01*
X155920000Y-56915000D02*
X155920000Y-49885000D01*
X155420000Y-56915000D02*
X155920000Y-56915000D01*
X155420000Y-56895000D02*
X155420000Y-56915000D01*
X160010000Y-48465000D02*
X156935000Y-48465000D01*
X160010000Y-58335000D02*
X160010000Y-48465000D01*
X156935000Y-58335000D02*
X160010000Y-58335000D01*
X133400000Y-99200000D02*
X75500000Y-99200000D01*
X133400000Y-62400000D02*
X133400000Y-99200000D01*
X75500000Y-62400000D02*
X133400000Y-62400000D01*
X75500000Y-99200000D02*
X75500000Y-62400000D01*
X140230000Y-86745000D02*
X135160000Y-86745000D01*
X140230000Y-76975000D02*
X135160000Y-76975000D01*
X135160000Y-76975000D02*
X135160000Y-86745000D01*
X140230000Y-76975000D02*
X140230000Y-86745000D01*
X77985000Y-39780000D02*
X78005000Y-39780000D01*
X77985000Y-39280000D02*
X77985000Y-39780000D01*
X85015000Y-39280000D02*
X77985000Y-39280000D01*
X85015000Y-39780000D02*
X85015000Y-39280000D01*
X84995000Y-39780000D02*
X85015000Y-39780000D01*
X76565000Y-35190000D02*
X76565000Y-38265000D01*
X86435000Y-35190000D02*
X76565000Y-35190000D01*
X86435000Y-38265000D02*
X86435000Y-35190000D01*
X155320000Y-103685000D02*
X155320000Y-103705000D01*
X155820000Y-103685000D02*
X155320000Y-103685000D01*
X155820000Y-110715000D02*
X155820000Y-103685000D01*
X155320000Y-110715000D02*
X155820000Y-110715000D01*
X155320000Y-110695000D02*
X155320000Y-110715000D01*
X159910000Y-102265000D02*
X156835000Y-102265000D01*
X159910000Y-112135000D02*
X159910000Y-102265000D01*
X156835000Y-112135000D02*
X159910000Y-112135000D01*
X146515000Y-120170000D02*
X146495000Y-120170000D01*
X146515000Y-120670000D02*
X146515000Y-120170000D01*
X118485000Y-120670000D02*
X146515000Y-120670000D01*
X118485000Y-120170000D02*
X118485000Y-120670000D01*
X118505000Y-120170000D02*
X118485000Y-120170000D01*
X147935000Y-124760000D02*
X147935000Y-121685000D01*
X117065000Y-124760000D02*
X147935000Y-124760000D01*
X117065000Y-121685000D02*
X117065000Y-124760000D01*
X118485000Y-40080000D02*
X118505000Y-40080000D01*
X118485000Y-39580000D02*
X118485000Y-40080000D01*
X146515000Y-39580000D02*
X118485000Y-39580000D01*
X146515000Y-40080000D02*
X146515000Y-39580000D01*
X146495000Y-40080000D02*
X146515000Y-40080000D01*
X117065000Y-35490000D02*
X117065000Y-38565000D01*
X147935000Y-35490000D02*
X117065000Y-35490000D01*
X147935000Y-38565000D02*
X147935000Y-35490000D01*
X64580000Y-53015000D02*
X64580000Y-52995000D01*
X64080000Y-53015000D02*
X64580000Y-53015000D01*
X64080000Y-45985000D02*
X64080000Y-53015000D01*
X64580000Y-45985000D02*
X64080000Y-45985000D01*
X64580000Y-46005000D02*
X64580000Y-45985000D01*
X59990000Y-54435000D02*
X63065000Y-54435000D01*
X59990000Y-44565000D02*
X59990000Y-54435000D01*
X63065000Y-44565000D02*
X59990000Y-44565000D01*
X65080000Y-94015000D02*
X65080000Y-93995000D01*
X64580000Y-94015000D02*
X65080000Y-94015000D01*
X64580000Y-86985000D02*
X64580000Y-94015000D01*
X65080000Y-86985000D02*
X64580000Y-86985000D01*
X65080000Y-87005000D02*
X65080000Y-86985000D01*
X60490000Y-95435000D02*
X63565000Y-95435000D01*
X60490000Y-85565000D02*
X60490000Y-95435000D01*
X63565000Y-85565000D02*
X60490000Y-85565000D01*
X72680000Y-74060000D02*
X72680000Y-70210000D01*
X74680000Y-74060000D02*
X74680000Y-70210000D01*
X72680000Y-74060000D02*
X74680000Y-74060000D01*
X145090000Y-90641422D02*
X145090000Y-91158578D01*
X146510000Y-90641422D02*
X146510000Y-91158578D01*
D12*
X128066666Y-109778571D02*
X127733333Y-109778571D01*
X127733333Y-110302380D02*
X127733333Y-109302380D01*
X128209523Y-109302380D01*
X129019047Y-109635714D02*
X129019047Y-110302380D01*
X128780952Y-109254761D02*
X128542857Y-109969047D01*
X129161904Y-109969047D01*
X150078571Y-63733333D02*
X150078571Y-64066666D01*
X150602380Y-64066666D02*
X149602380Y-64066666D01*
X149602380Y-63590476D01*
X149602380Y-63304761D02*
X149602380Y-62685714D01*
X149983333Y-63019047D01*
X149983333Y-62876190D01*
X150030952Y-62780952D01*
X150078571Y-62733333D01*
X150173809Y-62685714D01*
X150411904Y-62685714D01*
X150507142Y-62733333D01*
X150554761Y-62780952D01*
X150602380Y-62876190D01*
X150602380Y-63161904D01*
X150554761Y-63257142D01*
X150507142Y-63304761D01*
X85766666Y-50278571D02*
X85433333Y-50278571D01*
X85433333Y-50802380D02*
X85433333Y-49802380D01*
X85909523Y-49802380D01*
X86242857Y-49897619D02*
X86290476Y-49850000D01*
X86385714Y-49802380D01*
X86623809Y-49802380D01*
X86719047Y-49850000D01*
X86766666Y-49897619D01*
X86814285Y-49992857D01*
X86814285Y-50088095D01*
X86766666Y-50230952D01*
X86195238Y-50802380D01*
X86814285Y-50802380D01*
X75278571Y-80533333D02*
X75278571Y-80866666D01*
X75802380Y-80866666D02*
X74802380Y-80866666D01*
X74802380Y-80390476D01*
X75802380Y-79485714D02*
X75802380Y-80057142D01*
X75802380Y-79771428D02*
X74802380Y-79771428D01*
X74945238Y-79866666D01*
X75040476Y-79961904D01*
X75088095Y-80057142D01*
X113533333Y-41457142D02*
X113485714Y-41504761D01*
X113342857Y-41552380D01*
X113247619Y-41552380D01*
X113104761Y-41504761D01*
X113009523Y-41409523D01*
X112961904Y-41314285D01*
X112914285Y-41123809D01*
X112914285Y-40980952D01*
X112961904Y-40790476D01*
X113009523Y-40695238D01*
X113104761Y-40600000D01*
X113247619Y-40552380D01*
X113342857Y-40552380D01*
X113485714Y-40600000D01*
X113533333Y-40647619D01*
X114390476Y-40885714D02*
X114390476Y-41552380D01*
X114152380Y-40504761D02*
X113914285Y-41219047D01*
X114533333Y-41219047D01*
X119345833Y-60837142D02*
X119298214Y-60884761D01*
X119155357Y-60932380D01*
X119060119Y-60932380D01*
X118917261Y-60884761D01*
X118822023Y-60789523D01*
X118774404Y-60694285D01*
X118726785Y-60503809D01*
X118726785Y-60360952D01*
X118774404Y-60170476D01*
X118822023Y-60075238D01*
X118917261Y-59980000D01*
X119060119Y-59932380D01*
X119155357Y-59932380D01*
X119298214Y-59980000D01*
X119345833Y-60027619D01*
X119679166Y-59932380D02*
X120298214Y-59932380D01*
X119964880Y-60313333D01*
X120107738Y-60313333D01*
X120202976Y-60360952D01*
X120250595Y-60408571D01*
X120298214Y-60503809D01*
X120298214Y-60741904D01*
X120250595Y-60837142D01*
X120202976Y-60884761D01*
X120107738Y-60932380D01*
X119822023Y-60932380D01*
X119726785Y-60884761D01*
X119679166Y-60837142D01*
X154238095Y-36252380D02*
X154238095Y-35252380D01*
X154238095Y-35728571D02*
X154809523Y-35728571D01*
X154809523Y-36252380D02*
X154809523Y-35252380D01*
X155238095Y-35347619D02*
X155285714Y-35300000D01*
X155380952Y-35252380D01*
X155619047Y-35252380D01*
X155714285Y-35300000D01*
X155761904Y-35347619D01*
X155809523Y-35442857D01*
X155809523Y-35538095D01*
X155761904Y-35680952D01*
X155190476Y-36252380D01*
X155809523Y-36252380D01*
X106688095Y-37452380D02*
X106688095Y-38261904D01*
X106735714Y-38357142D01*
X106783333Y-38404761D01*
X106878571Y-38452380D01*
X107069047Y-38452380D01*
X107164285Y-38404761D01*
X107211904Y-38357142D01*
X107259523Y-38261904D01*
X107259523Y-37452380D01*
X107640476Y-37452380D02*
X108259523Y-37452380D01*
X107926190Y-37833333D01*
X108069047Y-37833333D01*
X108164285Y-37880952D01*
X108211904Y-37928571D01*
X108259523Y-38023809D01*
X108259523Y-38261904D01*
X108211904Y-38357142D01*
X108164285Y-38404761D01*
X108069047Y-38452380D01*
X107783333Y-38452380D01*
X107688095Y-38404761D01*
X107640476Y-38357142D01*
X122052380Y-55511904D02*
X122861904Y-55511904D01*
X122957142Y-55464285D01*
X123004761Y-55416666D01*
X123052380Y-55321428D01*
X123052380Y-55130952D01*
X123004761Y-55035714D01*
X122957142Y-54988095D01*
X122861904Y-54940476D01*
X122052380Y-54940476D01*
X122147619Y-54511904D02*
X122100000Y-54464285D01*
X122052380Y-54369047D01*
X122052380Y-54130952D01*
X122100000Y-54035714D01*
X122147619Y-53988095D01*
X122242857Y-53940476D01*
X122338095Y-53940476D01*
X122480952Y-53988095D01*
X123052380Y-54559523D01*
X123052380Y-53940476D01*
X110995833Y-36872380D02*
X110662500Y-36396190D01*
X110424404Y-36872380D02*
X110424404Y-35872380D01*
X110805357Y-35872380D01*
X110900595Y-35920000D01*
X110948214Y-35967619D01*
X110995833Y-36062857D01*
X110995833Y-36205714D01*
X110948214Y-36300952D01*
X110900595Y-36348571D01*
X110805357Y-36396190D01*
X110424404Y-36396190D01*
X111376785Y-35967619D02*
X111424404Y-35920000D01*
X111519642Y-35872380D01*
X111757738Y-35872380D01*
X111852976Y-35920000D01*
X111900595Y-35967619D01*
X111948214Y-36062857D01*
X111948214Y-36158095D01*
X111900595Y-36300952D01*
X111329166Y-36872380D01*
X111948214Y-36872380D01*
X124882380Y-57904166D02*
X124406190Y-58237500D01*
X124882380Y-58475595D02*
X123882380Y-58475595D01*
X123882380Y-58094642D01*
X123930000Y-57999404D01*
X123977619Y-57951785D01*
X124072857Y-57904166D01*
X124215714Y-57904166D01*
X124310952Y-57951785D01*
X124358571Y-57999404D01*
X124406190Y-58094642D01*
X124406190Y-58475595D01*
X124882380Y-56951785D02*
X124882380Y-57523214D01*
X124882380Y-57237500D02*
X123882380Y-57237500D01*
X124025238Y-57332738D01*
X124120476Y-57427976D01*
X124168095Y-57523214D01*
X154238095Y-117452380D02*
X154238095Y-116452380D01*
X154238095Y-116928571D02*
X154809523Y-116928571D01*
X154809523Y-117452380D02*
X154809523Y-116452380D01*
X155714285Y-116785714D02*
X155714285Y-117452380D01*
X155476190Y-116404761D02*
X155238095Y-117119047D01*
X155857142Y-117119047D01*
X64238095Y-117452380D02*
X64238095Y-116452380D01*
X64238095Y-116928571D02*
X64809523Y-116928571D01*
X64809523Y-117452380D02*
X64809523Y-116452380D01*
X65190476Y-116452380D02*
X65809523Y-116452380D01*
X65476190Y-116833333D01*
X65619047Y-116833333D01*
X65714285Y-116880952D01*
X65761904Y-116928571D01*
X65809523Y-117023809D01*
X65809523Y-117261904D01*
X65761904Y-117357142D01*
X65714285Y-117404761D01*
X65619047Y-117452380D01*
X65333333Y-117452380D01*
X65238095Y-117404761D01*
X65190476Y-117357142D01*
X64238095Y-36252380D02*
X64238095Y-35252380D01*
X64238095Y-35728571D02*
X64809523Y-35728571D01*
X64809523Y-36252380D02*
X64809523Y-35252380D01*
X65809523Y-36252380D02*
X65238095Y-36252380D01*
X65523809Y-36252380D02*
X65523809Y-35252380D01*
X65428571Y-35395238D01*
X65333333Y-35490476D01*
X65238095Y-35538095D01*
X64533333Y-64257142D02*
X64485714Y-64304761D01*
X64342857Y-64352380D01*
X64247619Y-64352380D01*
X64104761Y-64304761D01*
X64009523Y-64209523D01*
X63961904Y-64114285D01*
X63914285Y-63923809D01*
X63914285Y-63780952D01*
X63961904Y-63590476D01*
X64009523Y-63495238D01*
X64104761Y-63400000D01*
X64247619Y-63352380D01*
X64342857Y-63352380D01*
X64485714Y-63400000D01*
X64533333Y-63447619D01*
X64914285Y-63447619D02*
X64961904Y-63400000D01*
X65057142Y-63352380D01*
X65295238Y-63352380D01*
X65390476Y-63400000D01*
X65438095Y-63447619D01*
X65485714Y-63542857D01*
X65485714Y-63638095D01*
X65438095Y-63780952D01*
X64866666Y-64352380D01*
X65485714Y-64352380D01*
X112404761Y-47547619D02*
X112309523Y-47500000D01*
X112214285Y-47404761D01*
X112071428Y-47261904D01*
X111976190Y-47214285D01*
X111880952Y-47214285D01*
X111928571Y-47452380D02*
X111833333Y-47404761D01*
X111738095Y-47309523D01*
X111690476Y-47119047D01*
X111690476Y-46785714D01*
X111738095Y-46595238D01*
X111833333Y-46500000D01*
X111928571Y-46452380D01*
X112119047Y-46452380D01*
X112214285Y-46500000D01*
X112309523Y-46595238D01*
X112357142Y-46785714D01*
X112357142Y-47119047D01*
X112309523Y-47309523D01*
X112214285Y-47404761D01*
X112119047Y-47452380D01*
X111928571Y-47452380D01*
X112738095Y-46547619D02*
X112785714Y-46500000D01*
X112880952Y-46452380D01*
X113119047Y-46452380D01*
X113214285Y-46500000D01*
X113261904Y-46547619D01*
X113309523Y-46642857D01*
X113309523Y-46738095D01*
X113261904Y-46880952D01*
X112690476Y-47452380D01*
X113309523Y-47452380D01*
X102829761Y-55372619D02*
X102734523Y-55325000D01*
X102639285Y-55229761D01*
X102496428Y-55086904D01*
X102401190Y-55039285D01*
X102305952Y-55039285D01*
X102353571Y-55277380D02*
X102258333Y-55229761D01*
X102163095Y-55134523D01*
X102115476Y-54944047D01*
X102115476Y-54610714D01*
X102163095Y-54420238D01*
X102258333Y-54325000D01*
X102353571Y-54277380D01*
X102544047Y-54277380D01*
X102639285Y-54325000D01*
X102734523Y-54420238D01*
X102782142Y-54610714D01*
X102782142Y-54944047D01*
X102734523Y-55134523D01*
X102639285Y-55229761D01*
X102544047Y-55277380D01*
X102353571Y-55277380D01*
X103734523Y-55277380D02*
X103163095Y-55277380D01*
X103448809Y-55277380D02*
X103448809Y-54277380D01*
X103353571Y-54420238D01*
X103258333Y-54515476D01*
X103163095Y-54563095D01*
X102133333Y-112257142D02*
X102085714Y-112304761D01*
X101942857Y-112352380D01*
X101847619Y-112352380D01*
X101704761Y-112304761D01*
X101609523Y-112209523D01*
X101561904Y-112114285D01*
X101514285Y-111923809D01*
X101514285Y-111780952D01*
X101561904Y-111590476D01*
X101609523Y-111495238D01*
X101704761Y-111400000D01*
X101847619Y-111352380D01*
X101942857Y-111352380D01*
X102085714Y-111400000D01*
X102133333Y-111447619D01*
X102704761Y-111780952D02*
X102609523Y-111733333D01*
X102561904Y-111685714D01*
X102514285Y-111590476D01*
X102514285Y-111542857D01*
X102561904Y-111447619D01*
X102609523Y-111400000D01*
X102704761Y-111352380D01*
X102895238Y-111352380D01*
X102990476Y-111400000D01*
X103038095Y-111447619D01*
X103085714Y-111542857D01*
X103085714Y-111590476D01*
X103038095Y-111685714D01*
X102990476Y-111733333D01*
X102895238Y-111780952D01*
X102704761Y-111780952D01*
X102609523Y-111828571D01*
X102561904Y-111876190D01*
X102514285Y-111971428D01*
X102514285Y-112161904D01*
X102561904Y-112257142D01*
X102609523Y-112304761D01*
X102704761Y-112352380D01*
X102895238Y-112352380D01*
X102990476Y-112304761D01*
X103038095Y-112257142D01*
X103085714Y-112161904D01*
X103085714Y-111971428D01*
X103038095Y-111876190D01*
X102990476Y-111828571D01*
X102895238Y-111780952D01*
X157666666Y-59252380D02*
X157666666Y-59966666D01*
X157619047Y-60109523D01*
X157523809Y-60204761D01*
X157380952Y-60252380D01*
X157285714Y-60252380D01*
X158571428Y-59252380D02*
X158380952Y-59252380D01*
X158285714Y-59300000D01*
X158238095Y-59347619D01*
X158142857Y-59490476D01*
X158095238Y-59680952D01*
X158095238Y-60061904D01*
X158142857Y-60157142D01*
X158190476Y-60204761D01*
X158285714Y-60252380D01*
X158476190Y-60252380D01*
X158571428Y-60204761D01*
X158619047Y-60157142D01*
X158666666Y-60061904D01*
X158666666Y-59823809D01*
X158619047Y-59728571D01*
X158571428Y-59680952D01*
X158476190Y-59633333D01*
X158285714Y-59633333D01*
X158190476Y-59680952D01*
X158142857Y-59728571D01*
X158095238Y-59823809D01*
X76688095Y-60652380D02*
X76688095Y-61461904D01*
X76735714Y-61557142D01*
X76783333Y-61604761D01*
X76878571Y-61652380D01*
X77069047Y-61652380D01*
X77164285Y-61604761D01*
X77211904Y-61557142D01*
X77259523Y-61461904D01*
X77259523Y-60652380D01*
X78259523Y-61652380D02*
X77688095Y-61652380D01*
X77973809Y-61652380D02*
X77973809Y-60652380D01*
X77878571Y-60795238D01*
X77783333Y-60890476D01*
X77688095Y-60938095D01*
X137094761Y-88112380D02*
X136761428Y-87636190D01*
X136523333Y-88112380D02*
X136523333Y-87112380D01*
X136904285Y-87112380D01*
X136999523Y-87160000D01*
X137047142Y-87207619D01*
X137094761Y-87302857D01*
X137094761Y-87445714D01*
X137047142Y-87540952D01*
X136999523Y-87588571D01*
X136904285Y-87636190D01*
X136523333Y-87636190D01*
X137380476Y-87112380D02*
X137713809Y-88112380D01*
X138047142Y-87112380D01*
X138904285Y-88112380D02*
X138332857Y-88112380D01*
X138618571Y-88112380D02*
X138618571Y-87112380D01*
X138523333Y-87255238D01*
X138428095Y-87350476D01*
X138332857Y-87398095D01*
X82666666Y-40552380D02*
X82666666Y-41266666D01*
X82619047Y-41409523D01*
X82523809Y-41504761D01*
X82380952Y-41552380D01*
X82285714Y-41552380D01*
X83047619Y-40552380D02*
X83714285Y-40552380D01*
X83285714Y-41552380D01*
X157566666Y-113152380D02*
X157566666Y-113866666D01*
X157519047Y-114009523D01*
X157423809Y-114104761D01*
X157280952Y-114152380D01*
X157185714Y-114152380D01*
X158519047Y-113152380D02*
X158042857Y-113152380D01*
X157995238Y-113628571D01*
X158042857Y-113580952D01*
X158138095Y-113533333D01*
X158376190Y-113533333D01*
X158471428Y-113580952D01*
X158519047Y-113628571D01*
X158566666Y-113723809D01*
X158566666Y-113961904D01*
X158519047Y-114057142D01*
X158471428Y-114104761D01*
X158376190Y-114152380D01*
X158138095Y-114152380D01*
X158042857Y-114104761D01*
X157995238Y-114057142D01*
X132166666Y-118532380D02*
X132166666Y-119246666D01*
X132119047Y-119389523D01*
X132023809Y-119484761D01*
X131880952Y-119532380D01*
X131785714Y-119532380D01*
X133071428Y-118865714D02*
X133071428Y-119532380D01*
X132833333Y-118484761D02*
X132595238Y-119199047D01*
X133214285Y-119199047D01*
X132166666Y-40622380D02*
X132166666Y-41336666D01*
X132119047Y-41479523D01*
X132023809Y-41574761D01*
X131880952Y-41622380D01*
X131785714Y-41622380D01*
X132547619Y-40622380D02*
X133166666Y-40622380D01*
X132833333Y-41003333D01*
X132976190Y-41003333D01*
X133071428Y-41050952D01*
X133119047Y-41098571D01*
X133166666Y-41193809D01*
X133166666Y-41431904D01*
X133119047Y-41527142D01*
X133071428Y-41574761D01*
X132976190Y-41622380D01*
X132690476Y-41622380D01*
X132595238Y-41574761D01*
X132547619Y-41527142D01*
X61666666Y-42952380D02*
X61666666Y-43666666D01*
X61619047Y-43809523D01*
X61523809Y-43904761D01*
X61380952Y-43952380D01*
X61285714Y-43952380D01*
X62095238Y-43047619D02*
X62142857Y-43000000D01*
X62238095Y-42952380D01*
X62476190Y-42952380D01*
X62571428Y-43000000D01*
X62619047Y-43047619D01*
X62666666Y-43142857D01*
X62666666Y-43238095D01*
X62619047Y-43380952D01*
X62047619Y-43952380D01*
X62666666Y-43952380D01*
X62166666Y-83952380D02*
X62166666Y-84666666D01*
X62119047Y-84809523D01*
X62023809Y-84904761D01*
X61880952Y-84952380D01*
X61785714Y-84952380D01*
X63166666Y-84952380D02*
X62595238Y-84952380D01*
X62880952Y-84952380D02*
X62880952Y-83952380D01*
X62785714Y-84095238D01*
X62690476Y-84190476D01*
X62595238Y-84238095D01*
X72941904Y-68912380D02*
X72941904Y-67912380D01*
X73180000Y-67912380D01*
X73322857Y-67960000D01*
X73418095Y-68055238D01*
X73465714Y-68150476D01*
X73513333Y-68340952D01*
X73513333Y-68483809D01*
X73465714Y-68674285D01*
X73418095Y-68769523D01*
X73322857Y-68864761D01*
X73180000Y-68912380D01*
X72941904Y-68912380D01*
X74465714Y-68912380D02*
X73894285Y-68912380D01*
X74180000Y-68912380D02*
X74180000Y-67912380D01*
X74084761Y-68055238D01*
X73989523Y-68150476D01*
X73894285Y-68198095D01*
X145633333Y-93657142D02*
X145585714Y-93704761D01*
X145442857Y-93752380D01*
X145347619Y-93752380D01*
X145204761Y-93704761D01*
X145109523Y-93609523D01*
X145061904Y-93514285D01*
X145014285Y-93323809D01*
X145014285Y-93180952D01*
X145061904Y-92990476D01*
X145109523Y-92895238D01*
X145204761Y-92800000D01*
X145347619Y-92752380D01*
X145442857Y-92752380D01*
X145585714Y-92800000D01*
X145633333Y-92847619D01*
X146585714Y-93752380D02*
X146014285Y-93752380D01*
X146300000Y-93752380D02*
X146300000Y-92752380D01*
X146204761Y-92895238D01*
X146109523Y-92990476D01*
X146014285Y-93038095D01*
M02*
